<svg xmlns="http://www.w3.org/2000/svg" xmlns:xlink="http://www.w3.org/1999/xlink" width="435" zoomAndPan="magnify" viewBox="0 0 326.25 157.5" height="210" preserveAspectRatio="xMidYMid meet" version="1.0"><defs><g/><clipPath id="e02125ae06"><path d="M 93 156 L 220 156 L 220 157 L 93 157 Z M 93 156 " clip-rule="nonzero"/></clipPath><clipPath id="92bfc4bb81"><path d="M 159 33.359375 L 163 33.359375 L 163 36 L 159 36 Z M 159 33.359375 " clip-rule="nonzero"/></clipPath><clipPath id="ed21070cc0"><path d="M 131 33.359375 L 175 33.359375 L 175 102.890625 L 131 102.890625 Z M 131 33.359375 " clip-rule="nonzero"/></clipPath><clipPath id="ae98c63466"><path d="M 130.191406 46 L 133 46 L 133 57 L 130.191406 57 Z M 130.191406 46 " clip-rule="nonzero"/></clipPath><clipPath id="23ffcd702a"><path d="M 144 48 L 190 48 L 190 102.890625 L 144 102.890625 Z M 144 48 " clip-rule="nonzero"/></clipPath></defs><path stroke-linecap="butt" transform="matrix(0.000000000000000046, 0.746366, -0.747627, 0.000000000000000046, 34.849617, 78.835509)" fill="none" stroke-linejoin="miter" d="M 0.000573517 0.498985 L 37.07606 0.498985 " stroke="#000000" stroke-width="1" stroke-opacity="1" stroke-miterlimit="4"/><path stroke-linecap="butt" transform="matrix(0.000000000000000046, 0.746366, -0.747627, 0.000000000000000046, 288.066122, 78.835509)" fill="none" stroke-linejoin="miter" d="M 0.000573517 0.501207 L 37.07606 0.501207 " stroke="#000000" stroke-width="1" stroke-opacity="1" stroke-miterlimit="4"/><path stroke-linecap="butt" transform="matrix(0.745892, 0, 0, 0.747627, 97.023241, 131.223709)" fill="none" stroke-linejoin="miter" d="M 0.00026317 0.500179 L 168.406997 0.500179 " stroke="#606060" stroke-width="1" stroke-opacity="1" stroke-miterlimit="4"/><g clip-path="url(#e02125ae06)"><path stroke-linecap="butt" transform="matrix(0.745892, 0, 0, 0.747627, 94.01784, 156.253954)" fill="none" stroke-linejoin="miter" d="M 0.00226757 0.501523 L 168.403764 0.501523 " stroke="#606060" stroke-width="1" stroke-opacity="1" stroke-miterlimit="4"/></g><g clip-path="url(#92bfc4bb81)"><path fill="#000000" d="M 160.6875 33.523438 C 161.324219 33.617188 162.386719 34.53125 161.890625 34.53125 C 161.75 34.53125 161.558594 34.414062 161.488281 34.296875 C 161.324219 34.015625 159.71875 33.992188 159.292969 34.25 C 159.128906 34.367188 159.507812 34.4375 160.167969 34.4375 C 160.992188 34.4375 161.488281 34.554688 161.84375 34.882812 C 162.503906 35.464844 163.09375 35.558594 162.8125 35.023438 C 162.339844 34.15625 161.300781 33.359375 160.6875 33.382812 L 160.074219 33.429688 Z M 162.550781 35.023438 C 162.550781 35.164062 162.457031 35.1875 162.316406 35.117188 C 162.199219 35.046875 162.078125 34.859375 162.078125 34.742188 C 162.078125 34.601562 162.199219 34.578125 162.316406 34.648438 C 162.457031 34.71875 162.550781 34.90625 162.550781 35.023438 Z M 162.550781 35.023438 " fill-opacity="1" fill-rule="nonzero"/></g><g clip-path="url(#ed21070cc0)"><path fill="#000000" d="M 159.011719 33.851562 C 158.703125 33.992188 158.089844 34.34375 157.664062 34.671875 C 157.050781 35.140625 156.722656 35.234375 156.058594 35.09375 C 153.722656 34.671875 150.464844 38.109375 148.648438 42.980469 C 148.363281 43.726562 148.222656 44.476562 148.292969 44.710938 C 148.410156 44.96875 148.363281 45.085938 148.222656 44.992188 C 148.105469 44.921875 147.867188 45.484375 147.703125 46.371094 L 147.398438 47.894531 L 146.710938 46.746094 C 145.746094 45.039062 144.421875 44.40625 143.21875 45.0625 C 142.863281 45.25 142.558594 45.0625 141.613281 44.125 C 140.789062 43.328125 140.246094 42.957031 139.820312 42.957031 C 139.085938 42.957031 137.765625 44.03125 137.058594 45.203125 C 136.703125 45.738281 136.375 45.996094 135.996094 45.996094 C 135.121094 45.996094 133.894531 47.238281 133.1875 48.804688 C 132.832031 49.578125 132.574219 50.351562 132.621094 50.492188 C 132.667969 50.632812 132.949219 50.117188 133.257812 49.320312 C 134.203125 46.722656 135.832031 45.625 137.246094 46.605469 L 137.765625 46.957031 L 137.011719 47.589844 C 135.429688 48.898438 133.871094 53.582031 133.609375 57.816406 C 133.351562 61.675781 134.484375 67.574219 135.878906 69.84375 C 136.703125 71.15625 136.207031 70.945312 135.3125 69.585938 C 134.203125 67.949219 133.1875 65.117188 132.621094 62.121094 C 132.125 59.570312 132.171875 57.324219 132.808594 54.1875 C 132.949219 53.488281 133.140625 52.621094 133.1875 52.269531 C 133.375 51.214844 134.414062 48.804688 135.003906 48.011719 C 135.570312 47.261719 135.949219 46.464844 135.734375 46.464844 C 135.429688 46.464844 133.683594 49.554688 133.257812 50.890625 C 132.5 53.277344 131.816406 58.472656 131.984375 60.273438 C 132.21875 62.449219 133.164062 65.914062 134.082031 67.878906 C 134.886719 69.609375 136.46875 71.601562 136.84375 71.367188 C 136.964844 71.296875 137.058594 71.34375 137.058594 71.484375 C 137.058594 71.601562 137.246094 71.765625 137.507812 71.859375 C 138.640625 72.207031 138.757812 77.613281 137.882812 87.046875 C 137.554688 90.53125 137.292969 94.230469 137.292969 95.285156 C 137.292969 97.34375 137.835938 100.851562 138.308594 101.882812 C 138.542969 102.445312 138.6875 102.515625 139.300781 102.375 C 140.007812 102.210938 140.007812 102.210938 139.371094 102.1875 C 138.804688 102.164062 138.710938 102.046875 138.449219 100.808594 C 138.285156 100.082031 138.121094 99.308594 138.050781 99.121094 C 138.003906 98.933594 137.929688 97.296875 137.882812 95.496094 C 137.835938 92.523438 137.929688 90.789062 138.332031 86.953125 C 139.015625 80.679688 139.300781 75.71875 138.992188 75.71875 C 138.898438 75.71875 138.828125 75.273438 138.828125 74.734375 C 138.851562 74.175781 138.78125 73.613281 138.664062 73.449219 C 138.519531 73.285156 138.496094 73.050781 138.59375 72.886719 C 138.6875 72.746094 138.617188 72.511719 138.449219 72.394531 C 138.214844 72.230469 138.285156 72.207031 138.710938 72.300781 C 139.039062 72.371094 139.679688 72.441406 140.125 72.441406 L 140.953125 72.441406 L 140.8125 75.765625 C 140.621094 79.722656 140.550781 86.132812 140.691406 85.992188 C 140.738281 85.945312 140.859375 84.308594 140.929688 82.390625 C 141.210938 74.96875 141.355469 73.144531 141.660156 73.144531 C 141.875 73.144531 141.921875 73.753906 141.875 75.414062 C 141.730469 79.535156 141.777344 85.78125 141.992188 91.75 C 142.179688 97.625 142.15625 100.410156 141.898438 101.929688 C 141.777344 102.65625 141.800781 102.703125 142.0625 102.28125 C 142.296875 101.90625 142.34375 99.121094 142.273438 89.152344 C 142.226562 82.203125 142.273438 75.648438 142.367188 74.617188 C 142.511719 72.933594 142.582031 72.699219 143.054688 72.582031 C 143.335938 72.511719 143.574219 72.277344 143.597656 72.042969 C 143.597656 71.8125 143.785156 70.828125 144.019531 69.867188 C 144.46875 67.925781 144.398438 62.894531 143.925781 61.558594 L 143.667969 60.859375 L 143.785156 61.558594 C 143.855469 61.933594 143.972656 63.480469 144.046875 64.976562 C 144.210938 67.738281 143.949219 70.101562 143.3125 71.648438 C 142.960938 72.488281 141.683594 73.121094 141.449219 72.535156 C 141.378906 72.324219 140.976562 72.207031 140.316406 72.207031 C 138.144531 72.207031 136.515625 70.757812 135.382812 67.785156 C 134.414062 65.210938 134.128906 63.363281 134.128906 59.6875 C 134.128906 56.527344 134.226562 55.898438 134.863281 53.488281 C 135.546875 50.960938 136.84375 47.871094 137.246094 47.871094 C 137.339844 47.871094 137.410156 49.625 137.410156 51.753906 C 137.410156 56.363281 137.625 57.277344 137.71875 53.066406 C 137.8125 48.6875 138.097656 47.214844 139.015625 46.277344 C 140.222656 45.039062 141.542969 45.296875 142.960938 47.050781 C 145.53125 50.257812 149.050781 61.445312 148.484375 64.695312 C 148.246094 66.125 147.445312 68.394531 146.878906 69.214844 C 145.980469 70.523438 145.910156 70.710938 146.453125 70.242188 C 147.019531 69.75 147.136719 69.960938 146.6875 70.570312 C 146.523438 70.78125 146.734375 70.59375 147.136719 70.148438 C 148.410156 68.792969 149.570312 64.929688 149.570312 62.027344 C 149.570312 60.8125 149.59375 60.789062 151.101562 59.359375 C 152.425781 58.144531 154.148438 56.996094 154.667969 56.996094 C 154.738281 56.996094 154.644531 57.253906 154.429688 57.582031 C 154.007812 58.214844 152.164062 62.285156 152.164062 62.566406 C 152.164062 62.660156 152.660156 61.839844 153.25 60.742188 C 155.140625 57.230469 156.554688 56.039062 158.277344 56.410156 C 159.625 56.691406 160.472656 58.097656 160.898438 60.742188 C 161.253906 62.988281 161.183594 64.789062 160.640625 68.511719 C 160.121094 72.183594 159.648438 74.269531 159.082031 75.367188 C 158.609375 76.257812 156.273438 78.527344 155.824219 78.527344 C 155.636719 78.527344 155.46875 78.621094 155.46875 78.738281 C 155.46875 78.855469 155.140625 79.066406 154.714844 79.207031 C 154.3125 79.347656 154.03125 79.535156 154.101562 79.605469 C 154.359375 79.859375 156.554688 78.550781 157.6875 77.449219 C 159.929688 75.296875 161.042969 71.554688 161.300781 65.28125 C 161.511719 59.96875 160.78125 57.371094 158.796875 56.203125 C 158.042969 55.78125 157.949219 55.757812 156.792969 56.132812 C 156.132812 56.339844 155.140625 56.574219 154.597656 56.667969 C 153.960938 56.738281 153.039062 57.183594 152 57.910156 C 149.59375 59.59375 149.570312 59.664062 149.332031 62.308594 C 149.027344 65.796875 148.152344 68.957031 147.277344 69.679688 C 147.066406 69.84375 146.949219 69.867188 146.996094 69.75 C 147.066406 69.609375 147.351562 69.027344 147.632812 68.441406 C 148.53125 66.546875 148.929688 64.53125 148.765625 62.730469 C 148.363281 57.957031 145.578125 50 143.335938 47.097656 L 142.464844 45.972656 L 143.007812 45.53125 C 144.164062 44.570312 145.507812 45.15625 146.640625 47.074219 C 147.65625 48.757812 148.625 51.613281 148.625 52.855469 C 148.625 53.511719 148.71875 53.929688 148.835938 53.835938 C 148.980469 53.765625 149.003906 54.046875 148.929688 54.5625 C 148.835938 55.195312 148.859375 55.382812 149.050781 55.265625 C 149.261719 55.148438 149.332031 55.640625 149.332031 57.089844 C 149.332031 58.261719 149.425781 59.148438 149.59375 59.242188 C 149.757812 59.335938 149.828125 59.101562 149.78125 58.519531 C 149.710938 57.746094 149.78125 57.605469 150.605469 57.113281 C 151.125 56.808594 151.644531 56.621094 151.765625 56.691406 C 151.90625 56.761719 151.929688 56.714844 151.835938 56.574219 C 151.742188 56.410156 151.90625 56.246094 152.257812 56.15625 C 152.589844 56.085938 152.992188 55.851562 153.15625 55.664062 C 153.605469 55.125 151.835938 55.898438 150.582031 56.785156 C 149.617188 57.464844 149.570312 57.464844 149.570312 56.996094 C 149.570312 56.410156 151.316406 55.242188 152.519531 55.03125 C 153.394531 54.867188 154.007812 55.078125 154.996094 55.921875 L 155.589844 56.410156 L 155.117188 55.875 C 154.621094 55.265625 154.738281 55.101562 156.011719 54.609375 C 156.367188 54.492188 156.652344 54.304688 156.652344 54.234375 C 156.652344 53.953125 158.988281 54.117188 159.363281 54.421875 C 159.8125 54.796875 160.664062 56.574219 160.664062 57.160156 C 160.664062 57.558594 160.804688 57.628906 161.582031 57.605469 C 162.71875 57.582031 163.566406 58.285156 164.015625 59.546875 C 164.320312 60.484375 164.347656 65.164062 164.039062 65.398438 C 163.945312 65.46875 163.851562 65.84375 163.851562 66.242188 C 163.828125 66.617188 163.753906 67.222656 163.660156 67.597656 C 163.496094 68.207031 163.519531 68.230469 164.132812 68.089844 C 165.527344 67.761719 167.414062 66.710938 168.382812 65.726562 C 170.199219 63.878906 172.84375 58.589844 173.765625 55.007812 C 173.953125 54.257812 174.117188 52.902344 174.117188 52.035156 C 174.117188 49.296875 172.984375 47.871094 170.835938 47.871094 C 170.292969 47.871094 169.421875 47.753906 168.855469 47.589844 C 167.628906 47.261719 165.902344 47.542969 163.707031 48.429688 C 161.324219 49.390625 159.671875 50.492188 157.710938 52.433594 C 154.148438 55.992188 153.296875 56.015625 155.589844 52.527344 C 156.296875 51.425781 156.554688 50.914062 156.15625 51.378906 C 155.777344 51.824219 155.140625 52.738281 154.738281 53.394531 C 154.078125 54.539062 154.007812 54.585938 153.109375 54.539062 C 152.566406 54.515625 152.164062 54.585938 152.164062 54.726562 C 152.164062 54.890625 152.09375 54.890625 151.953125 54.773438 C 151.8125 54.632812 151.667969 53.953125 151.621094 53.253906 C 151.550781 51.988281 151.550781 51.988281 151.503906 53.558594 C 151.480469 54.5625 151.363281 55.101562 151.222656 55.007812 C 151.101562 54.9375 150.984375 54.984375 150.984375 55.125 C 150.984375 55.664062 150.394531 55.195312 150.230469 54.515625 C 150.113281 54.023438 150.089844 54.09375 150.160156 54.796875 C 150.230469 55.476562 150.183594 55.804688 149.96875 55.898438 C 149.734375 55.992188 149.546875 55.453125 149.261719 53.859375 C 148.859375 51.660156 148.953125 50.234375 149.59375 47.753906 C 149.945312 46.417969 151.550781 43.351562 152.945312 41.363281 C 154.03125 39.796875 156.816406 36.964844 157.027344 37.175781 C 157.097656 37.222656 156.886719 38.0625 156.578125 39 C 155.636719 41.902344 155.375 43.1875 155.683594 43.492188 C 155.894531 43.703125 155.941406 43.679688 155.824219 43.375 C 155.492188 42.511719 157.640625 37.457031 158.679688 36.660156 C 159.578125 35.957031 160.710938 35.816406 161.679688 36.285156 C 163.117188 36.964844 164.296875 39.867188 164.792969 43.9375 C 165.007812 45.554688 164.652344 45.761719 164.226562 44.289062 C 164.0625 43.75 163.496094 42.417969 162.976562 41.316406 C 162.457031 40.21875 161.9375 39 161.820312 38.625 C 161.632812 37.945312 161.609375 37.945312 161.703125 38.742188 C 161.75 39.1875 162.246094 40.476562 162.765625 41.574219 C 163.308594 42.675781 163.730469 43.75 163.730469 43.960938 C 163.730469 44.171875 163.851562 44.40625 163.96875 44.476562 C 164.535156 44.828125 164.0625 45.273438 162.222656 46.183594 C 160.78125 46.886719 159.742188 47.636719 158.492188 48.828125 C 157.546875 49.742188 157.3125 50.046875 157.949219 49.460938 C 160.898438 46.886719 164.109375 45.320312 166.445312 45.296875 C 167.792969 45.296875 168.476562 45.671875 169.207031 46.792969 C 169.585938 47.355469 169.65625 47.402344 169.5625 47.003906 C 169.46875 46.558594 169.5625 46.464844 170.199219 46.347656 C 171.921875 46.089844 172.019531 46.019531 170.625 46.113281 C 168.5 46.277344 168.21875 45.972656 168.21875 43.539062 C 168.195312 38.976562 166.613281 36.074219 164.320312 36.496094 C 163.660156 36.636719 163.496094 36.566406 163.378906 36.167969 C 163.285156 35.886719 163.164062 35.722656 163.09375 35.769531 C 163.046875 35.839844 163.09375 36.097656 163.238281 36.355469 C 163.636719 37.105469 163.238281 37.128906 162.386719 36.402344 C 161.230469 35.371094 160.640625 35.300781 159.152344 36.027344 C 158.46875 36.355469 157.785156 36.636719 157.617188 36.636719 C 156.957031 36.636719 155.351562 37.691406 154.101562 38.976562 C 151.574219 41.527344 149.664062 45.4375 148.835938 49.625 L 148.578125 51.027344 L 148.128906 49.625 C 147.679688 48.246094 147.703125 46.886719 148.152344 45.996094 C 148.269531 45.808594 148.742188 44.804688 149.238281 43.773438 C 150.558594 41.011719 152.449219 38.273438 153.746094 37.292969 C 155.941406 35.605469 155.871094 35.652344 155.375 35.792969 C 154.691406 36.027344 152.851562 37.574219 151.742188 38.835938 C 151.175781 39.492188 150.207031 41.058594 149.546875 42.324219 C 148.175781 45.0625 148.035156 44.945312 149.285156 42.089844 C 150.679688 38.859375 152.425781 36.636719 154.3125 35.675781 C 155.421875 35.140625 156.273438 35.234375 157.289062 36.003906 C 157.902344 36.472656 157.925781 36.472656 157.546875 36.027344 C 157.027344 35.441406 157.003906 35.234375 157.476562 35.234375 C 157.664062 35.234375 157.832031 35.117188 157.832031 35 C 157.832031 34.859375 157.902344 34.789062 158.019531 34.789062 C 158.46875 34.859375 158.796875 34.742188 158.65625 34.53125 C 158.585938 34.414062 158.871094 34.15625 159.292969 33.96875 C 160.167969 33.59375 159.929688 33.5 159.011719 33.851562 Z M 166.046875 37.269531 C 167.179688 37.96875 168.074219 41.433594 167.792969 44.054688 C 167.699219 44.96875 167.628906 45.0625 167.058594 45.0625 C 166.445312 45.0625 166.445312 45.015625 165.785156 41.714844 C 165.433594 39.890625 165.125 38.0625 165.125 37.691406 C 165.125 37.175781 165.078125 37.082031 164.9375 37.339844 C 164.722656 37.691406 165.03125 39.867188 165.714844 42.792969 C 166.1875 44.828125 166.1875 45.109375 165.691406 45.015625 C 165.382812 44.96875 165.21875 44.5 165.007812 42.957031 C 164.746094 41.292969 164.203125 39.375 163.402344 37.550781 C 163.285156 37.246094 163.402344 37.082031 163.898438 36.917969 C 164.628906 36.660156 165.21875 36.753906 166.046875 37.269531 Z M 141.472656 44.242188 C 142.535156 45.34375 142.792969 45.925781 142.085938 45.648438 C 140.691406 45.085938 140.386719 45.015625 139.820312 45.15625 C 139.464844 45.226562 138.945312 45.671875 138.640625 46.113281 C 138.355469 46.558594 138.074219 46.933594 138.003906 46.933594 C 137.929688 46.910156 137.625 46.699219 137.316406 46.441406 C 136.796875 46.019531 136.773438 45.949219 137.152344 45.578125 C 137.363281 45.34375 137.53125 45.039062 137.53125 44.898438 C 137.53125 44.757812 137.90625 44.3125 138.355469 43.914062 C 139.535156 42.886719 140.222656 42.957031 141.472656 44.242188 Z M 166.683594 49.953125 C 165.527344 51.097656 164.488281 51.988281 164.394531 51.941406 C 164.296875 51.871094 164.0625 52.152344 163.851562 52.574219 C 163.636719 52.972656 163.566406 53.230469 163.707031 53.160156 C 163.851562 53.066406 163.96875 53.113281 163.96875 53.277344 C 163.96875 53.441406 164.15625 53.394531 164.417969 53.113281 C 164.914062 52.597656 164.863281 52.339844 164.320312 52.785156 C 164.132812 52.949219 163.96875 52.996094 163.96875 52.878906 C 163.96875 52.597656 164.441406 51.917969 164.441406 52.152344 C 164.441406 52.269531 165.007812 51.871094 165.691406 51.261719 C 167.367188 49.765625 169.46875 48.359375 170.316406 48.199219 C 171.425781 47.964844 173.007812 48.804688 173.527344 49.859375 C 174.09375 51.050781 173.90625 53.648438 173.054688 56.179688 C 172.300781 58.449219 169.796875 63.410156 168.6875 64.90625 C 167.792969 66.078125 166.1875 67.175781 164.984375 67.410156 C 164.273438 67.550781 164.203125 67.503906 164.203125 67.035156 C 164.203125 66.730469 164.558594 66.148438 164.984375 65.703125 C 165.597656 65.023438 165.644531 64.953125 165.148438 65.257812 L 164.558594 65.632812 L 164.605469 62.941406 C 164.652344 60.460938 164.628906 60.15625 164.085938 59.101562 C 163.449219 57.863281 162.386719 57.113281 161.511719 57.277344 C 161.089844 57.371094 160.945312 57.183594 160.570312 56.039062 C 160.332031 55.289062 159.957031 54.515625 159.71875 54.304688 C 159.175781 53.8125 157.878906 53.464844 157.710938 53.742188 C 157.617188 53.859375 157.40625 53.953125 157.21875 53.953125 C 156.625 53.953125 157.265625 53.113281 158.679688 52.011719 C 161.253906 50 165.902344 47.917969 167.839844 47.894531 L 168.785156 47.871094 Z M 166.683594 49.953125 " fill-opacity="1" fill-rule="nonzero"/></g><path fill="#000000" d="M 138.59375 44.125 C 138.214844 44.382812 138.003906 44.59375 138.167969 44.59375 C 138.308594 44.59375 138.496094 44.5 138.570312 44.382812 C 138.851562 43.9375 140.339844 43.867188 141 44.265625 L 141.660156 44.640625 L 141.09375 44.148438 C 140.410156 43.539062 139.511719 43.515625 138.59375 44.125 Z M 138.59375 44.125 " fill-opacity="1" fill-rule="nonzero"/><path fill="#000000" d="M 172.371094 50.726562 C 172.136719 51.121094 172.019531 52.269531 171.945312 54.890625 C 171.898438 56.878906 171.921875 58.261719 172.019531 57.933594 C 172.113281 57.605469 172.183594 55.992188 172.207031 54.351562 C 172.230469 52.035156 172.324219 51.238281 172.609375 50.796875 C 172.820312 50.46875 172.9375 50.210938 172.84375 50.210938 C 172.773438 50.210938 172.5625 50.445312 172.371094 50.726562 Z M 172.371094 50.726562 " fill-opacity="1" fill-rule="nonzero"/><path fill="#000000" d="M 154.808594 44.476562 C 154.808594 44.851562 154.855469 44.992188 154.925781 44.757812 C 154.972656 44.546875 154.972656 44.21875 154.925781 44.054688 C 154.855469 43.914062 154.808594 44.078125 154.808594 44.476562 Z M 154.808594 44.476562 " fill-opacity="1" fill-rule="nonzero"/><path fill="#000000" d="M 155.492188 44.5 C 155.492188 44.757812 155.566406 44.828125 155.636719 44.640625 C 155.707031 44.476562 155.683594 44.265625 155.613281 44.195312 C 155.539062 44.101562 155.46875 44.242188 155.492188 44.5 Z M 155.492188 44.5 " fill-opacity="1" fill-rule="nonzero"/><path fill="#000000" d="M 143.902344 45.738281 C 143.902344 46.066406 144.5625 47.683594 145.390625 49.367188 C 146.214844 51.050781 147.300781 53.394531 147.796875 54.585938 C 148.316406 55.78125 148.765625 56.691406 148.835938 56.644531 C 149.027344 56.433594 147.820312 53.558594 146.3125 50.5625 C 145.460938 48.875 144.589844 46.980469 144.351562 46.347656 C 144.046875 45.554688 143.925781 45.367188 143.902344 45.738281 Z M 143.902344 45.738281 " fill-opacity="1" fill-rule="nonzero"/><path fill="#000000" d="M 163.921875 46.441406 C 162.125 47.027344 159.8125 48.339844 158.515625 49.507812 C 157.59375 50.375 157.570312 50.421875 158.304688 49.929688 C 158.75 49.625 159.199219 49.296875 159.269531 49.179688 C 159.363281 49.0625 159.578125 49.0625 159.742188 49.15625 C 159.929688 49.273438 160.003906 49.273438 159.90625 49.15625 C 159.695312 48.921875 160.097656 48.640625 161.914062 47.636719 C 162.621094 47.261719 163.425781 46.933594 163.660156 46.933594 C 163.898438 46.933594 164.226562 46.816406 164.347656 46.699219 C 164.488281 46.558594 165.382812 46.371094 166.351562 46.253906 L 168.097656 46.066406 L 166.683594 46.042969 C 165.902344 46.019531 164.675781 46.207031 163.921875 46.441406 Z M 163.921875 46.441406 " fill-opacity="1" fill-rule="nonzero"/><path fill="#000000" d="M 172.773438 46.464844 C 173.621094 46.722656 174.117188 47.121094 174.117188 47.566406 C 174.117188 47.824219 173.90625 47.730469 173.386719 47.308594 C 172.984375 46.980469 172.488281 46.699219 172.277344 46.699219 C 171.898438 46.722656 171.898438 46.722656 172.277344 46.957031 C 172.511719 47.074219 172.75 47.167969 172.820312 47.167969 C 173.007812 47.144531 173.503906 47.660156 173.835938 48.222656 C 174.09375 48.6875 174.09375 48.6875 174.117188 48.222656 C 174.140625 47.753906 174.140625 47.753906 174.378906 48.222656 C 174.542969 48.59375 174.566406 48.546875 174.472656 47.988281 C 174.308594 47.144531 173.339844 46.230469 172.632812 46.253906 C 172.207031 46.277344 172.230469 46.300781 172.773438 46.464844 Z M 172.773438 46.464844 " fill-opacity="1" fill-rule="nonzero"/><g clip-path="url(#ae98c63466)"><path fill="#000000" d="M 130.425781 47.074219 C 130.257812 47.496094 130.210938 48.453125 130.304688 49.601562 C 130.472656 51.777344 131.722656 57.042969 131.816406 55.945312 C 131.839844 55.546875 132.007812 54.351562 132.148438 53.253906 C 132.3125 52.152344 132.40625 51.214844 132.382812 51.144531 C 130.730469 46.394531 130.707031 46.347656 130.425781 47.074219 Z M 131.628906 52.316406 L 131.511719 53.601562 L 131.203125 51.917969 C 131.0625 51.003906 130.921875 49.953125 130.921875 49.578125 C 130.945312 48.992188 130.992188 49.039062 131.367188 49.976562 C 131.652344 50.75 131.746094 51.378906 131.628906 52.316406 Z M 131.628906 52.316406 " fill-opacity="1" fill-rule="nonzero"/></g><path fill="#000000" d="M 171.238281 46.628906 C 171.402344 46.699219 171.617188 46.675781 171.6875 46.605469 C 171.78125 46.535156 171.640625 46.464844 171.378906 46.488281 C 171.121094 46.488281 171.050781 46.558594 171.238281 46.628906 Z M 171.238281 46.628906 " fill-opacity="1" fill-rule="nonzero"/><path fill="#000000" d="M 141.332031 46.933594 C 141.332031 47.121094 141.425781 47.496094 141.542969 47.753906 C 141.660156 48.058594 141.753906 48.082031 141.753906 47.871094 C 141.753906 47.683594 141.660156 47.308594 141.542969 47.050781 C 141.425781 46.746094 141.332031 46.722656 141.332031 46.933594 Z M 141.332031 46.933594 " fill-opacity="1" fill-rule="nonzero"/><g clip-path="url(#23ffcd702a)"><path fill="#000000" d="M 187.195312 49.484375 C 186.015625 50.46875 184.199219 51.847656 183.183594 52.574219 C 181.4375 53.8125 177.28125 56.292969 176.925781 56.292969 C 176.855469 56.292969 176.925781 55.710938 177.117188 55.007812 C 177.636719 52.996094 176.902344 51.144531 175.417969 50.773438 C 175.085938 50.703125 174.828125 50.539062 174.828125 50.398438 C 174.828125 50.28125 174.707031 50.257812 174.589844 50.328125 C 174.238281 50.539062 174.542969 50.914062 175.0625 50.914062 C 175.9375 50.914062 176.761719 51.894531 176.878906 53.089844 C 177.28125 56.550781 174.992188 60.90625 170.90625 64.484375 C 167.863281 67.152344 163.851562 69.097656 163.238281 68.230469 C 163.046875 67.972656 163.023438 68.019531 163.140625 68.441406 C 163.238281 68.769531 163.210938 68.933594 163.09375 68.863281 C 162.976562 68.769531 162.859375 69.003906 162.859375 69.351562 C 162.859375 70.96875 159.246094 76.820312 157.21875 78.457031 C 156.722656 78.878906 156.414062 79.207031 156.578125 79.230469 C 156.722656 79.230469 157.40625 78.667969 158.089844 77.964844 C 158.773438 77.261719 159.4375 76.75 159.554688 76.820312 C 159.695312 76.890625 159.71875 76.84375 159.625 76.703125 C 159.414062 76.351562 160.921875 74.128906 161.300781 74.246094 C 161.441406 74.292969 161.632812 74.222656 161.726562 74.105469 C 161.820312 73.941406 161.726562 73.917969 161.464844 74.011719 C 161.015625 74.175781 161.015625 74.175781 161.914062 72.511719 C 162.269531 71.835938 162.765625 70.710938 163.023438 70.03125 C 163.472656 68.839844 163.542969 68.769531 164.652344 68.488281 C 165.265625 68.324219 166.515625 67.785156 167.414062 67.269531 C 168.902344 66.40625 169.136719 66.335938 170.222656 66.476562 C 172.277344 66.730469 173.976562 67.105469 174.683594 67.457031 C 175.371094 67.808594 175.371094 67.808594 172.679688 68.488281 C 171.191406 68.863281 169.847656 69.121094 169.679688 69.050781 C 169.515625 68.980469 169.445312 69.050781 169.515625 69.167969 C 169.585938 69.308594 169.539062 69.398438 169.375 69.398438 C 169.207031 69.398438 169.136719 69.46875 169.207031 69.539062 C 169.28125 69.609375 169.988281 69.492188 170.789062 69.285156 C 172.914062 68.746094 175.816406 68.558594 176.714844 68.933594 C 178.179688 69.539062 178.746094 71.109375 178.0625 72.746094 C 177.28125 74.574219 173.90625 77.542969 169.871094 79.929688 C 164.769531 82.949219 163.023438 83.511719 160.425781 82.972656 C 159.71875 82.832031 158.964844 82.691406 158.773438 82.644531 C 158.585938 82.621094 158.183594 82.457031 157.902344 82.320312 C 157.617188 82.15625 157.21875 82.039062 157.027344 82.039062 C 156.792969 82.039062 156.722656 81.898438 156.792969 81.6875 C 156.886719 81.453125 156.792969 81.335938 156.53125 81.335938 C 155.777344 81.335938 156.320312 81.921875 157.6875 82.597656 C 159.484375 83.488281 162.246094 83.699219 164.320312 83.089844 C 168.429688 81.921875 175.890625 76.773438 177.660156 73.871094 C 177.988281 73.355469 178.34375 72.910156 178.4375 72.910156 C 178.933594 72.910156 179.785156 74.199219 179.785156 74.96875 C 179.785156 76.796875 177.777344 78.714844 173.882812 80.585938 C 172.394531 81.289062 171.121094 81.945312 171.050781 82.015625 C 170.90625 82.203125 169.679688 82.597656 167.746094 83.113281 C 166.613281 83.441406 165.265625 83.535156 162.550781 83.558594 C 158.941406 83.558594 158.871094 83.558594 157.429688 82.855469 C 156.652344 82.457031 156.058594 82.273438 156.109375 82.4375 C 156.179688 82.597656 156.414062 82.785156 156.675781 82.855469 C 157.074219 82.996094 157.027344 83.113281 156.226562 84.332031 C 155.753906 85.058594 154.972656 86.15625 154.527344 86.742188 C 154.078125 87.328125 153.535156 88.050781 153.34375 88.355469 C 153.15625 88.636719 152.800781 89.082031 152.589844 89.339844 C 152.355469 89.621094 152.164062 89.902344 152.164062 89.972656 C 152.164062 90.042969 151.789062 90.507812 151.339844 90.976562 C 150.890625 91.445312 150.511719 91.9375 150.511719 92.078125 C 150.511719 92.195312 150.347656 92.40625 150.136719 92.523438 C 149.921875 92.640625 149.78125 92.804688 149.804688 92.898438 C 149.828125 92.988281 149.59375 93.363281 149.285156 93.691406 C 149.003906 94.042969 148.4375 94.746094 148.058594 95.261719 C 147.65625 95.773438 147.277344 96.242188 147.207031 96.3125 C 147.113281 96.382812 146.710938 96.898438 146.3125 97.460938 L 145.554688 98.488281 L 145.53125 97.695312 L 145.484375 96.898438 L 145.296875 97.835938 C 144.871094 99.871094 144.421875 102.515625 144.492188 102.609375 C 144.777344 102.890625 145.058594 102.1875 145.203125 100.875 C 145.367188 99.402344 145.460938 99.238281 147.277344 96.945312 C 150.820312 92.523438 155.613281 86.15625 156.507812 84.683594 C 156.980469 83.863281 157.40625 83.207031 157.429688 83.207031 C 157.453125 83.207031 158.019531 83.371094 158.65625 83.582031 C 160.191406 84.050781 164.226562 84.027344 166.730469 83.558594 C 175.039062 81.992188 181.957031 76.585938 179.523438 73.542969 L 179.050781 72.910156 L 179.640625 72.042969 C 179.996094 71.554688 180.257812 71.0625 180.257812 70.945312 C 180.257812 70.804688 179.925781 71.203125 179.546875 71.835938 C 178.722656 73.121094 178.320312 73.097656 178.652344 71.765625 C 178.816406 71.085938 178.816406 70.6875 178.554688 70.195312 C 178.296875 69.609375 177.140625 68.652344 176.457031 68.417969 C 176.3125 68.371094 176.335938 68.066406 176.527344 67.597656 L 176.855469 66.847656 L 178.035156 67.386719 C 179.570312 68.089844 180.539062 69.214844 180.351562 70.054688 C 180.257812 70.546875 180.28125 70.617188 180.46875 70.335938 C 180.75 69.9375 180.824219 68.675781 180.5625 68.769531 C 180.445312 68.792969 180.351562 68.722656 180.328125 68.605469 C 180.28125 68.371094 179.738281 68.042969 178.011719 67.199219 C 177.234375 66.800781 176.738281 66.359375 176.480469 65.84375 C 176.289062 65.421875 175.792969 64.859375 175.371094 64.578125 L 174.613281 64.089844 L 176.902344 62.332031 C 182.6875 57.910156 187.078125 53.300781 188.847656 49.789062 C 189.980469 47.542969 189.605469 47.472656 187.195312 49.484375 Z M 187.621094 50.84375 C 185.734375 53.976562 181.578125 58.144531 176.550781 61.957031 C 174.828125 63.246094 174.285156 63.550781 174.046875 63.339844 C 173.859375 63.199219 173.644531 63.152344 173.574219 63.246094 C 173.480469 63.316406 173.410156 63.246094 173.410156 63.035156 C 173.410156 62.847656 173.621094 62.496094 173.882812 62.261719 C 174.472656 61.746094 176.242188 59.03125 176.242188 58.683594 C 176.242188 58.519531 176.335938 58.402344 176.433594 58.402344 C 176.527344 58.402344 176.714844 58.074219 176.832031 57.675781 C 177.023438 57.089844 177.445312 56.714844 178.839844 55.945312 C 179.808594 55.382812 180.703125 55.007812 180.824219 55.078125 C 180.941406 55.148438 180.964844 55.101562 180.894531 54.984375 C 180.824219 54.84375 181.367188 54.398438 182.097656 53.953125 C 182.828125 53.535156 183.65625 52.972656 183.914062 52.761719 C 184.175781 52.527344 185.046875 51.847656 185.851562 51.261719 C 186.652344 50.679688 187.550781 49.953125 187.855469 49.625 C 188.730469 48.734375 188.660156 49.132812 187.621094 50.84375 Z M 174.542969 64.414062 C 176.007812 65.09375 176.597656 66.007812 176.359375 67.222656 L 176.21875 68.019531 L 175.628906 67.550781 C 174.757812 66.871094 172.75 66.171875 171.050781 65.984375 L 169.585938 65.820312 L 170.367188 65.210938 C 170.789062 64.882812 171.355469 64.367188 171.617188 64.089844 C 172.160156 63.480469 172.65625 63.527344 174.542969 64.414062 Z M 174.542969 64.414062 " fill-opacity="1" fill-rule="nonzero"/></g><path fill="#000000" d="M 171.875 64.414062 C 172.019531 64.53125 172.703125 64.8125 173.410156 65.046875 C 174.117188 65.304688 174.804688 65.585938 174.945312 65.679688 C 175.0625 65.796875 175.300781 65.890625 175.488281 65.890625 C 176.125 65.890625 175.511719 65.46875 174.1875 65 C 172.324219 64.34375 171.59375 64.15625 171.875 64.414062 Z M 171.875 64.414062 " fill-opacity="1" fill-rule="nonzero"/><path fill="#000000" d="M 141.945312 48.617188 C 143.855469 51.121094 144.375 51.847656 144.234375 51.847656 C 144.140625 51.847656 144.210938 51.988281 144.421875 52.128906 C 144.613281 52.292969 145.058594 52.855469 145.414062 53.371094 C 146.289062 54.679688 146.191406 54.070312 145.296875 52.691406 C 144.515625 51.449219 142.039062 48.339844 141.851562 48.339844 C 141.777344 48.339844 141.824219 48.476562 141.945312 48.617188 Z M 141.945312 48.617188 " fill-opacity="1" fill-rule="nonzero"/><path fill="#000000" d="M 174.636719 49.507812 C 174.636719 49.835938 174.683594 49.953125 174.757812 49.789062 C 174.804688 49.648438 174.804688 49.367188 174.757812 49.203125 C 174.683594 49.0625 174.636719 49.179688 174.636719 49.507812 Z M 174.636719 49.507812 " fill-opacity="1" fill-rule="nonzero"/><path fill="#000000" d="M 149.875 52.433594 C 149.875 53.207031 149.921875 53.488281 149.96875 53.066406 C 150.015625 52.644531 150.015625 52.011719 149.96875 51.660156 C 149.921875 51.308594 149.875 51.660156 149.875 52.433594 Z M 149.875 52.433594 " fill-opacity="1" fill-rule="nonzero"/><path fill="#000000" d="M 175.25 52.128906 C 175.0625 52.433594 174.828125 53.042969 174.757812 53.488281 C 174.613281 54.257812 173.976562 56.925781 173.433594 59.007812 C 173.292969 59.546875 172.960938 60.484375 172.703125 61.09375 C 172.441406 61.699219 172.253906 62.261719 172.324219 62.308594 C 172.585938 62.589844 173.550781 59.851562 174.472656 56.203125 C 175.039062 53.929688 175.558594 51.988281 175.652344 51.847656 C 175.960938 51.355469 175.582031 51.636719 175.25 52.128906 Z M 175.25 52.128906 " fill-opacity="1" fill-rule="nonzero"/><path fill="#000000" d="M 158.066406 54.679688 C 158.066406 54.796875 158.253906 54.890625 158.46875 54.890625 C 158.679688 54.890625 159.082031 55.078125 159.339844 55.289062 C 159.835938 55.710938 159.835938 55.710938 159.414062 55.195312 C 158.964844 54.679688 158.066406 54.328125 158.066406 54.679688 Z M 158.066406 54.679688 " fill-opacity="1" fill-rule="nonzero"/><path fill="#000000" d="M 138.050781 55.359375 C 138.050781 55.804688 138.097656 55.992188 138.167969 55.757812 C 138.214844 55.546875 138.214844 55.171875 138.167969 54.9375 C 138.097656 54.726562 138.050781 54.914062 138.050781 55.359375 Z M 138.050781 55.359375 " fill-opacity="1" fill-rule="nonzero"/><path fill="#000000" d="M 158.871094 58.285156 C 158.632812 58.867188 158.871094 60.273438 159.554688 62.261719 C 159.765625 62.894531 160.003906 63.738281 160.050781 64.132812 C 160.121094 64.507812 160.261719 65.140625 160.402344 65.539062 C 161.015625 67.246094 160.402344 63.972656 159.695312 61.792969 C 159.269531 60.4375 159.011719 59.195312 159.058594 58.730469 C 159.152344 57.886719 159.082031 57.722656 158.871094 58.285156 Z M 158.871094 58.285156 " fill-opacity="1" fill-rule="nonzero"/><path fill="#000000" d="M 161.984375 61.605469 C 162.101562 63.527344 162.175781 66.171875 162.175781 67.503906 C 162.175781 69.238281 162.222656 69.773438 162.386719 69.375 C 162.503906 69.050781 162.527344 67.269531 162.410156 64.953125 C 162.316406 62.824219 162.222656 60.4375 162.222656 59.617188 C 162.199219 58.824219 162.101562 58.167969 161.984375 58.167969 C 161.867188 58.167969 161.867188 59.664062 161.984375 61.605469 Z M 161.984375 61.605469 " fill-opacity="1" fill-rule="nonzero"/><path fill="#000000" d="M 146.453125 62.753906 C 146.640625 66.988281 145.933594 70.523438 144.683594 71.601562 C 143.972656 72.207031 143.832031 73.308594 144.210938 75.085938 C 144.351562 75.789062 144.328125 75.953125 144.117188 75.8125 C 143.925781 75.71875 143.878906 75.742188 143.996094 75.929688 C 144.09375 76.070312 144.28125 76.117188 144.421875 76.046875 C 144.613281 75.929688 144.636719 76.023438 144.515625 76.328125 C 144.421875 76.5625 144.421875 76.679688 144.492188 76.609375 C 144.589844 76.515625 144.988281 76.820312 145.390625 77.261719 C 146.027344 77.988281 146.097656 78.246094 146.097656 79.535156 L 146.097656 80.984375 L 146.191406 79.628906 C 146.265625 78.691406 146.382812 78.292969 146.570312 78.363281 C 146.734375 78.433594 146.832031 78.574219 146.808594 78.714844 C 146.785156 78.832031 146.972656 78.902344 147.230469 78.832031 C 147.679688 78.714844 147.65625 78.667969 147.042969 78.292969 C 145.792969 77.519531 145.105469 76.703125 144.753906 75.460938 C 144.351562 74.199219 144.234375 71.972656 144.5625 71.972656 C 144.988281 71.953125 145.839844 70.992188 145.933594 70.40625 C 146.003906 70.054688 146.144531 69.375 146.289062 68.933594 C 146.640625 67.691406 146.808594 62.894531 146.546875 61.445312 C 146.359375 60.390625 146.335938 60.625 146.453125 62.753906 Z M 146.453125 62.753906 " fill-opacity="1" fill-rule="nonzero"/><path fill="#000000" d="M 139.9375 62.847656 C 139.9375 63.175781 139.984375 63.292969 140.054688 63.128906 C 140.101562 62.988281 140.101562 62.707031 140.054688 62.542969 C 139.984375 62.402344 139.9375 62.519531 139.9375 62.847656 Z M 139.9375 62.847656 " fill-opacity="1" fill-rule="nonzero"/><path fill="#000000" d="M 136.609375 63.222656 C 136.609375 63.480469 136.679688 63.550781 136.75 63.363281 C 136.820312 63.199219 136.796875 62.988281 136.726562 62.917969 C 136.65625 62.824219 136.585938 62.964844 136.609375 63.222656 Z M 136.609375 63.222656 " fill-opacity="1" fill-rule="nonzero"/><path fill="#000000" d="M 151.503906 63.550781 C 151.503906 63.878906 151.550781 63.996094 151.621094 63.832031 C 151.667969 63.691406 151.667969 63.410156 151.621094 63.246094 C 151.550781 63.105469 151.503906 63.222656 151.503906 63.550781 Z M 151.503906 63.550781 " fill-opacity="1" fill-rule="nonzero"/><path fill="#000000" d="M 152 63.714844 C 151.929688 63.949219 151.8125 64.226562 151.765625 64.367188 C 151.691406 64.484375 151.835938 64.390625 152.023438 64.15625 C 152.402344 63.691406 152.519531 63.316406 152.285156 63.316406 C 152.210938 63.316406 152.09375 63.503906 152 63.714844 Z M 152 63.714844 " fill-opacity="1" fill-rule="nonzero"/><path fill="#000000" d="M 140.148438 63.808594 C 140.148438 64.019531 140.386719 65.585938 140.691406 67.316406 C 141.023438 69.050781 141.332031 70.710938 141.378906 71.039062 C 141.449219 71.367188 141.449219 70.992188 141.378906 70.21875 C 141.28125 68.769531 140.199219 63.128906 140.148438 63.808594 Z M 140.148438 63.808594 " fill-opacity="1" fill-rule="nonzero"/><path fill="#000000" d="M 136.84375 64.203125 C 136.820312 64.695312 137.929688 67.878906 138.570312 69.121094 C 138.875 69.726562 139.371094 70.476562 139.65625 70.804688 L 140.171875 71.390625 L 139.679688 70.640625 C 138.96875 69.609375 138.027344 67.503906 137.386719 65.539062 C 137.105469 64.625 136.84375 64.042969 136.84375 64.203125 Z M 136.84375 64.203125 " fill-opacity="1" fill-rule="nonzero"/><path fill="#000000" d="M 135.40625 64.953125 C 135.382812 66.007812 138.78125 71.742188 139.417969 71.742188 C 139.511719 71.742188 139.300781 71.414062 138.921875 71.015625 C 138.097656 70.148438 136.964844 68.207031 136.089844 66.148438 C 135.710938 65.304688 135.40625 64.765625 135.40625 64.953125 Z M 135.40625 64.953125 " fill-opacity="1" fill-rule="nonzero"/><path fill="#000000" d="M 178.605469 68.324219 C 178.605469 68.535156 178.722656 68.652344 178.839844 68.582031 C 178.980469 68.511719 179.074219 68.582031 179.074219 68.792969 C 179.074219 68.980469 179.195312 69.167969 179.359375 69.214844 C 179.523438 69.285156 179.640625 69.703125 179.617188 70.242188 C 179.59375 71.039062 179.617188 71.085938 179.832031 70.59375 C 180.066406 69.914062 179.738281 68.957031 179.050781 68.324219 C 178.628906 67.949219 178.605469 67.949219 178.605469 68.324219 Z M 178.605469 68.324219 " fill-opacity="1" fill-rule="nonzero"/><path fill="#000000" d="M 167.722656 69.890625 L 167.15625 70.359375 L 167.816406 69.960938 C 168.171875 69.75 168.453125 69.539062 168.453125 69.492188 C 168.453125 69.308594 168.265625 69.398438 167.722656 69.890625 Z M 167.722656 69.890625 " fill-opacity="1" fill-rule="nonzero"/><path fill="#000000" d="M 167.863281 70.335938 C 167.792969 70.476562 167.886719 70.5 168.074219 70.429688 C 168.5 70.265625 168.570312 70.101562 168.242188 70.101562 C 168.097656 70.101562 167.933594 70.195312 167.863281 70.335938 Z M 167.863281 70.335938 " fill-opacity="1" fill-rule="nonzero"/><path fill="#000000" d="M 155.140625 71.789062 C 154.527344 73.964844 152.96875 76.960938 151.765625 78.292969 C 151.175781 78.949219 150.867188 79.417969 151.054688 79.324219 C 151.597656 79.136719 152.800781 77.519531 153.816406 75.671875 C 154.691406 74.035156 155.871094 70.664062 155.660156 70.429688 C 155.589844 70.382812 155.351562 70.992188 155.140625 71.789062 Z M 155.140625 71.789062 " fill-opacity="1" fill-rule="nonzero"/><path fill="#000000" d="M 147.253906 71.15625 C 147.253906 71.53125 147.300781 71.671875 147.375 71.4375 C 147.421875 71.226562 147.421875 70.898438 147.375 70.734375 C 147.300781 70.59375 147.253906 70.757812 147.253906 71.15625 Z M 147.253906 71.15625 " fill-opacity="1" fill-rule="nonzero"/><path fill="#000000" d="M 150.300781 73.285156 C 149.992188 74.574219 149.496094 76.375 149.191406 77.332031 C 148.90625 78.269531 148.742188 78.972656 148.835938 78.855469 C 149.238281 78.410156 151.078125 71.695312 150.9375 71.226562 C 150.890625 71.109375 150.605469 72.019531 150.300781 73.285156 Z M 150.300781 73.285156 " fill-opacity="1" fill-rule="nonzero"/><path fill="#000000" d="M 145.625 72.558594 C 145.625 73.191406 145.671875 73.449219 145.722656 73.074219 C 145.769531 72.722656 145.769531 72.207031 145.722656 71.90625 C 145.671875 71.625 145.625 71.90625 145.625 72.558594 Z M 145.625 72.558594 " fill-opacity="1" fill-rule="nonzero"/><path fill="#000000" d="M 157.5 73.261719 C 156.699219 75.34375 154.878906 78.175781 153.675781 79.230469 C 152.800781 79.976562 152.753906 79.976562 151.007812 79.859375 C 149.78125 79.769531 149.355469 79.816406 149.617188 79.953125 C 150.113281 80.234375 153.722656 80.140625 153.628906 79.859375 C 153.582031 79.769531 154.054688 79.136719 154.644531 78.480469 C 156.179688 76.796875 158.492188 72.417969 158.253906 71.695312 C 158.207031 71.578125 157.878906 72.277344 157.5 73.261719 Z M 157.5 73.261719 " fill-opacity="1" fill-rule="nonzero"/><path fill="#000000" d="M 176.832031 72.019531 C 176.289062 72.300781 174.828125 73.777344 174.96875 73.917969 C 175.015625 73.964844 174.308594 74.992188 173.363281 76.210938 C 172.183594 77.777344 171.945312 78.175781 172.5625 77.589844 C 173.054688 77.148438 174.070312 75.8125 174.851562 74.640625 C 175.769531 73.238281 176.503906 72.394531 177.023438 72.136719 C 177.421875 71.953125 177.683594 71.765625 177.542969 71.765625 C 177.421875 71.765625 177.09375 71.882812 176.832031 72.019531 Z M 176.832031 72.019531 " fill-opacity="1" fill-rule="nonzero"/><path fill="#000000" d="M 146.996094 73.753906 C 147.019531 74.757812 147.113281 75.90625 147.207031 76.304688 C 147.300781 76.679688 147.328125 75.90625 147.253906 74.550781 C 147.113281 71.625 146.972656 71.132812 146.996094 73.753906 Z M 146.996094 73.753906 " fill-opacity="1" fill-rule="nonzero"/><path fill="#000000" d="M 143.21875 73.425781 C 143.21875 73.753906 143.148438 74.175781 143.125 74.363281 C 143.078125 74.527344 143.078125 74.574219 143.148438 74.457031 C 143.21875 74.339844 143.40625 74.550781 143.574219 74.921875 C 143.855469 75.484375 143.878906 75.507812 143.738281 75.015625 C 143.667969 74.6875 143.503906 74.058594 143.40625 73.613281 C 143.265625 72.910156 143.242188 72.886719 143.21875 73.425781 Z M 143.21875 73.425781 " fill-opacity="1" fill-rule="nonzero"/><path fill="#000000" d="M 145.839844 74.550781 C 145.839844 74.992188 145.886719 75.179688 145.957031 74.945312 C 146.003906 74.734375 146.003906 74.363281 145.957031 74.128906 C 145.886719 73.917969 145.839844 74.105469 145.839844 74.550781 Z M 145.839844 74.550781 " fill-opacity="1" fill-rule="nonzero"/><path fill="#000000" d="M 176.785156 76 C 174.851562 77.824219 174.164062 78.410156 171.851562 80.328125 C 169.585938 82.203125 169.632812 82.132812 170.765625 81.546875 C 171.308594 81.242188 173.105469 79.792969 174.730469 78.316406 C 176.359375 76.820312 178.0625 75.320312 178.507812 74.96875 C 178.957031 74.640625 179.21875 74.292969 179.097656 74.199219 C 178.957031 74.128906 177.917969 74.921875 176.785156 76 Z M 176.785156 76 " fill-opacity="1" fill-rule="nonzero"/><path fill="#000000" d="M 146.121094 76 C 146.335938 76.867188 146.710938 77.824219 146.832031 77.824219 C 146.949219 77.824219 146.265625 75.671875 146.074219 75.484375 C 146.003906 75.414062 146.027344 75.648438 146.121094 76 Z M 146.121094 76 " fill-opacity="1" fill-rule="nonzero"/><path fill="#000000" d="M 147.46875 77.355469 C 147.46875 77.542969 147.5625 77.871094 147.679688 78.058594 C 147.964844 78.480469 147.964844 78.105469 147.679688 77.472656 C 147.539062 77.171875 147.46875 77.125 147.46875 77.355469 Z M 147.46875 77.355469 " fill-opacity="1" fill-rule="nonzero"/><path fill="#000000" d="M 160.78125 78.761719 C 160.003906 78.996094 158.988281 79.207031 158.539062 79.253906 C 157.925781 79.277344 157.855469 79.324219 158.277344 79.394531 C 158.871094 79.511719 161.75 78.878906 162.316406 78.527344 C 162.8125 78.222656 162.433594 78.269531 160.78125 78.761719 Z M 160.78125 78.761719 " fill-opacity="1" fill-rule="nonzero"/><path fill="#000000" d="M 147.820312 78.972656 C 147.726562 79.113281 147.300781 80.703125 146.855469 82.503906 C 146.40625 84.308594 145.648438 87.070312 145.203125 88.613281 C 144.753906 90.183594 144.421875 91.515625 144.46875 91.5625 C 144.539062 91.632812 144.917969 90.578125 145.320312 89.246094 C 145.746094 87.933594 146.191406 86.507812 146.335938 86.132812 C 146.640625 85.382812 146.640625 85.289062 146.6875 84.308594 C 146.710938 83.933594 146.832031 83.722656 146.972656 83.792969 C 147.089844 83.863281 147.136719 83.792969 147.066406 83.582031 C 146.949219 83.253906 147.75 80.023438 148.035156 79.746094 C 148.105469 79.675781 148.246094 79.722656 148.386719 79.835938 C 148.507812 79.953125 148.460938 80.679688 148.246094 81.6875 C 145.839844 93.292969 145.203125 96.78125 145.53125 96.78125 C 145.648438 96.78125 145.792969 96.078125 145.886719 95.238281 C 145.980469 94.371094 146.265625 92.757812 146.523438 91.65625 C 146.785156 90.554688 147.46875 87.398438 148.011719 84.660156 L 149.003906 79.699219 L 148.484375 79.207031 C 148.152344 78.902344 147.917969 78.808594 147.820312 78.972656 Z M 147.820312 78.972656 " fill-opacity="1" fill-rule="nonzero"/><path fill="#000000" d="M 155.46875 79.582031 C 155.140625 79.769531 154.691406 79.90625 154.429688 79.929688 C 154.101562 79.929688 154.195312 80.117188 154.902344 80.84375 C 155.421875 81.359375 155.871094 81.710938 155.917969 81.664062 C 155.988281 81.617188 155.730469 81.242188 155.351562 80.867188 C 154.738281 80.210938 154.785156 80.023438 155.539062 80.140625 C 155.636719 80.140625 155.707031 80.046875 155.707031 79.929688 C 155.707031 79.792969 156.15625 79.699219 156.699219 79.699219 C 157.785156 79.699219 157.832031 79.605469 156.769531 79.394531 C 156.367188 79.324219 155.800781 79.394531 155.46875 79.582031 Z M 155.46875 79.582031 " fill-opacity="1" fill-rule="nonzero"/><path fill="#000000" d="M 153.226562 80.632812 C 153.15625 80.773438 153.25 80.796875 153.441406 80.726562 C 153.863281 80.5625 153.9375 80.398438 153.605469 80.398438 C 153.464844 80.398438 153.296875 80.492188 153.226562 80.632812 Z M 153.226562 80.632812 " fill-opacity="1" fill-rule="nonzero"/><path fill="#000000" d="M 162.976562 81.03125 C 163.140625 81.101562 163.355469 81.078125 163.425781 81.007812 C 163.519531 80.9375 163.378906 80.867188 163.117188 80.890625 C 162.859375 80.890625 162.789062 80.960938 162.976562 81.03125 Z M 162.976562 81.03125 " fill-opacity="1" fill-rule="nonzero"/><path fill="#000000" d="M 161.796875 81.265625 C 161.9375 81.3125 162.222656 81.3125 162.386719 81.265625 C 162.527344 81.195312 162.410156 81.148438 162.078125 81.148438 C 161.75 81.148438 161.632812 81.195312 161.796875 81.265625 Z M 161.796875 81.265625 " fill-opacity="1" fill-rule="nonzero"/><path fill="#000000" d="M 160.261719 81.5 C 160.472656 81.546875 160.851562 81.546875 161.089844 81.5 C 161.300781 81.429688 161.113281 81.382812 160.664062 81.382812 C 160.214844 81.382812 160.027344 81.429688 160.261719 81.5 Z M 160.261719 81.5 " fill-opacity="1" fill-rule="nonzero"/><path fill="#000000" d="M 157.902344 81.734375 C 158.253906 81.78125 158.820312 81.78125 159.199219 81.734375 C 159.554688 81.6875 159.246094 81.640625 158.539062 81.640625 C 157.832031 81.640625 157.523438 81.6875 157.902344 81.734375 Z M 157.902344 81.734375 " fill-opacity="1" fill-rule="nonzero"/><path fill="#000000" d="M 145.839844 82.738281 C 145.839844 83.066406 145.886719 83.183594 145.957031 83.019531 C 146.003906 82.878906 146.003906 82.597656 145.957031 82.4375 C 145.886719 82.296875 145.839844 82.414062 145.839844 82.738281 Z M 145.839844 82.738281 " fill-opacity="1" fill-rule="nonzero"/><path fill="#000000" d="M 145.816406 84.519531 C 145.816406 84.777344 145.886719 84.847656 145.957031 84.660156 C 146.027344 84.496094 146.003906 84.285156 145.933594 84.214844 C 145.863281 84.121094 145.792969 84.261719 145.816406 84.519531 Z M 145.816406 84.519531 " fill-opacity="1" fill-rule="nonzero"/><path fill="#000000" d="M 140.199219 98.886719 C 140.199219 99.472656 140.246094 99.707031 140.292969 99.402344 C 140.339844 99.121094 140.339844 98.652344 140.292969 98.347656 C 140.246094 98.070312 140.199219 98.300781 140.199219 98.886719 Z M 140.199219 98.886719 " fill-opacity="1" fill-rule="nonzero"/><path fill="#000000" d="M 140.171875 100.761719 C 140.171875 101.203125 140.222656 101.390625 140.292969 101.15625 C 140.339844 100.945312 140.339844 100.574219 140.292969 100.339844 C 140.222656 100.128906 140.171875 100.316406 140.171875 100.761719 Z M 140.171875 100.761719 " fill-opacity="1" fill-rule="nonzero"/><g fill="#000000" fill-opacity="1"><g transform="translate(38.409198, 73.416695)"><g><path d="M 6.78125 -6.234375 C 4.96875 -4.429688 3.019531 -3.5625 0.9375 -3.625 C -1.144531 -3.695312 -3.171875 -4.722656 -5.140625 -6.703125 C -6.429688 -8.003906 -7.316406 -9.34375 -7.796875 -10.71875 C -8.273438 -12.101562 -8.347656 -13.4375 -8.015625 -14.71875 C -7.691406 -16 -7 -17.171875 -5.9375 -18.234375 C -5.289062 -18.867188 -4.453125 -19.328125 -3.421875 -19.609375 C -3.035156 -19.710938 -2.601562 -19.773438 -2.125 -19.796875 C -2.226562 -20.273438 -2.265625 -20.707031 -2.234375 -21.09375 C -2.179688 -21.4375 -2.144531 -21.625 -2.125 -21.65625 L -1.6875 -22.09375 L 1.515625 -18.859375 L 0.828125 -18.171875 C 0.140625 -18.578125 -0.570312 -18.851562 -1.3125 -19 C -2.007812 -19.15625 -2.695312 -19.171875 -3.375 -19.046875 C -4.050781 -18.929688 -4.648438 -18.617188 -5.171875 -18.109375 C -5.953125 -17.328125 -6.148438 -16.226562 -5.765625 -14.8125 C -5.390625 -13.394531 -4.191406 -11.671875 -2.171875 -9.640625 C -0.109375 -7.578125 1.640625 -6.378906 3.078125 -6.046875 C 4.515625 -5.710938 5.722656 -6.03125 6.703125 -7 C 7.234375 -7.53125 7.585938 -8.179688 7.765625 -8.953125 C 7.953125 -9.722656 7.945312 -10.503906 7.75 -11.296875 C 7.5625 -12.097656 7.191406 -12.773438 6.640625 -13.328125 L 7.0625 -13.765625 C 7.707031 -13.117188 8.132812 -12.34375 8.34375 -11.4375 C 8.5625 -10.539062 8.535156 -9.628906 8.265625 -8.703125 C 7.992188 -7.773438 7.5 -6.953125 6.78125 -6.234375 Z M 6.78125 -6.234375 "/></g></g></g><g fill="#000000" fill-opacity="1"><g transform="translate(53.281807, 59.020519)"><g><path d="M 7.265625 -5.0625 C 6.015625 -4.125 4.71875 -3.566406 3.375 -3.390625 C 2.03125 -3.222656 0.710938 -3.46875 -0.578125 -4.125 C -1.878906 -4.78125 -3.085938 -5.847656 -4.203125 -7.328125 C -5.316406 -8.796875 -6.019531 -10.242188 -6.3125 -11.671875 C -6.601562 -13.097656 -6.488281 -14.4375 -5.96875 -15.6875 C -5.445312 -16.9375 -4.5625 -18.03125 -3.3125 -18.96875 C -2.0625 -19.925781 -0.765625 -20.488281 0.578125 -20.65625 C 1.921875 -20.820312 3.242188 -20.578125 4.546875 -19.921875 C 5.847656 -19.265625 7.054688 -18.203125 8.171875 -16.734375 C 9.285156 -15.253906 9.984375 -13.800781 10.265625 -12.375 C 10.554688 -10.945312 10.441406 -9.609375 9.921875 -8.359375 C 9.398438 -7.117188 8.515625 -6.019531 7.265625 -5.0625 Z M 6.96875 -5.4375 C 7.457031 -5.820312 7.753906 -6.382812 7.859375 -7.125 C 7.972656 -7.875 7.800781 -8.84375 7.34375 -10.03125 C 6.882812 -11.21875 6.050781 -12.609375 4.84375 -14.203125 C 3.632812 -15.785156 2.515625 -16.957031 1.484375 -17.71875 C 0.460938 -18.488281 -0.414062 -18.921875 -1.15625 -19.015625 C -1.90625 -19.109375 -2.523438 -18.960938 -3.015625 -18.578125 C -3.503906 -18.210938 -3.800781 -17.65625 -3.90625 -16.90625 C -4.019531 -16.164062 -3.84375 -15.203125 -3.375 -14.015625 C -2.914062 -12.828125 -2.082031 -11.441406 -0.875 -9.859375 C 0.332031 -8.265625 1.445312 -7.082031 2.46875 -6.3125 C 3.488281 -5.550781 4.367188 -5.125 5.109375 -5.03125 C 5.859375 -4.9375 6.476562 -5.070312 6.96875 -5.4375 Z M 6.96875 -5.4375 "/></g></g></g><g fill="#000000" fill-opacity="1"><g transform="translate(71.6489, 45.50371)"><g><path d="M -3.28125 -12.6875 L 2.390625 -2.578125 L 4.421875 -2.890625 L 4.59375 -2.578125 L 0.625 -0.359375 L 0.453125 -0.671875 L 1.75 -2.21875 L -5.5 -15.15625 L -7.1875 -14.765625 L -7.375 -15.078125 L -5.171875 -16.3125 C -4.441406 -16.71875 -3.789062 -16.90625 -3.21875 -16.875 C -2.65625 -16.84375 -2.0625 -16.707031 -1.4375 -16.46875 L 9.625 -12.390625 L 4.9375 -20.75 L 2.9375 -20.453125 L 2.75 -20.765625 L 6.71875 -22.984375 L 6.90625 -22.671875 L 5.578125 -21.109375 L 13.421875 -7.125 L 12.78125 -6.765625 Z M -3.28125 -12.6875 "/></g></g></g><g fill="#000000" fill-opacity="1"><g transform="translate(91.79372, 34.693969)"><g><path d="M 0.96875 -0.78125 L 2.171875 -1.65625 L -3.546875 -15.859375 L -5 -15.65625 L -5.140625 -16 L 6.734375 -20.765625 L 8.34375 -16.765625 L 7.6875 -16.5 C 7.320312 -16.601562 6.960938 -16.78125 6.609375 -17.03125 C 5.816406 -17.644531 5.234375 -18.414062 4.859375 -19.34375 L 0.09375 -17.421875 L 2.90625 -10.4375 L 5.453125 -11.46875 C 5.328125 -12.070312 5.304688 -12.675781 5.390625 -13.28125 C 5.410156 -13.550781 5.460938 -13.816406 5.546875 -14.078125 L 6.21875 -14.359375 L 8.234375 -9.375 L 7.5625 -9.09375 C 7.3125 -9.238281 7.082031 -9.398438 6.875 -9.578125 C 6.394531 -9.953125 5.992188 -10.398438 5.671875 -10.921875 L 3.125 -9.890625 L 5.84375 -3.125 L 7.296875 -3.3125 L 7.4375 -2.984375 L 1.109375 -0.453125 Z M 0.96875 -0.78125 "/></g></g></g><g fill="#000000" fill-opacity="1"><g transform="translate(110.276606, 27.580981)"><g><path d="M 1.0625 -0.65625 L 2.34375 -1.359375 L -1.578125 -16.171875 L -3.046875 -16.15625 L -3.140625 -16.5 L 9.234375 -19.78125 L 10.34375 -15.609375 L 9.65625 -15.421875 C 9.300781 -15.585938 8.960938 -15.8125 8.640625 -16.09375 C 7.929688 -16.800781 7.445312 -17.632812 7.1875 -18.59375 L 2.21875 -17.28125 L 4.15625 -10.015625 L 6.8125 -10.71875 C 6.769531 -11.332031 6.828125 -11.929688 6.984375 -12.515625 C 7.035156 -12.773438 7.117188 -13.035156 7.234375 -13.296875 L 7.921875 -13.484375 L 9.3125 -8.296875 L 8.625 -8.109375 C 8.382812 -8.265625 8.175781 -8.441406 8 -8.640625 C 7.570312 -9.085938 7.222656 -9.585938 6.953125 -10.140625 L 4.296875 -9.4375 L 6.203125 -2.265625 L 11.640625 -3.703125 C 11.378906 -4.671875 11.382812 -5.640625 11.65625 -6.609375 C 11.78125 -7.023438 11.957031 -7.390625 12.1875 -7.703125 L 12.875 -7.890625 L 13.984375 -3.71875 L 1.15625 -0.3125 Z M 1.0625 -0.65625 "/></g></g></g><g fill="#000000" fill-opacity="1"><g transform="translate(130.319505, 22.628382)"><g><path d="M 7.046875 -0.609375 C 5.921875 -0.453125 4.832031 -0.5625 3.78125 -0.9375 C 3.3125 -1.09375 2.898438 -1.300781 2.546875 -1.5625 C 2.390625 -1.164062 2.160156 -0.804688 1.859375 -0.484375 C 1.609375 -0.234375 1.46875 -0.0976562 1.4375 -0.078125 L 0.84375 0.015625 L 0.21875 -4.484375 L 1.171875 -4.625 C 1.515625 -3.882812 1.941406 -3.242188 2.453125 -2.703125 C 3.609375 -1.441406 4.953125 -0.921875 6.484375 -1.140625 C 7.378906 -1.265625 8.054688 -1.628906 8.515625 -2.234375 C 8.984375 -2.847656 9.15625 -3.609375 9.03125 -4.515625 C 8.957031 -5.035156 8.738281 -5.476562 8.375 -5.84375 C 8.019531 -6.21875 7.585938 -6.53125 7.078125 -6.78125 C 6.578125 -7.03125 5.878906 -7.335938 4.984375 -7.703125 C 3.859375 -8.140625 2.941406 -8.546875 2.234375 -8.921875 C 1.535156 -9.304688 0.90625 -9.828125 0.34375 -10.484375 C -0.21875 -11.140625 -0.570312 -11.957031 -0.71875 -12.9375 C -0.820312 -13.707031 -0.695312 -14.4375 -0.34375 -15.125 C 0.0078125 -15.8125 0.59375 -16.398438 1.40625 -16.890625 C 2.226562 -17.390625 3.269531 -17.726562 4.53125 -17.90625 C 5.445312 -18.03125 6.398438 -17.890625 7.390625 -17.484375 C 7.753906 -17.347656 8.128906 -17.148438 8.515625 -16.890625 C 8.734375 -17.328125 8.972656 -17.6875 9.234375 -17.96875 C 9.484375 -18.21875 9.625 -18.347656 9.65625 -18.359375 L 10.234375 -18.4375 L 10.859375 -13.9375 L 9.921875 -13.8125 C 9.609375 -14.539062 9.195312 -15.1875 8.6875 -15.75 C 8.238281 -16.300781 7.707031 -16.734375 7.09375 -17.046875 C 6.476562 -17.359375 5.804688 -17.460938 5.078125 -17.359375 C 4.460938 -17.273438 3.96875 -16.957031 3.59375 -16.40625 C 3.21875 -15.851562 3.082031 -15.203125 3.1875 -14.453125 C 3.269531 -13.859375 3.507812 -13.351562 3.90625 -12.9375 C 4.3125 -12.519531 4.785156 -12.171875 5.328125 -11.890625 C 5.867188 -11.617188 6.609375 -11.296875 7.546875 -10.921875 C 8.628906 -10.492188 9.503906 -10.097656 10.171875 -9.734375 C 10.847656 -9.367188 11.445312 -8.890625 11.96875 -8.296875 C 12.488281 -7.710938 12.804688 -6.992188 12.921875 -6.140625 C 13.046875 -5.285156 12.910156 -4.472656 12.515625 -3.703125 C 12.117188 -2.929688 11.457031 -2.269531 10.53125 -1.71875 C 9.601562 -1.175781 8.441406 -0.804688 7.046875 -0.609375 Z M 7.046875 -0.609375 "/></g></g></g><g fill="#000000" fill-opacity="1"><g transform="translate(149.650902, 20.262144)"><g><path d="M 7.0625 0.21875 C 5.925781 0.238281 4.859375 0.00390625 3.859375 -0.484375 C 3.410156 -0.691406 3.035156 -0.945312 2.734375 -1.25 C 2.515625 -0.875 2.238281 -0.539062 1.90625 -0.25 C 1.625 -0.0390625 1.46875 0.0703125 1.4375 0.09375 L 0.84375 0.109375 L 0.75 -4.4375 L 1.703125 -4.453125 C 1.960938 -3.679688 2.3125 -2.988281 2.75 -2.375 C 3.757812 -1 5.035156 -0.328125 6.578125 -0.359375 C 7.484375 -0.378906 8.203125 -0.664062 8.734375 -1.21875 C 9.265625 -1.769531 9.519531 -2.503906 9.5 -3.421875 C 9.488281 -3.941406 9.320312 -4.40625 9 -4.8125 C 8.6875 -5.226562 8.296875 -5.585938 7.828125 -5.890625 C 7.359375 -6.203125 6.703125 -6.585938 5.859375 -7.046875 C 4.796875 -7.628906 3.929688 -8.148438 3.265625 -8.609375 C 2.609375 -9.066406 2.039062 -9.65625 1.5625 -10.375 C 1.09375 -11.09375 0.847656 -11.945312 0.828125 -12.9375 C 0.804688 -13.71875 1.007812 -14.425781 1.4375 -15.0625 C 1.863281 -15.707031 2.515625 -16.222656 3.390625 -16.609375 C 4.265625 -17.003906 5.335938 -17.21875 6.609375 -17.25 C 7.535156 -17.257812 8.46875 -17.007812 9.40625 -16.5 C 9.75 -16.320312 10.101562 -16.070312 10.46875 -15.75 C 10.726562 -16.175781 11 -16.507812 11.28125 -16.75 C 11.5625 -16.96875 11.71875 -17.082031 11.75 -17.09375 L 12.34375 -17.109375 L 12.4375 -12.5625 L 11.484375 -12.546875 C 11.253906 -13.304688 10.925781 -13.992188 10.5 -14.609375 C 10.113281 -15.210938 9.628906 -15.707031 9.046875 -16.09375 C 8.472656 -16.476562 7.820312 -16.660156 7.09375 -16.640625 C 6.46875 -16.628906 5.9375 -16.367188 5.5 -15.859375 C 5.0625 -15.359375 4.851562 -14.726562 4.875 -13.96875 C 4.882812 -13.375 5.066406 -12.847656 5.421875 -12.390625 C 5.773438 -11.929688 6.203125 -11.53125 6.703125 -11.1875 C 7.210938 -10.851562 7.90625 -10.441406 8.78125 -9.953125 C 9.800781 -9.398438 10.625 -8.90625 11.25 -8.46875 C 11.882812 -8.03125 12.421875 -7.484375 12.859375 -6.828125 C 13.304688 -6.179688 13.539062 -5.429688 13.5625 -4.578125 C 13.570312 -3.710938 13.335938 -2.921875 12.859375 -2.203125 C 12.378906 -1.484375 11.644531 -0.90625 10.65625 -0.46875 C 9.675781 -0.03125 8.476562 0.195312 7.0625 0.21875 Z M 7.0625 0.21875 "/></g></g></g><g fill="#000000" fill-opacity="1"><g transform="translate(169.225187, 20.287647)"><g><path d="M 1.203125 0.09375 L 1.234375 -0.265625 L 2.671875 -0.5 L 3.953125 -15.75 L 2.578125 -16.234375 L 2.609375 -16.59375 L 9.390625 -16.015625 L 9.359375 -15.65625 L 7.90625 -15.421875 L 6.625 -0.171875 L 8.015625 0.3125 L 7.984375 0.671875 Z M 1.203125 0.09375 "/></g></g></g><g fill="#000000" fill-opacity="1"><g transform="translate(183.663719, 21.564499)"><g><path d="M 8.59375 2.09375 C 7.0625 1.789062 5.785156 1.191406 4.765625 0.296875 C 3.753906 -0.597656 3.066406 -1.75 2.703125 -3.15625 C 2.335938 -4.5625 2.335938 -6.175781 2.703125 -8 C 3.066406 -9.800781 3.6875 -11.28125 4.5625 -12.4375 C 5.445312 -13.601562 6.53125 -14.40625 7.8125 -14.84375 C 9.09375 -15.28125 10.5 -15.347656 12.03125 -15.046875 C 13.570312 -14.734375 14.851562 -14.128906 15.875 -13.234375 C 16.894531 -12.335938 17.582031 -11.179688 17.9375 -9.765625 C 18.300781 -8.359375 18.300781 -6.753906 17.9375 -4.953125 C 17.570312 -3.128906 16.953125 -1.640625 16.078125 -0.484375 C 15.203125 0.671875 14.117188 1.46875 12.828125 1.90625 C 11.546875 2.34375 10.132812 2.40625 8.59375 2.09375 Z M 8.703125 1.609375 C 9.316406 1.734375 9.9375 1.585938 10.5625 1.171875 C 11.1875 0.765625 11.789062 0 12.375 -1.125 C 12.957031 -2.257812 13.441406 -3.8125 13.828125 -5.78125 C 14.222656 -7.726562 14.367188 -9.335938 14.265625 -10.609375 C 14.171875 -11.878906 13.910156 -12.820312 13.484375 -13.4375 C 13.066406 -14.0625 12.550781 -14.4375 11.9375 -14.5625 C 11.332031 -14.675781 10.710938 -14.53125 10.078125 -14.125 C 9.453125 -13.71875 8.847656 -12.945312 8.265625 -11.8125 C 7.679688 -10.675781 7.191406 -9.132812 6.796875 -7.1875 C 6.410156 -5.21875 6.265625 -3.597656 6.359375 -2.328125 C 6.460938 -1.066406 6.726562 -0.125 7.15625 0.5 C 7.582031 1.125 8.097656 1.492188 8.703125 1.609375 Z M 8.703125 1.609375 "/></g></g></g><g fill="#000000" fill-opacity="1"><g transform="translate(205.951421, 26.392777)"><g><path d="M 7.34375 -10.859375 L 3.515625 0.09375 L 5.09375 1.390625 L 4.96875 1.734375 L 0.671875 0.234375 L 0.796875 -0.109375 L 2.84375 -0.15625 L 7.734375 -14.15625 L 6.3125 -15.15625 L 6.4375 -15.5 L 8.8125 -14.671875 C 9.601562 -14.390625 10.175781 -14.023438 10.53125 -13.578125 C 10.882812 -13.140625 11.175781 -12.609375 11.40625 -11.984375 L 15.671875 -0.96875 L 18.828125 -10.015625 L 17.265625 -11.328125 L 17.390625 -11.671875 L 21.6875 -10.171875 L 21.5625 -9.828125 L 19.515625 -9.78125 L 14.21875 5.359375 L 13.53125 5.125 Z M 7.34375 -10.859375 "/></g></g></g><g fill="#000000" fill-opacity="1"><g transform="translate(227.370965, 34.295414)"><g><path d="M -0.28125 -0.546875 L 1.765625 -0.3125 L 14.84375 -11.5 L 15.484375 -11.1875 L 14.1875 6.40625 L 15.09375 7.265625 L 14.9375 7.59375 L 12.375 6.296875 C 11.625 5.910156 11.097656 5.429688 10.796875 4.859375 C 10.503906 4.285156 10.382812 3.675781 10.4375 3.03125 L 10.640625 -0.09375 L 5.546875 -2.6875 L 2.40625 0.015625 L 3.6875 1.46875 L 3.53125 1.796875 L -0.4375 -0.21875 Z M 6.03125 -3.109375 L 10.703125 -0.734375 L 11.203125 -7.53125 Z M 6.03125 -3.109375 "/></g></g></g><g fill="#000000" fill-opacity="1"><g transform="translate(246.32397, 44.356249)"><g><path d="M 1.203125 0.375 L 2.578125 0.875 L 11.171875 -11.796875 L 10.203125 -12.890625 L 10.390625 -13.1875 L 16.03125 -9.359375 L 15.84375 -9.0625 L 14.4375 -9.578125 L 5.765625 3.203125 L 10.03125 6.09375 C 10.601562 5.25 11.335938 4.613281 12.234375 4.1875 C 12.640625 4.019531 13.035156 3.921875 13.421875 3.890625 L 14.015625 4.296875 L 11.59375 7.859375 L 1 0.671875 Z M 1.203125 0.375 "/></g></g></g><g fill="#000000" fill-opacity="1"><g transform="translate(262.600752, 55.937589)"><g/></g></g><g fill="#000000" fill-opacity="1"><g transform="translate(271.861228, 63.746717)"><g><path d="M 3.96875 4.484375 C 3.1875 3.703125 2.628906 2.929688 2.296875 2.171875 C 1.972656 1.410156 1.84375 0.722656 1.90625 0.109375 C 1.96875 -0.503906 2.179688 -0.988281 2.546875 -1.34375 C 2.929688 -1.726562 3.351562 -1.921875 3.8125 -1.921875 C 4.269531 -1.921875 4.691406 -1.726562 5.078125 -1.34375 C 5.171875 -1.25 5.253906 -1.148438 5.328125 -1.046875 C 5.398438 -0.941406 5.453125 -0.867188 5.484375 -0.828125 L 5.671875 -0.578125 L 2.953125 2.125 C 2.960938 2.132812 3.035156 2.300781 3.171875 2.625 C 3.390625 2.988281 3.679688 3.351562 4.046875 3.71875 C 4.722656 4.40625 5.535156 4.664062 6.484375 4.5 C 7.441406 4.332031 8.519531 3.65625 9.71875 2.46875 C 10.90625 1.28125 11.5625 0.222656 11.6875 -0.703125 C 11.820312 -1.640625 11.507812 -2.492188 10.75 -3.265625 C 10.457031 -3.566406 10.128906 -3.796875 9.765625 -3.953125 C 9.410156 -4.109375 9.003906 -4.25 8.546875 -4.375 C 8.148438 -4.46875 7.726562 -4.53125 7.28125 -4.5625 L 7.203125 -5.140625 L 13.5625 -10.125 L 18.546875 -5.109375 C 19.222656 -5.640625 19.921875 -5.953125 20.640625 -6.046875 C 20.960938 -6.117188 21.273438 -6.140625 21.578125 -6.109375 L 22.078125 -5.59375 L 18.78125 -2.3125 L 12.65625 -8.46875 L 8.296875 -5.0625 C 8.566406 -5.007812 8.921875 -4.898438 9.359375 -4.734375 C 10.253906 -4.367188 10.972656 -3.914062 11.515625 -3.375 C 13.160156 -1.71875 14.046875 -0.144531 14.171875 1.34375 C 14.304688 2.832031 13.773438 4.171875 12.578125 5.359375 C 11.359375 6.566406 10.003906 7.113281 8.515625 7 C 7.035156 6.882812 5.519531 6.046875 3.96875 4.484375 Z M 3.96875 4.484375 "/></g></g></g><g fill="#000000" fill-opacity="1"><g transform="translate(59.477198, 121.309408)"><g><path d="M 2.015625 -7.925781 C 2.015625 -8.796875 2.652344 -9.09375 2.652344 -9.09375 L 0.375 -9.09375 C 0.375 -9.09375 1.011719 -8.707031 1.011719 -7.925781 L 1.011719 -1.15625 C 1.011719 -0.375 0.375 0 0.375 0 L 2.652344 0 C 2.652344 0 2.015625 -0.375 2.015625 -1.15625 Z M 2.015625 -7.925781 "/></g></g></g><g fill="#000000" fill-opacity="1"><g transform="translate(64.350009, 121.309408)"><g><path d="M 5.445312 -4.679688 L 5.378906 -4.066406 L 9.238281 -3.664062 L 9.238281 -3.597656 C 9.238281 -2 7.511719 -0.804688 5.183594 -0.804688 C 3.015625 -0.804688 1.402344 -2.519531 1.402344 -4.546875 C 1.402344 -6.496094 3 -8.277344 5.171875 -8.277344 C 7.5625 -8.277344 8.71875 -7.261719 8.71875 -5.964844 L 9.824219 -5.835938 C 9.824219 -7.898438 7.796875 -9.226562 5.210938 -9.226562 C 2.625 -9.226562 0.414062 -7.121094 0.414062 -4.546875 C 0.414062 -1.949219 2.625 0.144531 5.210938 0.144531 C 7.71875 0.144531 9.863281 -1.285156 9.863281 -3.496094 L 9.863281 -4.222656 Z M 5.445312 -4.679688 "/></g></g></g><g fill="#000000" fill-opacity="1"><g transform="translate(76.575163, 121.309408)"><g><path d="M 7.914062 -1.742188 L 6.367188 -3.742188 C 7.785156 -3.769531 8.925781 -4.832031 8.925781 -6.457031 C 8.925781 -7.914062 7.746094 -9.082031 6.289062 -9.082031 L 6.289062 -9.09375 L 0.375 -9.09375 C 0.375 -9.09375 1.011719 -8.679688 1.011719 -7.808594 L 1.011719 -1.15625 C 1.011719 -0.375 0.375 0 0.375 0 L 2.652344 0 C 2.652344 0 2.015625 -0.375 2.015625 -1.15625 L 2.015625 -3.730469 L 5.171875 -3.730469 L 7.015625 -1.351562 C 7.679688 -0.492188 8.925781 0 10.003906 0 L 10.003906 -0.492188 C 9.1875 -0.492188 8.40625 -1.089844 7.914062 -1.742188 Z M 2.015625 -7.222656 C 2.015625 -7.71875 2.429688 -8.132812 2.9375 -8.132812 L 6.054688 -8.132812 C 7.238281 -8.132812 8.109375 -7.222656 7.875 -5.988281 C 7.71875 -5.210938 6.820312 -4.679688 5.925781 -4.679688 L 2.015625 -4.679688 Z M 2.015625 -7.222656 "/></g></g></g><g fill="#000000" fill-opacity="1"><g transform="translate(88.540524, 121.309408)"><g><path d="M 6.976562 -0.949219 L 2.949219 -0.949219 C 2.441406 -0.949219 2.039062 -1.351562 2.039062 -1.859375 L 2.039062 -4.144531 L 5.066406 -4.144531 C 5.585938 -4.144531 6.027344 -3.496094 6.027344 -3.496094 L 6.027344 -5.71875 C 6.027344 -5.71875 5.5625 -5.09375 5.066406 -5.09375 L 2.039062 -5.09375 L 2.039062 -7.210938 C 2.039062 -7.730469 2.457031 -8.132812 2.960938 -8.132812 L 6.652344 -8.132812 C 7.121094 -8.132812 8.121094 -6.652344 8.121094 -6.652344 L 7.574219 -9.082031 L 0.402344 -9.082031 C 0.402344 -9.082031 1.039062 -8.628906 1.039062 -7.925781 L 1.039062 -1.183594 C 1.039062 -0.375 0.402344 0.0117188 0.402344 0.0117188 L 7.886719 0.0117188 L 8.433594 -2.675781 C 8.433594 -2.675781 7.433594 -0.949219 6.976562 -0.949219 Z M 6.976562 -0.949219 "/></g></g></g><g fill="#000000" fill-opacity="1"><g transform="translate(99.219876, 121.309408)"><g><path d="M 0.363281 -9.09375 C 0.363281 -9.09375 1.011719 -8.679688 1.011719 -7.925781 L 1.011719 -1.726562 C 1.011719 0.507812 -0.792969 2.535156 -3.027344 2.535156 L -3.027344 3.039062 C -0.375 3.039062 2.015625 0.882812 2.015625 -1.765625 L 2.015625 -7.925781 C 2.015625 -8.71875 2.652344 -9.09375 2.652344 -9.09375 Z M 0.363281 -9.09375 "/></g></g></g><g fill="#000000" fill-opacity="1"><g transform="translate(104.066712, 121.309408)"><g><path d="M 10.941406 0 C 10.941406 0 10.136719 -0.335938 9.65625 -1.351562 L 6.953125 -8.132812 L 6.574219 -9.082031 L 4.25 -9.082031 L 3.871094 -8.132812 L 1.167969 -1.339844 C 0.6875 -0.335938 -0.105469 0 -0.105469 0 L 0.636719 0 L 0.636719 0.0117188 L 1.714844 0.0117188 L 1.714844 0 L 3.054688 0 C 3.054688 0 2.027344 -0.742188 2.195312 -1.207031 L 3 -3.234375 L 7.835938 -3.234375 L 8.628906 -1.222656 C 8.824219 -0.753906 7.769531 0 7.769531 0 L 9.121094 0 L 9.121094 0.0117188 L 10.199219 0.0117188 L 10.199219 0 Z M 3.378906 -4.183594 L 4.949219 -8.132812 L 5.886719 -8.132812 L 7.457031 -4.183594 Z M 3.378906 -4.183594 "/></g></g></g><g fill="#000000" fill-opacity="1"><g transform="translate(116.759508, 121.309408)"><g/></g></g><g fill="#000000" fill-opacity="1"><g transform="translate(122.502649, 121.309408)"><g><path d="M 6.289062 -9.082031 L 6.289062 -9.09375 L 0.375 -9.09375 C 0.375 -9.09375 1.011719 -8.679688 1.011719 -7.808594 L 1.011719 -1.15625 C 1.011719 -0.375 0.375 0 0.375 0 L 2.652344 0 C 2.652344 0 2.015625 -0.375 2.015625 -1.15625 L 2.015625 -3.730469 L 6.289062 -3.730469 C 7.746094 -3.730469 8.925781 -4.808594 8.925781 -6.457031 C 8.925781 -7.914062 7.746094 -9.082031 6.289062 -9.082031 Z M 5.925781 -4.679688 L 2.015625 -4.679688 L 2.015625 -7.222656 C 2.015625 -7.71875 2.429688 -8.132812 2.9375 -8.132812 L 6.054688 -8.132812 C 7.238281 -8.132812 8.109375 -7.222656 7.875 -5.988281 C 7.71875 -5.210938 6.820312 -4.679688 5.925781 -4.679688 Z M 5.925781 -4.679688 "/></g></g></g><g fill="#000000" fill-opacity="1"><g transform="translate(133.584687, 121.309408)"><g><path d="M 7.914062 -1.742188 L 6.367188 -3.742188 C 7.785156 -3.769531 8.925781 -4.832031 8.925781 -6.457031 C 8.925781 -7.914062 7.746094 -9.082031 6.289062 -9.082031 L 6.289062 -9.09375 L 0.375 -9.09375 C 0.375 -9.09375 1.011719 -8.679688 1.011719 -7.808594 L 1.011719 -1.15625 C 1.011719 -0.375 0.375 0 0.375 0 L 2.652344 0 C 2.652344 0 2.015625 -0.375 2.015625 -1.15625 L 2.015625 -3.730469 L 5.171875 -3.730469 L 7.015625 -1.351562 C 7.679688 -0.492188 8.925781 0 10.003906 0 L 10.003906 -0.492188 C 9.1875 -0.492188 8.40625 -1.089844 7.914062 -1.742188 Z M 2.015625 -7.222656 C 2.015625 -7.71875 2.429688 -8.132812 2.9375 -8.132812 L 6.054688 -8.132812 C 7.238281 -8.132812 8.109375 -7.222656 7.875 -5.988281 C 7.71875 -5.210938 6.820312 -4.679688 5.925781 -4.679688 L 2.015625 -4.679688 Z M 2.015625 -7.222656 "/></g></g></g><g fill="#000000" fill-opacity="1"><g transform="translate(145.550049, 121.309408)"><g><path d="M 6.976562 -0.949219 L 2.949219 -0.949219 C 2.441406 -0.949219 2.039062 -1.351562 2.039062 -1.859375 L 2.039062 -4.144531 L 5.066406 -4.144531 C 5.585938 -4.144531 6.027344 -3.496094 6.027344 -3.496094 L 6.027344 -5.71875 C 6.027344 -5.71875 5.5625 -5.09375 5.066406 -5.09375 L 2.039062 -5.09375 L 2.039062 -7.210938 C 2.039062 -7.730469 2.457031 -8.132812 2.960938 -8.132812 L 6.652344 -8.132812 C 7.121094 -8.132812 8.121094 -6.652344 8.121094 -6.652344 L 7.574219 -9.082031 L 0.402344 -9.082031 C 0.402344 -9.082031 1.039062 -8.628906 1.039062 -7.925781 L 1.039062 -1.183594 C 1.039062 -0.375 0.402344 0.0117188 0.402344 0.0117188 L 7.886719 0.0117188 L 8.433594 -2.675781 C 8.433594 -2.675781 7.433594 -0.949219 6.976562 -0.949219 Z M 6.976562 -0.949219 "/></g></g></g><g fill="#000000" fill-opacity="1"><g transform="translate(156.229401, 121.309408)"><g><path d="M 1.6875 -6.511719 C 1.6875 -7.71875 2.78125 -8.277344 4.679688 -8.277344 C 6.535156 -8.277344 7.628906 -7.640625 7.628906 -6.183594 L 8.757812 -6.054688 C 8.757812 -7.355469 7.835938 -9.199219 4.679688 -9.199219 C 1.609375 -9.199219 0.6875 -7.859375 0.6875 -6.511719 C 0.6875 -3.507812 7.847656 -4.144531 7.847656 -2.390625 C 7.847656 -1.285156 6.78125 -0.804688 4.730469 -0.804688 C 3.015625 -0.804688 1.609375 -1.222656 1.609375 -3.496094 L 0.492188 -3.613281 C 0.492188 -1.039062 1.921875 0.144531 4.730469 0.144531 C 7.496094 0.144531 8.847656 -1.039062 8.847656 -2.390625 C 8.847656 -5.121094 1.6875 -4.523438 1.6875 -6.511719 Z M 1.6875 -6.511719 "/></g></g></g><g fill="#000000" fill-opacity="1"><g transform="translate(167.415348, 121.309408)"><g><path d="M 7.484375 -4.898438 C 8.148438 -5.351562 8.472656 -5.988281 8.472656 -7.003906 C 8.472656 -8.171875 7.472656 -9.082031 6.300781 -9.082031 L 0.402344 -9.082031 C 0.402344 -9.082031 1.039062 -8.808594 1.039062 -7.925781 L 1.039062 -1.15625 C 1.039062 -0.363281 0.402344 0.0117188 0.402344 0.0117188 L 6.457031 0.0117188 C 7.757812 0.0117188 8.875 -1.027344 8.863281 -2.324219 C 8.863281 -3.535156 8.394531 -4.417969 7.484375 -4.898438 Z M 5.9375 -8.132812 C 6.992188 -8.132812 7.796875 -7.25 7.355469 -6.183594 C 7.109375 -5.574219 6.484375 -5.328125 5.835938 -5.328125 L 2.039062 -5.328125 L 2.039062 -7.160156 C 2.039062 -7.707031 2.480469 -8.132812 3.027344 -8.132812 Z M 6.042969 -0.949219 L 2.960938 -0.949219 C 2.457031 -0.949219 2.039062 -1.351562 2.039062 -1.859375 L 2.039062 -4.378906 L 5.898438 -4.378906 C 6.796875 -4.378906 7.613281 -3.910156 7.820312 -3.054688 C 8.121094 -1.859375 7.199219 -0.949219 6.042969 -0.949219 Z M 6.042969 -0.949219 "/></g></g></g><g fill="#000000" fill-opacity="1"><g transform="translate(178.640264, 121.309408)"><g><path d="M 2.015625 -7.925781 C 2.015625 -8.796875 2.652344 -9.09375 2.652344 -9.09375 L 0.375 -9.09375 C 0.375 -9.09375 1.011719 -8.707031 1.011719 -7.925781 L 1.011719 -1.15625 C 1.011719 -0.375 0.375 0 0.375 0 L 2.652344 0 C 2.652344 0 2.015625 -0.375 2.015625 -1.15625 Z M 2.015625 -7.925781 "/></g></g></g><g fill="#000000" fill-opacity="1"><g transform="translate(183.51307, 121.309408)"><g><path d="M 9.277344 -9.042969 L 9.277344 -9.09375 L 0.558594 -9.09375 L 0.558594 -9.042969 L 0.15625 -6.652344 C 0.15625 -6.652344 1.128906 -8.132812 1.597656 -8.132812 L 3.78125 -8.132812 C 4.171875 -7.925781 4.417969 -7.757812 4.417969 -7.300781 L 4.417969 -1.15625 C 4.417969 -0.335938 3.78125 0 3.78125 0 L 6.066406 0 C 6.066406 0 5.417969 -0.375 5.417969 -1.15625 L 5.417969 -7.300781 C 5.417969 -7.757812 5.664062 -7.925781 6.054688 -8.132812 L 8.238281 -8.132812 C 8.707031 -8.132812 9.691406 -6.652344 9.691406 -6.652344 Z M 9.277344 -9.042969 "/></g></g></g><g fill="#000000" fill-opacity="1"><g transform="translate(195.218623, 121.309408)"><g><path d="M 6.976562 -0.949219 L 2.949219 -0.949219 C 2.441406 -0.949219 2.039062 -1.351562 2.039062 -1.859375 L 2.039062 -4.144531 L 5.066406 -4.144531 C 5.585938 -4.144531 6.027344 -3.496094 6.027344 -3.496094 L 6.027344 -5.71875 C 6.027344 -5.71875 5.5625 -5.09375 5.066406 -5.09375 L 2.039062 -5.09375 L 2.039062 -7.210938 C 2.039062 -7.730469 2.457031 -8.132812 2.960938 -8.132812 L 6.652344 -8.132812 C 7.121094 -8.132812 8.121094 -6.652344 8.121094 -6.652344 L 7.574219 -9.082031 L 0.402344 -9.082031 C 0.402344 -9.082031 1.039062 -8.628906 1.039062 -7.925781 L 1.039062 -1.183594 C 1.039062 -0.375 0.402344 0.0117188 0.402344 0.0117188 L 7.886719 0.0117188 L 8.433594 -2.675781 C 8.433594 -2.675781 7.433594 -0.949219 6.976562 -0.949219 Z M 6.976562 -0.949219 "/></g></g></g><g fill="#000000" fill-opacity="1"><g transform="translate(205.897969, 121.309408)"><g><path d="M 7.914062 -1.742188 L 6.367188 -3.742188 C 7.785156 -3.769531 8.925781 -4.832031 8.925781 -6.457031 C 8.925781 -7.914062 7.746094 -9.082031 6.289062 -9.082031 L 6.289062 -9.09375 L 0.375 -9.09375 C 0.375 -9.09375 1.011719 -8.679688 1.011719 -7.808594 L 1.011719 -1.15625 C 1.011719 -0.375 0.375 0 0.375 0 L 2.652344 0 C 2.652344 0 2.015625 -0.375 2.015625 -1.15625 L 2.015625 -3.730469 L 5.171875 -3.730469 L 7.015625 -1.351562 C 7.679688 -0.492188 8.925781 0 10.003906 0 L 10.003906 -0.492188 C 9.1875 -0.492188 8.40625 -1.089844 7.914062 -1.742188 Z M 2.015625 -7.222656 C 2.015625 -7.71875 2.429688 -8.132812 2.9375 -8.132812 L 6.054688 -8.132812 C 7.238281 -8.132812 8.109375 -7.222656 7.875 -5.988281 C 7.71875 -5.210938 6.820312 -4.679688 5.925781 -4.679688 L 2.015625 -4.679688 Z M 2.015625 -7.222656 "/></g></g></g><g fill="#000000" fill-opacity="1"><g transform="translate(217.863325, 121.309408)"><g><path d="M 2.015625 -7.925781 C 2.015625 -8.796875 2.652344 -9.09375 2.652344 -9.09375 L 0.375 -9.09375 C 0.375 -9.09375 1.011719 -8.707031 1.011719 -7.925781 L 1.011719 -1.15625 C 1.011719 -0.375 0.375 0 0.375 0 L 2.652344 0 C 2.652344 0 2.015625 -0.375 2.015625 -1.15625 Z M 2.015625 -7.925781 "/></g></g></g><g fill="#000000" fill-opacity="1"><g transform="translate(222.736131, 121.309408)"><g><path d="M 10.941406 0 C 10.941406 0 10.136719 -0.335938 9.65625 -1.351562 L 6.953125 -8.132812 L 6.574219 -9.082031 L 4.25 -9.082031 L 3.871094 -8.132812 L 1.167969 -1.339844 C 0.6875 -0.335938 -0.105469 0 -0.105469 0 L 0.636719 0 L 0.636719 0.0117188 L 1.714844 0.0117188 L 1.714844 0 L 3.054688 0 C 3.054688 0 2.027344 -0.742188 2.195312 -1.207031 L 3 -3.234375 L 7.835938 -3.234375 L 8.628906 -1.222656 C 8.824219 -0.753906 7.769531 0 7.769531 0 L 9.121094 0 L 9.121094 0.0117188 L 10.199219 0.0117188 L 10.199219 0 Z M 3.378906 -4.183594 L 4.949219 -8.132812 L 5.886719 -8.132812 L 7.457031 -4.183594 Z M 3.378906 -4.183594 "/></g></g></g><g fill="#000000" fill-opacity="1"><g transform="translate(235.428921, 121.309408)"><g><path d="M 7.859375 -9.082031 C 7.859375 -9.082031 8.511719 -8.746094 8.511719 -7.925781 L 8.511719 -0.949219 L 7.976562 -0.949219 L 3.273438 -9.082031 L 1.027344 -9.082031 L 1.027344 -1.15625 C 1.027344 -0.363281 0.390625 0.0117188 0.390625 0.0117188 L 2.664062 0.0117188 C 2.664062 0.0117188 2.027344 -0.390625 2.027344 -1.15625 L 2.027344 -8.132812 L 2.714844 -8.132812 L 7.417969 0 L 9.5 0 L 9.5 -7.925781 C 9.5 -8.746094 10.148438 -9.082031 10.148438 -9.082031 Z M 7.859375 -9.082031 "/></g></g></g><g fill="#000000" fill-opacity="1"><g transform="translate(247.78397, 121.309408)"><g><path d="M 10.941406 0 C 10.941406 0 10.136719 -0.335938 9.65625 -1.351562 L 6.953125 -8.132812 L 6.574219 -9.082031 L 4.25 -9.082031 L 3.871094 -8.132812 L 1.167969 -1.339844 C 0.6875 -0.335938 -0.105469 0 -0.105469 0 L 0.636719 0 L 0.636719 0.0117188 L 1.714844 0.0117188 L 1.714844 0 L 3.054688 0 C 3.054688 0 2.027344 -0.742188 2.195312 -1.207031 L 3 -3.234375 L 7.835938 -3.234375 L 8.628906 -1.222656 C 8.824219 -0.753906 7.769531 0 7.769531 0 L 9.121094 0 L 9.121094 0.0117188 L 10.199219 0.0117188 L 10.199219 0 Z M 3.378906 -4.183594 L 4.949219 -8.132812 L 5.886719 -8.132812 L 7.457031 -4.183594 Z M 3.378906 -4.183594 "/></g></g></g><g fill="#000000" fill-opacity="1"><g transform="translate(64.119794, 146.106314)"><g><path d="M 0.589844 -6.21875 L 0.589844 0 L 4.058594 0 L 4.058594 -0.519531 L 1.164062 -0.519531 L 1.164062 -2.917969 L 3.660156 -2.917969 L 3.660156 -3.429688 L 1.164062 -3.429688 L 1.164062 -5.703125 L 4.058594 -5.703125 L 4.058594 -6.21875 Z M 0.589844 -6.21875 "/></g></g></g><g fill="#000000" fill-opacity="1"><g transform="translate(74.877691, 146.106314)"><g><path d="M 2.296875 -2.949219 C 3.382812 -2.800781 3.835938 -2.433594 3.835938 -1.699219 L 3.835938 -1.625 C 3.835938 -0.871094 3.269531 -0.429688 2.425781 -0.429688 L 2.367188 -0.429688 C 1.53125 -0.429688 0.941406 -0.933594 0.941406 -2.027344 L 0.367188 -2.027344 L 0.367188 -1.945312 C 0.367188 -0.660156 1.078125 0.0859375 2.390625 0.0859375 C 3.636719 0.0859375 4.425781 -0.566406 4.425781 -1.667969 L 4.425781 -1.746094 C 4.425781 -2.703125 3.867188 -3.253906 2.511719 -3.4375 C 1.371094 -3.597656 1.027344 -3.988281 1.027344 -4.648438 L 1.027344 -4.714844 C 1.027344 -5.382812 1.601562 -5.789062 2.359375 -5.789062 L 2.417969 -5.789062 C 3.367188 -5.789062 3.78125 -5.296875 3.78125 -4.113281 L 4.355469 -4.113281 L 4.355469 -4.304688 C 4.355469 -5.589844 3.78125 -6.308594 2.390625 -6.308594 C 1.210938 -6.308594 0.4375 -5.679688 0.4375 -4.640625 L 0.4375 -4.5625 C 0.4375 -3.738281 0.941406 -3.132812 2.296875 -2.949219 Z M 2.296875 -2.949219 "/></g></g></g><g fill="#000000" fill-opacity="1"><g transform="translate(86.050279, 146.106314)"><g><path d="M 2.335938 -5.703125 L 3.921875 -5.703125 L 3.921875 -6.21875 L 0.183594 -6.21875 L 0.183594 -5.703125 L 1.761719 -5.703125 L 1.761719 0 L 2.335938 0 Z M 2.335938 -5.703125 "/></g></g></g><g fill="#000000" fill-opacity="1"><g transform="translate(96.537035, 146.106314)"><g><path d="M 2.027344 -6.285156 L 0.230469 0 L 0.851562 0 L 1.300781 -1.59375 L 3.574219 -1.59375 L 4.019531 0 L 4.640625 0 L 2.847656 -6.285156 Z M 2.433594 -5.652344 L 3.421875 -2.113281 L 1.445312 -2.113281 Z M 1.890625 -6.699219 L 2.433594 -7.226562 L 2.972656 -6.699219 L 3.53125 -6.699219 L 2.6875 -7.574219 L 2.175781 -7.574219 L 1.332031 -6.699219 Z M 1.890625 -6.699219 "/></g></g></g><g fill="#000000" fill-opacity="1"><g transform="translate(107.789365, 146.106314)"><g><path d="M 4.664062 -6.21875 L 4.121094 -6.21875 L 4.121094 -2.417969 L 4.148438 -0.972656 L 1.210938 -6.21875 L 0.589844 -6.21875 L 0.589844 0 L 1.132812 0 L 1.132812 -3.804688 L 1.101562 -5.246094 L 4.042969 0 L 4.664062 0 Z M 4.664062 -6.21875 "/></g></g></g><g fill="#000000" fill-opacity="1"><g transform="translate(119.424483, 146.106314)"><g><path d="M 1.042969 -2.949219 L 1.042969 -3.269531 C 1.042969 -5.039062 1.523438 -5.789062 2.558594 -5.789062 L 2.617188 -5.789062 C 3.546875 -5.789062 3.941406 -5.238281 3.941406 -3.957031 L 4.53125 -3.957031 L 4.53125 -4.179688 C 4.53125 -5.582031 3.890625 -6.308594 2.566406 -6.308594 C 1.140625 -6.308594 0.453125 -5.421875 0.453125 -3.269531 L 0.453125 -2.949219 C 0.453125 -0.796875 1.140625 0.0859375 2.566406 0.0859375 C 3.890625 0.0859375 4.53125 -0.636719 4.53125 -1.945312 L 4.53125 -2.027344 L 3.941406 -2.027344 C 3.941406 -0.996094 3.546875 -0.429688 2.617188 -0.429688 L 2.558594 -0.429688 C 1.515625 -0.429688 1.042969 -1.179688 1.042969 -2.949219 Z M 1.042969 -2.949219 "/></g></g></g><g fill="#000000" fill-opacity="1"><g transform="translate(130.732636, 146.106314)"><g><path d="M 1.203125 -6.21875 L 0.628906 -6.21875 L 0.628906 0 L 1.203125 0 Z M 1.203125 -6.21875 "/></g></g></g><g fill="#000000" fill-opacity="1"><g transform="translate(138.946591, 146.106314)"><g><path d="M 2.027344 -6.285156 L 0.230469 0 L 0.851562 0 L 1.300781 -1.59375 L 3.574219 -1.59375 L 4.019531 0 L 4.640625 0 L 2.847656 -6.285156 Z M 2.433594 -5.652344 L 3.421875 -2.113281 L 1.445312 -2.113281 Z M 2.433594 -5.652344 "/></g></g></g><g fill="#000000" fill-opacity="1"><g transform="translate(150.198926, 146.106314)"><g/></g></g><g fill="#000000" fill-opacity="1"><g transform="translate(158.173645, 146.106314)"><g><path d="M 2.847656 0.0625 L 4.640625 -6.21875 L 4.019531 -6.21875 L 2.433594 -0.566406 L 0.851562 -6.21875 L 0.230469 -6.21875 L 2.027344 0.0625 Z M 2.847656 0.0625 "/></g></g></g><g fill="#000000" fill-opacity="1"><g transform="translate(169.42598, 146.106314)"><g><path d="M 0.589844 -6.21875 L 0.589844 0 L 4.058594 0 L 4.058594 -0.519531 L 1.164062 -0.519531 L 1.164062 -2.917969 L 3.660156 -2.917969 L 3.660156 -3.429688 L 1.164062 -3.429688 L 1.164062 -5.703125 L 4.058594 -5.703125 L 4.058594 -6.21875 Z M 0.589844 -6.21875 "/></g></g></g><g fill="#000000" fill-opacity="1"><g transform="translate(180.183882, 146.106314)"><g><path d="M 3.796875 0 L 3.796875 -0.519531 L 1.164062 -0.519531 L 1.164062 -6.21875 L 0.589844 -6.21875 L 0.589844 0 Z M 3.796875 0 "/></g></g></g><g fill="#000000" fill-opacity="1"><g transform="translate(190.479251, 146.106314)"><g><path d="M 3.929688 -6.21875 L 3.929688 -3.429688 L 1.164062 -3.429688 L 1.164062 -6.21875 L 0.589844 -6.21875 L 0.589844 0 L 1.164062 0 L 1.164062 -2.917969 L 3.929688 -2.917969 L 3.929688 0 L 4.503906 0 L 4.503906 -6.21875 Z M 3.929688 -6.21875 "/></g></g></g><g fill="#000000" fill-opacity="1"><g transform="translate(201.954887, 146.106314)"><g><path d="M 2.027344 -6.285156 L 0.230469 0 L 0.851562 0 L 1.300781 -1.59375 L 3.574219 -1.59375 L 4.019531 0 L 4.640625 0 L 2.847656 -6.285156 Z M 2.433594 -5.652344 L 3.421875 -2.113281 L 1.445312 -2.113281 Z M 2.433594 -5.652344 "/></g></g></g><g fill="#000000" fill-opacity="1"><g transform="translate(213.207222, 146.106314)"><g/></g></g><g fill="#000000" fill-opacity="1"><g transform="translate(221.181941, 146.106314)"><g><path d="M 2.511719 -6.699219 L 1.953125 -6.699219 L 0.121094 0.957031 L 0.679688 0.957031 Z M 2.511719 -6.699219 "/></g></g></g><g fill="#000000" fill-opacity="1"><g transform="translate(230.193369, 146.106314)"><g/></g></g><g fill="#000000" fill-opacity="1"><g transform="translate(238.168078, 146.106314)"><g><path d="M 1.164062 -2.527344 L 2.3125 -2.527344 C 2.410156 -2.527344 2.503906 -2.527344 2.601562 -2.535156 L 3.589844 0 L 4.21875 0 L 3.140625 -2.648438 C 3.730469 -2.839844 4.21875 -3.300781 4.21875 -4.289062 L 4.21875 -4.449219 C 4.21875 -5.886719 3.199219 -6.21875 2.3125 -6.21875 L 0.589844 -6.21875 L 0.589844 0 L 1.164062 0 Z M 1.164062 -3.046875 L 1.164062 -5.703125 L 2.328125 -5.703125 C 2.863281 -5.703125 3.628906 -5.503906 3.628906 -4.433594 L 3.628906 -4.3125 C 3.628906 -3.246094 2.863281 -3.046875 2.328125 -3.046875 Z M 1.164062 -3.046875 "/></g></g></g><g fill="#000000" fill-opacity="1"><g transform="translate(249.205103, 146.106314)"><g><path d="M 2.296875 -2.949219 C 3.382812 -2.800781 3.835938 -2.433594 3.835938 -1.699219 L 3.835938 -1.625 C 3.835938 -0.871094 3.269531 -0.429688 2.425781 -0.429688 L 2.367188 -0.429688 C 1.53125 -0.429688 0.941406 -0.933594 0.941406 -2.027344 L 0.367188 -2.027344 L 0.367188 -1.945312 C 0.367188 -0.660156 1.078125 0.0859375 2.390625 0.0859375 C 3.636719 0.0859375 4.425781 -0.566406 4.425781 -1.667969 L 4.425781 -1.746094 C 4.425781 -2.703125 3.867188 -3.253906 2.511719 -3.4375 C 1.371094 -3.597656 1.027344 -3.988281 1.027344 -4.648438 L 1.027344 -4.714844 C 1.027344 -5.382812 1.601562 -5.789062 2.359375 -5.789062 L 2.417969 -5.789062 C 3.367188 -5.789062 3.78125 -5.296875 3.78125 -4.113281 L 4.355469 -4.113281 L 4.355469 -4.304688 C 4.355469 -5.589844 3.78125 -6.308594 2.390625 -6.308594 C 1.210938 -6.308594 0.4375 -5.679688 0.4375 -4.640625 L 0.4375 -4.5625 C 0.4375 -3.738281 0.941406 -3.132812 2.296875 -2.949219 Z M 2.296875 -2.949219 "/></g></g></g></svg>