<svg xmlns="http://www.w3.org/2000/svg" xmlns:xlink="http://www.w3.org/1999/xlink" width="346" zoomAndPan="magnify" viewBox="0 0 259.5 177.749994" height="237" preserveAspectRatio="xMidYMid meet" version="1.0"><defs><g/><clipPath id="aed0f1a60a"><path d="M 136 32.605469 L 140 32.605469 L 140 35 L 136 35 Z M 136 32.605469 " clip-rule="nonzero"/></clipPath><clipPath id="58e7ca5fda"><path d="M 113 32.605469 L 149 32.605469 L 149 90.355469 L 113 90.355469 Z M 113 32.605469 " clip-rule="nonzero"/></clipPath><clipPath id="02ea323b9b"><path d="M 112.175781 43 L 114 43 L 114 52 L 112.175781 52 Z M 112.175781 43 " clip-rule="nonzero"/></clipPath><clipPath id="3511cb9d69"><path d="M 124 44 L 161.675781 44 L 161.675781 90.355469 L 124 90.355469 Z M 124 44 " clip-rule="nonzero"/></clipPath><clipPath id="af75252288"><path d="M 19 171 L 246 171 L 246 177.453125 L 19 177.453125 Z M 19 171 " clip-rule="nonzero"/></clipPath></defs><g clip-path="url(#aed0f1a60a)"><path fill="#000000" d="M 137.414062 32.738281 C 137.941406 32.816406 138.820312 33.574219 138.410156 33.574219 C 138.292969 33.574219 138.136719 33.476562 138.078125 33.382812 C 137.941406 33.148438 136.613281 33.128906 136.261719 33.34375 C 136.125 33.441406 136.4375 33.496094 136.984375 33.496094 C 137.667969 33.496094 138.078125 33.59375 138.371094 33.867188 C 138.917969 34.351562 139.40625 34.429688 139.171875 33.984375 C 138.78125 33.265625 137.921875 32.605469 137.414062 32.625 L 136.90625 32.660156 Z M 138.957031 33.984375 C 138.957031 34.101562 138.878906 34.121094 138.761719 34.0625 C 138.664062 34.003906 138.566406 33.847656 138.566406 33.75 C 138.566406 33.632812 138.664062 33.613281 138.761719 33.671875 C 138.878906 33.730469 138.957031 33.886719 138.957031 33.984375 Z M 138.957031 33.984375 " fill-opacity="1" fill-rule="nonzero"/></g><g clip-path="url(#58e7ca5fda)"><path fill="#000000" d="M 136.027344 33.011719 C 135.773438 33.128906 135.265625 33.421875 134.914062 33.691406 C 134.40625 34.082031 134.132812 34.160156 133.585938 34.042969 C 131.652344 33.691406 128.953125 36.550781 127.449219 40.59375 C 127.214844 41.214844 127.097656 41.835938 127.15625 42.03125 C 127.253906 42.246094 127.214844 42.34375 127.097656 42.265625 C 127 42.207031 126.804688 42.671875 126.667969 43.410156 L 126.414062 44.675781 L 125.847656 43.722656 C 125.046875 42.304688 123.953125 41.777344 122.957031 42.324219 C 122.664062 42.476562 122.410156 42.324219 121.628906 41.546875 C 120.945312 40.882812 120.496094 40.574219 120.144531 40.574219 C 119.535156 40.574219 118.441406 41.46875 117.855469 42.4375 C 117.5625 42.886719 117.289062 43.101562 116.976562 43.101562 C 116.253906 43.101562 115.238281 44.128906 114.652344 45.433594 C 114.359375 46.074219 114.144531 46.714844 114.183594 46.832031 C 114.222656 46.949219 114.457031 46.519531 114.710938 45.859375 C 115.492188 43.703125 116.839844 42.789062 118.011719 43.605469 L 118.441406 43.898438 L 117.816406 44.421875 C 116.507812 45.511719 115.21875 49.398438 115.003906 52.917969 C 114.789062 56.125 115.726562 61.023438 116.878906 62.90625 C 117.5625 63.996094 117.152344 63.820312 116.410156 62.695312 C 115.492188 61.332031 114.652344 58.980469 114.183594 56.492188 C 113.773438 54.375 113.8125 52.507812 114.339844 49.902344 C 114.457031 49.320312 114.613281 48.601562 114.652344 48.308594 C 114.808594 47.433594 115.667969 45.433594 116.15625 44.773438 C 116.625 44.148438 116.9375 43.488281 116.761719 43.488281 C 116.507812 43.488281 115.0625 46.054688 114.710938 47.164062 C 114.085938 49.144531 113.519531 53.460938 113.65625 54.957031 C 113.851562 56.765625 114.632812 59.640625 115.394531 61.273438 C 116.058594 62.714844 117.367188 64.367188 117.679688 64.171875 C 117.777344 64.113281 117.855469 64.152344 117.855469 64.269531 C 117.855469 64.367188 118.011719 64.5 118.226562 64.578125 C 119.164062 64.871094 119.261719 69.359375 118.539062 77.195312 C 118.265625 80.089844 118.050781 83.160156 118.050781 84.035156 C 118.050781 85.746094 118.5 88.664062 118.890625 89.519531 C 119.085938 89.984375 119.203125 90.042969 119.714844 89.925781 C 120.300781 89.789062 120.300781 89.789062 119.773438 89.769531 C 119.300781 89.75 119.222656 89.652344 119.007812 88.625 C 118.871094 88.019531 118.734375 87.378906 118.675781 87.222656 C 118.636719 87.070312 118.578125 85.707031 118.539062 84.210938 C 118.5 81.742188 118.578125 80.304688 118.910156 77.117188 C 119.476562 71.90625 119.714844 67.785156 119.457031 67.785156 C 119.378906 67.785156 119.320312 67.417969 119.320312 66.96875 C 119.339844 66.503906 119.28125 66.035156 119.183594 65.902344 C 119.066406 65.765625 119.046875 65.570312 119.125 65.433594 C 119.203125 65.316406 119.144531 65.125 119.007812 65.027344 C 118.8125 64.890625 118.871094 64.871094 119.222656 64.949219 C 119.496094 65.007812 120.027344 65.066406 120.398438 65.066406 L 121.082031 65.066406 L 120.964844 67.824219 C 120.808594 71.109375 120.75 76.4375 120.867188 76.320312 C 120.90625 76.28125 121.003906 74.921875 121.0625 73.324219 C 121.296875 67.164062 121.414062 65.648438 121.667969 65.648438 C 121.84375 65.648438 121.882812 66.152344 121.84375 67.535156 C 121.726562 70.953125 121.765625 76.144531 121.941406 81.101562 C 122.097656 85.980469 122.078125 88.292969 121.863281 89.558594 C 121.765625 90.160156 121.785156 90.199219 122 89.847656 C 122.195312 89.539062 122.234375 87.222656 122.175781 78.945312 C 122.136719 73.171875 122.175781 67.726562 122.253906 66.871094 C 122.371094 65.472656 122.429688 65.277344 122.820312 65.183594 C 123.054688 65.125 123.25 64.929688 123.269531 64.734375 C 123.269531 64.539062 123.425781 63.722656 123.621094 62.925781 C 123.992188 61.3125 123.933594 57.132812 123.542969 56.027344 L 123.328125 55.441406 L 123.425781 56.027344 C 123.484375 56.335938 123.582031 57.621094 123.640625 58.863281 C 123.777344 61.15625 123.5625 63.121094 123.035156 64.402344 C 122.742188 65.105469 121.6875 65.628906 121.492188 65.144531 C 121.433594 64.96875 121.101562 64.871094 120.554688 64.871094 C 118.753906 64.871094 117.40625 63.664062 116.46875 61.195312 C 115.667969 59.058594 115.433594 57.523438 115.433594 54.472656 C 115.433594 51.847656 115.511719 51.324219 116.039062 49.320312 C 116.605469 47.222656 117.679688 44.65625 118.011719 44.65625 C 118.089844 44.65625 118.148438 46.113281 118.148438 47.882812 C 118.148438 51.710938 118.324219 52.46875 118.402344 48.96875 C 118.480469 45.335938 118.714844 44.109375 119.476562 43.332031 C 120.476562 42.304688 121.570312 42.515625 122.742188 43.976562 C 124.871094 46.636719 127.78125 55.929688 127.3125 58.632812 C 127.117188 59.816406 126.453125 61.703125 125.984375 62.382812 C 125.242188 63.472656 125.183594 63.625 125.632812 63.238281 C 126.101562 62.828125 126.199219 63.003906 125.828125 63.511719 C 125.691406 63.683594 125.867188 63.53125 126.199219 63.160156 C 127.253906 62.03125 128.210938 58.824219 128.210938 56.414062 C 128.210938 55.40625 128.230469 55.386719 129.480469 54.199219 C 130.574219 53.1875 132.003906 52.234375 132.433594 52.234375 C 132.492188 52.234375 132.414062 52.449219 132.238281 52.722656 C 131.886719 53.246094 130.359375 56.628906 130.359375 56.863281 C 130.359375 56.941406 130.769531 56.257812 131.257812 55.347656 C 132.824219 52.429688 133.996094 51.4375 135.421875 51.75 C 136.535156 51.984375 137.238281 53.148438 137.589844 55.347656 C 137.882812 57.210938 137.824219 58.707031 137.375 61.800781 C 136.945312 64.851562 136.554688 66.582031 136.085938 67.496094 C 135.695312 68.234375 133.761719 70.117188 133.390625 70.117188 C 133.234375 70.117188 133.097656 70.195312 133.097656 70.292969 C 133.097656 70.390625 132.824219 70.566406 132.472656 70.683594 C 132.140625 70.800781 131.90625 70.953125 131.964844 71.011719 C 132.179688 71.226562 133.996094 70.136719 134.933594 69.226562 C 136.789062 67.4375 137.707031 64.328125 137.921875 59.117188 C 138.097656 54.703125 137.492188 52.546875 135.851562 51.574219 C 135.226562 51.226562 135.148438 51.207031 134.191406 51.515625 C 133.644531 51.691406 132.824219 51.886719 132.375 51.964844 C 131.847656 52.023438 131.082031 52.390625 130.222656 52.992188 C 128.230469 54.394531 128.210938 54.453125 128.015625 56.648438 C 127.761719 59.542969 127.039062 62.167969 126.316406 62.769531 C 126.140625 62.90625 126.042969 62.925781 126.082031 62.828125 C 126.140625 62.714844 126.375 62.226562 126.609375 61.742188 C 127.351562 60.167969 127.683594 58.496094 127.546875 57 C 127.214844 53.03125 124.910156 46.425781 123.054688 44.015625 L 122.332031 43.082031 L 122.78125 42.710938 C 123.738281 41.914062 124.851562 42.402344 125.789062 43.996094 C 126.628906 45.394531 127.429688 47.765625 127.429688 48.796875 C 127.429688 49.339844 127.507812 49.691406 127.605469 49.613281 C 127.722656 49.554688 127.742188 49.785156 127.683594 50.214844 C 127.605469 50.738281 127.625 50.894531 127.78125 50.796875 C 127.957031 50.699219 128.015625 51.109375 128.015625 52.3125 C 128.015625 53.285156 128.09375 54.023438 128.230469 54.101562 C 128.367188 54.179688 128.425781 53.984375 128.386719 53.5 C 128.328125 52.859375 128.386719 52.742188 129.070312 52.332031 C 129.5 52.082031 129.929688 51.925781 130.027344 51.984375 C 130.144531 52.042969 130.164062 52.003906 130.085938 51.886719 C 130.007812 51.75 130.144531 51.613281 130.4375 51.535156 C 130.710938 51.476562 131.042969 51.285156 131.179688 51.128906 C 131.554688 50.679688 130.085938 51.324219 129.050781 52.0625 C 128.25 52.625 128.210938 52.625 128.210938 52.234375 C 128.210938 51.75 129.65625 50.777344 130.652344 50.601562 C 131.378906 50.46875 131.886719 50.640625 132.707031 51.34375 L 133.195312 51.75 L 132.804688 51.304688 C 132.394531 50.796875 132.492188 50.660156 133.546875 50.253906 C 133.839844 50.15625 134.074219 50 134.074219 49.941406 C 134.074219 49.710938 136.007812 49.84375 136.320312 50.097656 C 136.691406 50.410156 137.394531 51.886719 137.394531 52.371094 C 137.394531 52.703125 137.511719 52.761719 138.15625 52.742188 C 139.09375 52.722656 139.796875 53.304688 140.167969 54.355469 C 140.421875 55.132812 140.441406 59.019531 140.1875 59.214844 C 140.109375 59.273438 140.03125 59.582031 140.03125 59.914062 C 140.011719 60.226562 139.953125 60.730469 139.875 61.042969 C 139.738281 61.546875 139.757812 61.566406 140.265625 61.449219 C 141.417969 61.175781 142.980469 60.304688 143.785156 59.488281 C 145.289062 57.949219 147.476562 53.558594 148.238281 50.582031 C 148.394531 49.960938 148.53125 48.835938 148.53125 48.113281 C 148.53125 45.839844 147.59375 44.65625 145.816406 44.65625 C 145.367188 44.65625 144.644531 44.558594 144.175781 44.421875 C 143.160156 44.148438 141.730469 44.382812 139.914062 45.121094 C 137.941406 45.917969 136.574219 46.832031 134.953125 48.445312 C 132.003906 51.398438 131.296875 51.417969 133.195312 48.523438 C 133.78125 47.609375 133.996094 47.183594 133.664062 47.570312 C 133.351562 47.941406 132.824219 48.699219 132.492188 49.242188 C 131.945312 50.195312 131.886719 50.234375 131.140625 50.195312 C 130.691406 50.175781 130.359375 50.234375 130.359375 50.351562 C 130.359375 50.488281 130.300781 50.488281 130.183594 50.390625 C 130.066406 50.273438 129.949219 49.710938 129.910156 49.125 C 129.851562 48.078125 129.851562 48.078125 129.8125 49.378906 C 129.792969 50.214844 129.695312 50.660156 129.578125 50.582031 C 129.480469 50.527344 129.382812 50.5625 129.382812 50.679688 C 129.382812 51.128906 128.894531 50.738281 128.757812 50.175781 C 128.660156 49.765625 128.640625 49.824219 128.699219 50.410156 C 128.757812 50.972656 128.71875 51.246094 128.542969 51.324219 C 128.347656 51.398438 128.191406 50.953125 127.957031 49.632812 C 127.625 47.804688 127.703125 46.617188 128.230469 44.558594 C 128.523438 43.449219 129.851562 40.902344 131.003906 39.25 C 131.90625 37.949219 134.210938 35.597656 134.386719 35.773438 C 134.445312 35.8125 134.269531 36.511719 134.015625 37.289062 C 133.234375 39.699219 133.019531 40.769531 133.273438 41.019531 C 133.449219 41.195312 133.488281 41.175781 133.390625 40.921875 C 133.117188 40.203125 134.894531 36.003906 135.753906 35.34375 C 136.496094 34.761719 137.433594 34.644531 138.234375 35.035156 C 139.425781 35.597656 140.402344 38.007812 140.8125 41.390625 C 140.988281 42.730469 140.695312 42.90625 140.34375 41.679688 C 140.207031 41.234375 139.738281 40.125 139.308594 39.210938 C 138.878906 38.300781 138.449219 37.289062 138.351562 36.976562 C 138.195312 36.414062 138.175781 36.414062 138.253906 37.074219 C 138.292969 37.445312 138.703125 38.511719 139.132812 39.425781 C 139.582031 40.339844 139.933594 41.234375 139.933594 41.410156 C 139.933594 41.585938 140.03125 41.777344 140.128906 41.835938 C 140.597656 42.128906 140.207031 42.496094 138.683594 43.253906 C 137.492188 43.839844 136.632812 44.460938 135.597656 45.453125 C 134.816406 46.210938 134.621094 46.464844 135.148438 45.976562 C 137.589844 43.839844 140.246094 42.535156 142.179688 42.515625 C 143.296875 42.515625 143.863281 42.828125 144.46875 43.761719 C 144.78125 44.226562 144.839844 44.265625 144.761719 43.9375 C 144.683594 43.566406 144.761719 43.488281 145.289062 43.390625 C 146.714844 43.179688 146.792969 43.121094 145.640625 43.199219 C 143.882812 43.332031 143.648438 43.082031 143.648438 41.058594 C 143.628906 37.269531 142.316406 34.859375 140.421875 35.207031 C 139.875 35.324219 139.738281 35.265625 139.640625 34.9375 C 139.5625 34.703125 139.464844 34.566406 139.40625 34.605469 C 139.367188 34.664062 139.40625 34.878906 139.523438 35.09375 C 139.855469 35.714844 139.523438 35.734375 138.820312 35.128906 C 137.863281 34.277344 137.375 34.21875 136.144531 34.820312 C 135.578125 35.09375 135.011719 35.324219 134.875 35.324219 C 134.328125 35.324219 133 36.199219 131.964844 37.269531 C 129.871094 39.386719 128.289062 42.632812 127.605469 46.113281 L 127.390625 47.28125 L 127.019531 46.113281 C 126.648438 44.964844 126.667969 43.839844 127.039062 43.101562 C 127.136719 42.945312 127.527344 42.109375 127.9375 41.253906 C 129.03125 38.960938 130.59375 36.6875 131.671875 35.871094 C 133.488281 34.46875 133.429688 34.507812 133.019531 34.625 C 132.453125 34.820312 130.925781 36.101562 130.007812 37.152344 C 129.539062 37.695312 128.738281 39 128.191406 40.046875 C 127.058594 42.324219 126.941406 42.226562 127.976562 39.855469 C 129.128906 37.171875 130.574219 35.324219 132.140625 34.527344 C 133.058594 34.082031 133.761719 34.160156 134.601562 34.800781 C 135.109375 35.1875 135.128906 35.1875 134.816406 34.820312 C 134.386719 34.332031 134.367188 34.160156 134.757812 34.160156 C 134.914062 34.160156 135.050781 34.0625 135.050781 33.964844 C 135.050781 33.847656 135.109375 33.789062 135.207031 33.789062 C 135.578125 33.847656 135.851562 33.75 135.734375 33.574219 C 135.675781 33.476562 135.910156 33.265625 136.261719 33.109375 C 136.984375 32.796875 136.789062 32.71875 136.027344 33.011719 Z M 141.847656 35.851562 C 142.785156 36.433594 143.53125 39.308594 143.296875 41.488281 C 143.21875 42.246094 143.160156 42.324219 142.6875 42.324219 C 142.179688 42.324219 142.179688 42.285156 141.632812 39.542969 C 141.339844 38.027344 141.085938 36.511719 141.085938 36.199219 C 141.085938 35.773438 141.046875 35.695312 140.929688 35.90625 C 140.753906 36.199219 141.007812 38.007812 141.574219 40.4375 C 141.964844 42.128906 141.964844 42.363281 141.554688 42.285156 C 141.300781 42.246094 141.164062 41.855469 140.988281 40.574219 C 140.773438 39.191406 140.324219 37.597656 139.660156 36.082031 C 139.5625 35.832031 139.660156 35.695312 140.070312 35.558594 C 140.675781 35.34375 141.164062 35.421875 141.847656 35.851562 Z M 121.511719 41.640625 C 122.390625 42.554688 122.605469 43.042969 122.019531 42.808594 C 120.867188 42.34375 120.613281 42.285156 120.144531 42.402344 C 119.851562 42.457031 119.417969 42.828125 119.164062 43.199219 C 118.929688 43.566406 118.695312 43.878906 118.636719 43.878906 C 118.578125 43.859375 118.324219 43.683594 118.070312 43.46875 C 117.640625 43.121094 117.621094 43.0625 117.933594 42.75 C 118.109375 42.554688 118.246094 42.304688 118.246094 42.1875 C 118.246094 42.070312 118.558594 41.699219 118.929688 41.371094 C 119.910156 40.515625 120.476562 40.574219 121.511719 41.640625 Z M 142.375 46.386719 C 141.417969 47.335938 140.558594 48.078125 140.480469 48.039062 C 140.402344 47.980469 140.207031 48.210938 140.03125 48.5625 C 139.855469 48.894531 139.796875 49.105469 139.914062 49.046875 C 140.03125 48.96875 140.128906 49.007812 140.128906 49.144531 C 140.128906 49.28125 140.285156 49.242188 140.5 49.007812 C 140.910156 48.582031 140.871094 48.367188 140.421875 48.738281 C 140.265625 48.875 140.128906 48.914062 140.128906 48.816406 C 140.128906 48.582031 140.519531 48.019531 140.519531 48.210938 C 140.519531 48.308594 140.988281 47.980469 141.554688 47.472656 C 142.941406 46.230469 144.683594 45.0625 145.386719 44.925781 C 146.304688 44.734375 147.613281 45.433594 148.042969 46.308594 C 148.511719 47.296875 148.355469 49.457031 147.652344 51.554688 C 147.027344 53.441406 144.957031 57.5625 144.039062 58.804688 C 143.296875 59.777344 141.964844 60.691406 140.96875 60.886719 C 140.382812 61.003906 140.324219 60.964844 140.324219 60.574219 C 140.324219 60.320312 140.617188 59.835938 140.96875 59.46875 C 141.476562 58.902344 141.515625 58.84375 141.105469 59.097656 L 140.617188 59.410156 L 140.65625 57.171875 C 140.695312 55.113281 140.675781 54.859375 140.226562 53.984375 C 139.699219 52.957031 138.820312 52.332031 138.097656 52.46875 C 137.746094 52.546875 137.628906 52.390625 137.316406 51.4375 C 137.121094 50.816406 136.808594 50.175781 136.613281 50 C 136.164062 49.59375 135.089844 49.300781 134.953125 49.535156 C 134.875 49.632812 134.699219 49.710938 134.542969 49.710938 C 134.054688 49.710938 134.582031 49.007812 135.753906 48.097656 C 137.882812 46.425781 141.730469 44.695312 143.335938 44.675781 L 144.117188 44.65625 Z M 142.375 46.386719 " fill-opacity="1" fill-rule="nonzero"/></g><path fill="#000000" d="M 119.125 41.546875 C 118.8125 41.757812 118.636719 41.933594 118.773438 41.933594 C 118.890625 41.933594 119.046875 41.855469 119.105469 41.757812 C 119.339844 41.390625 120.574219 41.332031 121.121094 41.660156 L 121.667969 41.972656 L 121.199219 41.566406 C 120.632812 41.058594 119.890625 41.039062 119.125 41.546875 Z M 119.125 41.546875 " fill-opacity="1" fill-rule="nonzero"/><path fill="#000000" d="M 147.085938 47.027344 C 146.890625 47.355469 146.792969 48.308594 146.734375 50.488281 C 146.695312 52.140625 146.714844 53.285156 146.792969 53.011719 C 146.871094 52.742188 146.929688 51.398438 146.949219 50.039062 C 146.96875 48.113281 147.046875 47.453125 147.28125 47.085938 C 147.457031 46.8125 147.554688 46.597656 147.476562 46.597656 C 147.417969 46.597656 147.242188 46.792969 147.085938 47.027344 Z M 147.085938 47.027344 " fill-opacity="1" fill-rule="nonzero"/><path fill="#000000" d="M 132.550781 41.835938 C 132.550781 42.148438 132.589844 42.265625 132.648438 42.070312 C 132.6875 41.894531 132.6875 41.621094 132.648438 41.488281 C 132.589844 41.371094 132.550781 41.507812 132.550781 41.835938 Z M 132.550781 41.835938 " fill-opacity="1" fill-rule="nonzero"/><path fill="#000000" d="M 133.117188 41.855469 C 133.117188 42.070312 133.175781 42.128906 133.234375 41.972656 C 133.292969 41.835938 133.273438 41.660156 133.214844 41.601562 C 133.15625 41.527344 133.097656 41.640625 133.117188 41.855469 Z M 133.117188 41.855469 " fill-opacity="1" fill-rule="nonzero"/><path fill="#000000" d="M 123.523438 42.886719 C 123.523438 43.160156 124.070312 44.5 124.753906 45.898438 C 125.4375 47.296875 126.335938 49.242188 126.746094 50.234375 C 127.175781 51.226562 127.546875 51.984375 127.605469 51.945312 C 127.761719 51.769531 126.765625 49.378906 125.515625 46.890625 C 124.8125 45.492188 124.089844 43.917969 123.894531 43.390625 C 123.640625 42.730469 123.542969 42.574219 123.523438 42.886719 Z M 123.523438 42.886719 " fill-opacity="1" fill-rule="nonzero"/><path fill="#000000" d="M 140.089844 43.46875 C 138.605469 43.957031 136.691406 45.042969 135.617188 46.015625 C 134.855469 46.734375 134.835938 46.773438 135.441406 46.367188 C 135.8125 46.113281 136.183594 45.839844 136.242188 45.742188 C 136.320312 45.648438 136.496094 45.648438 136.632812 45.722656 C 136.789062 45.820312 136.847656 45.820312 136.769531 45.722656 C 136.59375 45.53125 136.925781 45.296875 138.429688 44.460938 C 139.015625 44.148438 139.679688 43.878906 139.875 43.878906 C 140.070312 43.878906 140.34375 43.78125 140.441406 43.683594 C 140.558594 43.566406 141.300781 43.410156 142.101562 43.3125 L 143.550781 43.160156 L 142.375 43.140625 C 141.730469 43.121094 140.714844 43.273438 140.089844 43.46875 Z M 140.089844 43.46875 " fill-opacity="1" fill-rule="nonzero"/><path fill="#000000" d="M 147.417969 43.488281 C 148.121094 43.703125 148.53125 44.035156 148.53125 44.402344 C 148.53125 44.617188 148.355469 44.539062 147.925781 44.1875 C 147.59375 43.917969 147.183594 43.683594 147.007812 43.683594 C 146.695312 43.703125 146.695312 43.703125 147.007812 43.898438 C 147.203125 43.996094 147.398438 44.070312 147.457031 44.070312 C 147.613281 44.050781 148.023438 44.480469 148.296875 44.945312 C 148.511719 45.335938 148.511719 45.335938 148.53125 44.945312 C 148.550781 44.558594 148.550781 44.558594 148.746094 44.945312 C 148.882812 45.257812 148.902344 45.21875 148.824219 44.753906 C 148.6875 44.050781 147.886719 43.292969 147.300781 43.3125 C 146.949219 43.332031 146.96875 43.351562 147.417969 43.488281 Z M 147.417969 43.488281 " fill-opacity="1" fill-rule="nonzero"/><g clip-path="url(#02ea323b9b)"><path fill="#000000" d="M 112.367188 43.996094 C 112.230469 44.34375 112.191406 45.140625 112.269531 46.09375 C 112.40625 47.902344 113.441406 52.273438 113.519531 51.359375 C 113.539062 51.03125 113.675781 50.039062 113.792969 49.125 C 113.929688 48.210938 114.007812 47.433594 113.988281 47.375 C 112.621094 43.429688 112.601562 43.390625 112.367188 43.996094 Z M 113.363281 48.347656 L 113.265625 49.417969 L 113.011719 48.019531 C 112.894531 47.261719 112.777344 46.386719 112.777344 46.074219 C 112.796875 45.589844 112.835938 45.628906 113.148438 46.40625 C 113.382812 47.046875 113.460938 47.570312 113.363281 48.347656 Z M 113.363281 48.347656 " fill-opacity="1" fill-rule="nonzero"/></g><path fill="#000000" d="M 146.148438 43.625 C 146.285156 43.683594 146.460938 43.664062 146.519531 43.605469 C 146.597656 43.546875 146.480469 43.488281 146.265625 43.507812 C 146.050781 43.507812 145.992188 43.566406 146.148438 43.625 Z M 146.148438 43.625 " fill-opacity="1" fill-rule="nonzero"/><path fill="#000000" d="M 121.394531 43.878906 C 121.394531 44.035156 121.472656 44.34375 121.570312 44.558594 C 121.667969 44.8125 121.746094 44.832031 121.746094 44.65625 C 121.746094 44.5 121.667969 44.1875 121.570312 43.976562 C 121.472656 43.722656 121.394531 43.703125 121.394531 43.878906 Z M 121.394531 43.878906 " fill-opacity="1" fill-rule="nonzero"/><g clip-path="url(#3511cb9d69)"><path fill="#000000" d="M 159.355469 45.996094 C 158.378906 46.8125 156.875 47.960938 156.035156 48.5625 C 154.585938 49.59375 151.148438 51.652344 150.855469 51.652344 C 150.796875 51.652344 150.855469 51.167969 151.011719 50.582031 C 151.441406 48.914062 150.835938 47.375 149.605469 47.066406 C 149.332031 47.007812 149.117188 46.871094 149.117188 46.753906 C 149.117188 46.65625 149.019531 46.636719 148.921875 46.695312 C 148.628906 46.871094 148.882812 47.183594 149.3125 47.183594 C 150.035156 47.183594 150.71875 48 150.816406 48.988281 C 151.148438 51.867188 149.253906 55.480469 145.875 58.457031 C 143.355469 60.671875 140.03125 62.285156 139.523438 61.566406 C 139.367188 61.351562 139.347656 61.390625 139.445312 61.742188 C 139.523438 62.011719 139.503906 62.148438 139.40625 62.089844 C 139.308594 62.011719 139.210938 62.207031 139.210938 62.5 C 139.210938 63.839844 136.222656 68.699219 134.542969 70.0625 C 134.132812 70.410156 133.878906 70.683594 134.015625 70.703125 C 134.132812 70.703125 134.699219 70.234375 135.265625 69.652344 C 135.832031 69.070312 136.378906 68.640625 136.476562 68.699219 C 136.59375 68.757812 136.613281 68.71875 136.535156 68.601562 C 136.359375 68.3125 137.609375 66.464844 137.921875 66.5625 C 138.039062 66.601562 138.195312 66.542969 138.273438 66.445312 C 138.351562 66.308594 138.273438 66.289062 138.058594 66.367188 C 137.6875 66.503906 137.6875 66.503906 138.429688 65.125 C 138.722656 64.558594 139.132812 63.625 139.347656 63.0625 C 139.71875 62.070312 139.777344 62.011719 140.695312 61.78125 C 141.203125 61.644531 142.238281 61.195312 142.980469 60.769531 C 144.214844 60.050781 144.410156 59.992188 145.308594 60.109375 C 147.007812 60.320312 148.414062 60.632812 149 60.925781 C 149.566406 61.214844 149.566406 61.214844 147.339844 61.78125 C 146.109375 62.089844 144.996094 62.304688 144.859375 62.246094 C 144.722656 62.1875 144.664062 62.246094 144.722656 62.34375 C 144.78125 62.460938 144.742188 62.539062 144.605469 62.539062 C 144.46875 62.539062 144.410156 62.597656 144.46875 62.65625 C 144.527344 62.714844 145.113281 62.617188 145.777344 62.441406 C 147.535156 61.992188 149.9375 61.839844 150.679688 62.148438 C 151.890625 62.65625 152.359375 63.957031 151.792969 65.316406 C 151.148438 66.832031 148.355469 69.300781 145.015625 71.285156 C 140.792969 73.792969 139.347656 74.257812 137.199219 73.8125 C 136.613281 73.695312 135.988281 73.578125 135.832031 73.539062 C 135.675781 73.519531 135.34375 73.382812 135.109375 73.269531 C 134.875 73.132812 134.542969 73.035156 134.386719 73.035156 C 134.191406 73.035156 134.132812 72.917969 134.191406 72.742188 C 134.269531 72.546875 134.191406 72.453125 133.976562 72.453125 C 133.351562 72.453125 133.800781 72.9375 134.933594 73.5 C 136.417969 74.238281 138.703125 74.414062 140.421875 73.910156 C 143.824219 72.9375 149.996094 68.660156 151.460938 66.25 C 151.734375 65.824219 152.027344 65.453125 152.105469 65.453125 C 152.515625 65.453125 153.21875 66.523438 153.21875 67.164062 C 153.21875 68.679688 151.558594 70.273438 148.335938 71.828125 C 147.105469 72.414062 146.050781 72.957031 145.992188 73.015625 C 145.875 73.171875 144.859375 73.5 143.257812 73.929688 C 142.316406 74.199219 141.203125 74.277344 138.957031 74.296875 C 135.96875 74.296875 135.910156 74.296875 134.71875 73.714844 C 134.074219 73.382812 133.585938 73.230469 133.625 73.363281 C 133.683594 73.5 133.878906 73.65625 134.09375 73.714844 C 134.425781 73.832031 134.386719 73.929688 133.722656 74.941406 C 133.332031 75.542969 132.6875 76.457031 132.316406 76.941406 C 131.945312 77.425781 131.496094 78.03125 131.339844 78.28125 C 131.179688 78.515625 130.886719 78.886719 130.710938 79.097656 C 130.515625 79.332031 130.359375 79.566406 130.359375 79.625 C 130.359375 79.683594 130.046875 80.070312 129.675781 80.460938 C 129.304688 80.847656 128.992188 81.257812 128.992188 81.375 C 128.992188 81.46875 128.855469 81.644531 128.679688 81.742188 C 128.503906 81.839844 128.386719 81.976562 128.40625 82.054688 C 128.425781 82.132812 128.230469 82.441406 127.976562 82.714844 C 127.742188 83.007812 127.273438 83.589844 126.960938 84.015625 C 126.628906 84.445312 126.316406 84.832031 126.257812 84.890625 C 126.179688 84.949219 125.847656 85.378906 125.515625 85.84375 L 124.890625 86.699219 L 124.871094 86.039062 L 124.832031 85.378906 L 124.675781 86.15625 C 124.324219 87.847656 123.953125 90.042969 124.011719 90.121094 C 124.246094 90.355469 124.480469 89.769531 124.597656 88.683594 C 124.734375 87.457031 124.8125 87.320312 126.316406 85.417969 C 129.246094 81.742188 133.214844 76.457031 133.957031 75.230469 C 134.347656 74.550781 134.699219 74.007812 134.71875 74.007812 C 134.738281 74.007812 135.207031 74.140625 135.734375 74.316406 C 137.003906 74.707031 140.34375 74.6875 142.414062 74.296875 C 149.292969 72.996094 155.019531 68.503906 153.003906 65.980469 L 152.613281 65.453125 L 153.101562 64.734375 C 153.394531 64.328125 153.609375 63.917969 153.609375 63.820312 C 153.609375 63.703125 153.335938 64.035156 153.023438 64.558594 C 152.339844 65.628906 152.007812 65.609375 152.28125 64.5 C 152.417969 63.9375 152.417969 63.605469 152.203125 63.199219 C 151.988281 62.714844 151.03125 61.917969 150.464844 61.722656 C 150.347656 61.683594 150.367188 61.429688 150.523438 61.042969 L 150.796875 60.417969 L 151.773438 60.867188 C 153.042969 61.449219 153.84375 62.382812 153.6875 63.082031 C 153.609375 63.492188 153.628906 63.550781 153.785156 63.316406 C 154.019531 62.984375 154.078125 61.933594 153.863281 62.011719 C 153.765625 62.03125 153.6875 61.972656 153.667969 61.878906 C 153.628906 61.683594 153.179688 61.410156 151.753906 60.710938 C 151.109375 60.378906 150.699219 60.011719 150.484375 59.582031 C 150.328125 59.234375 149.917969 58.765625 149.566406 58.535156 L 148.941406 58.125 L 150.835938 56.667969 C 155.625 52.992188 159.257812 49.164062 160.722656 46.25 C 161.660156 44.382812 161.347656 44.324219 159.355469 45.996094 Z M 159.707031 47.125 C 158.144531 49.730469 154.703125 53.1875 150.542969 56.355469 C 149.117188 57.425781 148.667969 57.679688 148.472656 57.503906 C 148.316406 57.386719 148.140625 57.347656 148.082031 57.425781 C 148.003906 57.484375 147.945312 57.425781 147.945312 57.25 C 147.945312 57.09375 148.121094 56.804688 148.335938 56.609375 C 148.824219 56.183594 150.289062 53.925781 150.289062 53.636719 C 150.289062 53.5 150.367188 53.402344 150.445312 53.402344 C 150.523438 53.402344 150.679688 53.128906 150.777344 52.800781 C 150.933594 52.3125 151.285156 52.003906 152.4375 51.359375 C 153.238281 50.894531 153.980469 50.582031 154.078125 50.640625 C 154.175781 50.699219 154.195312 50.660156 154.136719 50.5625 C 154.078125 50.449219 154.527344 50.078125 155.136719 49.710938 C 155.742188 49.359375 156.425781 48.894531 156.640625 48.71875 C 156.855469 48.523438 157.578125 47.960938 158.242188 47.472656 C 158.90625 46.988281 159.648438 46.386719 159.902344 46.113281 C 160.625 45.375 160.566406 45.703125 159.707031 47.125 Z M 148.882812 58.398438 C 150.09375 58.960938 150.582031 59.71875 150.386719 60.730469 L 150.269531 61.390625 L 149.78125 61.003906 C 149.058594 60.4375 147.398438 59.855469 145.992188 59.699219 L 144.78125 59.5625 L 145.425781 59.058594 C 145.777344 58.785156 146.246094 58.359375 146.460938 58.125 C 146.910156 57.621094 147.320312 57.660156 148.882812 58.398438 Z M 148.882812 58.398438 " fill-opacity="1" fill-rule="nonzero"/></g><path fill="#000000" d="M 146.675781 58.398438 C 146.792969 58.496094 147.359375 58.726562 147.945312 58.921875 C 148.53125 59.136719 149.097656 59.371094 149.214844 59.449219 C 149.3125 59.542969 149.507812 59.621094 149.664062 59.621094 C 150.191406 59.621094 149.683594 59.273438 148.589844 58.882812 C 147.046875 58.339844 146.441406 58.183594 146.675781 58.398438 Z M 146.675781 58.398438 " fill-opacity="1" fill-rule="nonzero"/><path fill="#000000" d="M 121.902344 45.277344 C 123.484375 47.355469 123.914062 47.960938 123.796875 47.960938 C 123.71875 47.960938 123.777344 48.078125 123.953125 48.191406 C 124.109375 48.328125 124.480469 48.796875 124.773438 49.222656 C 125.496094 50.3125 125.417969 49.804688 124.675781 48.660156 C 124.03125 47.628906 121.980469 45.042969 121.824219 45.042969 C 121.765625 45.042969 121.804688 45.160156 121.902344 45.277344 Z M 121.902344 45.277344 " fill-opacity="1" fill-rule="nonzero"/><path fill="#000000" d="M 148.960938 46.015625 C 148.960938 46.289062 149 46.386719 149.058594 46.25 C 149.097656 46.132812 149.097656 45.898438 149.058594 45.761719 C 149 45.648438 148.960938 45.742188 148.960938 46.015625 Z M 148.960938 46.015625 " fill-opacity="1" fill-rule="nonzero"/><path fill="#000000" d="M 128.464844 48.445312 C 128.464844 49.085938 128.503906 49.320312 128.542969 48.96875 C 128.582031 48.621094 128.582031 48.097656 128.542969 47.804688 C 128.503906 47.511719 128.464844 47.804688 128.464844 48.445312 Z M 128.464844 48.445312 " fill-opacity="1" fill-rule="nonzero"/><path fill="#000000" d="M 149.46875 48.191406 C 149.3125 48.445312 149.117188 48.949219 149.058594 49.320312 C 148.941406 49.960938 148.414062 52.175781 147.964844 53.90625 C 147.847656 54.355469 147.574219 55.132812 147.359375 55.636719 C 147.144531 56.144531 146.988281 56.609375 147.046875 56.648438 C 147.261719 56.882812 148.0625 54.609375 148.824219 51.574219 C 149.292969 49.691406 149.722656 48.078125 149.800781 47.960938 C 150.054688 47.550781 149.742188 47.785156 149.46875 48.191406 Z M 149.46875 48.191406 " fill-opacity="1" fill-rule="nonzero"/><path fill="#000000" d="M 135.246094 50.3125 C 135.246094 50.410156 135.402344 50.488281 135.578125 50.488281 C 135.753906 50.488281 136.085938 50.640625 136.300781 50.816406 C 136.710938 51.167969 136.710938 51.167969 136.359375 50.738281 C 135.988281 50.3125 135.246094 50.019531 135.246094 50.3125 Z M 135.246094 50.3125 " fill-opacity="1" fill-rule="nonzero"/><path fill="#000000" d="M 118.675781 50.875 C 118.675781 51.246094 118.714844 51.398438 118.773438 51.207031 C 118.8125 51.03125 118.8125 50.71875 118.773438 50.527344 C 118.714844 50.351562 118.675781 50.507812 118.675781 50.875 Z M 118.675781 50.875 " fill-opacity="1" fill-rule="nonzero"/><path fill="#000000" d="M 135.910156 53.304688 C 135.714844 53.792969 135.910156 54.957031 136.476562 56.609375 C 136.652344 57.132812 136.847656 57.835938 136.886719 58.164062 C 136.945312 58.476562 137.0625 59 137.179688 59.332031 C 137.6875 60.75 137.179688 58.027344 136.59375 56.222656 C 136.242188 55.09375 136.027344 54.0625 136.066406 53.675781 C 136.144531 52.976562 136.085938 52.839844 135.910156 53.304688 Z M 135.910156 53.304688 " fill-opacity="1" fill-rule="nonzero"/><path fill="#000000" d="M 138.488281 56.066406 C 138.585938 57.660156 138.644531 59.855469 138.644531 60.964844 C 138.644531 62.402344 138.683594 62.847656 138.820312 62.519531 C 138.917969 62.246094 138.9375 60.769531 138.839844 58.84375 C 138.761719 57.074219 138.683594 55.09375 138.683594 54.414062 C 138.664062 53.753906 138.585938 53.207031 138.488281 53.207031 C 138.390625 53.207031 138.390625 54.453125 138.488281 56.066406 Z M 138.488281 56.066406 " fill-opacity="1" fill-rule="nonzero"/><path fill="#000000" d="M 125.632812 57.019531 C 125.789062 60.535156 125.203125 63.472656 124.167969 64.367188 C 123.582031 64.871094 123.464844 65.785156 123.777344 67.261719 C 123.894531 67.84375 123.875 67.980469 123.699219 67.863281 C 123.542969 67.785156 123.503906 67.804688 123.601562 67.960938 C 123.679688 68.078125 123.835938 68.117188 123.953125 68.058594 C 124.109375 67.960938 124.128906 68.039062 124.03125 68.292969 C 123.953125 68.484375 123.953125 68.582031 124.011719 68.523438 C 124.089844 68.445312 124.421875 68.699219 124.753906 69.070312 C 125.28125 69.671875 125.339844 69.886719 125.339844 70.953125 L 125.339844 72.160156 L 125.417969 71.03125 C 125.476562 70.253906 125.574219 69.925781 125.730469 69.984375 C 125.867188 70.042969 125.945312 70.15625 125.925781 70.273438 C 125.90625 70.371094 126.0625 70.429688 126.277344 70.371094 C 126.648438 70.273438 126.628906 70.234375 126.121094 69.925781 C 125.085938 69.28125 124.519531 68.601562 124.226562 67.574219 C 123.894531 66.523438 123.796875 64.675781 124.070312 64.675781 C 124.421875 64.65625 125.125 63.859375 125.203125 63.375 C 125.261719 63.082031 125.378906 62.519531 125.496094 62.148438 C 125.789062 61.121094 125.925781 57.132812 125.710938 55.929688 C 125.554688 55.054688 125.535156 55.25 125.632812 57.019531 Z M 125.632812 57.019531 " fill-opacity="1" fill-rule="nonzero"/><path fill="#000000" d="M 120.242188 57.09375 C 120.242188 57.367188 120.28125 57.464844 120.339844 57.328125 C 120.378906 57.210938 120.378906 56.980469 120.339844 56.84375 C 120.28125 56.726562 120.242188 56.824219 120.242188 57.09375 Z M 120.242188 57.09375 " fill-opacity="1" fill-rule="nonzero"/><path fill="#000000" d="M 117.484375 57.40625 C 117.484375 57.621094 117.542969 57.679688 117.601562 57.523438 C 117.660156 57.386719 117.640625 57.210938 117.582031 57.152344 C 117.523438 57.074219 117.464844 57.191406 117.484375 57.40625 Z M 117.484375 57.40625 " fill-opacity="1" fill-rule="nonzero"/><path fill="#000000" d="M 129.8125 57.679688 C 129.8125 57.949219 129.851562 58.046875 129.910156 57.910156 C 129.949219 57.796875 129.949219 57.5625 129.910156 57.425781 C 129.851562 57.308594 129.8125 57.40625 129.8125 57.679688 Z M 129.8125 57.679688 " fill-opacity="1" fill-rule="nonzero"/><path fill="#000000" d="M 130.222656 57.816406 C 130.164062 58.007812 130.066406 58.242188 130.027344 58.359375 C 129.96875 58.457031 130.085938 58.378906 130.242188 58.183594 C 130.554688 57.796875 130.652344 57.484375 130.457031 57.484375 C 130.398438 57.484375 130.300781 57.640625 130.222656 57.816406 Z M 130.222656 57.816406 " fill-opacity="1" fill-rule="nonzero"/><path fill="#000000" d="M 120.417969 57.890625 C 120.417969 58.066406 120.613281 59.371094 120.867188 60.808594 C 121.140625 62.246094 121.394531 63.625 121.433594 63.898438 C 121.492188 64.171875 121.492188 63.859375 121.433594 63.21875 C 121.355469 62.011719 120.457031 57.328125 120.417969 57.890625 Z M 120.417969 57.890625 " fill-opacity="1" fill-rule="nonzero"/><path fill="#000000" d="M 117.679688 58.222656 C 117.660156 58.632812 118.578125 61.273438 119.105469 62.304688 C 119.359375 62.808594 119.773438 63.433594 120.007812 63.703125 L 120.4375 64.191406 L 120.027344 63.566406 C 119.4375 62.714844 118.65625 60.964844 118.128906 59.332031 C 117.894531 58.574219 117.679688 58.085938 117.679688 58.222656 Z M 117.679688 58.222656 " fill-opacity="1" fill-rule="nonzero"/><path fill="#000000" d="M 116.488281 58.84375 C 116.46875 59.71875 119.28125 64.480469 119.8125 64.480469 C 119.890625 64.480469 119.714844 64.210938 119.398438 63.878906 C 118.714844 63.160156 117.777344 61.546875 117.054688 59.835938 C 116.742188 59.136719 116.488281 58.6875 116.488281 58.84375 Z M 116.488281 58.84375 " fill-opacity="1" fill-rule="nonzero"/><path fill="#000000" d="M 152.242188 61.644531 C 152.242188 61.820312 152.339844 61.917969 152.4375 61.859375 C 152.554688 61.800781 152.632812 61.859375 152.632812 62.03125 C 152.632812 62.1875 152.730469 62.34375 152.867188 62.382812 C 153.003906 62.441406 153.101562 62.789062 153.082031 63.238281 C 153.0625 63.898438 153.082031 63.9375 153.257812 63.53125 C 153.453125 62.964844 153.179688 62.167969 152.613281 61.644531 C 152.261719 61.332031 152.242188 61.332031 152.242188 61.644531 Z M 152.242188 61.644531 " fill-opacity="1" fill-rule="nonzero"/><path fill="#000000" d="M 143.238281 62.945312 L 142.765625 63.335938 L 143.316406 63.003906 C 143.609375 62.828125 143.84375 62.65625 143.84375 62.617188 C 143.84375 62.460938 143.6875 62.539062 143.238281 62.945312 Z M 143.238281 62.945312 " fill-opacity="1" fill-rule="nonzero"/><path fill="#000000" d="M 143.355469 63.316406 C 143.296875 63.433594 143.375 63.453125 143.53125 63.394531 C 143.882812 63.257812 143.941406 63.121094 143.667969 63.121094 C 143.550781 63.121094 143.414062 63.199219 143.355469 63.316406 Z M 143.355469 63.316406 " fill-opacity="1" fill-rule="nonzero"/><path fill="#000000" d="M 132.824219 64.519531 C 132.316406 66.328125 131.023438 68.816406 130.027344 69.925781 C 129.539062 70.46875 129.285156 70.859375 129.441406 70.78125 C 129.890625 70.625 130.886719 69.28125 131.730469 67.746094 C 132.453125 66.386719 133.429688 63.585938 133.253906 63.394531 C 133.195312 63.355469 133 63.859375 132.824219 64.519531 Z M 132.824219 64.519531 " fill-opacity="1" fill-rule="nonzero"/><path fill="#000000" d="M 126.296875 63.996094 C 126.296875 64.308594 126.335938 64.421875 126.394531 64.230469 C 126.433594 64.054688 126.433594 63.78125 126.394531 63.644531 C 126.335938 63.53125 126.296875 63.664062 126.296875 63.996094 Z M 126.296875 63.996094 " fill-opacity="1" fill-rule="nonzero"/><path fill="#000000" d="M 128.816406 65.765625 C 128.5625 66.832031 128.152344 68.332031 127.898438 69.128906 C 127.664062 69.90625 127.527344 70.488281 127.605469 70.390625 C 127.9375 70.023438 129.460938 64.441406 129.34375 64.054688 C 129.304688 63.957031 129.070312 64.714844 128.816406 65.765625 Z M 128.816406 65.765625 " fill-opacity="1" fill-rule="nonzero"/><path fill="#000000" d="M 124.949219 65.164062 C 124.949219 65.6875 124.988281 65.902344 125.027344 65.589844 C 125.066406 65.296875 125.066406 64.871094 125.027344 64.617188 C 124.988281 64.382812 124.949219 64.617188 124.949219 65.164062 Z M 124.949219 65.164062 " fill-opacity="1" fill-rule="nonzero"/><path fill="#000000" d="M 134.777344 65.746094 C 134.113281 67.476562 132.609375 69.828125 131.613281 70.703125 C 130.886719 71.324219 130.847656 71.324219 129.402344 71.226562 C 128.386719 71.148438 128.035156 71.1875 128.25 71.304688 C 128.660156 71.539062 131.652344 71.460938 131.574219 71.226562 C 131.535156 71.148438 131.925781 70.625 132.414062 70.078125 C 133.683594 68.679688 135.597656 65.046875 135.402344 64.441406 C 135.363281 64.347656 135.089844 64.929688 134.777344 65.746094 Z M 134.777344 65.746094 " fill-opacity="1" fill-rule="nonzero"/><path fill="#000000" d="M 150.777344 64.714844 C 150.328125 64.949219 149.117188 66.171875 149.234375 66.289062 C 149.273438 66.328125 148.6875 67.183594 147.90625 68.195312 C 146.929688 69.496094 146.734375 69.828125 147.242188 69.339844 C 147.652344 68.972656 148.492188 67.863281 149.136719 66.890625 C 149.898438 65.726562 150.503906 65.027344 150.933594 64.8125 C 151.265625 64.65625 151.480469 64.5 151.363281 64.5 C 151.265625 64.5 150.992188 64.597656 150.777344 64.714844 Z M 150.777344 64.714844 " fill-opacity="1" fill-rule="nonzero"/><path fill="#000000" d="M 126.082031 66.152344 C 126.101562 66.988281 126.179688 67.941406 126.257812 68.273438 C 126.335938 68.582031 126.355469 67.941406 126.296875 66.8125 C 126.179688 64.382812 126.0625 63.976562 126.082031 66.152344 Z M 126.082031 66.152344 " fill-opacity="1" fill-rule="nonzero"/><path fill="#000000" d="M 122.957031 65.882812 C 122.957031 66.152344 122.898438 66.503906 122.878906 66.660156 C 122.839844 66.796875 122.839844 66.832031 122.898438 66.738281 C 122.957031 66.640625 123.113281 66.8125 123.25 67.125 C 123.484375 67.59375 123.503906 67.613281 123.386719 67.203125 C 123.328125 66.929688 123.191406 66.40625 123.113281 66.035156 C 122.996094 65.453125 122.976562 65.433594 122.957031 65.882812 Z M 122.957031 65.882812 " fill-opacity="1" fill-rule="nonzero"/><path fill="#000000" d="M 125.125 66.8125 C 125.125 67.183594 125.164062 67.339844 125.222656 67.144531 C 125.261719 66.96875 125.261719 66.660156 125.222656 66.464844 C 125.164062 66.289062 125.125 66.445312 125.125 66.8125 Z M 125.125 66.8125 " fill-opacity="1" fill-rule="nonzero"/><path fill="#000000" d="M 150.738281 68.019531 C 149.136719 69.535156 148.570312 70.023438 146.65625 71.617188 C 144.78125 73.171875 144.820312 73.113281 145.757812 72.625 C 146.207031 72.375 147.691406 71.167969 149.039062 69.945312 C 150.386719 68.699219 151.792969 67.457031 152.164062 67.164062 C 152.535156 66.890625 152.75 66.601562 152.652344 66.523438 C 152.535156 66.464844 151.675781 67.125 150.738281 68.019531 Z M 150.738281 68.019531 " fill-opacity="1" fill-rule="nonzero"/><path fill="#000000" d="M 125.359375 68.019531 C 125.535156 68.738281 125.847656 69.535156 125.945312 69.535156 C 126.042969 69.535156 125.476562 67.746094 125.320312 67.59375 C 125.261719 67.535156 125.28125 67.726562 125.359375 68.019531 Z M 125.359375 68.019531 " fill-opacity="1" fill-rule="nonzero"/><path fill="#000000" d="M 126.472656 69.148438 C 126.472656 69.300781 126.550781 69.574219 126.648438 69.730469 C 126.882812 70.078125 126.882812 69.769531 126.648438 69.246094 C 126.53125 68.992188 126.472656 68.953125 126.472656 69.148438 Z M 126.472656 69.148438 " fill-opacity="1" fill-rule="nonzero"/><path fill="#000000" d="M 137.492188 70.3125 C 136.847656 70.507812 136.007812 70.683594 135.636719 70.722656 C 135.128906 70.742188 135.070312 70.78125 135.421875 70.839844 C 135.910156 70.933594 138.292969 70.410156 138.761719 70.117188 C 139.171875 69.867188 138.859375 69.90625 137.492188 70.3125 Z M 137.492188 70.3125 " fill-opacity="1" fill-rule="nonzero"/><path fill="#000000" d="M 126.765625 70.488281 C 126.6875 70.605469 126.335938 71.925781 125.964844 73.421875 C 125.59375 74.921875 124.96875 77.214844 124.597656 78.496094 C 124.226562 79.800781 123.953125 80.90625 123.992188 80.945312 C 124.050781 81.003906 124.363281 80.128906 124.695312 79.019531 C 125.046875 77.933594 125.417969 76.746094 125.535156 76.4375 C 125.789062 75.8125 125.789062 75.738281 125.828125 74.921875 C 125.847656 74.609375 125.945312 74.433594 126.0625 74.492188 C 126.160156 74.550781 126.199219 74.492188 126.140625 74.316406 C 126.042969 74.046875 126.707031 71.363281 126.941406 71.128906 C 127 71.070312 127.117188 71.109375 127.234375 71.207031 C 127.332031 71.304688 127.292969 71.90625 127.117188 72.742188 C 125.125 82.382812 124.597656 85.28125 124.871094 85.28125 C 124.96875 85.28125 125.085938 84.699219 125.164062 83.996094 C 125.242188 83.277344 125.476562 81.9375 125.691406 81.023438 C 125.90625 80.109375 126.472656 77.484375 126.921875 75.210938 L 127.742188 71.089844 L 127.3125 70.683594 C 127.039062 70.429688 126.84375 70.351562 126.765625 70.488281 Z M 126.765625 70.488281 " fill-opacity="1" fill-rule="nonzero"/><path fill="#000000" d="M 133.097656 70.992188 C 132.824219 71.148438 132.453125 71.265625 132.238281 71.285156 C 131.964844 71.285156 132.042969 71.441406 132.628906 72.042969 C 133.058594 72.472656 133.429688 72.761719 133.46875 72.722656 C 133.527344 72.683594 133.3125 72.375 133 72.0625 C 132.492188 71.519531 132.53125 71.363281 133.15625 71.460938 C 133.234375 71.460938 133.292969 71.382812 133.292969 71.285156 C 133.292969 71.167969 133.664062 71.089844 134.113281 71.089844 C 135.011719 71.089844 135.050781 71.011719 134.171875 70.839844 C 133.839844 70.78125 133.371094 70.839844 133.097656 70.992188 Z M 133.097656 70.992188 " fill-opacity="1" fill-rule="nonzero"/><path fill="#000000" d="M 131.238281 71.867188 C 131.179688 71.984375 131.257812 72.003906 131.417969 71.945312 C 131.769531 71.808594 131.828125 71.675781 131.554688 71.675781 C 131.4375 71.675781 131.296875 71.75 131.238281 71.867188 Z M 131.238281 71.867188 " fill-opacity="1" fill-rule="nonzero"/><path fill="#000000" d="M 139.308594 72.199219 C 139.445312 72.257812 139.621094 72.238281 139.679688 72.179688 C 139.757812 72.121094 139.640625 72.0625 139.425781 72.082031 C 139.210938 72.082031 139.152344 72.140625 139.308594 72.199219 Z M 139.308594 72.199219 " fill-opacity="1" fill-rule="nonzero"/><path fill="#000000" d="M 138.332031 72.394531 C 138.449219 72.433594 138.683594 72.433594 138.820312 72.394531 C 138.9375 72.335938 138.839844 72.296875 138.566406 72.296875 C 138.292969 72.296875 138.195312 72.335938 138.332031 72.394531 Z M 138.332031 72.394531 " fill-opacity="1" fill-rule="nonzero"/><path fill="#000000" d="M 137.0625 72.585938 C 137.238281 72.625 137.550781 72.625 137.746094 72.585938 C 137.921875 72.527344 137.765625 72.492188 137.394531 72.492188 C 137.023438 72.492188 136.867188 72.527344 137.0625 72.585938 Z M 137.0625 72.585938 " fill-opacity="1" fill-rule="nonzero"/><path fill="#000000" d="M 135.109375 72.78125 C 135.402344 72.820312 135.871094 72.820312 136.183594 72.78125 C 136.476562 72.742188 136.222656 72.703125 135.636719 72.703125 C 135.050781 72.703125 134.796875 72.742188 135.109375 72.78125 Z M 135.109375 72.78125 " fill-opacity="1" fill-rule="nonzero"/><path fill="#000000" d="M 125.125 73.617188 C 125.125 73.890625 125.164062 73.988281 125.222656 73.851562 C 125.261719 73.734375 125.261719 73.5 125.222656 73.363281 C 125.164062 73.25 125.125 73.34375 125.125 73.617188 Z M 125.125 73.617188 " fill-opacity="1" fill-rule="nonzero"/><path fill="#000000" d="M 125.105469 75.09375 C 125.105469 75.308594 125.164062 75.367188 125.222656 75.210938 C 125.28125 75.074219 125.261719 74.902344 125.203125 74.84375 C 125.144531 74.765625 125.085938 74.882812 125.105469 75.09375 Z M 125.105469 75.09375 " fill-opacity="1" fill-rule="nonzero"/><path fill="#000000" d="M 120.457031 87.03125 C 120.457031 87.515625 120.496094 87.710938 120.535156 87.457031 C 120.574219 87.222656 120.574219 86.835938 120.535156 86.582031 C 120.496094 86.347656 120.457031 86.542969 120.457031 87.03125 Z M 120.457031 87.03125 " fill-opacity="1" fill-rule="nonzero"/><path fill="#000000" d="M 120.4375 88.585938 C 120.4375 88.953125 120.476562 89.109375 120.535156 88.914062 C 120.574219 88.742188 120.574219 88.429688 120.535156 88.234375 C 120.476562 88.058594 120.4375 88.214844 120.4375 88.585938 Z M 120.4375 88.585938 " fill-opacity="1" fill-rule="nonzero"/><g fill="#000000" fill-opacity="1"><g transform="translate(11.467136, 60.190122)"><g><path d="M 7.0625 -4.6875 C 5.15625 -3.3125 3.257812 -2.800781 1.375 -3.15625 C -0.507812 -3.519531 -2.203125 -4.742188 -3.703125 -6.828125 C -4.691406 -8.203125 -5.300781 -9.546875 -5.53125 -10.859375 C -5.757812 -12.179688 -5.628906 -13.398438 -5.140625 -14.515625 C -4.660156 -15.640625 -3.863281 -16.601562 -2.75 -17.40625 C -2.0625 -17.894531 -1.234375 -18.1875 -0.265625 -18.28125 C 0.0976562 -18.320312 0.5 -18.320312 0.9375 -18.28125 C 0.914062 -18.738281 0.945312 -19.132812 1.03125 -19.46875 C 1.132812 -19.769531 1.195312 -19.941406 1.21875 -19.984375 L 1.65625 -20.296875 L 4.109375 -16.90625 L 3.390625 -16.390625 C 2.816406 -16.859375 2.210938 -17.210938 1.578125 -17.453125 C 0.960938 -17.691406 0.335938 -17.804688 -0.296875 -17.796875 C -0.941406 -17.796875 -1.539062 -17.597656 -2.09375 -17.203125 C -2.90625 -16.617188 -3.238281 -15.65625 -3.09375 -14.3125 C -2.945312 -12.96875 -2.101562 -11.222656 -0.5625 -9.078125 C 1.007812 -6.898438 2.421875 -5.550781 3.671875 -5.03125 C 4.929688 -4.519531 6.078125 -4.632812 7.109375 -5.375 C 7.660156 -5.769531 8.078125 -6.304688 8.359375 -6.984375 C 8.640625 -7.671875 8.75 -8.390625 8.6875 -9.140625 C 8.632812 -9.898438 8.394531 -10.570312 7.96875 -11.15625 L 8.40625 -11.484375 C 8.90625 -10.796875 9.179688 -10.023438 9.234375 -9.171875 C 9.296875 -8.328125 9.140625 -7.503906 8.765625 -6.703125 C 8.390625 -5.898438 7.820312 -5.226562 7.0625 -4.6875 Z M 7.0625 -4.6875 "/></g></g></g><g fill="#000000" fill-opacity="1"><g transform="translate(27.215222, 49.1143)"><g><path d="M 7.234375 -3.75 C 5.984375 -3.039062 4.734375 -2.6875 3.484375 -2.6875 C 2.242188 -2.695312 1.070312 -3.078125 -0.03125 -3.828125 C -1.132812 -4.578125 -2.109375 -5.691406 -2.953125 -7.171875 C -3.796875 -8.648438 -4.257812 -10.054688 -4.34375 -11.390625 C -4.425781 -12.734375 -4.15625 -13.941406 -3.53125 -15.015625 C -2.90625 -16.097656 -1.96875 -16.992188 -0.71875 -17.703125 C 0.519531 -18.410156 1.765625 -18.757812 3.015625 -18.75 C 4.265625 -18.75 5.441406 -18.367188 6.546875 -17.609375 C 7.648438 -16.859375 8.625 -15.742188 9.46875 -14.265625 C 10.3125 -12.785156 10.773438 -11.378906 10.859375 -10.046875 C 10.941406 -8.710938 10.664062 -7.503906 10.03125 -6.421875 C 9.40625 -5.347656 8.472656 -4.457031 7.234375 -3.75 Z M 7.03125 -4.125 C 7.519531 -4.40625 7.851562 -4.878906 8.03125 -5.546875 C 8.21875 -6.210938 8.171875 -7.113281 7.890625 -8.25 C 7.617188 -9.394531 7.03125 -10.765625 6.125 -12.359375 C 5.21875 -13.953125 4.34375 -15.160156 3.5 -15.984375 C 2.65625 -16.804688 1.898438 -17.300781 1.234375 -17.46875 C 0.566406 -17.644531 -0.0078125 -17.59375 -0.5 -17.3125 C -1 -17.03125 -1.34375 -16.554688 -1.53125 -15.890625 C -1.71875 -15.234375 -1.671875 -14.332031 -1.390625 -13.1875 C -1.109375 -12.050781 -0.515625 -10.6875 0.390625 -9.09375 C 1.296875 -7.5 2.164062 -6.289062 3 -5.46875 C 3.84375 -4.644531 4.597656 -4.144531 5.265625 -3.96875 C 5.941406 -3.789062 6.53125 -3.84375 7.03125 -4.125 Z M 7.03125 -4.125 "/></g></g></g><g fill="#000000" fill-opacity="1"><g transform="translate(45.763986, 38.84957)"><g><path d="M -1.796875 -11.921875 L 2.4375 -2.125 L 4.328125 -2.21875 L 4.453125 -1.921875 L 0.609375 -0.265625 L 0.484375 -0.5625 L 1.828125 -1.859375 L -3.578125 -14.375 L -5.171875 -14.171875 L -5.3125 -14.484375 L -3.1875 -15.40625 C -2.46875 -15.71875 -1.851562 -15.832031 -1.34375 -15.75 C -0.832031 -15.664062 -0.300781 -15.484375 0.25 -15.203125 L 10 -10.4375 L 6.5 -18.5 L 4.625 -18.40625 L 4.484375 -18.71875 L 8.328125 -20.375 L 8.46875 -20.0625 L 7.109375 -18.765625 L 12.953125 -5.25 L 12.34375 -4.984375 Z M -1.796875 -11.921875 "/></g></g></g><g fill="#000000" fill-opacity="1"><g transform="translate(65.389733, 30.727876)"><g><path d="M 0.953125 -0.640625 L 2.109375 -1.359375 L -2.109375 -14.796875 L -3.46875 -14.703125 L -3.578125 -15.03125 L 7.65625 -18.5625 L 8.84375 -14.765625 L 8.203125 -14.5625 C 7.878906 -14.695312 7.566406 -14.898438 7.265625 -15.171875 C 6.578125 -15.773438 6.097656 -16.515625 5.828125 -17.390625 L 1.3125 -15.96875 L 3.390625 -9.375 L 5.8125 -10.140625 C 5.738281 -10.691406 5.765625 -11.242188 5.890625 -11.796875 C 5.929688 -12.035156 6 -12.28125 6.09375 -12.53125 L 6.734375 -12.734375 L 8.21875 -8.015625 L 7.578125 -7.8125 C 7.359375 -7.957031 7.160156 -8.117188 6.984375 -8.296875 C 6.578125 -8.671875 6.238281 -9.109375 5.96875 -9.609375 L 3.546875 -8.84375 L 5.5625 -2.4375 L 6.9375 -2.53125 L 7.03125 -2.21875 L 1.046875 -0.328125 Z M 0.953125 -0.640625 "/></g></g></g><g fill="#000000" fill-opacity="1"><g transform="translate(83.023485, 25.418403)"><g><path d="M 1.015625 -0.546875 L 2.234375 -1.140625 L -0.65625 -14.921875 L -2.015625 -14.953125 L -2.09375 -15.296875 L 9.421875 -17.71875 L 10.25 -13.828125 L 9.59375 -13.6875 C 9.28125 -13.851562 8.988281 -14.082031 8.71875 -14.375 C 8.09375 -15.0625 7.6875 -15.851562 7.5 -16.75 L 2.875 -15.765625 L 4.296875 -8.984375 L 6.765625 -9.515625 C 6.753906 -10.078125 6.832031 -10.625 7 -11.15625 C 7.070312 -11.40625 7.164062 -11.644531 7.28125 -11.875 L 7.9375 -12.015625 L 8.953125 -7.171875 L 8.296875 -7.03125 C 8.097656 -7.207031 7.921875 -7.382812 7.765625 -7.5625 C 7.390625 -7.976562 7.09375 -8.453125 6.875 -8.984375 L 4.40625 -8.453125 L 5.8125 -1.765625 L 10.875 -2.828125 C 10.6875 -3.734375 10.738281 -4.628906 11.03125 -5.515625 C 11.15625 -5.878906 11.335938 -6.195312 11.578125 -6.46875 L 12.21875 -6.609375 L 13.03125 -2.734375 L 1.078125 -0.21875 Z M 1.015625 -0.546875 "/></g></g></g><g fill="#000000" fill-opacity="1"><g transform="translate(101.856859, 21.741014)"><g><path d="M 6.46875 -0.375 C 5.4375 -0.269531 4.445312 -0.398438 3.5 -0.765625 C 3.070312 -0.929688 2.703125 -1.132812 2.390625 -1.375 C 2.222656 -1.019531 2.003906 -0.691406 1.734375 -0.390625 C 1.484375 -0.171875 1.34375 -0.0507812 1.3125 -0.03125 L 0.78125 0.03125 L 0.328125 -4.109375 L 1.203125 -4.21875 C 1.492188 -3.53125 1.867188 -2.925781 2.328125 -2.40625 C 3.347656 -1.238281 4.566406 -0.726562 5.984375 -0.875 C 6.804688 -0.96875 7.441406 -1.289062 7.890625 -1.84375 C 8.335938 -2.394531 8.515625 -3.085938 8.421875 -3.921875 C 8.367188 -4.410156 8.175781 -4.828125 7.84375 -5.171875 C 7.519531 -5.515625 7.128906 -5.804688 6.671875 -6.046875 C 6.222656 -6.296875 5.59375 -6.597656 4.78125 -6.953125 C 3.757812 -7.367188 2.925781 -7.765625 2.28125 -8.140625 C 1.632812 -8.523438 1.0625 -9.023438 0.5625 -9.640625 C 0.0703125 -10.253906 -0.21875 -11.007812 -0.3125 -11.90625 C -0.394531 -12.625 -0.269531 -13.289062 0.0625 -13.90625 C 0.40625 -14.53125 0.957031 -15.054688 1.71875 -15.484375 C 2.488281 -15.921875 3.457031 -16.207031 4.625 -16.34375 C 5.46875 -16.4375 6.34375 -16.285156 7.25 -15.890625 C 7.582031 -15.742188 7.925781 -15.539062 8.28125 -15.28125 C 8.488281 -15.695312 8.707031 -16.03125 8.9375 -16.28125 C 9.175781 -16.5 9.3125 -16.617188 9.34375 -16.640625 L 9.890625 -16.703125 L 10.359375 -12.546875 L 9.484375 -12.453125 C 9.210938 -13.128906 8.851562 -13.734375 8.40625 -14.265625 C 7.988281 -14.773438 7.5 -15.179688 6.9375 -15.484375 C 6.382812 -15.796875 5.769531 -15.914062 5.09375 -15.84375 C 4.539062 -15.78125 4.082031 -15.5 3.71875 -15 C 3.363281 -14.5 3.222656 -13.898438 3.296875 -13.203125 C 3.359375 -12.660156 3.566406 -12.191406 3.921875 -11.796875 C 4.285156 -11.398438 4.710938 -11.066406 5.203125 -10.796875 C 5.703125 -10.535156 6.375 -10.222656 7.21875 -9.859375 C 8.1875 -9.429688 8.976562 -9.039062 9.59375 -8.6875 C 10.21875 -8.34375 10.757812 -7.890625 11.21875 -7.328125 C 11.675781 -6.765625 11.945312 -6.085938 12.03125 -5.296875 C 12.125 -4.515625 11.976562 -3.773438 11.59375 -3.078125 C 11.207031 -2.378906 10.582031 -1.789062 9.71875 -1.3125 C 8.863281 -0.832031 7.78125 -0.519531 6.46875 -0.375 Z M 6.46875 -0.375 "/></g></g></g><g fill="#000000" fill-opacity="1"><g transform="translate(119.879248, 19.99202)"><g><path d="M 6.484375 0.234375 C 5.441406 0.242188 4.46875 0.0195312 3.5625 -0.4375 C 3.144531 -0.632812 2.796875 -0.867188 2.515625 -1.140625 C 2.304688 -0.796875 2.054688 -0.492188 1.765625 -0.234375 C 1.492188 -0.0234375 1.34375 0.0820312 1.3125 0.09375 L 0.765625 0.09375 L 0.703125 -4.078125 L 1.59375 -4.09375 C 1.820312 -3.375 2.140625 -2.738281 2.546875 -2.1875 C 3.460938 -0.914062 4.628906 -0.289062 6.046875 -0.3125 C 6.878906 -0.320312 7.539062 -0.582031 8.03125 -1.09375 C 8.519531 -1.601562 8.757812 -2.273438 8.75 -3.109375 C 8.738281 -3.597656 8.585938 -4.03125 8.296875 -4.40625 C 8.003906 -4.78125 7.644531 -5.109375 7.21875 -5.390625 C 6.789062 -5.679688 6.191406 -6.035156 5.421875 -6.453125 C 4.441406 -6.984375 3.648438 -7.460938 3.046875 -7.890625 C 2.441406 -8.328125 1.921875 -8.875 1.484375 -9.53125 C 1.046875 -10.195312 0.816406 -10.984375 0.796875 -11.890625 C 0.785156 -12.609375 0.976562 -13.257812 1.375 -13.84375 C 1.769531 -14.4375 2.367188 -14.910156 3.171875 -15.265625 C 3.972656 -15.628906 4.957031 -15.816406 6.125 -15.828125 C 6.976562 -15.847656 7.835938 -15.617188 8.703125 -15.140625 C 9.023438 -14.960938 9.351562 -14.734375 9.6875 -14.453125 C 9.925781 -14.835938 10.175781 -15.144531 10.4375 -15.375 C 10.695312 -15.5625 10.84375 -15.664062 10.875 -15.6875 L 11.421875 -15.703125 L 11.484375 -11.515625 L 10.609375 -11.5 C 10.410156 -12.195312 10.113281 -12.832031 9.71875 -13.40625 C 9.351562 -13.945312 8.90625 -14.398438 8.375 -14.765625 C 7.851562 -15.128906 7.253906 -15.304688 6.578125 -15.296875 C 6.015625 -15.285156 5.53125 -15.046875 5.125 -14.578125 C 4.71875 -14.117188 4.519531 -13.539062 4.53125 -12.84375 C 4.539062 -12.300781 4.703125 -11.8125 5.015625 -11.375 C 5.335938 -10.945312 5.734375 -10.578125 6.203125 -10.265625 C 6.671875 -9.953125 7.304688 -9.570312 8.109375 -9.125 C 9.046875 -8.613281 9.800781 -8.15625 10.375 -7.75 C 10.957031 -7.34375 11.453125 -6.835938 11.859375 -6.234375 C 12.265625 -5.628906 12.472656 -4.929688 12.484375 -4.140625 C 12.492188 -3.347656 12.273438 -2.625 11.828125 -1.96875 C 11.378906 -1.3125 10.703125 -0.785156 9.796875 -0.390625 C 8.898438 0.00390625 7.796875 0.210938 6.484375 0.234375 Z M 6.484375 0.234375 "/></g></g></g><g fill="#000000" fill-opacity="1"><g transform="translate(138.054894, 20.015321)"><g><path d="M 1.09375 0.078125 L 1.109375 -0.25 L 2.46875 -0.5 L 3.40625 -14.546875 L 2.109375 -14.953125 L 2.125 -15.296875 L 8.390625 -14.875 L 8.375 -14.53125 L 7.015625 -14.296875 L 6.078125 -0.25 L 7.375 0.171875 L 7.359375 0.5 Z M 1.09375 0.078125 "/></g></g></g><g fill="#000000" fill-opacity="1"><g transform="translate(151.537379, 20.973537)"><g><path d="M 8 1.609375 C 6.570312 1.378906 5.375 0.867188 4.40625 0.078125 C 3.445312 -0.703125 2.769531 -1.726562 2.375 -3 C 1.976562 -4.28125 1.910156 -5.765625 2.171875 -7.453125 C 2.441406 -9.128906 2.960938 -10.515625 3.734375 -11.609375 C 4.503906 -12.703125 5.46875 -13.472656 6.625 -13.921875 C 7.789062 -14.367188 9.085938 -14.476562 10.515625 -14.25 C 11.929688 -14.019531 13.117188 -13.515625 14.078125 -12.734375 C 15.046875 -11.953125 15.726562 -10.921875 16.125 -9.640625 C 16.519531 -8.359375 16.582031 -6.878906 16.3125 -5.203125 C 16.050781 -3.515625 15.535156 -2.125 14.765625 -1.03125 C 13.992188 0.0507812 13.023438 0.816406 11.859375 1.265625 C 10.703125 1.722656 9.414062 1.835938 8 1.609375 Z M 8.0625 1.171875 C 8.625 1.265625 9.1875 1.109375 9.75 0.703125 C 10.3125 0.296875 10.835938 -0.4375 11.328125 -1.5 C 11.828125 -2.5625 12.21875 -4 12.5 -5.8125 C 12.789062 -7.625 12.863281 -9.113281 12.71875 -10.28125 C 12.582031 -11.445312 12.3125 -12.304688 11.90625 -12.859375 C 11.5 -13.410156 11.015625 -13.734375 10.453125 -13.828125 C 9.878906 -13.921875 9.3125 -13.765625 8.75 -13.359375 C 8.1875 -12.960938 7.65625 -12.226562 7.15625 -11.15625 C 6.664062 -10.09375 6.273438 -8.65625 5.984375 -6.84375 C 5.703125 -5.03125 5.628906 -3.539062 5.765625 -2.375 C 5.910156 -1.21875 6.1875 -0.363281 6.59375 0.1875 C 7 0.75 7.488281 1.078125 8.0625 1.171875 Z M 8.0625 1.171875 "/></g></g></g><g fill="#000000" fill-opacity="1"><g transform="translate(172.429163, 24.572686)"><g><path d="M 6.0625 -10.421875 L 3.234375 -0.140625 L 4.765625 0.96875 L 4.671875 1.28125 L 0.625 0.171875 L 0.71875 -0.140625 L 2.59375 -0.3125 L 6.203125 -13.46875 L 4.828125 -14.296875 L 4.921875 -14.625 L 7.15625 -14.015625 C 7.90625 -13.804688 8.453125 -13.507812 8.796875 -13.125 C 9.148438 -12.738281 9.457031 -12.265625 9.71875 -11.703125 L 14.328125 -1.875 L 16.65625 -10.359375 L 15.125 -11.46875 L 15.21875 -11.796875 L 19.25 -10.6875 L 19.15625 -10.359375 L 17.28125 -10.1875 L 13.375 4.015625 L 12.75 3.84375 Z M 6.0625 -10.421875 "/></g></g></g><g fill="#000000" fill-opacity="1"><g transform="translate(192.807662, 30.48148)"><g><path d="M -0.28125 -0.46875 L 1.578125 -0.4375 L 12.578125 -11.828125 L 13.1875 -11.59375 L 13.53125 4.625 L 14.453125 5.328125 L 14.328125 5.640625 L 11.875 4.671875 C 11.15625 4.390625 10.632812 4 10.3125 3.5 C 9.988281 3.007812 9.820312 2.457031 9.8125 1.84375 L 9.734375 -1.015625 L 4.859375 -2.9375 L 2.203125 -0.1875 L 3.5 1.015625 L 3.375 1.328125 L -0.40625 -0.15625 Z M 5.265625 -3.359375 L 9.734375 -1.59375 L 9.59375 -7.875 Z M 5.265625 -3.359375 "/></g></g></g><g fill="#000000" fill-opacity="1"><g transform="translate(211.254721, 38.056734)"><g><path d="M 1.125 0.203125 L 2.453125 0.53125 L 8.890625 -12 L 7.859375 -12.890625 L 8.015625 -13.203125 L 13.609375 -10.328125 L 13.453125 -10.015625 L 12.109375 -10.34375 L 5.625 2.28125 L 9.84375 4.453125 C 10.269531 3.628906 10.867188 2.96875 11.640625 2.46875 C 11.972656 2.269531 12.316406 2.132812 12.671875 2.0625 L 13.265625 2.375 L 11.453125 5.890625 L 0.96875 0.5 Z M 1.125 0.203125 "/></g></g></g><g fill="#000000" fill-opacity="1"><g transform="translate(227.580454, 46.833126)"><g/></g></g><g fill="#000000" fill-opacity="1"><g transform="translate(237.157281, 52.827207)"><g><path d="M 4.265625 3.5 C 3.441406 2.90625 2.820312 2.285156 2.40625 1.640625 C 1.988281 0.992188 1.765625 0.390625 1.734375 -0.171875 C 1.710938 -0.742188 1.835938 -1.21875 2.109375 -1.59375 C 2.398438 -2 2.753906 -2.234375 3.171875 -2.296875 C 3.597656 -2.367188 4.007812 -2.257812 4.40625 -1.96875 C 4.5 -1.894531 4.585938 -1.8125 4.671875 -1.71875 C 4.765625 -1.632812 4.828125 -1.582031 4.859375 -1.5625 L 5.0625 -1.34375 L 3 1.5 C 3.007812 1.507812 3.097656 1.648438 3.265625 1.921875 C 3.503906 2.222656 3.820312 2.515625 4.21875 2.796875 C 4.925781 3.316406 5.703125 3.429688 6.546875 3.140625 C 7.390625 2.859375 8.269531 2.085938 9.1875 0.828125 C 10.09375 -0.421875 10.535156 -1.476562 10.515625 -2.34375 C 10.503906 -3.21875 10.09375 -3.953125 9.28125 -4.546875 C 8.96875 -4.773438 8.632812 -4.929688 8.28125 -5.015625 C 7.925781 -5.109375 7.535156 -5.175781 7.109375 -5.21875 C 6.753906 -5.257812 6.367188 -5.253906 5.953125 -5.203125 L 5.78125 -5.734375 L 10.828125 -11.171875 L 16.078125 -7.359375 C 16.628906 -7.929688 17.21875 -8.316406 17.84375 -8.515625 C 18.125 -8.617188 18.414062 -8.6875 18.71875 -8.71875 L 19.25 -8.34375 L 16.71875 -4.859375 L 10.25 -9.546875 L 6.796875 -5.796875 C 7.046875 -5.796875 7.382812 -5.753906 7.8125 -5.671875 C 8.664062 -5.460938 9.378906 -5.148438 9.953125 -4.734375 C 11.679688 -3.484375 12.71875 -2.191406 13.0625 -0.859375 C 13.414062 0.460938 13.132812 1.753906 12.21875 3.015625 C 11.289062 4.296875 10.140625 4.992188 8.765625 5.109375 C 7.398438 5.222656 5.898438 4.6875 4.265625 3.5 Z M 4.265625 3.5 "/></g></g></g><g fill="#000000" fill-opacity="1"><g transform="translate(22.495596, 110.288215)"><g><path d="M 2.203125 -8.664062 C 2.203125 -9.613281 2.898438 -9.941406 2.898438 -9.941406 L 0.410156 -9.941406 C 0.410156 -9.941406 1.109375 -9.515625 1.109375 -8.664062 L 1.109375 -1.265625 C 1.109375 -0.410156 0.410156 0 0.410156 0 L 2.898438 0 C 2.898438 0 2.203125 -0.410156 2.203125 -1.265625 Z M 2.203125 -8.664062 "/></g></g></g><g fill="#000000" fill-opacity="1"><g transform="translate(27.821267, 110.288215)"><g><path d="M 5.949219 -5.113281 L 5.878906 -4.445312 L 10.097656 -4.003906 L 10.097656 -3.933594 C 10.097656 -2.1875 8.207031 -0.878906 5.667969 -0.878906 C 3.292969 -0.878906 1.535156 -2.753906 1.535156 -4.96875 C 1.535156 -7.101562 3.28125 -9.046875 5.652344 -9.046875 C 8.265625 -9.046875 9.527344 -7.9375 9.527344 -6.519531 L 10.734375 -6.375 C 10.734375 -8.632812 8.519531 -10.082031 5.695312 -10.082031 C 2.867188 -10.082031 0.453125 -7.78125 0.453125 -4.96875 C 0.453125 -2.128906 2.867188 0.15625 5.695312 0.15625 C 8.4375 0.15625 10.777344 -1.40625 10.777344 -3.820312 L 10.777344 -4.617188 Z M 5.949219 -5.113281 "/></g></g></g><g fill="#000000" fill-opacity="1"><g transform="translate(41.182578, 110.288215)"><g><path d="M 8.648438 -1.902344 L 6.957031 -4.089844 C 8.507812 -4.117188 9.757812 -5.28125 9.757812 -7.058594 C 9.757812 -8.648438 8.464844 -9.925781 6.875 -9.925781 L 6.875 -9.941406 L 0.410156 -9.941406 C 0.410156 -9.941406 1.109375 -9.488281 1.109375 -8.535156 L 1.109375 -1.265625 C 1.109375 -0.410156 0.410156 0 0.410156 0 L 2.898438 0 C 2.898438 0 2.203125 -0.410156 2.203125 -1.265625 L 2.203125 -4.074219 L 5.652344 -4.074219 L 7.667969 -1.476562 C 8.394531 -0.539062 9.757812 0 10.933594 0 L 10.933594 -0.539062 C 10.039062 -0.539062 9.1875 -1.191406 8.648438 -1.902344 Z M 2.203125 -7.894531 C 2.203125 -8.4375 2.65625 -8.890625 3.210938 -8.890625 L 6.617188 -8.890625 C 7.910156 -8.890625 8.863281 -7.894531 8.605469 -6.546875 C 8.4375 -5.695312 7.457031 -5.113281 6.476562 -5.113281 L 2.203125 -5.113281 Z M 2.203125 -7.894531 "/></g></g></g><g fill="#000000" fill-opacity="1"><g transform="translate(54.259952, 110.288215)"><g><path d="M 7.625 -1.035156 L 3.222656 -1.035156 C 2.667969 -1.035156 2.230469 -1.476562 2.230469 -2.03125 L 2.230469 -4.53125 L 5.539062 -4.53125 C 6.105469 -4.53125 6.589844 -3.820312 6.589844 -3.820312 L 6.589844 -6.25 C 6.589844 -6.25 6.078125 -5.566406 5.539062 -5.566406 L 2.230469 -5.566406 L 2.230469 -7.882812 C 2.230469 -8.449219 2.683594 -8.890625 3.238281 -8.890625 L 7.269531 -8.890625 C 7.78125 -8.890625 8.875 -7.269531 8.875 -7.269531 L 8.28125 -9.925781 L 0.441406 -9.925781 C 0.441406 -9.925781 1.136719 -9.429688 1.136719 -8.664062 L 1.136719 -1.292969 C 1.136719 -0.410156 0.441406 0.015625 0.441406 0.015625 L 8.621094 0.015625 L 9.214844 -2.925781 C 9.214844 -2.925781 8.125 -1.035156 7.625 -1.035156 Z M 7.625 -1.035156 "/></g></g></g><g fill="#000000" fill-opacity="1"><g transform="translate(65.9318, 110.288215)"><g><path d="M 0.398438 -9.941406 C 0.398438 -9.941406 1.109375 -9.488281 1.109375 -8.664062 L 1.109375 -1.890625 C 1.109375 0.554688 -0.867188 2.769531 -3.308594 2.769531 L -3.308594 3.324219 C -0.410156 3.324219 2.203125 0.964844 2.203125 -1.929688 L 2.203125 -8.664062 C 2.203125 -9.527344 2.898438 -9.941406 2.898438 -9.941406 Z M 0.398438 -9.941406 "/></g></g></g><g fill="#000000" fill-opacity="1"><g transform="translate(71.229082, 110.288215)"><g><path d="M 11.957031 0 C 11.957031 0 11.078125 -0.371094 10.550781 -1.476562 L 7.597656 -8.890625 L 7.1875 -9.925781 L 4.644531 -9.925781 L 4.230469 -8.890625 L 1.277344 -1.460938 C 0.753906 -0.371094 -0.113281 0 -0.113281 0 L 0.695312 0 L 0.695312 0.015625 L 1.875 0.015625 L 1.875 0 L 3.335938 0 C 3.335938 0 2.214844 -0.808594 2.398438 -1.320312 L 3.28125 -3.535156 L 8.5625 -3.535156 L 9.429688 -1.335938 C 9.644531 -0.824219 8.492188 0 8.492188 0 L 9.96875 0 L 9.96875 0.015625 L 11.148438 0.015625 L 11.148438 0 Z M 3.691406 -4.574219 L 5.410156 -8.890625 L 6.433594 -8.890625 L 8.152344 -4.574219 Z M 3.691406 -4.574219 "/></g></g></g><g fill="#000000" fill-opacity="1"><g transform="translate(85.101496, 110.288215)"><g/></g></g><g fill="#000000" fill-opacity="1"><g transform="translate(91.378382, 110.288215)"><g><path d="M 6.875 -9.925781 L 6.875 -9.941406 L 0.410156 -9.941406 C 0.410156 -9.941406 1.109375 -9.488281 1.109375 -8.535156 L 1.109375 -1.265625 C 1.109375 -0.410156 0.410156 0 0.410156 0 L 2.898438 0 C 2.898438 0 2.203125 -0.410156 2.203125 -1.265625 L 2.203125 -4.074219 L 6.875 -4.074219 C 8.464844 -4.074219 9.757812 -5.253906 9.757812 -7.058594 C 9.757812 -8.648438 8.464844 -9.925781 6.875 -9.925781 Z M 6.476562 -5.113281 L 2.203125 -5.113281 L 2.203125 -7.894531 C 2.203125 -8.4375 2.65625 -8.890625 3.210938 -8.890625 L 6.617188 -8.890625 C 7.910156 -8.890625 8.863281 -7.894531 8.605469 -6.546875 C 8.4375 -5.695312 7.457031 -5.113281 6.476562 -5.113281 Z M 6.476562 -5.113281 "/></g></g></g><g fill="#000000" fill-opacity="1"><g transform="translate(103.49034, 110.288215)"><g><path d="M 8.648438 -1.902344 L 6.957031 -4.089844 C 8.507812 -4.117188 9.757812 -5.28125 9.757812 -7.058594 C 9.757812 -8.648438 8.464844 -9.925781 6.875 -9.925781 L 6.875 -9.941406 L 0.410156 -9.941406 C 0.410156 -9.941406 1.109375 -9.488281 1.109375 -8.535156 L 1.109375 -1.265625 C 1.109375 -0.410156 0.410156 0 0.410156 0 L 2.898438 0 C 2.898438 0 2.203125 -0.410156 2.203125 -1.265625 L 2.203125 -4.074219 L 5.652344 -4.074219 L 7.667969 -1.476562 C 8.394531 -0.539062 9.757812 0 10.933594 0 L 10.933594 -0.539062 C 10.039062 -0.539062 9.1875 -1.191406 8.648438 -1.902344 Z M 2.203125 -7.894531 C 2.203125 -8.4375 2.65625 -8.890625 3.210938 -8.890625 L 6.617188 -8.890625 C 7.910156 -8.890625 8.863281 -7.894531 8.605469 -6.546875 C 8.4375 -5.695312 7.457031 -5.113281 6.476562 -5.113281 L 2.203125 -5.113281 Z M 2.203125 -7.894531 "/></g></g></g><g fill="#000000" fill-opacity="1"><g transform="translate(116.567715, 110.288215)"><g><path d="M 7.625 -1.035156 L 3.222656 -1.035156 C 2.667969 -1.035156 2.230469 -1.476562 2.230469 -2.03125 L 2.230469 -4.53125 L 5.539062 -4.53125 C 6.105469 -4.53125 6.589844 -3.820312 6.589844 -3.820312 L 6.589844 -6.25 C 6.589844 -6.25 6.078125 -5.566406 5.539062 -5.566406 L 2.230469 -5.566406 L 2.230469 -7.882812 C 2.230469 -8.449219 2.683594 -8.890625 3.238281 -8.890625 L 7.269531 -8.890625 C 7.78125 -8.890625 8.875 -7.269531 8.875 -7.269531 L 8.28125 -9.925781 L 0.441406 -9.925781 C 0.441406 -9.925781 1.136719 -9.429688 1.136719 -8.664062 L 1.136719 -1.292969 C 1.136719 -0.410156 0.441406 0.015625 0.441406 0.015625 L 8.621094 0.015625 L 9.214844 -2.925781 C 9.214844 -2.925781 8.125 -1.035156 7.625 -1.035156 Z M 7.625 -1.035156 "/></g></g></g><g fill="#000000" fill-opacity="1"><g transform="translate(128.239563, 110.288215)"><g><path d="M 1.847656 -7.113281 C 1.847656 -8.4375 3.039062 -9.046875 5.113281 -9.046875 C 7.144531 -9.046875 8.335938 -8.351562 8.335938 -6.761719 L 9.570312 -6.617188 C 9.570312 -8.039062 8.5625 -10.054688 5.113281 -10.054688 C 1.761719 -10.054688 0.753906 -8.59375 0.753906 -7.113281 C 0.753906 -3.835938 8.578125 -4.53125 8.578125 -2.613281 C 8.578125 -1.40625 7.414062 -0.878906 5.167969 -0.878906 C 3.292969 -0.878906 1.761719 -1.335938 1.761719 -3.820312 L 0.539062 -3.949219 C 0.539062 -1.136719 2.101562 0.15625 5.167969 0.15625 C 8.195312 0.15625 9.671875 -1.136719 9.671875 -2.613281 C 9.671875 -5.59375 1.847656 -4.941406 1.847656 -7.113281 Z M 1.847656 -7.113281 "/></g></g></g><g fill="#000000" fill-opacity="1"><g transform="translate(140.465088, 110.288215)"><g><path d="M 8.179688 -5.355469 C 8.902344 -5.851562 9.257812 -6.546875 9.257812 -7.65625 C 9.257812 -8.933594 8.164062 -9.925781 6.886719 -9.925781 L 0.441406 -9.925781 C 0.441406 -9.925781 1.136719 -9.628906 1.136719 -8.664062 L 1.136719 -1.265625 C 1.136719 -0.398438 0.441406 0.015625 0.441406 0.015625 L 7.058594 0.015625 C 8.476562 0.015625 9.699219 -1.121094 9.683594 -2.542969 C 9.683594 -3.863281 9.175781 -4.828125 8.179688 -5.355469 Z M 6.488281 -8.890625 C 7.640625 -8.890625 8.519531 -7.925781 8.039062 -6.761719 C 7.769531 -6.09375 7.085938 -5.824219 6.375 -5.824219 L 2.230469 -5.824219 L 2.230469 -7.824219 C 2.230469 -8.421875 2.710938 -8.890625 3.308594 -8.890625 Z M 6.605469 -1.035156 L 3.238281 -1.035156 C 2.683594 -1.035156 2.230469 -1.476562 2.230469 -2.03125 L 2.230469 -4.785156 L 6.449219 -4.785156 C 7.425781 -4.785156 8.320312 -4.273438 8.550781 -3.335938 C 8.875 -2.03125 7.867188 -1.035156 6.605469 -1.035156 Z M 6.605469 -1.035156 "/></g></g></g><g fill="#000000" fill-opacity="1"><g transform="translate(152.733203, 110.288215)"><g><path d="M 2.203125 -8.664062 C 2.203125 -9.613281 2.898438 -9.941406 2.898438 -9.941406 L 0.410156 -9.941406 C 0.410156 -9.941406 1.109375 -9.515625 1.109375 -8.664062 L 1.109375 -1.265625 C 1.109375 -0.410156 0.410156 0 0.410156 0 L 2.898438 0 C 2.898438 0 2.203125 -0.410156 2.203125 -1.265625 Z M 2.203125 -8.664062 "/></g></g></g><g fill="#000000" fill-opacity="1"><g transform="translate(158.058868, 110.288215)"><g><path d="M 10.140625 -9.882812 L 10.140625 -9.941406 L 0.609375 -9.941406 L 0.609375 -9.882812 L 0.171875 -7.269531 C 0.171875 -7.269531 1.234375 -8.890625 1.746094 -8.890625 L 4.132812 -8.890625 C 4.558594 -8.664062 4.828125 -8.476562 4.828125 -7.980469 L 4.828125 -1.265625 C 4.828125 -0.371094 4.132812 0 4.132812 0 L 6.632812 0 C 6.632812 0 5.921875 -0.410156 5.921875 -1.265625 L 5.921875 -7.980469 C 5.921875 -8.476562 6.191406 -8.664062 6.617188 -8.890625 L 9.003906 -8.890625 C 9.515625 -8.890625 10.59375 -7.269531 10.59375 -7.269531 Z M 10.140625 -9.882812 "/></g></g></g><g fill="#000000" fill-opacity="1"><g transform="translate(170.852288, 110.288215)"><g><path d="M 7.625 -1.035156 L 3.222656 -1.035156 C 2.667969 -1.035156 2.230469 -1.476562 2.230469 -2.03125 L 2.230469 -4.53125 L 5.539062 -4.53125 C 6.105469 -4.53125 6.589844 -3.820312 6.589844 -3.820312 L 6.589844 -6.25 C 6.589844 -6.25 6.078125 -5.566406 5.539062 -5.566406 L 2.230469 -5.566406 L 2.230469 -7.882812 C 2.230469 -8.449219 2.683594 -8.890625 3.238281 -8.890625 L 7.269531 -8.890625 C 7.78125 -8.890625 8.875 -7.269531 8.875 -7.269531 L 8.28125 -9.925781 L 0.441406 -9.925781 C 0.441406 -9.925781 1.136719 -9.429688 1.136719 -8.664062 L 1.136719 -1.292969 C 1.136719 -0.410156 0.441406 0.015625 0.441406 0.015625 L 8.621094 0.015625 L 9.214844 -2.925781 C 9.214844 -2.925781 8.125 -1.035156 7.625 -1.035156 Z M 7.625 -1.035156 "/></g></g></g><g fill="#000000" fill-opacity="1"><g transform="translate(182.52413, 110.288215)"><g><path d="M 8.648438 -1.902344 L 6.957031 -4.089844 C 8.507812 -4.117188 9.757812 -5.28125 9.757812 -7.058594 C 9.757812 -8.648438 8.464844 -9.925781 6.875 -9.925781 L 6.875 -9.941406 L 0.410156 -9.941406 C 0.410156 -9.941406 1.109375 -9.488281 1.109375 -8.535156 L 1.109375 -1.265625 C 1.109375 -0.410156 0.410156 0 0.410156 0 L 2.898438 0 C 2.898438 0 2.203125 -0.410156 2.203125 -1.265625 L 2.203125 -4.074219 L 5.652344 -4.074219 L 7.667969 -1.476562 C 8.394531 -0.539062 9.757812 0 10.933594 0 L 10.933594 -0.539062 C 10.039062 -0.539062 9.1875 -1.191406 8.648438 -1.902344 Z M 2.203125 -7.894531 C 2.203125 -8.4375 2.65625 -8.890625 3.210938 -8.890625 L 6.617188 -8.890625 C 7.910156 -8.890625 8.863281 -7.894531 8.605469 -6.546875 C 8.4375 -5.695312 7.457031 -5.113281 6.476562 -5.113281 L 2.203125 -5.113281 Z M 2.203125 -7.894531 "/></g></g></g><g fill="#000000" fill-opacity="1"><g transform="translate(195.601499, 110.288215)"><g><path d="M 2.203125 -8.664062 C 2.203125 -9.613281 2.898438 -9.941406 2.898438 -9.941406 L 0.410156 -9.941406 C 0.410156 -9.941406 1.109375 -9.515625 1.109375 -8.664062 L 1.109375 -1.265625 C 1.109375 -0.410156 0.410156 0 0.410156 0 L 2.898438 0 C 2.898438 0 2.203125 -0.410156 2.203125 -1.265625 Z M 2.203125 -8.664062 "/></g></g></g><g fill="#000000" fill-opacity="1"><g transform="translate(200.927164, 110.288215)"><g><path d="M 11.957031 0 C 11.957031 0 11.078125 -0.371094 10.550781 -1.476562 L 7.597656 -8.890625 L 7.1875 -9.925781 L 4.644531 -9.925781 L 4.230469 -8.890625 L 1.277344 -1.460938 C 0.753906 -0.371094 -0.113281 0 -0.113281 0 L 0.695312 0 L 0.695312 0.015625 L 1.875 0.015625 L 1.875 0 L 3.335938 0 C 3.335938 0 2.214844 -0.808594 2.398438 -1.320312 L 3.28125 -3.535156 L 8.5625 -3.535156 L 9.429688 -1.335938 C 9.644531 -0.824219 8.492188 0 8.492188 0 L 9.96875 0 L 9.96875 0.015625 L 11.148438 0.015625 L 11.148438 0 Z M 3.691406 -4.574219 L 5.410156 -8.890625 L 6.433594 -8.890625 L 8.152344 -4.574219 Z M 3.691406 -4.574219 "/></g></g></g><g fill="#000000" fill-opacity="1"><g transform="translate(214.799572, 110.288215)"><g><path d="M 8.59375 -9.925781 C 8.59375 -9.925781 9.300781 -9.558594 9.300781 -8.664062 L 9.300781 -1.035156 L 8.71875 -1.035156 L 3.578125 -9.925781 L 1.121094 -9.925781 L 1.121094 -1.265625 C 1.121094 -0.398438 0.425781 0.015625 0.425781 0.015625 L 2.910156 0.015625 C 2.910156 0.015625 2.214844 -0.425781 2.214844 -1.265625 L 2.214844 -8.890625 L 2.96875 -8.890625 L 8.109375 0 L 10.382812 0 L 10.382812 -8.664062 C 10.382812 -9.558594 11.089844 -9.925781 11.089844 -9.925781 Z M 8.59375 -9.925781 "/></g></g></g><g fill="#000000" fill-opacity="1"><g transform="translate(228.30285, 110.288215)"><g><path d="M 11.957031 0 C 11.957031 0 11.078125 -0.371094 10.550781 -1.476562 L 7.597656 -8.890625 L 7.1875 -9.925781 L 4.644531 -9.925781 L 4.230469 -8.890625 L 1.277344 -1.460938 C 0.753906 -0.371094 -0.113281 0 -0.113281 0 L 0.695312 0 L 0.695312 0.015625 L 1.875 0.015625 L 1.875 0 L 3.335938 0 C 3.335938 0 2.214844 -0.808594 2.398438 -1.320312 L 3.28125 -3.535156 L 8.5625 -3.535156 L 9.429688 -1.335938 C 9.644531 -0.824219 8.492188 0 8.492188 0 L 9.96875 0 L 9.96875 0.015625 L 11.148438 0.015625 L 11.148438 0 Z M 3.691406 -4.574219 L 5.410156 -8.890625 L 6.433594 -8.890625 L 8.152344 -4.574219 Z M 3.691406 -4.574219 "/></g></g></g><g fill="#000000" fill-opacity="1"><g transform="translate(57.565984, 155.8386)"><g><path d="M 0.839844 -8.871094 L 0.839844 0 L 5.789062 0 L 5.789062 -0.738281 L 1.660156 -0.738281 L 1.660156 -4.164062 L 5.222656 -4.164062 L 5.222656 -4.890625 L 1.660156 -4.890625 L 1.660156 -8.132812 L 5.789062 -8.132812 L 5.789062 -8.871094 Z M 0.839844 -8.871094 "/></g></g></g><g fill="#000000" fill-opacity="1"><g transform="translate(66.312709, 155.8386)"><g><path d="M 3.277344 -4.207031 C 4.824219 -3.992188 5.472656 -3.46875 5.472656 -2.421875 L 5.472656 -2.320312 C 5.472656 -1.238281 4.664062 -0.613281 3.457031 -0.613281 L 3.378906 -0.613281 C 2.183594 -0.613281 1.34375 -1.332031 1.34375 -2.890625 L 0.523438 -2.890625 L 0.523438 -2.773438 C 0.523438 -0.945312 1.535156 0.125 3.414062 0.125 C 5.1875 0.125 6.3125 -0.808594 6.3125 -2.378906 L 6.3125 -2.492188 C 6.3125 -3.855469 5.515625 -4.640625 3.582031 -4.902344 C 1.957031 -5.128906 1.46875 -5.6875 1.46875 -6.632812 L 1.46875 -6.722656 C 1.46875 -7.675781 2.285156 -8.257812 3.367188 -8.257812 L 3.445312 -8.257812 C 4.800781 -8.257812 5.390625 -7.550781 5.390625 -5.867188 L 6.210938 -5.867188 L 6.210938 -6.140625 C 6.210938 -7.972656 5.390625 -8.996094 3.414062 -8.996094 C 1.730469 -8.996094 0.625 -8.097656 0.625 -6.621094 L 0.625 -6.507812 C 0.625 -5.335938 1.34375 -4.46875 3.277344 -4.207031 Z M 3.277344 -4.207031 "/></g></g></g><g fill="#000000" fill-opacity="1"><g transform="translate(75.650889, 155.8386)"><g><path d="M 3.332031 -8.132812 L 5.597656 -8.132812 L 5.597656 -8.871094 L 0.261719 -8.871094 L 0.261719 -8.132812 L 2.515625 -8.132812 L 2.515625 0 L 3.332031 0 Z M 3.332031 -8.132812 "/></g></g></g><g fill="#000000" fill-opacity="1"><g transform="translate(84.010899, 155.8386)"><g><path d="M 2.890625 -8.960938 L 0.328125 0 L 1.21875 0 L 1.855469 -2.273438 L 5.09375 -2.273438 L 5.734375 0 L 6.621094 0 L 4.0625 -8.960938 Z M 3.46875 -8.0625 L 4.878906 -3.015625 L 2.058594 -3.015625 Z M 2.695312 -9.554688 L 3.46875 -10.304688 L 4.242188 -9.554688 L 5.039062 -9.554688 L 3.832031 -10.804688 L 3.105469 -10.804688 L 1.898438 -9.554688 Z M 2.695312 -9.554688 "/></g></g></g><g fill="#000000" fill-opacity="1"><g transform="translate(93.462823, 155.8386)"><g><path d="M 6.652344 -8.871094 L 5.878906 -8.871094 L 5.878906 -3.445312 L 5.914062 -1.386719 L 1.730469 -8.871094 L 0.839844 -8.871094 L 0.839844 0 L 1.613281 0 L 1.613281 -5.425781 L 1.570312 -7.484375 L 5.765625 0 L 6.652344 0 Z M 6.652344 -8.871094 "/></g></g></g><g fill="#000000" fill-opacity="1"><g transform="translate(103.460713, 155.8386)"><g><path d="M 1.488281 -4.207031 L 1.488281 -4.664062 C 1.488281 -7.1875 2.171875 -8.257812 3.652344 -8.257812 L 3.730469 -8.257812 C 5.0625 -8.257812 5.617188 -7.472656 5.617188 -5.640625 L 6.460938 -5.640625 L 6.460938 -5.960938 C 6.460938 -7.960938 5.550781 -8.996094 3.664062 -8.996094 C 1.625 -8.996094 0.648438 -7.734375 0.648438 -4.664062 L 0.648438 -4.207031 C 0.648438 -1.136719 1.625 0.125 3.664062 0.125 C 5.550781 0.125 6.460938 -0.910156 6.460938 -2.773438 L 6.460938 -2.890625 L 5.617188 -2.890625 C 5.617188 -1.421875 5.0625 -0.613281 3.730469 -0.613281 L 3.652344 -0.613281 C 2.160156 -0.613281 1.488281 -1.683594 1.488281 -4.207031 Z M 1.488281 -4.207031 "/></g></g></g><g fill="#000000" fill-opacity="1"><g transform="translate(112.992259, 155.8386)"><g><path d="M 1.71875 -8.871094 L 0.898438 -8.871094 L 0.898438 0 L 1.71875 0 Z M 1.71875 -8.871094 "/></g></g></g><g fill="#000000" fill-opacity="1"><g transform="translate(118.110626, 155.8386)"><g><path d="M 2.890625 -8.960938 L 0.328125 0 L 1.21875 0 L 1.855469 -2.273438 L 5.09375 -2.273438 L 5.734375 0 L 6.621094 0 L 4.0625 -8.960938 Z M 3.46875 -8.0625 L 4.878906 -3.015625 L 2.058594 -3.015625 Z M 3.46875 -8.0625 "/></g></g></g><g fill="#000000" fill-opacity="1"><g transform="translate(127.562548, 155.8386)"><g/></g></g><g fill="#000000" fill-opacity="1"><g transform="translate(132.339694, 155.8386)"><g><path d="M 4.0625 0.0898438 L 6.621094 -8.871094 L 5.734375 -8.871094 L 3.46875 -0.808594 L 1.21875 -8.871094 L 0.328125 -8.871094 L 2.890625 0.0898438 Z M 4.0625 0.0898438 "/></g></g></g><g fill="#000000" fill-opacity="1"><g transform="translate(141.791616, 155.8386)"><g><path d="M 0.839844 -8.871094 L 0.839844 0 L 5.789062 0 L 5.789062 -0.738281 L 1.660156 -0.738281 L 1.660156 -4.164062 L 5.222656 -4.164062 L 5.222656 -4.890625 L 1.660156 -4.890625 L 1.660156 -8.132812 L 5.789062 -8.132812 L 5.789062 -8.871094 Z M 0.839844 -8.871094 "/></g></g></g><g fill="#000000" fill-opacity="1"><g transform="translate(150.538343, 155.8386)"><g><path d="M 5.414062 0 L 5.414062 -0.738281 L 1.660156 -0.738281 L 1.660156 -8.871094 L 0.839844 -8.871094 L 0.839844 0 Z M 5.414062 0 "/></g></g></g><g fill="#000000" fill-opacity="1"><g transform="translate(158.625374, 155.8386)"><g><path d="M 5.609375 -8.871094 L 5.609375 -4.890625 L 1.660156 -4.890625 L 1.660156 -8.871094 L 0.839844 -8.871094 L 0.839844 0 L 1.660156 0 L 1.660156 -4.164062 L 5.609375 -4.164062 L 5.609375 0 L 6.425781 0 L 6.425781 -8.871094 Z M 5.609375 -8.871094 "/></g></g></g><g fill="#000000" fill-opacity="1"><g transform="translate(168.395776, 155.8386)"><g><path d="M 2.890625 -8.960938 L 0.328125 0 L 1.21875 0 L 1.855469 -2.273438 L 5.09375 -2.273438 L 5.734375 0 L 6.621094 0 L 4.0625 -8.960938 Z M 3.46875 -8.0625 L 4.878906 -3.015625 L 2.058594 -3.015625 Z M 3.46875 -8.0625 "/></g></g></g><g fill="#000000" fill-opacity="1"><g transform="translate(177.847703, 155.8386)"><g/></g></g><g fill="#000000" fill-opacity="1"><g transform="translate(182.624855, 155.8386)"><g><path d="M 3.582031 -9.554688 L 2.785156 -9.554688 L 0.171875 1.363281 L 0.96875 1.363281 Z M 3.582031 -9.554688 "/></g></g></g><g fill="#000000" fill-opacity="1"><g transform="translate(188.880646, 155.8386)"><g/></g></g><g fill="#000000" fill-opacity="1"><g transform="translate(193.657798, 155.8386)"><g><path d="M 1.660156 -3.605469 L 3.296875 -3.605469 C 3.433594 -3.605469 3.570312 -3.605469 3.707031 -3.617188 L 5.117188 0 L 6.015625 0 L 4.480469 -3.777344 C 5.324219 -4.050781 6.015625 -4.707031 6.015625 -6.121094 L 6.015625 -6.347656 C 6.015625 -8.394531 4.5625 -8.871094 3.296875 -8.871094 L 0.839844 -8.871094 L 0.839844 0 L 1.660156 0 Z M 1.660156 -4.34375 L 1.660156 -8.132812 L 3.320312 -8.132812 C 4.082031 -8.132812 5.175781 -7.847656 5.175781 -6.324219 L 5.175781 -6.152344 C 5.175781 -4.628906 4.082031 -4.34375 3.320312 -4.34375 Z M 1.660156 -4.34375 "/></g></g></g><g fill="#000000" fill-opacity="1"><g transform="translate(202.802629, 155.8386)"><g><path d="M 3.277344 -4.207031 C 4.824219 -3.992188 5.472656 -3.46875 5.472656 -2.421875 L 5.472656 -2.320312 C 5.472656 -1.238281 4.664062 -0.613281 3.457031 -0.613281 L 3.378906 -0.613281 C 2.183594 -0.613281 1.34375 -1.332031 1.34375 -2.890625 L 0.523438 -2.890625 L 0.523438 -2.773438 C 0.523438 -0.945312 1.535156 0.125 3.414062 0.125 C 5.1875 0.125 6.3125 -0.808594 6.3125 -2.378906 L 6.3125 -2.492188 C 6.3125 -3.855469 5.515625 -4.640625 3.582031 -4.902344 C 1.957031 -5.128906 1.46875 -5.6875 1.46875 -6.632812 L 1.46875 -6.722656 C 1.46875 -7.675781 2.285156 -8.257812 3.367188 -8.257812 L 3.445312 -8.257812 C 4.800781 -8.257812 5.390625 -7.550781 5.390625 -5.867188 L 6.210938 -5.867188 L 6.210938 -6.140625 C 6.210938 -7.972656 5.390625 -8.996094 3.414062 -8.996094 C 1.730469 -8.996094 0.625 -8.097656 0.625 -6.621094 L 0.625 -6.507812 C 0.625 -5.335938 1.34375 -4.46875 3.277344 -4.207031 Z M 3.277344 -4.207031 "/></g></g></g><path stroke-linecap="butt" transform="matrix(0.750153, 0.00367981, -0.00367901, 0.749991, 23.30521, 128.34949)" fill="none" stroke-linejoin="miter" d="M 0.00174397 0.497553 L 289.947988 0.502041 " stroke="#606060" stroke-width="1" stroke-opacity="1" stroke-miterlimit="4"/><g clip-path="url(#af75252288)"><path stroke-linecap="butt" transform="matrix(0.750153, 0.00367981, -0.00367901, 0.749991, 23.30521, 175.823968)" fill="none" stroke-linejoin="miter" d="M 0.0017576 0.500332 L 289.947976 0.499612 " stroke="#606060" stroke-width="1" stroke-opacity="1" stroke-miterlimit="4"/></g></svg>