<svg xmlns="http://www.w3.org/2000/svg" xmlns:xlink="http://www.w3.org/1999/xlink" width="230" zoomAndPan="magnify" viewBox="0 0 172.5 74.999997" height="100" preserveAspectRatio="xMidYMid meet" version="1.0"><defs><g/><clipPath id="6aa13f3a4d"><path d="M 16 28.820312 L 18 28.820312 L 18 30 L 16 30 Z M 16 28.820312 " clip-rule="nonzero"/></clipPath><clipPath id="c68bc80035"><path d="M 3 28.820312 L 24 28.820312 L 24 61.820312 L 3 61.820312 Z M 3 28.820312 " clip-rule="nonzero"/></clipPath><clipPath id="f688937ea1"><path d="M 2.796875 35 L 4 35 L 4 40 L 2.796875 40 Z M 2.796875 35 " clip-rule="nonzero"/></clipPath><clipPath id="19f1ac1a90"><path d="M 9 35 L 30.546875 35 L 30.546875 61.820312 L 9 61.820312 Z M 9 35 " clip-rule="nonzero"/></clipPath><clipPath id="f26781a598"><path d="M 7 60 L 8 60 L 8 61.820312 L 7 61.820312 Z M 7 60 " clip-rule="nonzero"/></clipPath></defs><path stroke-linecap="butt" transform="matrix(0.000000000000000046, 0.751869, -0.75, 0.000000000000000046, 38.241013, 30.157732)" fill="none" stroke-linejoin="miter" d="M -0.00197122 1.498434 L 43.899052 1.498434 " stroke="#ffffff" stroke-width="3" stroke-opacity="1" stroke-miterlimit="4"/><path stroke-linecap="butt" transform="matrix(0.751907, 0, 0, 0.75, 29.088996, 44.379213)" fill="none" stroke-linejoin="miter" d="M 0.00112697 1.49959 L 153.615714 1.49959 " stroke="#ffffff" stroke-width="3" stroke-opacity="1" stroke-miterlimit="4"/><g clip-path="url(#6aa13f3a4d)"><path fill="#ffffff" d="M 16.945312 28.898438 C 17.238281 28.941406 17.734375 29.375 17.503906 29.375 C 17.4375 29.375 17.347656 29.320312 17.316406 29.265625 C 17.238281 29.132812 16.496094 29.121094 16.296875 29.242188 C 16.222656 29.296875 16.394531 29.332031 16.703125 29.332031 C 17.085938 29.332031 17.316406 29.386719 17.480469 29.542969 C 17.789062 29.820312 18.0625 29.863281 17.929688 29.609375 C 17.710938 29.199219 17.230469 28.820312 16.945312 28.832031 L 16.660156 28.855469 Z M 17.808594 29.609375 C 17.808594 29.675781 17.765625 29.6875 17.699219 29.652344 C 17.644531 29.621094 17.589844 29.53125 17.589844 29.476562 C 17.589844 29.410156 17.644531 29.398438 17.699219 29.429688 C 17.765625 29.464844 17.808594 29.554688 17.808594 29.609375 Z M 17.808594 29.609375 " fill-opacity="1" fill-rule="nonzero"/></g><g clip-path="url(#c68bc80035)"><path fill="#ffffff" d="M 16.167969 29.054688 C 16.023438 29.121094 15.738281 29.285156 15.542969 29.441406 C 15.257812 29.664062 15.101562 29.710938 14.796875 29.640625 C 13.710938 29.441406 12.199219 31.074219 11.355469 33.386719 C 11.226562 33.742188 11.160156 34.097656 11.191406 34.207031 C 11.246094 34.328125 11.226562 34.386719 11.160156 34.339844 C 11.105469 34.308594 10.996094 34.574219 10.917969 34.996094 L 10.777344 35.71875 L 10.457031 35.175781 C 10.007812 34.363281 9.394531 34.0625 8.835938 34.375 C 8.671875 34.464844 8.53125 34.375 8.09375 33.929688 C 7.707031 33.550781 7.457031 33.375 7.261719 33.375 C 6.921875 33.375 6.308594 33.886719 5.976562 34.441406 C 5.8125 34.695312 5.660156 34.820312 5.484375 34.820312 C 5.078125 34.820312 4.511719 35.40625 4.179688 36.152344 C 4.015625 36.519531 3.898438 36.882812 3.917969 36.949219 C 3.941406 37.019531 4.070312 36.773438 4.214844 36.394531 C 4.652344 35.164062 5.410156 34.640625 6.066406 35.105469 L 6.308594 35.273438 L 5.957031 35.574219 C 5.222656 36.195312 4.5 38.417969 4.378906 40.425781 C 4.257812 42.261719 4.785156 45.058594 5.429688 46.136719 C 5.8125 46.757812 5.582031 46.660156 5.167969 46.015625 C 4.652344 45.238281 4.179688 43.894531 3.917969 42.472656 C 3.6875 41.261719 3.710938 40.195312 4.007812 38.707031 C 4.070312 38.371094 4.160156 37.960938 4.179688 37.796875 C 4.269531 37.296875 4.75 36.152344 5.023438 35.773438 C 5.289062 35.417969 5.464844 35.039062 5.363281 35.039062 C 5.222656 35.039062 4.410156 36.507812 4.214844 37.140625 C 3.863281 38.273438 3.546875 40.738281 3.621094 41.59375 C 3.730469 42.625 4.171875 44.269531 4.597656 45.203125 C 4.96875 46.027344 5.703125 46.96875 5.878906 46.859375 C 5.933594 46.824219 5.976562 46.847656 5.976562 46.914062 C 5.976562 46.96875 6.066406 47.046875 6.1875 47.09375 C 6.710938 47.257812 6.765625 49.824219 6.363281 54.300781 C 6.207031 55.957031 6.085938 57.710938 6.085938 58.210938 C 6.085938 59.1875 6.339844 60.855469 6.558594 61.34375 C 6.667969 61.609375 6.734375 61.644531 7.019531 61.574219 C 7.347656 61.5 7.347656 61.5 7.050781 61.488281 C 6.789062 61.476562 6.746094 61.421875 6.625 60.832031 C 6.546875 60.488281 6.472656 60.121094 6.4375 60.03125 C 6.417969 59.941406 6.382812 59.164062 6.363281 58.308594 C 6.339844 56.898438 6.382812 56.078125 6.570312 54.257812 C 6.886719 51.28125 7.019531 48.925781 6.875 48.925781 C 6.832031 48.925781 6.800781 48.714844 6.800781 48.457031 C 6.8125 48.191406 6.777344 47.925781 6.722656 47.847656 C 6.65625 47.769531 6.644531 47.660156 6.691406 47.582031 C 6.734375 47.515625 6.699219 47.402344 6.625 47.347656 C 6.515625 47.269531 6.546875 47.257812 6.746094 47.304688 C 6.898438 47.335938 7.195312 47.371094 7.402344 47.371094 L 7.785156 47.371094 L 7.71875 48.945312 C 7.632812 50.824219 7.597656 53.867188 7.664062 53.800781 C 7.6875 53.777344 7.742188 53 7.773438 52.089844 C 7.90625 48.570312 7.972656 47.703125 8.113281 47.703125 C 8.210938 47.703125 8.234375 47.992188 8.210938 48.78125 C 8.148438 50.734375 8.167969 53.699219 8.269531 56.535156 C 8.355469 59.320312 8.34375 60.644531 8.222656 61.363281 C 8.167969 61.710938 8.179688 61.730469 8.300781 61.53125 C 8.410156 61.355469 8.433594 60.03125 8.398438 55.300781 C 8.378906 52 8.398438 48.890625 8.441406 48.402344 C 8.507812 47.601562 8.542969 47.492188 8.761719 47.4375 C 8.890625 47.402344 9 47.292969 9.011719 47.179688 C 9.011719 47.070312 9.101562 46.601562 9.210938 46.148438 C 9.417969 45.226562 9.386719 42.839844 9.164062 42.203125 L 9.046875 41.871094 L 9.101562 42.203125 C 9.132812 42.382812 9.1875 43.117188 9.222656 43.828125 C 9.296875 45.136719 9.175781 46.257812 8.882812 46.992188 C 8.714844 47.390625 8.125 47.691406 8.015625 47.414062 C 7.984375 47.3125 7.796875 47.257812 7.488281 47.257812 C 6.480469 47.257812 5.726562 46.570312 5.199219 45.160156 C 4.75 43.9375 4.621094 43.058594 4.621094 41.316406 C 4.621094 39.816406 4.664062 39.515625 4.960938 38.371094 C 5.277344 37.171875 5.878906 35.707031 6.066406 35.707031 C 6.109375 35.707031 6.140625 36.539062 6.140625 37.550781 C 6.140625 39.738281 6.242188 40.171875 6.285156 38.171875 C 6.328125 36.097656 6.460938 35.394531 6.886719 34.953125 C 7.445312 34.363281 8.058594 34.484375 8.714844 35.316406 C 9.910156 36.839844 11.542969 42.148438 11.28125 43.691406 C 11.171875 44.371094 10.796875 45.449219 10.535156 45.835938 C 10.117188 46.457031 10.085938 46.546875 10.339844 46.324219 C 10.601562 46.09375 10.65625 46.191406 10.449219 46.480469 C 10.371094 46.582031 10.46875 46.492188 10.65625 46.28125 C 11.246094 45.636719 11.785156 43.804688 11.785156 42.425781 C 11.785156 41.847656 11.796875 41.839844 12.496094 41.160156 C 13.109375 40.582031 13.910156 40.039062 14.152344 40.039062 C 14.183594 40.039062 14.140625 40.160156 14.039062 40.316406 C 13.84375 40.617188 12.988281 42.550781 12.988281 42.683594 C 12.988281 42.726562 13.21875 42.339844 13.492188 41.816406 C 14.371094 40.148438 15.027344 39.582031 15.828125 39.761719 C 16.449219 39.894531 16.84375 40.5625 17.042969 41.816406 C 17.207031 42.882812 17.175781 43.738281 16.921875 45.503906 C 16.679688 47.246094 16.460938 48.234375 16.199219 48.757812 C 15.980469 49.179688 14.894531 50.257812 14.6875 50.257812 C 14.597656 50.257812 14.523438 50.300781 14.523438 50.359375 C 14.523438 50.414062 14.371094 50.511719 14.171875 50.578125 C 13.984375 50.644531 13.855469 50.734375 13.886719 50.769531 C 14.007812 50.890625 15.027344 50.269531 15.550781 49.746094 C 16.59375 48.726562 17.109375 46.949219 17.230469 43.972656 C 17.328125 41.449219 16.988281 40.214844 16.066406 39.660156 C 15.71875 39.460938 15.671875 39.449219 15.136719 39.628906 C 14.828125 39.726562 14.371094 39.839844 14.117188 39.882812 C 13.820312 39.917969 13.394531 40.128906 12.914062 40.472656 C 11.796875 41.273438 11.785156 41.304688 11.675781 42.558594 C 11.53125 44.214844 11.125 45.714844 10.722656 46.058594 C 10.621094 46.136719 10.566406 46.148438 10.589844 46.09375 C 10.621094 46.027344 10.753906 45.75 10.886719 45.46875 C 11.300781 44.570312 11.488281 43.617188 11.410156 42.761719 C 11.226562 40.496094 9.933594 36.71875 8.890625 35.339844 L 8.488281 34.808594 L 8.738281 34.597656 C 9.277344 34.140625 9.898438 34.417969 10.425781 35.328125 C 10.898438 36.128906 11.347656 37.484375 11.347656 38.074219 C 11.347656 38.382812 11.390625 38.582031 11.445312 38.539062 C 11.511719 38.507812 11.519531 38.640625 11.488281 38.882812 C 11.445312 39.183594 11.457031 39.273438 11.542969 39.21875 C 11.640625 39.160156 11.675781 39.394531 11.675781 40.082031 C 11.675781 40.636719 11.71875 41.0625 11.796875 41.105469 C 11.871094 41.148438 11.90625 41.039062 11.882812 40.761719 C 11.851562 40.394531 11.882812 40.328125 12.265625 40.09375 C 12.507812 39.949219 12.75 39.859375 12.804688 39.894531 C 12.867188 39.929688 12.878906 39.90625 12.835938 39.839844 C 12.792969 39.761719 12.867188 39.683594 13.03125 39.640625 C 13.1875 39.605469 13.371094 39.496094 13.449219 39.40625 C 13.65625 39.148438 12.835938 39.515625 12.253906 39.9375 C 11.804688 40.261719 11.785156 40.261719 11.785156 40.039062 C 11.785156 39.761719 12.59375 39.207031 13.152344 39.105469 C 13.558594 39.027344 13.84375 39.128906 14.304688 39.527344 L 14.578125 39.761719 L 14.359375 39.503906 C 14.128906 39.21875 14.183594 39.140625 14.773438 38.90625 C 14.9375 38.851562 15.070312 38.761719 15.070312 38.726562 C 15.070312 38.59375 16.15625 38.671875 16.332031 38.816406 C 16.539062 38.996094 16.933594 39.839844 16.933594 40.117188 C 16.933594 40.304688 17 40.339844 17.359375 40.328125 C 17.886719 40.316406 18.28125 40.648438 18.488281 41.25 C 18.632812 41.695312 18.640625 43.914062 18.5 44.027344 C 18.457031 44.058594 18.410156 44.238281 18.410156 44.425781 C 18.402344 44.605469 18.367188 44.894531 18.324219 45.070312 C 18.246094 45.359375 18.257812 45.371094 18.542969 45.304688 C 19.191406 45.148438 20.066406 44.648438 20.515625 44.183594 C 21.359375 43.304688 22.585938 40.792969 23.011719 39.09375 C 23.101562 38.738281 23.175781 38.09375 23.175781 37.683594 C 23.175781 36.382812 22.652344 35.707031 21.65625 35.707031 C 21.402344 35.707031 20.996094 35.652344 20.734375 35.574219 C 20.164062 35.417969 19.363281 35.550781 18.347656 35.972656 C 17.238281 36.429688 16.472656 36.949219 15.5625 37.871094 C 13.910156 39.5625 13.515625 39.574219 14.578125 37.917969 C 14.90625 37.394531 15.027344 37.152344 14.839844 37.375 C 14.664062 37.585938 14.371094 38.015625 14.183594 38.328125 C 13.875 38.871094 13.84375 38.894531 13.425781 38.871094 C 13.175781 38.863281 12.988281 38.894531 12.988281 38.960938 C 12.988281 39.039062 12.957031 39.039062 12.890625 38.984375 C 12.824219 38.917969 12.757812 38.59375 12.738281 38.261719 C 12.703125 37.660156 12.703125 37.660156 12.683594 38.40625 C 12.671875 38.882812 12.617188 39.140625 12.550781 39.09375 C 12.496094 39.0625 12.441406 39.082031 12.441406 39.148438 C 12.441406 39.40625 12.167969 39.183594 12.089844 38.863281 C 12.035156 38.628906 12.023438 38.660156 12.058594 38.996094 C 12.089844 39.316406 12.070312 39.472656 11.96875 39.515625 C 11.859375 39.5625 11.773438 39.304688 11.640625 38.550781 C 11.457031 37.507812 11.5 36.828125 11.796875 35.652344 C 11.960938 35.019531 12.703125 33.5625 13.351562 32.621094 C 13.855469 31.875 15.148438 30.53125 15.246094 30.632812 C 15.277344 30.652344 15.179688 31.054688 15.039062 31.496094 C 14.597656 32.875 14.480469 33.484375 14.621094 33.628906 C 14.71875 33.730469 14.742188 33.71875 14.6875 33.574219 C 14.535156 33.164062 15.53125 30.765625 16.011719 30.386719 C 16.429688 30.054688 16.953125 29.988281 17.402344 30.207031 C 18.070312 30.53125 18.621094 31.910156 18.851562 33.839844 C 18.949219 34.605469 18.785156 34.707031 18.585938 34.007812 C 18.511719 33.753906 18.246094 33.117188 18.007812 32.597656 C 17.765625 32.074219 17.523438 31.496094 17.46875 31.320312 C 17.382812 30.996094 17.371094 30.996094 17.414062 31.375 C 17.4375 31.585938 17.667969 32.195312 17.90625 32.71875 C 18.160156 33.242188 18.355469 33.753906 18.355469 33.851562 C 18.355469 33.953125 18.410156 34.0625 18.464844 34.097656 C 18.730469 34.261719 18.511719 34.472656 17.65625 34.90625 C 16.988281 35.242188 16.503906 35.597656 15.925781 36.164062 C 15.488281 36.59375 15.378906 36.738281 15.671875 36.460938 C 17.042969 35.242188 18.53125 34.496094 19.617188 34.484375 C 20.242188 34.484375 20.558594 34.664062 20.898438 35.195312 C 21.074219 35.460938 21.105469 35.484375 21.0625 35.296875 C 21.019531 35.085938 21.0625 35.039062 21.359375 34.984375 C 22.160156 34.863281 22.203125 34.828125 21.554688 34.875 C 20.570312 34.953125 20.4375 34.808594 20.4375 33.652344 C 20.425781 31.484375 19.695312 30.109375 18.632812 30.308594 C 18.324219 30.375 18.246094 30.34375 18.191406 30.152344 C 18.148438 30.019531 18.09375 29.941406 18.0625 29.964844 C 18.039062 29.996094 18.0625 30.121094 18.128906 30.242188 C 18.3125 30.597656 18.128906 30.609375 17.734375 30.265625 C 17.195312 29.777344 16.921875 29.742188 16.230469 30.085938 C 15.914062 30.242188 15.597656 30.375 15.519531 30.375 C 15.214844 30.375 14.46875 30.875 13.886719 31.484375 C 12.714844 32.695312 11.828125 34.550781 11.445312 36.539062 L 11.324219 37.207031 L 11.117188 36.539062 C 10.90625 35.882812 10.917969 35.242188 11.125 34.820312 C 11.179688 34.730469 11.402344 34.25 11.628906 33.761719 C 12.246094 32.453125 13.121094 31.152344 13.722656 30.6875 C 14.742188 29.886719 14.710938 29.910156 14.480469 29.976562 C 14.160156 30.085938 13.308594 30.820312 12.792969 31.417969 C 12.527344 31.730469 12.078125 32.476562 11.773438 33.074219 C 11.136719 34.375 11.070312 34.320312 11.652344 32.964844 C 12.300781 31.429688 13.109375 30.375 13.984375 29.921875 C 14.5 29.664062 14.894531 29.710938 15.367188 30.074219 C 15.652344 30.296875 15.664062 30.296875 15.488281 30.085938 C 15.246094 29.808594 15.234375 29.710938 15.453125 29.710938 C 15.542969 29.710938 15.617188 29.652344 15.617188 29.597656 C 15.617188 29.53125 15.652344 29.496094 15.707031 29.496094 C 15.914062 29.53125 16.066406 29.476562 16 29.375 C 15.96875 29.320312 16.101562 29.199219 16.296875 29.109375 C 16.703125 28.929688 16.59375 28.886719 16.167969 29.054688 Z M 19.429688 30.675781 C 19.957031 31.007812 20.371094 32.652344 20.242188 33.898438 C 20.199219 34.328125 20.164062 34.375 19.902344 34.375 C 19.617188 34.375 19.617188 34.351562 19.308594 32.785156 C 19.144531 31.917969 19.003906 31.054688 19.003906 30.875 C 19.003906 30.632812 18.980469 30.585938 18.914062 30.707031 C 18.816406 30.875 18.960938 31.910156 19.277344 33.296875 C 19.496094 34.261719 19.496094 34.394531 19.265625 34.351562 C 19.125 34.328125 19.046875 34.109375 18.949219 33.375 C 18.828125 32.585938 18.574219 31.675781 18.203125 30.808594 C 18.148438 30.664062 18.203125 30.585938 18.433594 30.507812 C 18.773438 30.386719 19.046875 30.429688 19.429688 30.675781 Z M 8.027344 33.984375 C 8.519531 34.507812 8.640625 34.785156 8.3125 34.652344 C 7.664062 34.386719 7.523438 34.351562 7.261719 34.417969 C 7.09375 34.453125 6.855469 34.664062 6.710938 34.875 C 6.582031 35.085938 6.449219 35.261719 6.417969 35.261719 C 6.382812 35.25 6.242188 35.152344 6.097656 35.03125 C 5.859375 34.828125 5.847656 34.796875 6.023438 34.617188 C 6.121094 34.507812 6.195312 34.363281 6.195312 34.296875 C 6.195312 34.230469 6.371094 34.019531 6.582031 33.828125 C 7.128906 33.339844 7.445312 33.375 8.027344 33.984375 Z M 19.726562 36.695312 C 19.191406 37.238281 18.707031 37.660156 18.664062 37.640625 C 18.621094 37.605469 18.511719 37.738281 18.410156 37.941406 C 18.3125 38.128906 18.28125 38.25 18.347656 38.21875 C 18.410156 38.171875 18.464844 38.195312 18.464844 38.273438 C 18.464844 38.351562 18.554688 38.328125 18.675781 38.195312 C 18.90625 37.949219 18.882812 37.828125 18.632812 38.039062 C 18.542969 38.117188 18.464844 38.140625 18.464844 38.082031 C 18.464844 37.949219 18.6875 37.628906 18.6875 37.738281 C 18.6875 37.796875 18.949219 37.605469 19.265625 37.316406 C 20.042969 36.605469 21.019531 35.941406 21.414062 35.863281 C 21.929688 35.75 22.664062 36.152344 22.902344 36.652344 C 23.167969 37.21875 23.078125 38.449219 22.683594 39.648438 C 22.332031 40.726562 21.171875 43.082031 20.65625 43.792969 C 20.242188 44.347656 19.496094 44.871094 18.9375 44.980469 C 18.609375 45.046875 18.574219 45.027344 18.574219 44.804688 C 18.574219 44.660156 18.742188 44.382812 18.9375 44.171875 C 19.222656 43.847656 19.246094 43.816406 19.015625 43.960938 L 18.742188 44.136719 L 18.761719 42.859375 C 18.785156 41.683594 18.773438 41.539062 18.519531 41.039062 C 18.226562 40.449219 17.734375 40.09375 17.328125 40.171875 C 17.128906 40.214844 17.0625 40.128906 16.890625 39.582031 C 16.78125 39.226562 16.605469 38.863281 16.496094 38.761719 C 16.242188 38.527344 15.640625 38.363281 15.5625 38.496094 C 15.519531 38.550781 15.421875 38.59375 15.332031 38.59375 C 15.058594 38.59375 15.355469 38.195312 16.011719 37.671875 C 17.207031 36.71875 19.363281 35.730469 20.261719 35.71875 L 20.703125 35.707031 Z M 19.726562 36.695312 " fill-opacity="1" fill-rule="nonzero"/></g><path fill="#ffffff" d="M 6.691406 33.929688 C 6.515625 34.050781 6.417969 34.152344 6.492188 34.152344 C 6.558594 34.152344 6.644531 34.109375 6.679688 34.050781 C 6.8125 33.839844 7.5 33.808594 7.808594 33.996094 L 8.113281 34.175781 L 7.851562 33.941406 C 7.535156 33.652344 7.117188 33.640625 6.691406 33.929688 Z M 6.691406 33.929688 " fill-opacity="1" fill-rule="nonzero"/><path fill="#ffffff" d="M 22.367188 37.0625 C 22.257812 37.25 22.203125 37.796875 22.167969 39.039062 C 22.148438 39.984375 22.160156 40.636719 22.203125 40.484375 C 22.246094 40.328125 22.277344 39.5625 22.289062 38.785156 C 22.300781 37.683594 22.34375 37.304688 22.476562 37.09375 C 22.574219 36.941406 22.628906 36.816406 22.585938 36.816406 C 22.554688 36.816406 22.453125 36.929688 22.367188 37.0625 Z M 22.367188 37.0625 " fill-opacity="1" fill-rule="nonzero"/><path fill="#ffffff" d="M 14.214844 34.097656 C 14.214844 34.273438 14.238281 34.339844 14.269531 34.230469 C 14.292969 34.128906 14.292969 33.972656 14.269531 33.898438 C 14.238281 33.828125 14.214844 33.90625 14.214844 34.097656 Z M 14.214844 34.097656 " fill-opacity="1" fill-rule="nonzero"/><path fill="#ffffff" d="M 14.535156 34.109375 C 14.535156 34.230469 14.566406 34.261719 14.597656 34.175781 C 14.632812 34.097656 14.621094 33.996094 14.589844 33.964844 C 14.554688 33.917969 14.523438 33.984375 14.535156 34.109375 Z M 14.535156 34.109375 " fill-opacity="1" fill-rule="nonzero"/><path fill="#ffffff" d="M 9.15625 34.695312 C 9.15625 34.851562 9.460938 35.617188 9.84375 36.417969 C 10.230469 37.21875 10.734375 38.328125 10.960938 38.894531 C 11.203125 39.460938 11.410156 39.894531 11.445312 39.871094 C 11.53125 39.773438 10.972656 38.40625 10.273438 36.984375 C 9.878906 36.183594 9.472656 35.285156 9.363281 34.984375 C 9.222656 34.605469 9.164062 34.519531 9.15625 34.695312 Z M 9.15625 34.695312 " fill-opacity="1" fill-rule="nonzero"/><path fill="#ffffff" d="M 18.445312 35.03125 C 17.613281 35.308594 16.539062 35.929688 15.9375 36.484375 C 15.507812 36.894531 15.496094 36.917969 15.835938 36.683594 C 16.046875 36.539062 16.253906 36.382812 16.285156 36.328125 C 16.332031 36.273438 16.429688 36.273438 16.503906 36.316406 C 16.59375 36.375 16.625 36.375 16.582031 36.316406 C 16.484375 36.207031 16.671875 36.074219 17.511719 35.597656 C 17.84375 35.417969 18.214844 35.261719 18.324219 35.261719 C 18.433594 35.261719 18.585938 35.207031 18.640625 35.152344 C 18.707031 35.085938 19.125 34.996094 19.574219 34.941406 L 20.382812 34.851562 L 19.726562 34.839844 C 19.363281 34.828125 18.796875 34.917969 18.445312 35.03125 Z M 18.445312 35.03125 " fill-opacity="1" fill-rule="nonzero"/><path fill="#ffffff" d="M 22.554688 35.039062 C 22.945312 35.164062 23.175781 35.351562 23.175781 35.5625 C 23.175781 35.683594 23.078125 35.640625 22.835938 35.441406 C 22.652344 35.285156 22.421875 35.152344 22.324219 35.152344 C 22.148438 35.164062 22.148438 35.164062 22.324219 35.273438 C 22.433594 35.328125 22.542969 35.375 22.574219 35.375 C 22.664062 35.363281 22.890625 35.605469 23.046875 35.875 C 23.167969 36.097656 23.167969 36.097656 23.175781 35.875 C 23.1875 35.652344 23.1875 35.652344 23.296875 35.875 C 23.375 36.050781 23.386719 36.027344 23.339844 35.761719 C 23.265625 35.363281 22.816406 34.929688 22.488281 34.941406 C 22.289062 34.953125 22.300781 34.960938 22.554688 35.039062 Z M 22.554688 35.039062 " fill-opacity="1" fill-rule="nonzero"/><g clip-path="url(#f688937ea1)"><path fill="#ffffff" d="M 2.898438 35.328125 C 2.824219 35.527344 2.800781 35.984375 2.84375 36.527344 C 2.921875 37.5625 3.503906 40.0625 3.546875 39.539062 C 3.558594 39.351562 3.632812 38.785156 3.699219 38.261719 C 3.777344 37.738281 3.820312 37.296875 3.808594 37.261719 C 3.042969 35.007812 3.03125 34.984375 2.898438 35.328125 Z M 3.457031 37.816406 L 3.402344 38.429688 L 3.261719 37.628906 C 3.195312 37.195312 3.128906 36.695312 3.128906 36.519531 C 3.140625 36.238281 3.164062 36.261719 3.339844 36.707031 C 3.46875 37.074219 3.511719 37.375 3.457031 37.816406 Z M 3.457031 37.816406 " fill-opacity="1" fill-rule="nonzero"/></g><path fill="#ffffff" d="M 21.839844 35.117188 C 21.917969 35.152344 22.015625 35.140625 22.050781 35.105469 C 22.09375 35.074219 22.027344 35.039062 21.90625 35.050781 C 21.785156 35.050781 21.753906 35.085938 21.839844 35.117188 Z M 21.839844 35.117188 " fill-opacity="1" fill-rule="nonzero"/><path fill="#ffffff" d="M 7.960938 35.261719 C 7.960938 35.351562 8.003906 35.527344 8.058594 35.652344 C 8.113281 35.796875 8.15625 35.808594 8.15625 35.707031 C 8.15625 35.617188 8.113281 35.441406 8.058594 35.316406 C 8.003906 35.175781 7.960938 35.164062 7.960938 35.261719 Z M 7.960938 35.261719 " fill-opacity="1" fill-rule="nonzero"/><g clip-path="url(#19f1ac1a90)"><path fill="#ffffff" d="M 29.246094 36.472656 C 28.699219 36.941406 27.855469 37.59375 27.382812 37.941406 C 26.574219 38.527344 24.644531 39.707031 24.480469 39.707031 C 24.449219 39.707031 24.480469 39.429688 24.570312 39.09375 C 24.808594 38.140625 24.46875 37.261719 23.78125 37.085938 C 23.625 37.050781 23.503906 36.972656 23.503906 36.90625 C 23.503906 36.851562 23.449219 36.839844 23.394531 36.875 C 23.230469 36.972656 23.375 37.152344 23.617188 37.152344 C 24.019531 37.152344 24.402344 37.617188 24.457031 38.183594 C 24.644531 39.828125 23.582031 41.894531 21.6875 43.59375 C 20.273438 44.859375 18.410156 45.78125 18.128906 45.371094 C 18.039062 45.25 18.027344 45.269531 18.082031 45.46875 C 18.128906 45.625 18.117188 45.703125 18.0625 45.671875 C 18.007812 45.625 17.953125 45.738281 17.953125 45.902344 C 17.953125 46.671875 16.277344 49.445312 15.332031 50.222656 C 15.101562 50.425781 14.960938 50.578125 15.039062 50.589844 C 15.101562 50.589844 15.421875 50.324219 15.738281 49.992188 C 16.054688 49.65625 16.363281 49.414062 16.417969 49.445312 C 16.484375 49.480469 16.496094 49.457031 16.449219 49.390625 C 16.351562 49.226562 17.054688 48.167969 17.230469 48.226562 C 17.292969 48.246094 17.382812 48.214844 17.425781 48.160156 C 17.46875 48.082031 17.425781 48.070312 17.304688 48.113281 C 17.097656 48.191406 17.097656 48.191406 17.511719 47.402344 C 17.679688 47.082031 17.90625 46.546875 18.027344 46.226562 C 18.238281 45.660156 18.269531 45.625 18.785156 45.492188 C 19.070312 45.414062 19.648438 45.160156 20.066406 44.914062 C 20.757812 44.503906 20.867188 44.472656 21.371094 44.539062 C 22.324219 44.660156 23.113281 44.835938 23.441406 45.003906 C 23.757812 45.171875 23.757812 45.171875 22.507812 45.492188 C 21.820312 45.671875 21.195312 45.792969 21.117188 45.757812 C 21.039062 45.726562 21.007812 45.757812 21.039062 45.816406 C 21.074219 45.882812 21.050781 45.925781 20.976562 45.925781 C 20.898438 45.925781 20.867188 45.960938 20.898438 45.992188 C 20.929688 46.027344 21.261719 45.96875 21.632812 45.871094 C 22.617188 45.613281 23.964844 45.527344 24.382812 45.703125 C 25.0625 45.992188 25.324219 46.738281 25.007812 47.515625 C 24.644531 48.378906 23.078125 49.792969 21.207031 50.925781 C 18.839844 52.355469 18.027344 52.625 16.824219 52.367188 C 16.496094 52.300781 16.144531 52.234375 16.054688 52.210938 C 15.96875 52.203125 15.78125 52.125 15.652344 52.058594 C 15.519531 51.980469 15.332031 51.921875 15.246094 51.921875 C 15.136719 51.921875 15.101562 51.855469 15.136719 51.757812 C 15.179688 51.644531 15.136719 51.589844 15.015625 51.589844 C 14.664062 51.589844 14.917969 51.867188 15.550781 52.191406 C 16.386719 52.613281 17.667969 52.710938 18.632812 52.421875 C 20.535156 51.867188 24 49.425781 24.820312 48.046875 C 24.972656 47.804688 25.136719 47.59375 25.183594 47.59375 C 25.410156 47.59375 25.804688 48.203125 25.804688 48.570312 C 25.804688 49.4375 24.875 50.347656 23.066406 51.234375 C 22.378906 51.566406 21.785156 51.878906 21.753906 51.914062 C 21.6875 52 21.117188 52.191406 20.21875 52.433594 C 19.695312 52.589844 19.070312 52.632812 17.808594 52.644531 C 16.132812 52.644531 16.101562 52.644531 15.433594 52.3125 C 15.070312 52.125 14.796875 52.035156 14.820312 52.113281 C 14.851562 52.191406 14.960938 52.277344 15.082031 52.3125 C 15.269531 52.378906 15.246094 52.433594 14.875 53.011719 C 14.65625 53.355469 14.292969 53.878906 14.085938 54.15625 C 13.875 54.433594 13.625 54.777344 13.535156 54.921875 C 13.449219 55.054688 13.285156 55.265625 13.1875 55.390625 C 13.078125 55.523438 12.988281 55.65625 12.988281 55.6875 C 12.988281 55.722656 12.8125 55.945312 12.605469 56.167969 C 12.398438 56.390625 12.222656 56.621094 12.222656 56.6875 C 12.222656 56.746094 12.144531 56.84375 12.046875 56.898438 C 11.949219 56.957031 11.882812 57.03125 11.894531 57.078125 C 11.90625 57.121094 11.796875 57.300781 11.652344 57.457031 C 11.519531 57.621094 11.257812 57.953125 11.082031 58.199219 C 10.898438 58.445312 10.722656 58.664062 10.6875 58.699219 C 10.644531 58.734375 10.457031 58.976562 10.273438 59.242188 L 9.921875 59.730469 L 9.910156 59.355469 L 9.890625 58.976562 L 9.800781 59.421875 C 9.605469 60.386719 9.394531 61.644531 9.429688 61.6875 C 9.558594 61.820312 9.691406 61.488281 9.757812 60.863281 C 9.835938 60.164062 9.878906 60.085938 10.722656 59 C 12.363281 56.898438 14.589844 53.878906 15.003906 53.179688 C 15.222656 52.789062 15.421875 52.480469 15.433594 52.480469 C 15.441406 52.480469 15.707031 52.558594 16 52.65625 C 16.714844 52.878906 18.585938 52.867188 19.75 52.644531 C 23.605469 51.902344 26.8125 49.335938 25.6875 47.890625 L 25.464844 47.59375 L 25.742188 47.179688 C 25.90625 46.949219 26.027344 46.714844 26.027344 46.660156 C 26.027344 46.59375 25.871094 46.78125 25.695312 47.082031 C 25.3125 47.691406 25.128906 47.679688 25.28125 47.046875 C 25.355469 46.726562 25.355469 46.535156 25.238281 46.304688 C 25.117188 46.027344 24.578125 45.570312 24.261719 45.460938 C 24.195312 45.4375 24.207031 45.292969 24.292969 45.070312 L 24.449219 44.714844 L 24.996094 44.96875 C 25.707031 45.304688 26.15625 45.835938 26.070312 46.238281 C 26.027344 46.46875 26.035156 46.503906 26.125 46.371094 C 26.253906 46.179688 26.289062 45.582031 26.167969 45.625 C 26.113281 45.636719 26.070312 45.605469 26.058594 45.546875 C 26.035156 45.4375 25.785156 45.28125 24.984375 44.882812 C 24.625 44.691406 24.394531 44.480469 24.273438 44.238281 C 24.183594 44.039062 23.953125 43.769531 23.757812 43.636719 L 23.40625 43.40625 L 24.46875 42.570312 C 27.152344 40.472656 29.191406 38.285156 30.011719 36.617188 C 30.539062 35.550781 30.363281 35.519531 29.246094 36.472656 Z M 29.445312 37.117188 C 28.566406 38.605469 26.640625 40.582031 24.304688 42.394531 C 23.503906 43.003906 23.253906 43.148438 23.144531 43.050781 C 23.058594 42.980469 22.957031 42.960938 22.925781 43.003906 C 22.882812 43.039062 22.847656 43.003906 22.847656 42.90625 C 22.847656 42.816406 22.945312 42.648438 23.066406 42.539062 C 23.339844 42.292969 24.164062 41.003906 24.164062 40.839844 C 24.164062 40.761719 24.207031 40.707031 24.25 40.707031 C 24.292969 40.707031 24.382812 40.550781 24.4375 40.359375 C 24.523438 40.082031 24.722656 39.90625 25.367188 39.539062 C 25.816406 39.273438 26.234375 39.09375 26.289062 39.128906 C 26.34375 39.160156 26.355469 39.140625 26.320312 39.082031 C 26.289062 39.015625 26.539062 38.804688 26.878906 38.59375 C 27.21875 38.394531 27.601562 38.128906 27.722656 38.027344 C 27.84375 37.917969 28.25 37.59375 28.621094 37.316406 C 28.996094 37.039062 29.410156 36.695312 29.554688 36.539062 C 29.957031 36.117188 29.925781 36.308594 29.445312 37.117188 Z M 23.375 43.558594 C 24.054688 43.882812 24.328125 44.316406 24.21875 44.894531 L 24.152344 45.269531 L 23.878906 45.046875 C 23.472656 44.726562 22.542969 44.394531 21.753906 44.304688 L 21.074219 44.226562 L 21.433594 43.9375 C 21.632812 43.78125 21.894531 43.539062 22.015625 43.40625 C 22.269531 43.117188 22.496094 43.136719 23.375 43.558594 Z M 23.375 43.558594 " fill-opacity="1" fill-rule="nonzero"/></g><path fill="#ffffff" d="M 22.136719 43.558594 C 22.203125 43.617188 22.519531 43.75 22.847656 43.859375 C 23.175781 43.980469 23.496094 44.117188 23.5625 44.160156 C 23.617188 44.214844 23.726562 44.257812 23.8125 44.257812 C 24.109375 44.257812 23.824219 44.058594 23.210938 43.835938 C 22.34375 43.527344 22.003906 43.4375 22.136719 43.558594 Z M 22.136719 43.558594 " fill-opacity="1" fill-rule="nonzero"/><path fill="#ffffff" d="M 8.246094 36.0625 C 9.132812 37.25 9.375 37.59375 9.308594 37.59375 C 9.265625 37.59375 9.296875 37.660156 9.394531 37.730469 C 9.484375 37.804688 9.691406 38.074219 9.855469 38.316406 C 10.261719 38.9375 10.21875 38.652344 9.800781 37.996094 C 9.441406 37.40625 8.289062 35.929688 8.203125 35.929688 C 8.167969 35.929688 8.191406 35.996094 8.246094 36.0625 Z M 8.246094 36.0625 " fill-opacity="1" fill-rule="nonzero"/><path fill="#ffffff" d="M 23.417969 36.484375 C 23.417969 36.640625 23.441406 36.695312 23.472656 36.617188 C 23.496094 36.550781 23.496094 36.417969 23.472656 36.339844 C 23.441406 36.273438 23.417969 36.328125 23.417969 36.484375 Z M 23.417969 36.484375 " fill-opacity="1" fill-rule="nonzero"/><path fill="#ffffff" d="M 11.925781 37.871094 C 11.925781 38.238281 11.949219 38.371094 11.96875 38.171875 C 11.992188 37.972656 11.992188 37.671875 11.96875 37.507812 C 11.949219 37.339844 11.925781 37.507812 11.925781 37.871094 Z M 11.925781 37.871094 " fill-opacity="1" fill-rule="nonzero"/><path fill="#ffffff" d="M 23.703125 37.730469 C 23.617188 37.871094 23.503906 38.160156 23.472656 38.371094 C 23.40625 38.738281 23.113281 40.003906 22.859375 40.992188 C 22.792969 41.25 22.640625 41.695312 22.519531 41.984375 C 22.398438 42.269531 22.3125 42.539062 22.34375 42.558594 C 22.464844 42.695312 22.914062 41.394531 23.339844 39.660156 C 23.605469 38.582031 23.84375 37.660156 23.890625 37.59375 C 24.03125 37.363281 23.855469 37.496094 23.703125 37.730469 Z M 23.703125 37.730469 " fill-opacity="1" fill-rule="nonzero"/><path fill="#ffffff" d="M 15.726562 38.9375 C 15.726562 38.996094 15.816406 39.039062 15.914062 39.039062 C 16.011719 39.039062 16.199219 39.128906 16.320312 39.226562 C 16.550781 39.429688 16.550781 39.429688 16.351562 39.183594 C 16.144531 38.9375 15.726562 38.773438 15.726562 38.9375 Z M 15.726562 38.9375 " fill-opacity="1" fill-rule="nonzero"/><path fill="#ffffff" d="M 6.4375 39.261719 C 6.4375 39.472656 6.460938 39.5625 6.492188 39.449219 C 6.515625 39.351562 6.515625 39.171875 6.492188 39.0625 C 6.460938 38.960938 6.4375 39.050781 6.4375 39.261719 Z M 6.4375 39.261719 " fill-opacity="1" fill-rule="nonzero"/><path fill="#ffffff" d="M 16.101562 40.648438 C 15.992188 40.925781 16.101562 41.59375 16.417969 42.539062 C 16.515625 42.839844 16.625 43.238281 16.648438 43.425781 C 16.679688 43.605469 16.746094 43.902344 16.8125 44.09375 C 17.097656 44.902344 16.8125 43.347656 16.484375 42.316406 C 16.285156 41.671875 16.167969 41.082031 16.1875 40.859375 C 16.230469 40.460938 16.199219 40.382812 16.101562 40.648438 Z M 16.101562 40.648438 " fill-opacity="1" fill-rule="nonzero"/><path fill="#ffffff" d="M 17.546875 42.226562 C 17.601562 43.136719 17.632812 44.394531 17.632812 45.027344 C 17.632812 45.847656 17.65625 46.101562 17.734375 45.914062 C 17.789062 45.757812 17.796875 44.914062 17.742188 43.816406 C 17.699219 42.804688 17.65625 41.671875 17.65625 41.28125 C 17.644531 40.90625 17.601562 40.59375 17.546875 40.59375 C 17.492188 40.59375 17.492188 41.304688 17.546875 42.226562 Z M 17.546875 42.226562 " fill-opacity="1" fill-rule="nonzero"/><path fill="#ffffff" d="M 10.339844 42.769531 C 10.425781 44.78125 10.097656 46.457031 9.515625 46.96875 C 9.1875 47.257812 9.121094 47.78125 9.296875 48.625 C 9.363281 48.957031 9.351562 49.035156 9.253906 48.96875 C 9.164062 48.925781 9.144531 48.9375 9.199219 49.023438 C 9.242188 49.089844 9.332031 49.113281 9.394531 49.082031 C 9.484375 49.023438 9.496094 49.070312 9.441406 49.214844 C 9.394531 49.324219 9.394531 49.378906 9.429688 49.347656 C 9.472656 49.300781 9.660156 49.445312 9.84375 49.65625 C 10.140625 50.003906 10.171875 50.125 10.171875 50.734375 L 10.171875 51.425781 L 10.21875 50.78125 C 10.25 50.335938 10.304688 50.148438 10.394531 50.179688 C 10.46875 50.214844 10.511719 50.28125 10.503906 50.347656 C 10.492188 50.402344 10.578125 50.433594 10.699219 50.402344 C 10.90625 50.347656 10.898438 50.324219 10.613281 50.148438 C 10.03125 49.78125 9.714844 49.390625 9.550781 48.800781 C 9.363281 48.203125 9.308594 47.148438 9.460938 47.148438 C 9.660156 47.136719 10.054688 46.679688 10.097656 46.402344 C 10.128906 46.238281 10.195312 45.914062 10.261719 45.703125 C 10.425781 45.113281 10.503906 42.839844 10.382812 42.148438 C 10.292969 41.648438 10.285156 41.761719 10.339844 42.769531 Z M 10.339844 42.769531 " fill-opacity="1" fill-rule="nonzero"/><path fill="#ffffff" d="M 7.316406 42.816406 C 7.316406 42.972656 7.335938 43.027344 7.371094 42.949219 C 7.390625 42.882812 7.390625 42.75 7.371094 42.671875 C 7.335938 42.605469 7.316406 42.660156 7.316406 42.816406 Z M 7.316406 42.816406 " fill-opacity="1" fill-rule="nonzero"/><path fill="#ffffff" d="M 5.769531 42.992188 C 5.769531 43.117188 5.804688 43.148438 5.835938 43.058594 C 5.867188 42.980469 5.859375 42.882812 5.824219 42.847656 C 5.792969 42.804688 5.757812 42.871094 5.769531 42.992188 Z M 5.769531 42.992188 " fill-opacity="1" fill-rule="nonzero"/><path fill="#ffffff" d="M 12.683594 43.148438 C 12.683594 43.304688 12.703125 43.359375 12.738281 43.28125 C 12.757812 43.214844 12.757812 43.082031 12.738281 43.003906 C 12.703125 42.9375 12.683594 42.992188 12.683594 43.148438 Z M 12.683594 43.148438 " fill-opacity="1" fill-rule="nonzero"/><path fill="#ffffff" d="M 12.914062 43.226562 C 12.878906 43.335938 12.824219 43.472656 12.804688 43.539062 C 12.769531 43.59375 12.835938 43.546875 12.921875 43.4375 C 13.097656 43.214844 13.152344 43.039062 13.042969 43.039062 C 13.011719 43.039062 12.957031 43.125 12.914062 43.226562 Z M 12.914062 43.226562 " fill-opacity="1" fill-rule="nonzero"/><path fill="#ffffff" d="M 7.414062 43.269531 C 7.414062 43.371094 7.523438 44.117188 7.664062 44.9375 C 7.820312 45.757812 7.960938 46.546875 7.984375 46.703125 C 8.015625 46.859375 8.015625 46.679688 7.984375 46.316406 C 7.9375 45.625 7.433594 42.949219 7.414062 43.269531 Z M 7.414062 43.269531 " fill-opacity="1" fill-rule="nonzero"/><path fill="#ffffff" d="M 5.878906 43.460938 C 5.867188 43.691406 6.382812 45.203125 6.679688 45.792969 C 6.820312 46.082031 7.050781 46.4375 7.183594 46.59375 L 7.425781 46.871094 L 7.195312 46.515625 C 6.867188 46.027344 6.425781 45.027344 6.132812 44.09375 C 6 43.660156 5.878906 43.382812 5.878906 43.460938 Z M 5.878906 43.460938 " fill-opacity="1" fill-rule="nonzero"/><path fill="#ffffff" d="M 5.210938 43.816406 C 5.199219 44.316406 6.777344 47.035156 7.074219 47.035156 C 7.117188 47.035156 7.019531 46.882812 6.84375 46.691406 C 6.460938 46.28125 5.933594 45.359375 5.527344 44.382812 C 5.355469 43.980469 5.210938 43.726562 5.210938 43.816406 Z M 5.210938 43.816406 " fill-opacity="1" fill-rule="nonzero"/><path fill="#ffffff" d="M 25.257812 45.414062 C 25.257812 45.515625 25.3125 45.570312 25.367188 45.535156 C 25.433594 45.503906 25.476562 45.535156 25.476562 45.636719 C 25.476562 45.726562 25.53125 45.816406 25.609375 45.835938 C 25.6875 45.871094 25.742188 46.070312 25.730469 46.324219 C 25.71875 46.703125 25.730469 46.726562 25.828125 46.492188 C 25.9375 46.171875 25.785156 45.714844 25.464844 45.414062 C 25.269531 45.238281 25.257812 45.238281 25.257812 45.414062 Z M 25.257812 45.414062 " fill-opacity="1" fill-rule="nonzero"/><path fill="#ffffff" d="M 20.207031 46.160156 L 19.945312 46.382812 L 20.253906 46.191406 C 20.417969 46.09375 20.546875 45.992188 20.546875 45.96875 C 20.546875 45.882812 20.460938 45.925781 20.207031 46.160156 Z M 20.207031 46.160156 " fill-opacity="1" fill-rule="nonzero"/><path fill="#ffffff" d="M 20.273438 46.371094 C 20.242188 46.4375 20.285156 46.449219 20.371094 46.414062 C 20.570312 46.335938 20.601562 46.257812 20.449219 46.257812 C 20.382812 46.257812 20.308594 46.304688 20.273438 46.371094 Z M 20.273438 46.371094 " fill-opacity="1" fill-rule="nonzero"/><path fill="#ffffff" d="M 14.371094 47.058594 C 14.085938 48.089844 13.363281 49.511719 12.804688 50.148438 C 12.527344 50.457031 12.386719 50.679688 12.472656 50.636719 C 12.726562 50.546875 13.285156 49.78125 13.757812 48.902344 C 14.160156 48.125 14.710938 46.527344 14.609375 46.414062 C 14.578125 46.390625 14.46875 46.679688 14.371094 47.058594 Z M 14.371094 47.058594 " fill-opacity="1" fill-rule="nonzero"/><path fill="#ffffff" d="M 10.710938 46.757812 C 10.710938 46.9375 10.734375 47.003906 10.765625 46.890625 C 10.789062 46.792969 10.789062 46.636719 10.765625 46.558594 C 10.734375 46.492188 10.710938 46.570312 10.710938 46.757812 Z M 10.710938 46.757812 " fill-opacity="1" fill-rule="nonzero"/><path fill="#ffffff" d="M 12.125 47.769531 C 11.980469 48.378906 11.75 49.234375 11.609375 49.691406 C 11.476562 50.136719 11.402344 50.46875 11.445312 50.414062 C 11.628906 50.203125 12.484375 47.015625 12.417969 46.792969 C 12.398438 46.738281 12.265625 47.167969 12.125 47.769531 Z M 12.125 47.769531 " fill-opacity="1" fill-rule="nonzero"/><path fill="#ffffff" d="M 9.953125 47.425781 C 9.953125 47.726562 9.976562 47.847656 10 47.667969 C 10.019531 47.503906 10.019531 47.257812 10 47.113281 C 9.976562 46.980469 9.953125 47.113281 9.953125 47.425781 Z M 9.953125 47.425781 " fill-opacity="1" fill-rule="nonzero"/><path fill="#ffffff" d="M 15.464844 47.757812 C 15.09375 48.746094 14.25 50.089844 13.691406 50.589844 C 13.285156 50.945312 13.261719 50.945312 12.453125 50.890625 C 11.882812 50.847656 11.6875 50.867188 11.804688 50.933594 C 12.035156 51.070312 13.710938 51.023438 13.667969 50.890625 C 13.644531 50.847656 13.867188 50.546875 14.140625 50.234375 C 14.851562 49.4375 15.925781 47.359375 15.816406 47.015625 C 15.792969 46.957031 15.640625 47.292969 15.464844 47.757812 Z M 15.464844 47.757812 " fill-opacity="1" fill-rule="nonzero"/><path fill="#ffffff" d="M 24.4375 47.167969 C 24.183594 47.304688 23.503906 48.003906 23.570312 48.070312 C 23.59375 48.089844 23.265625 48.582031 22.828125 49.15625 C 22.277344 49.902344 22.167969 50.089844 22.453125 49.8125 C 22.683594 49.601562 23.15625 48.96875 23.515625 48.414062 C 23.945312 47.746094 24.285156 47.347656 24.523438 47.226562 C 24.710938 47.136719 24.832031 47.046875 24.765625 47.046875 C 24.710938 47.046875 24.558594 47.101562 24.4375 47.167969 Z M 24.4375 47.167969 " fill-opacity="1" fill-rule="nonzero"/><path fill="#ffffff" d="M 10.589844 47.992188 C 10.601562 48.46875 10.644531 49.011719 10.6875 49.203125 C 10.734375 49.378906 10.742188 49.011719 10.710938 48.371094 C 10.644531 46.980469 10.578125 46.746094 10.589844 47.992188 Z M 10.589844 47.992188 " fill-opacity="1" fill-rule="nonzero"/><path fill="#ffffff" d="M 8.835938 47.835938 C 8.835938 47.992188 8.804688 48.191406 8.792969 48.28125 C 8.773438 48.359375 8.773438 48.378906 8.804688 48.324219 C 8.835938 48.269531 8.925781 48.371094 9 48.546875 C 9.132812 48.8125 9.144531 48.824219 9.078125 48.589844 C 9.046875 48.4375 8.96875 48.136719 8.925781 47.925781 C 8.859375 47.59375 8.847656 47.582031 8.835938 47.835938 Z M 8.835938 47.835938 " fill-opacity="1" fill-rule="nonzero"/><path fill="#ffffff" d="M 10.054688 48.371094 C 10.054688 48.582031 10.074219 48.667969 10.109375 48.558594 C 10.128906 48.457031 10.128906 48.28125 10.109375 48.167969 C 10.074219 48.070312 10.054688 48.160156 10.054688 48.371094 Z M 10.054688 48.371094 " fill-opacity="1" fill-rule="nonzero"/><path fill="#ffffff" d="M 24.414062 49.058594 C 23.515625 49.925781 23.199219 50.203125 22.125 51.113281 C 21.074219 52 21.097656 51.96875 21.621094 51.691406 C 21.875 51.546875 22.707031 50.859375 23.460938 50.15625 C 24.21875 49.445312 25.007812 48.734375 25.214844 48.570312 C 25.421875 48.414062 25.542969 48.246094 25.488281 48.203125 C 25.421875 48.167969 24.941406 48.546875 24.414062 49.058594 Z M 24.414062 49.058594 " fill-opacity="1" fill-rule="nonzero"/><path fill="#ffffff" d="M 10.183594 49.058594 C 10.285156 49.46875 10.457031 49.925781 10.511719 49.925781 C 10.566406 49.925781 10.25 48.902344 10.164062 48.8125 C 10.128906 48.78125 10.140625 48.890625 10.183594 49.058594 Z M 10.183594 49.058594 " fill-opacity="1" fill-rule="nonzero"/><path fill="#ffffff" d="M 10.808594 49.703125 C 10.808594 49.792969 10.851562 49.945312 10.90625 50.035156 C 11.039062 50.234375 11.039062 50.058594 10.90625 49.757812 C 10.84375 49.613281 10.808594 49.589844 10.808594 49.703125 Z M 10.808594 49.703125 " fill-opacity="1" fill-rule="nonzero"/><path fill="#ffffff" d="M 16.988281 50.367188 C 16.625 50.480469 16.15625 50.578125 15.945312 50.601562 C 15.664062 50.613281 15.628906 50.636719 15.828125 50.667969 C 16.101562 50.722656 17.4375 50.425781 17.699219 50.257812 C 17.929688 50.113281 17.753906 50.136719 16.988281 50.367188 Z M 16.988281 50.367188 " fill-opacity="1" fill-rule="nonzero"/><path fill="#ffffff" d="M 10.972656 50.46875 C 10.929688 50.535156 10.734375 51.289062 10.523438 52.144531 C 10.316406 53 9.964844 54.3125 9.757812 55.046875 C 9.550781 55.789062 9.394531 56.421875 9.417969 56.445312 C 9.449219 56.476562 9.625 55.976562 9.8125 55.34375 C 10.007812 54.722656 10.21875 54.046875 10.285156 53.867188 C 10.425781 53.511719 10.425781 53.46875 10.449219 53 C 10.457031 52.824219 10.511719 52.722656 10.578125 52.757812 C 10.632812 52.789062 10.65625 52.757812 10.621094 52.65625 C 10.566406 52.5 10.941406 50.96875 11.070312 50.835938 C 11.105469 50.800781 11.171875 50.824219 11.238281 50.878906 C 11.292969 50.933594 11.269531 51.28125 11.171875 51.757812 C 10.054688 57.265625 9.757812 58.921875 9.910156 58.921875 C 9.964844 58.921875 10.03125 58.589844 10.074219 58.1875 C 10.117188 57.777344 10.25 57.011719 10.371094 56.488281 C 10.492188 55.96875 10.808594 54.46875 11.0625 53.167969 L 11.519531 50.8125 L 11.28125 50.578125 C 11.125 50.433594 11.015625 50.390625 10.972656 50.46875 Z M 10.972656 50.46875 " fill-opacity="1" fill-rule="nonzero"/><path fill="#ffffff" d="M 14.523438 50.757812 C 14.371094 50.847656 14.160156 50.914062 14.039062 50.925781 C 13.886719 50.925781 13.929688 51.011719 14.261719 51.355469 C 14.5 51.601562 14.710938 51.769531 14.730469 51.746094 C 14.765625 51.722656 14.644531 51.546875 14.46875 51.367188 C 14.183594 51.058594 14.207031 50.96875 14.554688 51.023438 C 14.597656 51.023438 14.632812 50.980469 14.632812 50.925781 C 14.632812 50.859375 14.839844 50.8125 15.09375 50.8125 C 15.597656 50.8125 15.617188 50.769531 15.125 50.667969 C 14.9375 50.636719 14.675781 50.667969 14.523438 50.757812 Z M 14.523438 50.757812 " fill-opacity="1" fill-rule="nonzero"/><path fill="#ffffff" d="M 13.480469 51.257812 C 13.449219 51.324219 13.492188 51.335938 13.582031 51.300781 C 13.777344 51.222656 13.8125 51.144531 13.65625 51.144531 C 13.589844 51.144531 13.515625 51.191406 13.480469 51.257812 Z M 13.480469 51.257812 " fill-opacity="1" fill-rule="nonzero"/><path fill="#ffffff" d="M 18.007812 51.445312 C 18.082031 51.480469 18.183594 51.46875 18.214844 51.433594 C 18.257812 51.402344 18.191406 51.367188 18.070312 51.378906 C 17.953125 51.378906 17.917969 51.414062 18.007812 51.445312 Z M 18.007812 51.445312 " fill-opacity="1" fill-rule="nonzero"/><path fill="#ffffff" d="M 17.457031 51.558594 C 17.523438 51.578125 17.65625 51.578125 17.734375 51.558594 C 17.796875 51.523438 17.742188 51.5 17.589844 51.5 C 17.4375 51.5 17.382812 51.523438 17.457031 51.558594 Z M 17.457031 51.558594 " fill-opacity="1" fill-rule="nonzero"/><path fill="#ffffff" d="M 16.746094 51.667969 C 16.84375 51.691406 17.019531 51.691406 17.128906 51.667969 C 17.230469 51.636719 17.140625 51.613281 16.933594 51.613281 C 16.726562 51.613281 16.636719 51.636719 16.746094 51.667969 Z M 16.746094 51.667969 " fill-opacity="1" fill-rule="nonzero"/><path fill="#ffffff" d="M 15.652344 51.78125 C 15.816406 51.800781 16.078125 51.800781 16.253906 51.78125 C 16.417969 51.757812 16.277344 51.734375 15.945312 51.734375 C 15.617188 51.734375 15.476562 51.757812 15.652344 51.78125 Z M 15.652344 51.78125 " fill-opacity="1" fill-rule="nonzero"/><path fill="#ffffff" d="M 10.054688 52.257812 C 10.054688 52.414062 10.074219 52.46875 10.109375 52.390625 C 10.128906 52.324219 10.128906 52.191406 10.109375 52.113281 C 10.074219 52.046875 10.054688 52.101562 10.054688 52.257812 Z M 10.054688 52.257812 " fill-opacity="1" fill-rule="nonzero"/><path fill="#ffffff" d="M 10.042969 53.101562 C 10.042969 53.222656 10.074219 53.257812 10.109375 53.167969 C 10.140625 53.089844 10.128906 52.988281 10.097656 52.957031 C 10.0625 52.914062 10.03125 52.980469 10.042969 53.101562 Z M 10.042969 53.101562 " fill-opacity="1" fill-rule="nonzero"/><path fill="#ffffff" d="M 7.433594 59.921875 C 7.433594 60.199219 7.457031 60.308594 7.480469 60.164062 C 7.5 60.03125 7.5 59.808594 7.480469 59.664062 C 7.457031 59.53125 7.433594 59.644531 7.433594 59.921875 Z M 7.433594 59.921875 " fill-opacity="1" fill-rule="nonzero"/><g clip-path="url(#f26781a598)"><path fill="#ffffff" d="M 7.425781 60.808594 C 7.425781 61.019531 7.445312 61.109375 7.480469 61 C 7.5 60.898438 7.5 60.722656 7.480469 60.609375 C 7.445312 60.507812 7.425781 60.597656 7.425781 60.808594 Z M 7.425781 60.808594 " fill-opacity="1" fill-rule="nonzero"/></g><g fill="#ffffff" fill-opacity="1"><g transform="translate(2.457632, 23.554906)"><g><path d="M 5.421875 0.21875 C 3.921875 0.21875 2.75 -0.226562 1.90625 -1.125 C 1.0625 -2.019531 0.640625 -3.289062 0.640625 -4.9375 C 0.640625 -6.007812 0.820312 -6.929688 1.1875 -7.703125 C 1.5625 -8.484375 2.082031 -9.070312 2.75 -9.46875 C 3.425781 -9.875 4.207031 -10.078125 5.09375 -10.078125 C 5.625 -10.078125 6.160156 -9.921875 6.703125 -9.609375 C 6.910156 -9.492188 7.117188 -9.34375 7.328125 -9.15625 C 7.484375 -9.40625 7.648438 -9.597656 7.828125 -9.734375 C 7.992188 -9.859375 8.085938 -9.925781 8.109375 -9.9375 L 8.453125 -9.9375 L 8.453125 -7.265625 L 7.890625 -7.265625 C 7.765625 -7.710938 7.582031 -8.117188 7.34375 -8.484375 C 7.113281 -8.835938 6.832031 -9.128906 6.5 -9.359375 C 6.164062 -9.597656 5.785156 -9.71875 5.359375 -9.71875 C 4.710938 -9.71875 4.171875 -9.34375 3.734375 -8.59375 C 3.304688 -7.84375 3.09375 -6.625 3.09375 -4.9375 C 3.09375 -3.21875 3.328125 -1.988281 3.796875 -1.25 C 4.265625 -0.507812 4.898438 -0.140625 5.703125 -0.140625 C 6.148438 -0.140625 6.570312 -0.265625 6.96875 -0.515625 C 7.363281 -0.765625 7.6875 -1.09375 7.9375 -1.5 C 8.1875 -1.914062 8.3125 -2.351562 8.3125 -2.8125 L 8.671875 -2.8125 C 8.671875 -2.28125 8.523438 -1.78125 8.234375 -1.3125 C 7.953125 -0.851562 7.5625 -0.484375 7.0625 -0.203125 C 6.570312 0.078125 6.023438 0.21875 5.421875 0.21875 Z M 5.421875 0.21875 "/></g></g></g><g fill="#ffffff" fill-opacity="1"><g transform="translate(15.208371, 23.554906)"><g><path d="M 5.21875 0.21875 C 4.289062 0.21875 3.484375 0.0195312 2.796875 -0.375 C 2.109375 -0.78125 1.578125 -1.367188 1.203125 -2.140625 C 0.828125 -2.910156 0.640625 -3.84375 0.640625 -4.9375 C 0.640625 -6.019531 0.828125 -6.945312 1.203125 -7.71875 C 1.578125 -8.488281 2.109375 -9.070312 2.796875 -9.46875 C 3.484375 -9.875 4.289062 -10.078125 5.21875 -10.078125 C 6.132812 -10.078125 6.9375 -9.875 7.625 -9.46875 C 8.320312 -9.070312 8.859375 -8.488281 9.234375 -7.71875 C 9.609375 -6.945312 9.796875 -6.019531 9.796875 -4.9375 C 9.796875 -3.84375 9.609375 -2.910156 9.234375 -2.140625 C 8.859375 -1.367188 8.320312 -0.78125 7.625 -0.375 C 6.9375 0.0195312 6.132812 0.21875 5.21875 0.21875 Z M 5.21875 -0.078125 C 5.582031 -0.078125 5.921875 -0.226562 6.234375 -0.53125 C 6.546875 -0.84375 6.804688 -1.359375 7.015625 -2.078125 C 7.222656 -2.804688 7.328125 -3.757812 7.328125 -4.9375 C 7.328125 -6.101562 7.222656 -7.046875 7.015625 -7.765625 C 6.804688 -8.492188 6.546875 -9.015625 6.234375 -9.328125 C 5.921875 -9.640625 5.582031 -9.796875 5.21875 -9.796875 C 4.851562 -9.796875 4.507812 -9.640625 4.1875 -9.328125 C 3.875 -9.015625 3.613281 -8.492188 3.40625 -7.765625 C 3.195312 -7.046875 3.09375 -6.101562 3.09375 -4.9375 C 3.09375 -3.757812 3.195312 -2.804688 3.40625 -2.078125 C 3.613281 -1.359375 3.875 -0.84375 4.1875 -0.53125 C 4.507812 -0.226562 4.851562 -0.078125 5.21875 -0.078125 Z M 5.21875 -0.078125 "/></g></g></g><g fill="#ffffff" fill-opacity="1"><g transform="translate(29.226948, 23.554906)"><g><path d="M 1.96875 -7.46875 L 1.96875 -0.640625 L 3.09375 -0.21875 L 3.09375 0 L 0.421875 0 L 0.421875 -0.21875 L 1.546875 -0.640625 L 1.546875 -9.375 L 0.5625 -9.65625 L 0.5625 -9.859375 L 2.046875 -9.859375 C 2.546875 -9.859375 2.9375 -9.769531 3.21875 -9.59375 C 3.5 -9.414062 3.765625 -9.175781 4.015625 -8.875 L 8.53125 -3.59375 L 8.53125 -9.234375 L 7.40625 -9.65625 L 7.40625 -9.859375 L 10.078125 -9.859375 L 10.078125 -9.65625 L 8.953125 -9.234375 L 8.953125 0.21875 L 8.53125 0.21875 Z M 1.96875 -7.46875 "/></g></g></g><g fill="#ffffff" fill-opacity="1"><g transform="translate(43.245523, 23.554906)"><g><path d="M 0.703125 -0.21875 L 1.546875 -0.421875 L 1.546875 -9.4375 L 0.703125 -9.65625 L 0.703125 -9.859375 L 8.25 -9.859375 L 8.25 -7.328125 L 7.828125 -7.328125 C 7.640625 -7.472656 7.484375 -7.648438 7.359375 -7.859375 C 7.054688 -8.367188 6.90625 -8.921875 6.90625 -9.515625 L 3.875 -9.515625 L 3.875 -5.078125 L 5.5 -5.078125 C 5.5625 -5.429688 5.679688 -5.765625 5.859375 -6.078125 C 5.929688 -6.210938 6.019531 -6.347656 6.125 -6.484375 L 6.546875 -6.484375 L 6.546875 -3.3125 L 6.125 -3.3125 C 6.019531 -3.445312 5.929688 -3.582031 5.859375 -3.71875 C 5.679688 -4.03125 5.5625 -4.363281 5.5 -4.71875 L 3.875 -4.71875 L 3.875 -0.421875 L 4.71875 -0.21875 L 4.71875 0 L 0.703125 0 Z M 0.703125 -0.21875 "/></g></g></g><g fill="#ffffff" fill-opacity="1"><g transform="translate(55.432783, 23.554906)"><g><path d="M 0.703125 -0.21875 L 1.546875 -0.421875 L 1.546875 -9.4375 L 0.703125 -9.65625 L 0.703125 -9.859375 L 8.25 -9.859375 L 8.25 -7.328125 L 7.828125 -7.328125 C 7.640625 -7.472656 7.484375 -7.648438 7.359375 -7.859375 C 7.054688 -8.367188 6.90625 -8.921875 6.90625 -9.515625 L 3.875 -9.515625 L 3.875 -5.078125 L 5.5 -5.078125 C 5.5625 -5.429688 5.679688 -5.765625 5.859375 -6.078125 C 5.929688 -6.210938 6.019531 -6.347656 6.125 -6.484375 L 6.546875 -6.484375 L 6.546875 -3.3125 L 6.125 -3.3125 C 6.019531 -3.445312 5.929688 -3.582031 5.859375 -3.71875 C 5.679688 -4.03125 5.5625 -4.363281 5.5 -4.71875 L 3.875 -4.71875 L 3.875 -0.359375 L 7.1875 -0.359375 C 7.1875 -0.941406 7.335938 -1.488281 7.640625 -2 C 7.773438 -2.21875 7.929688 -2.394531 8.109375 -2.53125 L 8.53125 -2.53125 L 8.53125 0 L 0.703125 0 Z M 0.703125 -0.21875 "/></g></g></g><g fill="#ffffff" fill-opacity="1"><g transform="translate(68.113089, 23.554906)"><g><path d="M 4.15625 0.21875 C 3.488281 0.21875 2.863281 0.0664062 2.28125 -0.234375 C 2.019531 -0.367188 1.800781 -0.523438 1.625 -0.703125 C 1.488281 -0.484375 1.320312 -0.289062 1.125 -0.125 C 0.957031 0 0.863281 0.0664062 0.84375 0.078125 L 0.5 0.078125 L 0.5 -2.609375 L 1.0625 -2.609375 C 1.195312 -2.148438 1.394531 -1.734375 1.65625 -1.359375 C 2.226562 -0.546875 2.96875 -0.140625 3.875 -0.140625 C 4.40625 -0.140625 4.832031 -0.296875 5.15625 -0.609375 C 5.476562 -0.929688 5.640625 -1.363281 5.640625 -1.90625 C 5.640625 -2.21875 5.546875 -2.492188 5.359375 -2.734375 C 5.179688 -2.972656 4.953125 -3.1875 4.671875 -3.375 C 4.398438 -3.570312 4.019531 -3.8125 3.53125 -4.09375 C 2.914062 -4.4375 2.414062 -4.75 2.03125 -5.03125 C 1.644531 -5.3125 1.316406 -5.664062 1.046875 -6.09375 C 0.773438 -6.519531 0.640625 -7.023438 0.640625 -7.609375 C 0.640625 -8.066406 0.765625 -8.484375 1.015625 -8.859375 C 1.273438 -9.234375 1.660156 -9.53125 2.171875 -9.75 C 2.691406 -9.96875 3.332031 -10.078125 4.09375 -10.078125 C 4.632812 -10.078125 5.175781 -9.921875 5.71875 -9.609375 C 5.925781 -9.492188 6.132812 -9.34375 6.34375 -9.15625 C 6.5 -9.40625 6.660156 -9.597656 6.828125 -9.734375 C 7.003906 -9.859375 7.101562 -9.925781 7.125 -9.9375 L 7.46875 -9.9375 L 7.46875 -7.265625 L 6.90625 -7.265625 C 6.78125 -7.710938 6.597656 -8.117188 6.359375 -8.484375 C 6.128906 -8.835938 5.847656 -9.128906 5.515625 -9.359375 C 5.179688 -9.597656 4.800781 -9.71875 4.375 -9.71875 C 4 -9.71875 3.679688 -9.570312 3.421875 -9.28125 C 3.160156 -8.988281 3.03125 -8.617188 3.03125 -8.171875 C 3.03125 -7.828125 3.128906 -7.515625 3.328125 -7.234375 C 3.535156 -6.960938 3.785156 -6.722656 4.078125 -6.515625 C 4.378906 -6.304688 4.78125 -6.054688 5.28125 -5.765625 C 5.875 -5.421875 6.351562 -5.117188 6.71875 -4.859375 C 7.082031 -4.597656 7.390625 -4.269531 7.640625 -3.875 C 7.898438 -3.488281 8.03125 -3.039062 8.03125 -2.53125 C 8.03125 -2.03125 7.882812 -1.566406 7.59375 -1.140625 C 7.300781 -0.722656 6.863281 -0.390625 6.28125 -0.140625 C 5.695312 0.0976562 4.988281 0.21875 4.15625 0.21875 Z M 4.15625 0.21875 "/></g></g></g><g fill="#ffffff" fill-opacity="1"><g transform="translate(80.089046, 23.554906)"><g><path d="M 4.15625 0.21875 C 3.488281 0.21875 2.863281 0.0664062 2.28125 -0.234375 C 2.019531 -0.367188 1.800781 -0.523438 1.625 -0.703125 C 1.488281 -0.484375 1.320312 -0.289062 1.125 -0.125 C 0.957031 0 0.863281 0.0664062 0.84375 0.078125 L 0.5 0.078125 L 0.5 -2.609375 L 1.0625 -2.609375 C 1.195312 -2.148438 1.394531 -1.734375 1.65625 -1.359375 C 2.226562 -0.546875 2.96875 -0.140625 3.875 -0.140625 C 4.40625 -0.140625 4.832031 -0.296875 5.15625 -0.609375 C 5.476562 -0.929688 5.640625 -1.363281 5.640625 -1.90625 C 5.640625 -2.21875 5.546875 -2.492188 5.359375 -2.734375 C 5.179688 -2.972656 4.953125 -3.1875 4.671875 -3.375 C 4.398438 -3.570312 4.019531 -3.8125 3.53125 -4.09375 C 2.914062 -4.4375 2.414062 -4.75 2.03125 -5.03125 C 1.644531 -5.3125 1.316406 -5.664062 1.046875 -6.09375 C 0.773438 -6.519531 0.640625 -7.023438 0.640625 -7.609375 C 0.640625 -8.066406 0.765625 -8.484375 1.015625 -8.859375 C 1.273438 -9.234375 1.660156 -9.53125 2.171875 -9.75 C 2.691406 -9.96875 3.332031 -10.078125 4.09375 -10.078125 C 4.632812 -10.078125 5.175781 -9.921875 5.71875 -9.609375 C 5.925781 -9.492188 6.132812 -9.34375 6.34375 -9.15625 C 6.5 -9.40625 6.660156 -9.597656 6.828125 -9.734375 C 7.003906 -9.859375 7.101562 -9.925781 7.125 -9.9375 L 7.46875 -9.9375 L 7.46875 -7.265625 L 6.90625 -7.265625 C 6.78125 -7.710938 6.597656 -8.117188 6.359375 -8.484375 C 6.128906 -8.835938 5.847656 -9.128906 5.515625 -9.359375 C 5.179688 -9.597656 4.800781 -9.71875 4.375 -9.71875 C 4 -9.71875 3.679688 -9.570312 3.421875 -9.28125 C 3.160156 -8.988281 3.03125 -8.617188 3.03125 -8.171875 C 3.03125 -7.828125 3.128906 -7.515625 3.328125 -7.234375 C 3.535156 -6.960938 3.785156 -6.722656 4.078125 -6.515625 C 4.378906 -6.304688 4.78125 -6.054688 5.28125 -5.765625 C 5.875 -5.421875 6.351562 -5.117188 6.71875 -4.859375 C 7.082031 -4.597656 7.390625 -4.269531 7.640625 -3.875 C 7.898438 -3.488281 8.03125 -3.039062 8.03125 -2.53125 C 8.03125 -2.03125 7.882812 -1.566406 7.59375 -1.140625 C 7.300781 -0.722656 6.863281 -0.390625 6.28125 -0.140625 C 5.695312 0.0976562 4.988281 0.21875 4.15625 0.21875 Z M 4.15625 0.21875 "/></g></g></g><g fill="#ffffff" fill-opacity="1"><g transform="translate(92.065002, 23.554906)"><g><path d="M 0.703125 0 L 0.703125 -0.21875 L 1.546875 -0.421875 L 1.546875 -9.4375 L 0.703125 -9.65625 L 0.703125 -9.859375 L 4.71875 -9.859375 L 4.71875 -9.65625 L 3.875 -9.4375 L 3.875 -0.421875 L 4.71875 -0.21875 L 4.71875 0 Z M 0.703125 0 "/></g></g></g><g fill="#ffffff" fill-opacity="1"><g transform="translate(101.082684, 23.554906)"><g><path d="M 5.21875 0.21875 C 4.289062 0.21875 3.484375 0.0195312 2.796875 -0.375 C 2.109375 -0.78125 1.578125 -1.367188 1.203125 -2.140625 C 0.828125 -2.910156 0.640625 -3.84375 0.640625 -4.9375 C 0.640625 -6.019531 0.828125 -6.945312 1.203125 -7.71875 C 1.578125 -8.488281 2.109375 -9.070312 2.796875 -9.46875 C 3.484375 -9.875 4.289062 -10.078125 5.21875 -10.078125 C 6.132812 -10.078125 6.9375 -9.875 7.625 -9.46875 C 8.320312 -9.070312 8.859375 -8.488281 9.234375 -7.71875 C 9.609375 -6.945312 9.796875 -6.019531 9.796875 -4.9375 C 9.796875 -3.84375 9.609375 -2.910156 9.234375 -2.140625 C 8.859375 -1.367188 8.320312 -0.78125 7.625 -0.375 C 6.9375 0.0195312 6.132812 0.21875 5.21875 0.21875 Z M 5.21875 -0.078125 C 5.582031 -0.078125 5.921875 -0.226562 6.234375 -0.53125 C 6.546875 -0.84375 6.804688 -1.359375 7.015625 -2.078125 C 7.222656 -2.804688 7.328125 -3.757812 7.328125 -4.9375 C 7.328125 -6.101562 7.222656 -7.046875 7.015625 -7.765625 C 6.804688 -8.492188 6.546875 -9.015625 6.234375 -9.328125 C 5.921875 -9.640625 5.582031 -9.796875 5.21875 -9.796875 C 4.851562 -9.796875 4.507812 -9.640625 4.1875 -9.328125 C 3.875 -9.015625 3.613281 -8.492188 3.40625 -7.765625 C 3.195312 -7.046875 3.09375 -6.101562 3.09375 -4.9375 C 3.09375 -3.757812 3.195312 -2.804688 3.40625 -2.078125 C 3.613281 -1.359375 3.875 -0.84375 4.1875 -0.53125 C 4.507812 -0.226562 4.851562 -0.078125 5.21875 -0.078125 Z M 5.21875 -0.078125 "/></g></g></g><g fill="#ffffff" fill-opacity="1"><g transform="translate(115.101263, 23.554906)"><g><path d="M 1.96875 -7.46875 L 1.96875 -0.640625 L 3.09375 -0.21875 L 3.09375 0 L 0.421875 0 L 0.421875 -0.21875 L 1.546875 -0.640625 L 1.546875 -9.375 L 0.5625 -9.65625 L 0.5625 -9.859375 L 2.046875 -9.859375 C 2.546875 -9.859375 2.9375 -9.769531 3.21875 -9.59375 C 3.5 -9.414062 3.765625 -9.175781 4.015625 -8.875 L 8.53125 -3.59375 L 8.53125 -9.234375 L 7.40625 -9.65625 L 7.40625 -9.859375 L 10.078125 -9.859375 L 10.078125 -9.65625 L 8.953125 -9.234375 L 8.953125 0.21875 L 8.53125 0.21875 Z M 1.96875 -7.46875 "/></g></g></g><g fill="#ffffff" fill-opacity="1"><g transform="translate(129.119841, 23.554906)"><g><path d="M -0.28125 -0.21875 L 0.84375 -0.640625 L 4.71875 -10 L 5.140625 -10 L 9.15625 -0.421875 L 9.859375 -0.21875 L 9.859375 0 L 8.171875 0 C 7.679688 0 7.28125 -0.109375 6.96875 -0.328125 C 6.664062 -0.546875 6.4375 -0.835938 6.28125 -1.203125 L 5.5625 -2.890625 L 2.203125 -2.890625 L 1.265625 -0.640625 L 2.328125 -0.21875 L 2.328125 0 L -0.28125 0 Z M 2.34375 -3.234375 L 5.421875 -3.234375 L 3.875 -6.953125 Z M 2.34375 -3.234375 "/></g></g></g><g fill="#ffffff" fill-opacity="1"><g transform="translate(142.293195, 23.554906)"><g><path d="M 0.703125 -0.21875 L 1.546875 -0.421875 L 1.546875 -9.4375 L 0.703125 -9.65625 L 0.703125 -9.859375 L 4.71875 -9.859375 L 4.71875 -9.65625 L 3.875 -9.4375 L 3.875 -0.359375 L 6.90625 -0.359375 C 6.90625 -0.941406 7.054688 -1.488281 7.359375 -2 C 7.484375 -2.21875 7.640625 -2.394531 7.828125 -2.53125 L 8.25 -2.53125 L 8.25 0 L 0.703125 0 Z M 0.703125 -0.21875 "/></g></g></g><g fill="#ffffff" fill-opacity="1"><g transform="translate(154.480454, 23.554906)"><g/></g></g><g fill="#ffffff" fill-opacity="1"><g transform="translate(162.018995, 23.554906)"><g><path d="M 3.515625 0.21875 C 2.867188 0.21875 2.316406 0.128906 1.859375 -0.046875 C 1.410156 -0.234375 1.070312 -0.46875 0.84375 -0.75 C 0.613281 -1.03125 0.5 -1.320312 0.5 -1.625 C 0.5 -1.9375 0.59375 -2.1875 0.78125 -2.375 C 0.976562 -2.570312 1.234375 -2.671875 1.546875 -2.671875 C 1.617188 -2.671875 1.691406 -2.664062 1.765625 -2.65625 C 1.847656 -2.644531 1.90625 -2.640625 1.9375 -2.640625 L 2.109375 -2.609375 L 2.109375 -0.359375 C 2.117188 -0.359375 2.21875 -0.316406 2.40625 -0.234375 C 2.65625 -0.171875 2.929688 -0.140625 3.234375 -0.140625 C 3.804688 -0.140625 4.253906 -0.367188 4.578125 -0.828125 C 4.910156 -1.296875 5.078125 -2.03125 5.078125 -3.03125 C 5.078125 -4.019531 4.90625 -4.734375 4.5625 -5.171875 C 4.226562 -5.617188 3.738281 -5.84375 3.09375 -5.84375 C 2.851562 -5.84375 2.625 -5.800781 2.40625 -5.71875 C 2.1875 -5.632812 1.957031 -5.523438 1.71875 -5.390625 C 1.519531 -5.265625 1.320312 -5.113281 1.125 -4.9375 L 0.84375 -5.140625 L 1.40625 -9.859375 L 5.5625 -9.859375 C 5.632812 -10.367188 5.796875 -10.796875 6.046875 -11.140625 C 6.148438 -11.296875 6.269531 -11.4375 6.40625 -11.5625 L 6.828125 -11.5625 L 6.828125 -8.8125 L 1.71875 -8.8125 L 1.34375 -5.5625 C 1.46875 -5.65625 1.660156 -5.757812 1.921875 -5.875 C 2.441406 -6.09375 2.925781 -6.203125 3.375 -6.203125 C 4.75 -6.203125 5.773438 -5.921875 6.453125 -5.359375 C 7.128906 -4.804688 7.46875 -4.03125 7.46875 -3.03125 C 7.46875 -2.019531 7.132812 -1.222656 6.46875 -0.640625 C 5.800781 -0.0664062 4.816406 0.21875 3.515625 0.21875 Z M 3.515625 0.21875 "/></g></g></g><g fill="#ffffff" fill-opacity="1"><g transform="translate(47.632492, 60.800507)"><g><path d="M 0.421875 0 L 0.421875 -0.125 L 0.921875 -0.25 L 0.921875 -5.609375 L 0.421875 -5.734375 L 0.421875 -5.859375 L 2.8125 -5.859375 L 2.8125 -5.734375 L 2.296875 -5.609375 L 2.296875 -0.25 L 2.8125 -0.125 L 2.8125 0 Z M 0.421875 0 "/></g></g></g><g fill="#ffffff" fill-opacity="1"><g transform="translate(52.044783, 60.800507)"><g><path d="M 2.71875 0.125 C 2.289062 0.125 1.898438 0.00390625 1.546875 -0.234375 C 1.191406 -0.472656 0.90625 -0.820312 0.6875 -1.28125 C 0.476562 -1.738281 0.375 -2.289062 0.375 -2.9375 C 0.375 -3.570312 0.484375 -4.117188 0.703125 -4.578125 C 0.921875 -5.046875 1.226562 -5.394531 1.625 -5.625 C 2.03125 -5.863281 2.492188 -5.984375 3.015625 -5.984375 C 3.335938 -5.984375 3.660156 -5.894531 3.984375 -5.71875 C 4.109375 -5.644531 4.234375 -5.550781 4.359375 -5.4375 C 4.453125 -5.582031 4.546875 -5.695312 4.640625 -5.78125 C 4.742188 -5.851562 4.800781 -5.894531 4.8125 -5.90625 L 5.03125 -5.90625 L 5.03125 -4.3125 L 4.6875 -4.3125 C 4.613281 -4.582031 4.503906 -4.828125 4.359375 -5.046875 C 4.222656 -5.253906 4.054688 -5.425781 3.859375 -5.5625 C 3.660156 -5.707031 3.4375 -5.78125 3.1875 -5.78125 C 2.800781 -5.78125 2.476562 -5.554688 2.21875 -5.109375 C 1.96875 -4.660156 1.84375 -3.9375 1.84375 -2.9375 C 1.84375 -1.925781 1.953125 -1.210938 2.171875 -0.796875 C 2.398438 -0.378906 2.695312 -0.171875 3.0625 -0.171875 C 3.257812 -0.171875 3.445312 -0.28125 3.625 -0.5 C 3.675781 -0.582031 3.738281 -0.695312 3.8125 -0.84375 L 3.8125 -2.765625 L 3.3125 -2.890625 L 3.3125 -3.015625 L 5.6875 -3.015625 L 5.6875 -2.890625 L 5.1875 -2.765625 L 5.1875 0.046875 L 5.0625 0.046875 C 4.65625 0.046875 4.347656 -0.0664062 4.140625 -0.296875 C 4.046875 -0.390625 3.976562 -0.5 3.9375 -0.625 C 3.851562 -0.488281 3.757812 -0.363281 3.65625 -0.25 C 3.40625 0 3.09375 0.125 2.71875 0.125 Z M 2.71875 0.125 "/></g></g></g><g fill="#ffffff" fill-opacity="1"><g transform="translate(59.094099, 60.800507)"><g><path d="M 0.421875 -0.125 L 0.921875 -0.25 L 0.921875 -5.609375 L 0.421875 -5.734375 L 0.421875 -5.859375 L 2.640625 -5.859375 C 3.585938 -5.859375 4.269531 -5.710938 4.6875 -5.421875 C 5.101562 -5.140625 5.3125 -4.742188 5.3125 -4.234375 C 5.3125 -3.878906 5.21875 -3.59375 5.03125 -3.375 C 4.851562 -3.164062 4.617188 -3.007812 4.328125 -2.90625 C 4.023438 -2.789062 3.695312 -2.726562 3.34375 -2.71875 L 3.34375 -2.6875 C 3.550781 -2.664062 3.734375 -2.632812 3.890625 -2.59375 C 4.285156 -2.46875 4.550781 -2.242188 4.6875 -1.921875 L 5.4375 -0.25 L 5.859375 -0.125 L 5.859375 0 L 4.6875 0 C 4.226562 0 3.894531 -0.238281 3.6875 -0.71875 L 2.84375 -2.59375 L 2.296875 -2.59375 L 2.296875 -0.25 L 2.890625 -0.125 L 2.890625 0 L 0.421875 0 Z M 2.640625 -2.8125 C 3.023438 -2.8125 3.328125 -2.929688 3.546875 -3.171875 C 3.773438 -3.421875 3.890625 -3.773438 3.890625 -4.234375 C 3.890625 -4.691406 3.773438 -5.039062 3.546875 -5.28125 C 3.328125 -5.53125 3.023438 -5.65625 2.640625 -5.65625 L 2.296875 -5.65625 L 2.296875 -2.8125 Z M 2.640625 -2.8125 "/></g></g></g><g fill="#ffffff" fill-opacity="1"><g transform="translate(66.143415, 60.800507)"><g><path d="M 0.421875 -0.125 L 0.921875 -0.25 L 0.921875 -5.609375 L 0.421875 -5.734375 L 0.421875 -5.859375 L 4.90625 -5.859375 L 4.90625 -4.359375 L 4.640625 -4.359375 C 4.535156 -4.441406 4.445312 -4.546875 4.375 -4.671875 C 4.195312 -4.972656 4.109375 -5.300781 4.109375 -5.65625 L 2.296875 -5.65625 L 2.296875 -3.015625 L 3.265625 -3.015625 C 3.304688 -3.222656 3.378906 -3.421875 3.484375 -3.609375 C 3.523438 -3.691406 3.578125 -3.773438 3.640625 -3.859375 L 3.890625 -3.859375 L 3.890625 -1.96875 L 3.640625 -1.96875 C 3.578125 -2.039062 3.523438 -2.125 3.484375 -2.21875 C 3.378906 -2.394531 3.304688 -2.59375 3.265625 -2.8125 L 2.296875 -2.8125 L 2.296875 -0.203125 L 4.265625 -0.203125 C 4.265625 -0.554688 4.359375 -0.882812 4.546875 -1.1875 C 4.617188 -1.3125 4.707031 -1.414062 4.8125 -1.5 L 5.0625 -1.5 L 5.0625 0 L 0.421875 0 Z M 0.421875 -0.125 "/></g></g></g><g fill="#ffffff" fill-opacity="1"><g transform="translate(72.732297, 60.800507)"><g><path d="M 1.546875 0.125 C 1.035156 0.125 0.648438 0.0351562 0.390625 -0.140625 C 0.128906 -0.316406 0 -0.535156 0 -0.796875 C 0 -0.984375 0.0546875 -1.132812 0.171875 -1.25 C 0.285156 -1.363281 0.4375 -1.421875 0.625 -1.421875 C 0.664062 -1.421875 0.707031 -1.414062 0.75 -1.40625 C 0.800781 -1.40625 0.835938 -1.40625 0.859375 -1.40625 L 0.96875 -1.375 L 0.96875 -0.125 C 1 -0.101562 1.035156 -0.0859375 1.078125 -0.078125 C 1.171875 -0.0546875 1.269531 -0.046875 1.375 -0.046875 C 2.050781 -0.046875 2.390625 -0.585938 2.390625 -1.671875 L 2.390625 -5.609375 L 1.890625 -5.734375 L 1.890625 -5.859375 L 4.265625 -5.859375 L 4.265625 -5.734375 L 3.765625 -5.609375 L 3.765625 -1.671875 C 3.765625 -1.085938 3.582031 -0.640625 3.21875 -0.328125 C 2.863281 -0.0234375 2.304688 0.125 1.546875 0.125 Z M 1.546875 0.125 "/></g></g></g><g fill="#ffffff" fill-opacity="1"><g transform="translate(78.525888, 60.800507)"><g><path d="M -0.171875 -0.125 L 0.5 -0.375 L 2.8125 -5.953125 L 3.0625 -5.953125 L 5.4375 -0.25 L 5.859375 -0.125 L 5.859375 0 L 4.859375 0 C 4.566406 0 4.328125 -0.0625 4.140625 -0.1875 C 3.960938 -0.320312 3.828125 -0.5 3.734375 -0.71875 L 3.3125 -1.71875 L 1.3125 -1.71875 L 0.75 -0.375 L 1.375 -0.125 L 1.375 0 L -0.171875 0 Z M 1.390625 -1.921875 L 3.21875 -1.921875 L 2.296875 -4.125 Z M 1.390625 -1.921875 "/></g></g></g><g fill="#ffffff" fill-opacity="1"><g transform="translate(85.407781, 60.800507)"><g/></g></g><g fill="#ffffff" fill-opacity="1"><g transform="translate(88.94106, 60.800507)"><g><path d="M 0.421875 -0.125 L 0.921875 -0.25 L 0.921875 -5.609375 L 0.421875 -5.734375 L 0.421875 -5.859375 L 2.765625 -5.859375 C 3.691406 -5.859375 4.351562 -5.707031 4.75 -5.40625 C 5.15625 -5.101562 5.359375 -4.65625 5.359375 -4.0625 C 5.359375 -3.46875 5.15625 -3.019531 4.75 -2.71875 C 4.351562 -2.414062 3.691406 -2.265625 2.765625 -2.265625 L 2.296875 -2.265625 L 2.296875 -0.25 L 2.8125 -0.125 L 2.8125 0 L 0.421875 0 Z M 2.765625 -2.46875 C 3.117188 -2.46875 3.398438 -2.601562 3.609375 -2.875 C 3.828125 -3.144531 3.9375 -3.539062 3.9375 -4.0625 C 3.9375 -4.582031 3.828125 -4.976562 3.609375 -5.25 C 3.398438 -5.519531 3.117188 -5.65625 2.765625 -5.65625 L 2.296875 -5.65625 L 2.296875 -2.46875 Z M 2.765625 -2.46875 "/></g></g></g><g fill="#ffffff" fill-opacity="1"><g transform="translate(95.781091, 60.800507)"><g><path d="M 0.421875 -0.125 L 0.921875 -0.25 L 0.921875 -5.609375 L 0.421875 -5.734375 L 0.421875 -5.859375 L 2.640625 -5.859375 C 3.585938 -5.859375 4.269531 -5.710938 4.6875 -5.421875 C 5.101562 -5.140625 5.3125 -4.742188 5.3125 -4.234375 C 5.3125 -3.878906 5.21875 -3.59375 5.03125 -3.375 C 4.851562 -3.164062 4.617188 -3.007812 4.328125 -2.90625 C 4.023438 -2.789062 3.695312 -2.726562 3.34375 -2.71875 L 3.34375 -2.6875 C 3.550781 -2.664062 3.734375 -2.632812 3.890625 -2.59375 C 4.285156 -2.46875 4.550781 -2.242188 4.6875 -1.921875 L 5.4375 -0.25 L 5.859375 -0.125 L 5.859375 0 L 4.6875 0 C 4.226562 0 3.894531 -0.238281 3.6875 -0.71875 L 2.84375 -2.59375 L 2.296875 -2.59375 L 2.296875 -0.25 L 2.890625 -0.125 L 2.890625 0 L 0.421875 0 Z M 2.640625 -2.8125 C 3.023438 -2.8125 3.328125 -2.929688 3.546875 -3.171875 C 3.773438 -3.421875 3.890625 -3.773438 3.890625 -4.234375 C 3.890625 -4.691406 3.773438 -5.039062 3.546875 -5.28125 C 3.328125 -5.53125 3.023438 -5.65625 2.640625 -5.65625 L 2.296875 -5.65625 L 2.296875 -2.8125 Z M 2.640625 -2.8125 "/></g></g></g><g fill="#ffffff" fill-opacity="1"><g transform="translate(102.830408, 60.800507)"><g><path d="M 0.421875 -0.125 L 0.921875 -0.25 L 0.921875 -5.609375 L 0.421875 -5.734375 L 0.421875 -5.859375 L 4.90625 -5.859375 L 4.90625 -4.359375 L 4.640625 -4.359375 C 4.535156 -4.441406 4.445312 -4.546875 4.375 -4.671875 C 4.195312 -4.972656 4.109375 -5.300781 4.109375 -5.65625 L 2.296875 -5.65625 L 2.296875 -3.015625 L 3.265625 -3.015625 C 3.304688 -3.222656 3.378906 -3.421875 3.484375 -3.609375 C 3.523438 -3.691406 3.578125 -3.773438 3.640625 -3.859375 L 3.890625 -3.859375 L 3.890625 -1.96875 L 3.640625 -1.96875 C 3.578125 -2.039062 3.523438 -2.125 3.484375 -2.21875 C 3.378906 -2.394531 3.304688 -2.59375 3.265625 -2.8125 L 2.296875 -2.8125 L 2.296875 -0.203125 L 4.265625 -0.203125 C 4.265625 -0.554688 4.359375 -0.882812 4.546875 -1.1875 C 4.617188 -1.3125 4.707031 -1.414062 4.8125 -1.5 L 5.0625 -1.5 L 5.0625 0 L 0.421875 0 Z M 0.421875 -0.125 "/></g></g></g><g fill="#ffffff" fill-opacity="1"><g transform="translate(109.419291, 60.800507)"><g><path d="M 2.46875 0.125 C 2.070312 0.125 1.703125 0.0351562 1.359375 -0.140625 C 1.203125 -0.222656 1.070312 -0.316406 0.96875 -0.421875 C 0.882812 -0.285156 0.785156 -0.171875 0.671875 -0.078125 C 0.566406 -0.00390625 0.507812 0.0351562 0.5 0.046875 L 0.296875 0.046875 L 0.296875 -1.546875 L 0.625 -1.546875 C 0.707031 -1.273438 0.828125 -1.03125 0.984375 -0.8125 C 1.316406 -0.320312 1.753906 -0.078125 2.296875 -0.078125 C 2.617188 -0.078125 2.875 -0.171875 3.0625 -0.359375 C 3.25 -0.554688 3.34375 -0.8125 3.34375 -1.125 C 3.34375 -1.3125 3.285156 -1.476562 3.171875 -1.625 C 3.066406 -1.769531 2.929688 -1.894531 2.765625 -2 C 2.609375 -2.113281 2.390625 -2.253906 2.109375 -2.421875 C 1.734375 -2.628906 1.429688 -2.816406 1.203125 -2.984375 C 0.972656 -3.148438 0.773438 -3.359375 0.609375 -3.609375 C 0.453125 -3.867188 0.375 -4.171875 0.375 -4.515625 C 0.375 -4.796875 0.453125 -5.046875 0.609375 -5.265625 C 0.765625 -5.484375 0.992188 -5.65625 1.296875 -5.78125 C 1.609375 -5.914062 1.984375 -5.984375 2.421875 -5.984375 C 2.753906 -5.984375 3.082031 -5.894531 3.40625 -5.71875 C 3.519531 -5.644531 3.640625 -5.550781 3.765625 -5.4375 C 3.859375 -5.582031 3.957031 -5.695312 4.0625 -5.78125 C 4.164062 -5.851562 4.222656 -5.894531 4.234375 -5.90625 L 4.4375 -5.90625 L 4.4375 -4.3125 L 4.109375 -4.3125 C 4.035156 -4.582031 3.925781 -4.828125 3.78125 -5.046875 C 3.644531 -5.253906 3.476562 -5.425781 3.28125 -5.5625 C 3.082031 -5.707031 2.851562 -5.78125 2.59375 -5.78125 C 2.375 -5.78125 2.1875 -5.691406 2.03125 -5.515625 C 1.875 -5.347656 1.796875 -5.128906 1.796875 -4.859375 C 1.796875 -4.648438 1.851562 -4.460938 1.96875 -4.296875 C 2.09375 -4.128906 2.242188 -3.984375 2.421875 -3.859375 C 2.597656 -3.742188 2.835938 -3.597656 3.140625 -3.421875 C 3.492188 -3.222656 3.78125 -3.046875 4 -2.890625 C 4.21875 -2.734375 4.398438 -2.535156 4.546875 -2.296875 C 4.703125 -2.066406 4.78125 -1.800781 4.78125 -1.5 C 4.78125 -1.207031 4.691406 -0.9375 4.515625 -0.6875 C 4.335938 -0.4375 4.078125 -0.238281 3.734375 -0.09375 C 3.390625 0.0507812 2.96875 0.125 2.46875 0.125 Z M 2.46875 0.125 "/></g></g></g><g fill="#ffffff" fill-opacity="1"><g transform="translate(115.589602, 60.800507)"><g><path d="M 0.421875 -0.125 L 0.921875 -0.25 L 0.921875 -5.609375 L 0.421875 -5.734375 L 0.421875 -5.859375 L 2.6875 -5.859375 C 3.53125 -5.859375 4.148438 -5.722656 4.546875 -5.453125 C 4.953125 -5.179688 5.15625 -4.828125 5.15625 -4.390625 C 5.15625 -4.085938 5.066406 -3.84375 4.890625 -3.65625 C 4.710938 -3.476562 4.492188 -3.347656 4.234375 -3.265625 C 3.941406 -3.160156 3.632812 -3.101562 3.3125 -3.09375 L 3.3125 -3.0625 C 3.71875 -3.039062 4.070312 -2.976562 4.375 -2.875 C 4.675781 -2.769531 4.925781 -2.609375 5.125 -2.390625 C 5.332031 -2.179688 5.4375 -1.914062 5.4375 -1.59375 C 5.4375 -1.09375 5.234375 -0.703125 4.828125 -0.421875 C 4.421875 -0.140625 3.757812 0 2.84375 0 L 0.421875 0 Z M 2.6875 -3.1875 C 2.863281 -3.1875 3.03125 -3.238281 3.1875 -3.34375 C 3.351562 -3.445312 3.484375 -3.585938 3.578125 -3.765625 C 3.679688 -3.953125 3.734375 -4.160156 3.734375 -4.390625 C 3.734375 -4.640625 3.679688 -4.859375 3.578125 -5.046875 C 3.484375 -5.234375 3.351562 -5.378906 3.1875 -5.484375 C 3.03125 -5.597656 2.863281 -5.65625 2.6875 -5.65625 L 2.296875 -5.65625 L 2.296875 -3.1875 Z M 2.84375 -0.203125 C 3.1875 -0.203125 3.46875 -0.328125 3.6875 -0.578125 C 3.90625 -0.828125 4.015625 -1.164062 4.015625 -1.59375 C 4.015625 -2.019531 3.90625 -2.351562 3.6875 -2.59375 C 3.46875 -2.84375 3.1875 -2.96875 2.84375 -2.96875 L 2.296875 -2.96875 L 2.296875 -0.203125 Z M 2.84375 -0.203125 "/></g></g></g><g fill="#ffffff" fill-opacity="1"><g transform="translate(122.471495, 60.800507)"><g><path d="M 0.421875 0 L 0.421875 -0.125 L 0.921875 -0.25 L 0.921875 -5.609375 L 0.421875 -5.734375 L 0.421875 -5.859375 L 2.8125 -5.859375 L 2.8125 -5.734375 L 2.296875 -5.609375 L 2.296875 -0.25 L 2.8125 -0.125 L 2.8125 0 Z M 0.421875 0 "/></g></g></g><g fill="#ffffff" fill-opacity="1"><g transform="translate(126.883786, 60.800507)"><g><path d="M 1.46875 -0.125 L 1.96875 -0.25 L 1.96875 -5.65625 L 1 -5.65625 C 1 -5.3125 0.910156 -4.984375 0.734375 -4.671875 C 0.648438 -4.546875 0.554688 -4.441406 0.453125 -4.359375 L 0.203125 -4.359375 L 0.203125 -5.859375 L 5.109375 -5.859375 L 5.109375 -4.359375 L 4.859375 -4.359375 C 4.753906 -4.441406 4.660156 -4.546875 4.578125 -4.671875 C 4.398438 -4.972656 4.3125 -5.300781 4.3125 -5.65625 L 3.34375 -5.65625 L 3.34375 -0.25 L 3.859375 -0.125 L 3.859375 0 L 1.46875 0 Z M 1.46875 -0.125 "/></g></g></g><g fill="#ffffff" fill-opacity="1"><g transform="translate(133.388961, 60.800507)"><g><path d="M 0.421875 -0.125 L 0.921875 -0.25 L 0.921875 -5.609375 L 0.421875 -5.734375 L 0.421875 -5.859375 L 4.90625 -5.859375 L 4.90625 -4.359375 L 4.640625 -4.359375 C 4.535156 -4.441406 4.445312 -4.546875 4.375 -4.671875 C 4.195312 -4.972656 4.109375 -5.300781 4.109375 -5.65625 L 2.296875 -5.65625 L 2.296875 -3.015625 L 3.265625 -3.015625 C 3.304688 -3.222656 3.378906 -3.421875 3.484375 -3.609375 C 3.523438 -3.691406 3.578125 -3.773438 3.640625 -3.859375 L 3.890625 -3.859375 L 3.890625 -1.96875 L 3.640625 -1.96875 C 3.578125 -2.039062 3.523438 -2.125 3.484375 -2.21875 C 3.378906 -2.394531 3.304688 -2.59375 3.265625 -2.8125 L 2.296875 -2.8125 L 2.296875 -0.203125 L 4.265625 -0.203125 C 4.265625 -0.554688 4.359375 -0.882812 4.546875 -1.1875 C 4.617188 -1.3125 4.707031 -1.414062 4.8125 -1.5 L 5.0625 -1.5 L 5.0625 0 L 0.421875 0 Z M 0.421875 -0.125 "/></g></g></g><g fill="#ffffff" fill-opacity="1"><g transform="translate(139.977844, 60.800507)"><g><path d="M 0.421875 -0.125 L 0.921875 -0.25 L 0.921875 -5.609375 L 0.421875 -5.734375 L 0.421875 -5.859375 L 2.640625 -5.859375 C 3.585938 -5.859375 4.269531 -5.710938 4.6875 -5.421875 C 5.101562 -5.140625 5.3125 -4.742188 5.3125 -4.234375 C 5.3125 -3.878906 5.21875 -3.59375 5.03125 -3.375 C 4.851562 -3.164062 4.617188 -3.007812 4.328125 -2.90625 C 4.023438 -2.789062 3.695312 -2.726562 3.34375 -2.71875 L 3.34375 -2.6875 C 3.550781 -2.664062 3.734375 -2.632812 3.890625 -2.59375 C 4.285156 -2.46875 4.550781 -2.242188 4.6875 -1.921875 L 5.4375 -0.25 L 5.859375 -0.125 L 5.859375 0 L 4.6875 0 C 4.226562 0 3.894531 -0.238281 3.6875 -0.71875 L 2.84375 -2.59375 L 2.296875 -2.59375 L 2.296875 -0.25 L 2.890625 -0.125 L 2.890625 0 L 0.421875 0 Z M 2.640625 -2.8125 C 3.023438 -2.8125 3.328125 -2.929688 3.546875 -3.171875 C 3.773438 -3.421875 3.890625 -3.773438 3.890625 -4.234375 C 3.890625 -4.691406 3.773438 -5.039062 3.546875 -5.28125 C 3.328125 -5.53125 3.023438 -5.65625 2.640625 -5.65625 L 2.296875 -5.65625 L 2.296875 -2.8125 Z M 2.640625 -2.8125 "/></g></g></g><g fill="#ffffff" fill-opacity="1"><g transform="translate(147.027162, 60.800507)"><g><path d="M 0.421875 0 L 0.421875 -0.125 L 0.921875 -0.25 L 0.921875 -5.609375 L 0.421875 -5.734375 L 0.421875 -5.859375 L 2.8125 -5.859375 L 2.8125 -5.734375 L 2.296875 -5.609375 L 2.296875 -0.25 L 2.8125 -0.125 L 2.8125 0 Z M 0.421875 0 "/></g></g></g><g fill="#ffffff" fill-opacity="1"><g transform="translate(151.439453, 60.800507)"><g><path d="M -0.171875 -0.125 L 0.5 -0.375 L 2.8125 -5.953125 L 3.0625 -5.953125 L 5.4375 -0.25 L 5.859375 -0.125 L 5.859375 0 L 4.859375 0 C 4.566406 0 4.328125 -0.0625 4.140625 -0.1875 C 3.960938 -0.320312 3.828125 -0.5 3.734375 -0.71875 L 3.3125 -1.71875 L 1.3125 -1.71875 L 0.75 -0.375 L 1.375 -0.125 L 1.375 0 L -0.171875 0 Z M 1.390625 -1.921875 L 3.21875 -1.921875 L 2.296875 -4.125 Z M 1.390625 -1.921875 "/></g></g></g><g fill="#ffffff" fill-opacity="1"><g transform="translate(158.321346, 60.800507)"><g><path d="M 1.171875 -4.4375 L 1.171875 -0.375 L 1.84375 -0.125 L 1.84375 0 L 0.25 0 L 0.25 -0.125 L 0.921875 -0.375 L 0.921875 -5.5625 L 0.328125 -5.734375 L 0.328125 -5.859375 L 1.21875 -5.859375 C 1.507812 -5.859375 1.738281 -5.804688 1.90625 -5.703125 C 2.070312 -5.597656 2.234375 -5.457031 2.390625 -5.28125 L 5.0625 -2.140625 L 5.0625 -5.484375 L 4.390625 -5.734375 L 4.390625 -5.859375 L 5.984375 -5.859375 L 5.984375 -5.734375 L 5.3125 -5.484375 L 5.3125 0.125 L 5.0625 0.125 Z M 1.171875 -4.4375 "/></g></g></g><g fill="#ffffff" fill-opacity="1"><g transform="translate(165.70552, 60.800507)"><g><path d="M -0.171875 -0.125 L 0.5 -0.375 L 2.8125 -5.953125 L 3.0625 -5.953125 L 5.4375 -0.25 L 5.859375 -0.125 L 5.859375 0 L 4.859375 0 C 4.566406 0 4.328125 -0.0625 4.140625 -0.1875 C 3.960938 -0.320312 3.828125 -0.5 3.734375 -0.71875 L 3.3125 -1.71875 L 1.3125 -1.71875 L 0.75 -0.375 L 1.375 -0.125 L 1.375 0 L -0.171875 0 Z M 1.390625 -1.921875 L 3.21875 -1.921875 L 2.296875 -4.125 Z M 1.390625 -1.921875 "/></g></g></g></svg>