<svg xmlns="http://www.w3.org/2000/svg" xmlns:xlink="http://www.w3.org/1999/xlink" width="322" zoomAndPan="magnify" viewBox="0 0 241.5 73.499998" height="98" preserveAspectRatio="xMidYMid meet" version="1.0"><defs><g/><clipPath id="f6c5868028"><path d="M 51 26 L 53 26 L 53 73.003906 L 51 73.003906 Z M 51 26 " clip-rule="nonzero"/></clipPath><clipPath id="7ec977e937"><path d="M 23 25.328125 L 26 25.328125 L 26 27 L 23 27 Z M 23 25.328125 " clip-rule="nonzero"/></clipPath><clipPath id="8263411740"><path d="M 5 25.328125 L 34 25.328125 L 34 70.953125 L 5 70.953125 Z M 5 25.328125 " clip-rule="nonzero"/></clipPath><clipPath id="f7e3562acc"><path d="M 4.578125 34 L 7 34 L 7 41 L 4.578125 41 Z M 4.578125 34 " clip-rule="nonzero"/></clipPath><clipPath id="896f15afcd"><path d="M 13 34 L 43.480469 34 L 43.480469 70.953125 L 13 70.953125 Z M 13 34 " clip-rule="nonzero"/></clipPath></defs><g clip-path="url(#f6c5868028)"><path stroke-linecap="butt" transform="matrix(0.000000000000000029, 0.478125, -0.480249, 0.000000000000000029, 52.836308, 27.18839)" fill="none" stroke-linejoin="miter" d="M -0.00186047 1.001231 L 95.431077 1.001231 " stroke="#000000" stroke-width="2" stroke-opacity="1" stroke-miterlimit="4"/></g><path stroke-linecap="butt" transform="matrix(0.480338, 0, 0, 0.480249, 41.180455, 48.072622)" fill="none" stroke-linejoin="miter" d="M -0.00159833 1.003783 L 333.950722 1.003783 " stroke="#000000" stroke-width="2" stroke-opacity="1" stroke-miterlimit="4"/><g clip-path="url(#7ec977e937)"><path fill="#000000" d="M 24.414062 25.4375 C 24.828125 25.496094 25.519531 26.097656 25.195312 26.097656 C 25.105469 26.097656 24.980469 26.019531 24.933594 25.941406 C 24.828125 25.757812 23.78125 25.742188 23.507812 25.914062 C 23.398438 25.988281 23.644531 26.035156 24.074219 26.035156 C 24.613281 26.035156 24.933594 26.113281 25.164062 26.328125 C 25.59375 26.710938 25.980469 26.773438 25.792969 26.417969 C 25.488281 25.851562 24.8125 25.328125 24.414062 25.34375 L 24.011719 25.375 Z M 25.625 26.417969 C 25.625 26.511719 25.5625 26.527344 25.472656 26.480469 C 25.394531 26.433594 25.320312 26.3125 25.320312 26.234375 C 25.320312 26.140625 25.394531 26.128906 25.472656 26.171875 C 25.5625 26.21875 25.625 26.34375 25.625 26.417969 Z M 25.625 26.417969 " fill-opacity="1" fill-rule="nonzero"/></g><g clip-path="url(#8263411740)"><path fill="#000000" d="M 23.320312 25.652344 C 23.121094 25.742188 22.722656 25.972656 22.445312 26.1875 C 22.046875 26.496094 21.832031 26.558594 21.402344 26.464844 C 19.882812 26.1875 17.761719 28.445312 16.582031 31.640625 C 16.398438 32.132812 16.304688 32.621094 16.351562 32.777344 C 16.425781 32.945312 16.398438 33.023438 16.304688 32.960938 C 16.226562 32.914062 16.074219 33.28125 15.964844 33.867188 L 15.765625 34.863281 L 15.320312 34.113281 C 14.691406 32.992188 13.832031 32.578125 13.050781 33.007812 C 12.820312 33.128906 12.617188 33.007812 12.003906 32.390625 C 11.46875 31.871094 11.113281 31.625 10.835938 31.625 C 10.363281 31.625 9.5 32.332031 9.039062 33.097656 C 8.808594 33.453125 8.59375 33.621094 8.351562 33.621094 C 7.78125 33.621094 6.984375 34.433594 6.523438 35.464844 C 6.292969 35.96875 6.125 36.476562 6.152344 36.570312 C 6.183594 36.660156 6.367188 36.324219 6.570312 35.800781 C 7.183594 34.097656 8.242188 33.375 9.164062 34.019531 L 9.5 34.25 L 9.011719 34.664062 C 7.980469 35.523438 6.96875 38.597656 6.796875 41.375 C 6.628906 43.910156 7.367188 47.78125 8.273438 49.269531 C 8.808594 50.128906 8.488281 49.992188 7.90625 49.101562 C 7.183594 48.023438 6.523438 46.167969 6.152344 44.203125 C 5.832031 42.527344 5.863281 41.054688 6.277344 38.996094 C 6.367188 38.535156 6.492188 37.96875 6.523438 37.738281 C 6.644531 37.046875 7.320312 35.464844 7.703125 34.941406 C 8.074219 34.449219 8.320312 33.929688 8.179688 33.929688 C 7.980469 33.929688 6.84375 35.957031 6.570312 36.832031 C 6.078125 38.398438 5.632812 41.804688 5.738281 42.988281 C 5.894531 44.417969 6.507812 46.6875 7.105469 47.980469 C 7.628906 49.117188 8.65625 50.421875 8.902344 50.265625 C 8.980469 50.222656 9.039062 50.25 9.039062 50.34375 C 9.039062 50.421875 9.164062 50.527344 9.332031 50.589844 C 10.070312 50.820312 10.144531 54.367188 9.578125 60.554688 C 9.363281 62.84375 9.195312 65.269531 9.195312 65.960938 C 9.195312 67.3125 9.546875 69.617188 9.855469 70.292969 C 10.007812 70.660156 10.101562 70.707031 10.5 70.613281 C 10.960938 70.507812 10.960938 70.507812 10.546875 70.492188 C 10.175781 70.476562 10.117188 70.398438 9.945312 69.585938 C 9.839844 69.109375 9.730469 68.601562 9.6875 68.480469 C 9.65625 68.355469 9.609375 67.28125 9.578125 66.101562 C 9.546875 64.148438 9.609375 63.011719 9.871094 60.496094 C 10.316406 56.378906 10.5 53.125 10.300781 53.125 C 10.238281 53.125 10.191406 52.832031 10.191406 52.480469 C 10.207031 52.109375 10.160156 51.742188 10.085938 51.632812 C 9.992188 51.527344 9.976562 51.371094 10.039062 51.265625 C 10.101562 51.171875 10.054688 51.019531 9.945312 50.941406 C 9.792969 50.835938 9.839844 50.820312 10.117188 50.882812 C 10.332031 50.925781 10.746094 50.972656 11.039062 50.972656 L 11.574219 50.972656 L 11.484375 53.152344 C 11.359375 55.75 11.3125 59.957031 11.40625 59.863281 C 11.4375 59.835938 11.511719 58.757812 11.558594 57.5 C 11.742188 52.632812 11.835938 51.433594 12.035156 51.433594 C 12.171875 51.433594 12.203125 51.832031 12.171875 52.925781 C 12.082031 55.625 12.113281 59.726562 12.25 63.644531 C 12.375 67.496094 12.359375 69.324219 12.1875 70.324219 C 12.113281 70.796875 12.128906 70.828125 12.296875 70.554688 C 12.449219 70.308594 12.480469 68.480469 12.433594 61.9375 C 12.402344 57.378906 12.433594 53.078125 12.496094 52.402344 C 12.589844 51.296875 12.632812 51.144531 12.941406 51.066406 C 13.125 51.019531 13.277344 50.867188 13.292969 50.710938 C 13.292969 50.558594 13.417969 49.914062 13.570312 49.285156 C 13.863281 48.011719 13.816406 44.707031 13.507812 43.832031 L 13.339844 43.371094 L 13.417969 43.832031 C 13.464844 44.078125 13.539062 45.09375 13.585938 46.074219 C 13.695312 47.886719 13.523438 49.4375 13.109375 50.453125 C 12.878906 51.003906 12.050781 51.417969 11.898438 51.035156 C 11.851562 50.898438 11.589844 50.820312 11.160156 50.820312 C 9.746094 50.820312 8.6875 49.867188 7.949219 47.917969 C 7.320312 46.230469 7.136719 45.015625 7.136719 42.605469 C 7.136719 40.53125 7.199219 40.117188 7.613281 38.535156 C 8.058594 36.875 8.902344 34.847656 9.164062 34.847656 C 9.226562 34.847656 9.269531 36 9.269531 37.398438 C 9.269531 40.425781 9.410156 41.023438 9.472656 38.257812 C 9.53125 35.386719 9.714844 34.417969 10.316406 33.804688 C 11.097656 32.992188 11.957031 33.160156 12.878906 34.3125 C 14.554688 36.414062 16.84375 43.757812 16.472656 45.890625 C 16.320312 46.828125 15.796875 48.316406 15.429688 48.855469 C 14.84375 49.714844 14.800781 49.835938 15.152344 49.53125 C 15.519531 49.207031 15.597656 49.347656 15.304688 49.746094 C 15.199219 49.882812 15.335938 49.761719 15.597656 49.46875 C 16.425781 48.578125 17.179688 46.042969 17.179688 44.140625 C 17.179688 43.339844 17.195312 43.328125 18.179688 42.390625 C 19.039062 41.589844 20.160156 40.839844 20.496094 40.839844 C 20.542969 40.839844 20.480469 41.007812 20.34375 41.222656 C 20.066406 41.636719 18.867188 44.308594 18.867188 44.492188 C 18.867188 44.554688 19.191406 44.015625 19.574219 43.296875 C 20.804688 40.992188 21.726562 40.207031 22.847656 40.453125 C 23.722656 40.640625 24.273438 41.558594 24.550781 43.296875 C 24.78125 44.769531 24.734375 45.953125 24.382812 48.394531 C 24.042969 50.804688 23.738281 52.171875 23.367188 52.894531 C 23.0625 53.476562 21.539062 54.964844 21.25 54.964844 C 21.125 54.964844 21.019531 55.027344 21.019531 55.105469 C 21.019531 55.179688 20.804688 55.320312 20.527344 55.410156 C 20.265625 55.503906 20.082031 55.625 20.128906 55.671875 C 20.296875 55.839844 21.726562 54.980469 22.460938 54.261719 C 23.921875 52.847656 24.644531 50.390625 24.8125 46.273438 C 24.949219 42.789062 24.472656 41.085938 23.183594 40.316406 C 22.691406 40.039062 22.632812 40.023438 21.878906 40.269531 C 21.449219 40.410156 20.804688 40.5625 20.449219 40.625 C 20.035156 40.667969 19.4375 40.960938 18.761719 41.4375 C 17.195312 42.542969 17.179688 42.589844 17.027344 44.324219 C 16.828125 46.613281 16.257812 48.6875 15.691406 49.160156 C 15.550781 49.269531 15.476562 49.285156 15.503906 49.207031 C 15.550781 49.117188 15.734375 48.730469 15.921875 48.347656 C 16.503906 47.105469 16.765625 45.785156 16.65625 44.601562 C 16.398438 41.46875 14.585938 36.246094 13.125 34.34375 L 12.558594 33.605469 L 12.910156 33.3125 C 13.664062 32.683594 14.539062 33.066406 15.277344 34.328125 C 15.9375 35.433594 16.566406 37.304688 16.566406 38.121094 C 16.566406 38.550781 16.625 38.828125 16.703125 38.765625 C 16.796875 38.71875 16.8125 38.902344 16.765625 39.242188 C 16.703125 39.65625 16.71875 39.777344 16.84375 39.703125 C 16.980469 39.625 17.027344 39.949219 17.027344 40.898438 C 17.027344 41.667969 17.085938 42.25 17.195312 42.3125 C 17.300781 42.375 17.347656 42.21875 17.316406 41.835938 C 17.273438 41.328125 17.316406 41.238281 17.855469 40.914062 C 18.191406 40.714844 18.53125 40.59375 18.609375 40.640625 C 18.699219 40.683594 18.714844 40.652344 18.652344 40.5625 C 18.59375 40.453125 18.699219 40.347656 18.929688 40.285156 C 19.144531 40.238281 19.40625 40.085938 19.515625 39.964844 C 19.804688 39.609375 18.652344 40.117188 17.839844 40.699219 C 17.210938 41.144531 17.179688 41.144531 17.179688 40.839844 C 17.179688 40.453125 18.316406 39.6875 19.097656 39.546875 C 19.667969 39.441406 20.066406 39.578125 20.710938 40.132812 L 21.09375 40.453125 L 20.789062 40.101562 C 20.464844 39.703125 20.542969 39.59375 21.371094 39.273438 C 21.601562 39.195312 21.785156 39.074219 21.785156 39.027344 C 21.785156 38.84375 23.308594 38.949219 23.550781 39.148438 C 23.84375 39.394531 24.398438 40.5625 24.398438 40.945312 C 24.398438 41.207031 24.488281 41.253906 24.996094 41.238281 C 25.734375 41.222656 26.285156 41.683594 26.578125 42.511719 C 26.777344 43.125 26.792969 46.199219 26.59375 46.351562 C 26.53125 46.398438 26.46875 46.644531 26.46875 46.902344 C 26.453125 47.148438 26.410156 47.550781 26.347656 47.792969 C 26.238281 48.195312 26.253906 48.210938 26.65625 48.117188 C 27.5625 47.902344 28.789062 47.210938 29.417969 46.566406 C 30.601562 45.351562 32.320312 41.882812 32.921875 39.535156 C 33.042969 39.042969 33.148438 38.152344 33.148438 37.582031 C 33.148438 35.785156 32.414062 34.847656 31.015625 34.847656 C 30.664062 34.847656 30.09375 34.773438 29.726562 34.664062 C 28.925781 34.449219 27.804688 34.632812 26.378906 35.21875 C 24.828125 35.847656 23.753906 36.570312 22.476562 37.84375 C 20.160156 40.179688 19.605469 40.195312 21.09375 37.90625 C 21.554688 37.183594 21.726562 36.847656 21.464844 37.152344 C 21.21875 37.445312 20.804688 38.042969 20.542969 38.472656 C 20.113281 39.226562 20.066406 39.257812 19.484375 39.226562 C 19.128906 39.210938 18.867188 39.257812 18.867188 39.347656 C 18.867188 39.457031 18.824219 39.457031 18.730469 39.378906 C 18.636719 39.289062 18.546875 38.84375 18.515625 38.382812 C 18.46875 37.550781 18.46875 37.550781 18.4375 38.582031 C 18.421875 39.242188 18.347656 39.59375 18.253906 39.535156 C 18.179688 39.488281 18.101562 39.519531 18.101562 39.609375 C 18.101562 39.964844 17.71875 39.65625 17.609375 39.210938 C 17.53125 38.886719 17.515625 38.933594 17.5625 39.394531 C 17.609375 39.839844 17.578125 40.054688 17.441406 40.117188 C 17.289062 40.179688 17.164062 39.824219 16.980469 38.78125 C 16.71875 37.335938 16.78125 36.402344 17.195312 34.773438 C 17.425781 33.898438 18.46875 31.886719 19.375 30.582031 C 20.082031 29.550781 21.894531 27.695312 22.03125 27.832031 C 22.078125 27.863281 21.941406 28.414062 21.742188 29.03125 C 21.125 30.933594 20.957031 31.777344 21.15625 31.976562 C 21.296875 32.117188 21.324219 32.101562 21.25 31.902344 C 21.035156 31.332031 22.429688 28.015625 23.105469 27.492188 C 23.691406 27.03125 24.429688 26.941406 25.058594 27.25 C 25.996094 27.695312 26.761719 29.597656 27.085938 32.269531 C 27.222656 33.328125 26.992188 33.46875 26.714844 32.5 C 26.609375 32.148438 26.238281 31.273438 25.902344 30.550781 C 25.5625 29.828125 25.226562 29.03125 25.148438 28.785156 C 25.027344 28.339844 25.011719 28.339844 25.074219 28.859375 C 25.105469 29.152344 25.425781 29.996094 25.765625 30.71875 C 26.117188 31.441406 26.394531 32.148438 26.394531 32.285156 C 26.394531 32.421875 26.46875 32.578125 26.546875 32.621094 C 26.914062 32.851562 26.609375 33.144531 25.410156 33.742188 C 24.472656 34.203125 23.796875 34.695312 22.984375 35.480469 C 22.371094 36.078125 22.214844 36.277344 22.632812 35.894531 C 24.550781 34.203125 26.640625 33.175781 28.160156 33.160156 C 29.035156 33.160156 29.480469 33.40625 29.957031 34.144531 C 30.203125 34.511719 30.246094 34.542969 30.1875 34.28125 C 30.125 33.988281 30.1875 33.929688 30.601562 33.851562 C 31.722656 33.683594 31.785156 33.636719 30.878906 33.699219 C 29.496094 33.804688 29.3125 33.605469 29.3125 32.007812 C 29.296875 29.015625 28.265625 27.109375 26.777344 27.386719 C 26.347656 27.476562 26.238281 27.433594 26.164062 27.171875 C 26.101562 26.988281 26.023438 26.878906 25.980469 26.910156 C 25.949219 26.957031 25.980469 27.125 26.070312 27.292969 C 26.332031 27.785156 26.070312 27.800781 25.519531 27.324219 C 24.765625 26.648438 24.382812 26.601562 23.414062 27.078125 C 22.96875 27.292969 22.523438 27.476562 22.417969 27.476562 C 21.984375 27.476562 20.941406 28.167969 20.128906 29.015625 C 18.484375 30.6875 17.242188 33.253906 16.703125 36 L 16.535156 36.921875 L 16.242188 36 C 15.953125 35.09375 15.964844 34.203125 16.257812 33.621094 C 16.335938 33.5 16.640625 32.835938 16.964844 32.164062 C 17.824219 30.351562 19.054688 28.554688 19.898438 27.910156 C 21.324219 26.804688 21.28125 26.832031 20.957031 26.925781 C 20.511719 27.078125 19.3125 28.09375 18.59375 28.921875 C 18.222656 29.351562 17.59375 30.378906 17.164062 31.210938 C 16.273438 33.007812 16.179688 32.929688 16.996094 31.054688 C 17.902344 28.9375 19.039062 27.476562 20.265625 26.847656 C 20.988281 26.496094 21.539062 26.558594 22.203125 27.0625 C 22.601562 27.371094 22.617188 27.371094 22.371094 27.078125 C 22.03125 26.695312 22.015625 26.558594 22.324219 26.558594 C 22.445312 26.558594 22.554688 26.480469 22.554688 26.402344 C 22.554688 26.3125 22.601562 26.265625 22.675781 26.265625 C 22.96875 26.3125 23.183594 26.234375 23.09375 26.097656 C 23.046875 26.019531 23.230469 25.851562 23.507812 25.726562 C 24.074219 25.480469 23.921875 25.421875 23.320312 25.652344 Z M 27.898438 27.894531 C 28.636719 28.355469 29.21875 30.625 29.035156 32.347656 C 28.972656 32.945312 28.925781 33.007812 28.558594 33.007812 C 28.160156 33.007812 28.160156 32.976562 27.730469 30.8125 C 27.5 29.613281 27.300781 28.414062 27.300781 28.167969 C 27.300781 27.832031 27.269531 27.769531 27.175781 27.9375 C 27.039062 28.167969 27.238281 29.597656 27.683594 31.515625 C 27.992188 32.851562 27.992188 33.039062 27.667969 32.976562 C 27.46875 32.945312 27.359375 32.636719 27.222656 31.625 C 27.054688 30.535156 26.699219 29.273438 26.179688 28.078125 C 26.101562 27.878906 26.179688 27.769531 26.5 27.664062 C 26.976562 27.492188 27.359375 27.554688 27.898438 27.894531 Z M 11.914062 32.46875 C 12.601562 33.191406 12.773438 33.574219 12.3125 33.390625 C 11.40625 33.023438 11.207031 32.976562 10.835938 33.066406 C 10.605469 33.113281 10.269531 33.40625 10.070312 33.699219 C 9.886719 33.988281 9.699219 34.234375 9.65625 34.234375 C 9.609375 34.21875 9.410156 34.082031 9.210938 33.914062 C 8.871094 33.636719 8.855469 33.589844 9.101562 33.34375 C 9.242188 33.191406 9.347656 32.992188 9.347656 32.898438 C 9.347656 32.808594 9.59375 32.515625 9.886719 32.253906 C 10.652344 31.578125 11.097656 31.625 11.914062 32.46875 Z M 28.3125 36.214844 C 27.5625 36.96875 26.886719 37.550781 26.824219 37.523438 C 26.761719 37.476562 26.609375 37.660156 26.46875 37.9375 C 26.332031 38.195312 26.285156 38.367188 26.378906 38.320312 C 26.46875 38.257812 26.546875 38.289062 26.546875 38.398438 C 26.546875 38.503906 26.671875 38.472656 26.839844 38.289062 C 27.160156 37.953125 27.128906 37.78125 26.777344 38.074219 C 26.65625 38.183594 26.546875 38.210938 26.546875 38.136719 C 26.546875 37.953125 26.855469 37.507812 26.855469 37.660156 C 26.855469 37.738281 27.222656 37.476562 27.667969 37.078125 C 28.757812 36.09375 30.125 35.171875 30.679688 35.066406 C 31.398438 34.910156 32.429688 35.464844 32.765625 36.15625 C 33.136719 36.9375 33.011719 38.640625 32.460938 40.300781 C 31.96875 41.789062 30.339844 45.046875 29.617188 46.027344 C 29.035156 46.796875 27.992188 47.519531 27.207031 47.671875 C 26.746094 47.765625 26.699219 47.734375 26.699219 47.425781 C 26.699219 47.226562 26.929688 46.84375 27.207031 46.550781 C 27.605469 46.105469 27.636719 46.058594 27.316406 46.257812 L 26.929688 46.503906 L 26.960938 44.738281 C 26.992188 43.109375 26.976562 42.910156 26.625 42.21875 C 26.210938 41.40625 25.519531 40.914062 24.949219 41.023438 C 24.671875 41.085938 24.582031 40.960938 24.335938 40.207031 C 24.183594 39.71875 23.9375 39.210938 23.78125 39.074219 C 23.429688 38.75 22.585938 38.519531 22.476562 38.703125 C 22.417969 38.78125 22.277344 38.84375 22.15625 38.84375 C 21.769531 38.84375 22.1875 38.289062 23.105469 37.566406 C 24.78125 36.246094 27.804688 34.878906 29.066406 34.863281 L 29.679688 34.847656 Z M 28.3125 36.214844 " fill-opacity="1" fill-rule="nonzero"/></g><path fill="#000000" d="M 10.039062 32.390625 C 9.792969 32.5625 9.65625 32.699219 9.761719 32.699219 C 9.855469 32.699219 9.976562 32.636719 10.023438 32.5625 C 10.207031 32.269531 11.175781 32.222656 11.605469 32.484375 L 12.035156 32.730469 L 11.667969 32.40625 C 11.222656 32.007812 10.636719 31.992188 10.039062 32.390625 Z M 10.039062 32.390625 " fill-opacity="1" fill-rule="nonzero"/><path fill="#000000" d="M 32.015625 36.722656 C 31.859375 36.984375 31.785156 37.738281 31.738281 39.457031 C 31.707031 40.761719 31.722656 41.667969 31.785156 41.453125 C 31.84375 41.238281 31.890625 40.179688 31.90625 39.101562 C 31.921875 37.582031 31.984375 37.0625 32.167969 36.769531 C 32.304688 36.554688 32.382812 36.386719 32.320312 36.386719 C 32.273438 36.386719 32.136719 36.539062 32.015625 36.722656 Z M 32.015625 36.722656 " fill-opacity="1" fill-rule="nonzero"/><path fill="#000000" d="M 20.589844 32.621094 C 20.589844 32.867188 20.621094 32.960938 20.664062 32.808594 C 20.695312 32.667969 20.695312 32.453125 20.664062 32.347656 C 20.621094 32.253906 20.589844 32.363281 20.589844 32.621094 Z M 20.589844 32.621094 " fill-opacity="1" fill-rule="nonzero"/><path fill="#000000" d="M 21.035156 32.636719 C 21.035156 32.808594 21.082031 32.851562 21.125 32.730469 C 21.171875 32.621094 21.15625 32.484375 21.109375 32.4375 C 21.066406 32.378906 21.019531 32.46875 21.035156 32.636719 Z M 21.035156 32.636719 " fill-opacity="1" fill-rule="nonzero"/><path fill="#000000" d="M 13.496094 33.453125 C 13.496094 33.667969 13.925781 34.726562 14.460938 35.832031 C 15 36.9375 15.707031 38.472656 16.027344 39.257812 C 16.367188 40.039062 16.65625 40.640625 16.703125 40.609375 C 16.828125 40.46875 16.042969 38.582031 15.058594 36.617188 C 14.507812 35.511719 13.941406 34.265625 13.785156 33.851562 C 13.585938 33.328125 13.507812 33.207031 13.496094 33.453125 Z M 13.496094 33.453125 " fill-opacity="1" fill-rule="nonzero"/><path fill="#000000" d="M 26.515625 33.914062 C 25.347656 34.296875 23.84375 35.15625 23 35.925781 C 22.402344 36.492188 22.386719 36.523438 22.863281 36.199219 C 23.152344 36 23.445312 35.785156 23.492188 35.710938 C 23.550781 35.632812 23.691406 35.632812 23.796875 35.695312 C 23.921875 35.769531 23.96875 35.769531 23.90625 35.695312 C 23.769531 35.539062 24.027344 35.355469 25.210938 34.695312 C 25.671875 34.449219 26.195312 34.234375 26.347656 34.234375 C 26.5 34.234375 26.714844 34.160156 26.792969 34.082031 C 26.886719 33.988281 27.46875 33.867188 28.097656 33.789062 L 29.234375 33.667969 L 28.3125 33.652344 C 27.804688 33.636719 27.007812 33.757812 26.515625 33.914062 Z M 26.515625 33.914062 " fill-opacity="1" fill-rule="nonzero"/><path fill="#000000" d="M 32.273438 33.929688 C 32.828125 34.097656 33.148438 34.359375 33.148438 34.648438 C 33.148438 34.820312 33.011719 34.757812 32.675781 34.480469 C 32.414062 34.265625 32.089844 34.082031 31.953125 34.082031 C 31.707031 34.097656 31.707031 34.097656 31.953125 34.25 C 32.105469 34.328125 32.257812 34.390625 32.304688 34.390625 C 32.429688 34.375 32.75 34.710938 32.964844 35.078125 C 33.136719 35.386719 33.136719 35.386719 33.148438 35.078125 C 33.164062 34.773438 33.164062 34.773438 33.320312 35.078125 C 33.425781 35.324219 33.441406 35.292969 33.378906 34.925781 C 33.273438 34.375 32.644531 33.773438 32.183594 33.789062 C 31.90625 33.804688 31.921875 33.820312 32.273438 33.929688 Z M 32.273438 33.929688 " fill-opacity="1" fill-rule="nonzero"/><g clip-path="url(#f7e3562acc)"><path fill="#000000" d="M 4.726562 34.328125 C 4.617188 34.605469 4.585938 35.234375 4.648438 35.984375 C 4.757812 37.414062 5.570312 40.871094 5.632812 40.148438 C 5.648438 39.886719 5.753906 39.101562 5.847656 38.382812 C 5.953125 37.660156 6.015625 37.046875 6 37 C 4.925781 33.882812 4.910156 33.851562 4.726562 34.328125 Z M 5.507812 37.765625 L 5.433594 38.613281 L 5.234375 37.507812 C 5.140625 36.90625 5.046875 36.214844 5.046875 35.96875 C 5.0625 35.585938 5.09375 35.617188 5.339844 36.230469 C 5.523438 36.738281 5.585938 37.152344 5.507812 37.765625 Z M 5.507812 37.765625 " fill-opacity="1" fill-rule="nonzero"/></g><path fill="#000000" d="M 31.277344 34.035156 C 31.382812 34.082031 31.523438 34.066406 31.570312 34.019531 C 31.628906 33.972656 31.539062 33.929688 31.367188 33.945312 C 31.199219 33.945312 31.152344 33.988281 31.277344 34.035156 Z M 31.277344 34.035156 " fill-opacity="1" fill-rule="nonzero"/><path fill="#000000" d="M 11.820312 34.234375 C 11.820312 34.359375 11.882812 34.605469 11.957031 34.773438 C 12.035156 34.972656 12.097656 34.988281 12.097656 34.847656 C 12.097656 34.726562 12.035156 34.480469 11.957031 34.3125 C 11.882812 34.113281 11.820312 34.097656 11.820312 34.234375 Z M 11.820312 34.234375 " fill-opacity="1" fill-rule="nonzero"/><g clip-path="url(#896f15afcd)"><path fill="#000000" d="M 41.65625 35.910156 C 40.890625 36.554688 39.707031 37.460938 39.046875 37.9375 C 37.910156 38.75 35.207031 40.378906 34.976562 40.378906 C 34.933594 40.378906 34.976562 39.992188 35.101562 39.535156 C 35.4375 38.210938 34.960938 37 33.996094 36.753906 C 33.78125 36.707031 33.609375 36.601562 33.609375 36.507812 C 33.609375 36.429688 33.535156 36.414062 33.457031 36.460938 C 33.226562 36.601562 33.425781 36.847656 33.765625 36.847656 C 34.332031 36.847656 34.871094 37.492188 34.945312 38.273438 C 35.207031 40.546875 33.71875 43.402344 31.0625 45.753906 C 29.082031 47.503906 26.46875 48.777344 26.070312 48.210938 C 25.949219 48.039062 25.933594 48.070312 26.007812 48.347656 C 26.070312 48.5625 26.054688 48.671875 25.980469 48.625 C 25.902344 48.5625 25.824219 48.714844 25.824219 48.945312 C 25.824219 50.007812 23.476562 53.84375 22.15625 54.921875 C 21.832031 55.195312 21.632812 55.410156 21.742188 55.425781 C 21.832031 55.425781 22.277344 55.058594 22.722656 54.597656 C 23.167969 54.136719 23.597656 53.800781 23.675781 53.84375 C 23.769531 53.890625 23.78125 53.859375 23.722656 53.769531 C 23.582031 53.539062 24.566406 52.078125 24.8125 52.15625 C 24.902344 52.1875 25.027344 52.140625 25.089844 52.0625 C 25.148438 51.957031 25.089844 51.941406 24.917969 52.003906 C 24.628906 52.109375 24.628906 52.109375 25.210938 51.019531 C 25.441406 50.574219 25.765625 49.835938 25.933594 49.390625 C 26.222656 48.609375 26.269531 48.5625 26.992188 48.378906 C 27.390625 48.269531 28.207031 47.917969 28.789062 47.578125 C 29.757812 47.011719 29.910156 46.964844 30.617188 47.058594 C 31.953125 47.226562 33.058594 47.472656 33.519531 47.703125 C 33.964844 47.933594 33.964844 47.933594 32.214844 48.378906 C 31.246094 48.625 30.371094 48.792969 30.261719 48.746094 C 30.15625 48.699219 30.109375 48.746094 30.15625 48.824219 C 30.203125 48.914062 30.171875 48.976562 30.0625 48.976562 C 29.957031 48.976562 29.910156 49.023438 29.957031 49.070312 C 30.003906 49.117188 30.464844 49.039062 30.984375 48.902344 C 32.367188 48.546875 34.257812 48.425781 34.839844 48.671875 C 35.792969 49.070312 36.160156 50.097656 35.714844 51.171875 C 35.207031 52.371094 33.011719 54.320312 30.386719 55.886719 C 27.070312 57.867188 25.933594 58.238281 24.242188 57.882812 C 23.78125 57.792969 23.292969 57.699219 23.167969 57.667969 C 23.046875 57.652344 22.785156 57.546875 22.601562 57.453125 C 22.417969 57.347656 22.15625 57.269531 22.03125 57.269531 C 21.878906 57.269531 21.832031 57.175781 21.878906 57.039062 C 21.941406 56.886719 21.878906 56.808594 21.710938 56.808594 C 21.21875 56.808594 21.570312 57.191406 22.460938 57.636719 C 23.628906 58.222656 25.425781 58.359375 26.777344 57.960938 C 29.449219 57.191406 34.300781 53.816406 35.453125 51.910156 C 35.667969 51.574219 35.898438 51.28125 35.960938 51.28125 C 36.28125 51.28125 36.835938 52.125 36.835938 52.632812 C 36.835938 53.828125 35.53125 55.089844 32.996094 56.316406 C 32.03125 56.777344 31.199219 57.207031 31.152344 57.253906 C 31.0625 57.378906 30.261719 57.636719 29.003906 57.976562 C 28.265625 58.191406 27.390625 58.253906 25.625 58.269531 C 23.277344 58.269531 23.230469 58.269531 22.292969 57.808594 C 21.785156 57.546875 21.402344 57.421875 21.433594 57.53125 C 21.480469 57.636719 21.632812 57.761719 21.800781 57.808594 C 22.0625 57.898438 22.03125 57.976562 21.511719 58.773438 C 21.203125 59.25 20.695312 59.972656 20.40625 60.355469 C 20.113281 60.742188 19.757812 61.214844 19.636719 61.414062 C 19.515625 61.601562 19.285156 61.890625 19.144531 62.0625 C 18.992188 62.246094 18.867188 62.429688 18.867188 62.476562 C 18.867188 62.523438 18.625 62.828125 18.332031 63.136719 C 18.039062 63.441406 17.792969 63.765625 17.792969 63.859375 C 17.792969 63.933594 17.6875 64.074219 17.546875 64.148438 C 17.410156 64.226562 17.316406 64.332031 17.332031 64.394531 C 17.347656 64.457031 17.195312 64.703125 16.996094 64.917969 C 16.8125 65.148438 16.441406 65.609375 16.195312 65.945312 C 15.9375 66.285156 15.691406 66.589844 15.644531 66.636719 C 15.582031 66.683594 15.320312 67.019531 15.058594 67.390625 L 14.570312 68.066406 L 14.554688 67.542969 L 14.523438 67.019531 L 14.398438 67.636719 C 14.125 68.972656 13.832031 70.707031 13.878906 70.769531 C 14.0625 70.953125 14.246094 70.492188 14.339844 69.632812 C 14.445312 68.664062 14.507812 68.558594 15.691406 67.050781 C 17.992188 64.148438 21.109375 59.972656 21.695312 59.003906 C 22 58.46875 22.277344 58.039062 22.292969 58.039062 C 22.308594 58.039062 22.675781 58.144531 23.09375 58.285156 C 24.089844 58.589844 26.714844 58.574219 28.34375 58.269531 C 33.75 57.238281 38.25 53.691406 36.667969 51.695312 L 36.359375 51.28125 L 36.742188 50.710938 C 36.972656 50.390625 37.144531 50.066406 37.144531 49.992188 C 37.144531 49.898438 36.929688 50.160156 36.683594 50.574219 C 36.144531 51.417969 35.882812 51.402344 36.097656 50.527344 C 36.207031 50.082031 36.207031 49.820312 36.039062 49.5 C 35.867188 49.117188 35.117188 48.484375 34.671875 48.332031 C 34.578125 48.300781 34.59375 48.101562 34.714844 47.792969 L 34.933594 47.304688 L 35.699219 47.65625 C 36.699219 48.117188 37.328125 48.855469 37.203125 49.40625 C 37.144531 49.730469 37.160156 49.777344 37.28125 49.589844 C 37.464844 49.332031 37.511719 48.5 37.34375 48.5625 C 37.265625 48.578125 37.203125 48.53125 37.1875 48.457031 C 37.160156 48.300781 36.804688 48.085938 35.683594 47.535156 C 35.175781 47.273438 34.855469 46.980469 34.6875 46.644531 C 34.5625 46.367188 34.242188 46 33.964844 45.8125 L 33.472656 45.492188 L 34.960938 44.339844 C 38.726562 41.4375 41.582031 38.414062 42.734375 36.109375 C 43.46875 34.632812 43.222656 34.589844 41.65625 35.910156 Z M 41.933594 36.800781 C 40.707031 38.859375 38.003906 41.589844 34.730469 44.09375 C 33.609375 44.9375 33.257812 45.136719 33.105469 45 C 32.980469 44.90625 32.84375 44.878906 32.796875 44.9375 C 32.734375 44.984375 32.691406 44.9375 32.691406 44.800781 C 32.691406 44.675781 32.828125 44.445312 32.996094 44.292969 C 33.378906 43.957031 34.53125 42.175781 34.53125 41.945312 C 34.53125 41.835938 34.59375 41.761719 34.65625 41.761719 C 34.714844 41.761719 34.839844 41.542969 34.917969 41.285156 C 35.039062 40.898438 35.316406 40.652344 36.222656 40.148438 C 36.851562 39.777344 37.433594 39.535156 37.511719 39.578125 C 37.589844 39.625 37.605469 39.59375 37.558594 39.519531 C 37.511719 39.425781 37.863281 39.132812 38.339844 38.84375 C 38.816406 38.566406 39.355469 38.195312 39.523438 38.058594 C 39.691406 37.90625 40.261719 37.460938 40.78125 37.078125 C 41.304688 36.691406 41.886719 36.214844 42.085938 36 C 42.65625 35.417969 42.609375 35.679688 41.933594 36.800781 Z M 33.425781 45.707031 C 34.378906 46.152344 34.761719 46.75 34.609375 47.550781 L 34.515625 48.070312 L 34.132812 47.765625 C 33.566406 47.320312 32.257812 46.859375 31.152344 46.734375 L 30.203125 46.628906 L 30.707031 46.230469 C 30.984375 46.011719 31.355469 45.675781 31.523438 45.492188 C 31.875 45.09375 32.199219 45.121094 33.425781 45.707031 Z M 33.425781 45.707031 " fill-opacity="1" fill-rule="nonzero"/></g><path fill="#000000" d="M 31.691406 45.707031 C 31.785156 45.785156 32.230469 45.96875 32.691406 46.121094 C 33.148438 46.289062 33.59375 46.472656 33.6875 46.535156 C 33.765625 46.613281 33.917969 46.675781 34.039062 46.675781 C 34.457031 46.675781 34.054688 46.398438 33.195312 46.089844 C 31.984375 45.660156 31.507812 45.539062 31.691406 45.707031 Z M 31.691406 45.707031 " fill-opacity="1" fill-rule="nonzero"/><path fill="#000000" d="M 12.21875 35.339844 C 13.464844 36.984375 13.800781 37.460938 13.710938 37.460938 C 13.648438 37.460938 13.695312 37.550781 13.832031 37.644531 C 13.953125 37.75 14.246094 38.121094 14.476562 38.457031 C 15.046875 39.316406 14.984375 38.917969 14.398438 38.011719 C 13.894531 37.199219 12.28125 35.15625 12.15625 35.15625 C 12.113281 35.15625 12.144531 35.25 12.21875 35.339844 Z M 12.21875 35.339844 " fill-opacity="1" fill-rule="nonzero"/><path fill="#000000" d="M 33.488281 35.925781 C 33.488281 36.140625 33.519531 36.214844 33.566406 36.109375 C 33.59375 36.015625 33.59375 35.832031 33.566406 35.726562 C 33.519531 35.632812 33.488281 35.710938 33.488281 35.925781 Z M 33.488281 35.925781 " fill-opacity="1" fill-rule="nonzero"/><path fill="#000000" d="M 17.378906 37.84375 C 17.378906 38.351562 17.410156 38.535156 17.441406 38.257812 C 17.472656 37.980469 17.472656 37.566406 17.441406 37.335938 C 17.410156 37.105469 17.378906 37.335938 17.378906 37.84375 Z M 17.378906 37.84375 " fill-opacity="1" fill-rule="nonzero"/><path fill="#000000" d="M 33.886719 37.644531 C 33.765625 37.84375 33.609375 38.242188 33.566406 38.535156 C 33.472656 39.042969 33.058594 40.792969 32.703125 42.160156 C 32.613281 42.511719 32.398438 43.125 32.230469 43.527344 C 32.058594 43.925781 31.9375 44.292969 31.984375 44.324219 C 32.152344 44.507812 32.78125 42.710938 33.378906 40.316406 C 33.75 38.828125 34.085938 37.550781 34.148438 37.460938 C 34.347656 37.136719 34.101562 37.320312 33.886719 37.644531 Z M 33.886719 37.644531 " fill-opacity="1" fill-rule="nonzero"/><path fill="#000000" d="M 22.707031 39.316406 C 22.707031 39.394531 22.832031 39.457031 22.96875 39.457031 C 23.105469 39.457031 23.367188 39.578125 23.539062 39.71875 C 23.859375 39.992188 23.859375 39.992188 23.582031 39.65625 C 23.292969 39.316406 22.707031 39.085938 22.707031 39.316406 Z M 22.707031 39.316406 " fill-opacity="1" fill-rule="nonzero"/><path fill="#000000" d="M 9.6875 39.761719 C 9.6875 40.054688 9.714844 40.179688 9.761719 40.023438 C 9.792969 39.886719 9.792969 39.640625 9.761719 39.488281 C 9.714844 39.347656 9.6875 39.472656 9.6875 39.761719 Z M 9.6875 39.761719 " fill-opacity="1" fill-rule="nonzero"/><path fill="#000000" d="M 23.230469 41.683594 C 23.078125 42.066406 23.230469 42.988281 23.675781 44.292969 C 23.8125 44.707031 23.96875 45.261719 23.996094 45.523438 C 24.042969 45.769531 24.136719 46.183594 24.226562 46.445312 C 24.628906 47.566406 24.226562 45.414062 23.769531 43.988281 C 23.492188 43.097656 23.320312 42.28125 23.351562 41.976562 C 23.414062 41.421875 23.367188 41.316406 23.230469 41.683594 Z M 23.230469 41.683594 " fill-opacity="1" fill-rule="nonzero"/><path fill="#000000" d="M 25.257812 43.863281 C 25.332031 45.121094 25.378906 46.859375 25.378906 47.734375 C 25.378906 48.871094 25.410156 49.222656 25.519531 48.960938 C 25.59375 48.746094 25.609375 47.578125 25.535156 46.058594 C 25.472656 44.664062 25.410156 43.097656 25.410156 42.558594 C 25.394531 42.035156 25.332031 41.605469 25.257812 41.605469 C 25.179688 41.605469 25.179688 42.589844 25.257812 43.863281 Z M 25.257812 43.863281 " fill-opacity="1" fill-rule="nonzero"/><path fill="#000000" d="M 15.152344 44.617188 C 15.277344 47.394531 14.816406 49.714844 14 50.421875 C 13.539062 50.820312 13.449219 51.542969 13.695312 52.707031 C 13.785156 53.167969 13.769531 53.277344 13.632812 53.183594 C 13.507812 53.125 13.480469 53.140625 13.554688 53.261719 C 13.617188 53.355469 13.738281 53.382812 13.832031 53.339844 C 13.953125 53.261719 13.96875 53.324219 13.894531 53.523438 C 13.832031 53.675781 13.832031 53.753906 13.878906 53.707031 C 13.941406 53.644531 14.199219 53.84375 14.460938 54.136719 C 14.875 54.613281 14.921875 54.78125 14.921875 55.625 L 14.921875 56.578125 L 14.984375 55.6875 C 15.03125 55.074219 15.105469 54.8125 15.230469 54.859375 C 15.335938 54.90625 15.398438 54.996094 15.382812 55.089844 C 15.367188 55.164062 15.492188 55.210938 15.660156 55.164062 C 15.953125 55.089844 15.9375 55.058594 15.535156 54.8125 C 14.722656 54.304688 14.277344 53.769531 14.046875 52.953125 C 13.785156 52.125 13.710938 50.667969 13.925781 50.667969 C 14.199219 50.652344 14.753906 50.023438 14.816406 49.636719 C 14.859375 49.40625 14.953125 48.960938 15.046875 48.671875 C 15.277344 47.855469 15.382812 44.707031 15.214844 43.757812 C 15.089844 43.066406 15.074219 43.21875 15.152344 44.617188 Z M 15.152344 44.617188 " fill-opacity="1" fill-rule="nonzero"/><path fill="#000000" d="M 10.914062 44.675781 C 10.914062 44.890625 10.945312 44.96875 10.992188 44.863281 C 11.023438 44.769531 11.023438 44.585938 10.992188 44.476562 C 10.945312 44.386719 10.914062 44.460938 10.914062 44.675781 Z M 10.914062 44.675781 " fill-opacity="1" fill-rule="nonzero"/><path fill="#000000" d="M 8.75 44.921875 C 8.75 45.09375 8.796875 45.136719 8.839844 45.015625 C 8.886719 44.90625 8.871094 44.769531 8.824219 44.722656 C 8.78125 44.664062 8.734375 44.753906 8.75 44.921875 Z M 8.75 44.921875 " fill-opacity="1" fill-rule="nonzero"/><path fill="#000000" d="M 18.4375 45.136719 C 18.4375 45.351562 18.46875 45.429688 18.515625 45.324219 C 18.546875 45.230469 18.546875 45.046875 18.515625 44.9375 C 18.46875 44.847656 18.4375 44.921875 18.4375 45.136719 Z M 18.4375 45.136719 " fill-opacity="1" fill-rule="nonzero"/><path fill="#000000" d="M 18.761719 45.246094 C 18.714844 45.398438 18.636719 45.582031 18.609375 45.675781 C 18.5625 45.753906 18.652344 45.691406 18.777344 45.539062 C 19.023438 45.230469 19.097656 44.984375 18.945312 44.984375 C 18.898438 44.984375 18.824219 45.109375 18.761719 45.246094 Z M 18.761719 45.246094 " fill-opacity="1" fill-rule="nonzero"/><path fill="#000000" d="M 11.050781 45.308594 C 11.050781 45.445312 11.207031 46.472656 11.40625 47.609375 C 11.621094 48.746094 11.820312 49.835938 11.851562 50.050781 C 11.898438 50.265625 11.898438 50.023438 11.851562 49.515625 C 11.789062 48.5625 11.082031 44.863281 11.050781 45.308594 Z M 11.050781 45.308594 " fill-opacity="1" fill-rule="nonzero"/><path fill="#000000" d="M 8.902344 45.566406 C 8.886719 45.890625 9.609375 47.980469 10.023438 48.792969 C 10.222656 49.191406 10.546875 49.683594 10.730469 49.898438 L 11.066406 50.28125 L 10.746094 49.792969 C 10.285156 49.117188 9.671875 47.734375 9.253906 46.445312 C 9.070312 45.84375 8.902344 45.460938 8.902344 45.566406 Z M 8.902344 45.566406 " fill-opacity="1" fill-rule="nonzero"/><path fill="#000000" d="M 7.964844 46.058594 C 7.949219 46.75 10.160156 50.511719 10.578125 50.511719 C 10.636719 50.511719 10.5 50.296875 10.253906 50.035156 C 9.714844 49.46875 8.980469 48.195312 8.410156 46.84375 C 8.164062 46.289062 7.964844 45.9375 7.964844 46.058594 Z M 7.964844 46.058594 " fill-opacity="1" fill-rule="nonzero"/><path fill="#000000" d="M 36.066406 48.269531 C 36.066406 48.410156 36.144531 48.484375 36.222656 48.441406 C 36.3125 48.394531 36.375 48.441406 36.375 48.578125 C 36.375 48.699219 36.453125 48.824219 36.558594 48.855469 C 36.667969 48.902344 36.742188 49.175781 36.726562 49.53125 C 36.714844 50.050781 36.726562 50.082031 36.867188 49.761719 C 37.019531 49.316406 36.804688 48.6875 36.359375 48.269531 C 36.082031 48.023438 36.066406 48.023438 36.066406 48.269531 Z M 36.066406 48.269531 " fill-opacity="1" fill-rule="nonzero"/><path fill="#000000" d="M 28.988281 49.300781 L 28.621094 49.605469 L 29.050781 49.347656 C 29.28125 49.207031 29.464844 49.070312 29.464844 49.039062 C 29.464844 48.914062 29.34375 48.976562 28.988281 49.300781 Z M 28.988281 49.300781 " fill-opacity="1" fill-rule="nonzero"/><path fill="#000000" d="M 29.082031 49.589844 C 29.035156 49.683594 29.097656 49.699219 29.21875 49.652344 C 29.496094 49.546875 29.542969 49.4375 29.328125 49.4375 C 29.234375 49.4375 29.128906 49.5 29.082031 49.589844 Z M 29.082031 49.589844 " fill-opacity="1" fill-rule="nonzero"/><path fill="#000000" d="M 20.804688 50.542969 C 20.40625 51.972656 19.390625 53.9375 18.609375 54.8125 C 18.222656 55.242188 18.023438 55.550781 18.148438 55.488281 C 18.5 55.367188 19.285156 54.304688 19.945312 53.09375 C 20.511719 52.019531 21.28125 49.804688 21.140625 49.652344 C 21.09375 49.621094 20.941406 50.023438 20.804688 50.542969 Z M 20.804688 50.542969 " fill-opacity="1" fill-rule="nonzero"/><path fill="#000000" d="M 15.675781 50.128906 C 15.675781 50.375 15.707031 50.46875 15.75 50.3125 C 15.78125 50.175781 15.78125 49.960938 15.75 49.851562 C 15.707031 49.761719 15.675781 49.867188 15.675781 50.128906 Z M 15.675781 50.128906 " fill-opacity="1" fill-rule="nonzero"/><path fill="#000000" d="M 17.65625 51.527344 C 17.457031 52.371094 17.132812 53.554688 16.933594 54.183594 C 16.75 54.796875 16.640625 55.257812 16.703125 55.179688 C 16.964844 54.890625 18.164062 50.480469 18.070312 50.175781 C 18.039062 50.097656 17.855469 50.695312 17.65625 51.527344 Z M 17.65625 51.527344 " fill-opacity="1" fill-rule="nonzero"/><path fill="#000000" d="M 14.613281 51.050781 C 14.613281 51.464844 14.644531 51.632812 14.675781 51.386719 C 14.707031 51.15625 14.707031 50.820312 14.675781 50.621094 C 14.644531 50.4375 14.613281 50.621094 14.613281 51.050781 Z M 14.613281 51.050781 " fill-opacity="1" fill-rule="nonzero"/><path fill="#000000" d="M 22.339844 51.511719 C 21.816406 52.878906 20.636719 54.734375 19.851562 55.425781 C 19.285156 55.917969 19.253906 55.917969 18.117188 55.839844 C 17.316406 55.78125 17.042969 55.8125 17.210938 55.902344 C 17.53125 56.085938 19.882812 56.027344 19.820312 55.839844 C 19.789062 55.78125 20.097656 55.367188 20.480469 54.9375 C 21.480469 53.828125 22.984375 50.957031 22.832031 50.480469 C 22.800781 50.40625 22.585938 50.867188 22.339844 51.511719 Z M 22.339844 51.511719 " fill-opacity="1" fill-rule="nonzero"/><path fill="#000000" d="M 34.917969 50.695312 C 34.5625 50.882812 33.609375 51.847656 33.703125 51.941406 C 33.734375 51.972656 33.273438 52.648438 32.660156 53.445312 C 31.890625 54.476562 31.738281 54.734375 32.136719 54.351562 C 32.460938 54.058594 33.121094 53.183594 33.625 52.417969 C 34.226562 51.496094 34.703125 50.941406 35.039062 50.773438 C 35.300781 50.652344 35.46875 50.527344 35.378906 50.527344 C 35.300781 50.527344 35.085938 50.605469 34.917969 50.695312 Z M 34.917969 50.695312 " fill-opacity="1" fill-rule="nonzero"/><path fill="#000000" d="M 15.503906 51.832031 C 15.519531 52.492188 15.582031 53.246094 15.644531 53.507812 C 15.707031 53.753906 15.722656 53.246094 15.675781 52.355469 C 15.582031 50.4375 15.492188 50.113281 15.503906 51.832031 Z M 15.503906 51.832031 " fill-opacity="1" fill-rule="nonzero"/><path fill="#000000" d="M 13.050781 51.617188 C 13.050781 51.832031 13.003906 52.109375 12.988281 52.234375 C 12.957031 52.339844 12.957031 52.371094 13.003906 52.292969 C 13.050781 52.21875 13.171875 52.355469 13.277344 52.601562 C 13.464844 52.96875 13.480469 52.984375 13.386719 52.664062 C 13.339844 52.449219 13.234375 52.035156 13.171875 51.742188 C 13.078125 51.28125 13.0625 51.265625 13.050781 51.617188 Z M 13.050781 51.617188 " fill-opacity="1" fill-rule="nonzero"/><path fill="#000000" d="M 14.753906 52.355469 C 14.753906 52.648438 14.785156 52.769531 14.832031 52.617188 C 14.859375 52.480469 14.859375 52.234375 14.832031 52.078125 C 14.785156 51.941406 14.753906 52.0625 14.753906 52.355469 Z M 14.753906 52.355469 " fill-opacity="1" fill-rule="nonzero"/><path fill="#000000" d="M 34.886719 53.308594 C 33.625 54.503906 33.179688 54.890625 31.675781 56.148438 C 30.203125 57.378906 30.234375 57.332031 30.96875 56.949219 C 31.324219 56.746094 32.488281 55.796875 33.550781 54.828125 C 34.609375 53.84375 35.714844 52.863281 36.007812 52.632812 C 36.296875 52.417969 36.46875 52.1875 36.390625 52.125 C 36.296875 52.078125 35.621094 52.601562 34.886719 53.308594 Z M 34.886719 53.308594 " fill-opacity="1" fill-rule="nonzero"/><path fill="#000000" d="M 14.9375 53.308594 C 15.074219 53.875 15.320312 54.503906 15.398438 54.503906 C 15.476562 54.503906 15.03125 53.09375 14.90625 52.96875 C 14.859375 52.925781 14.875 53.078125 14.9375 53.308594 Z M 14.9375 53.308594 " fill-opacity="1" fill-rule="nonzero"/><path fill="#000000" d="M 15.8125 54.199219 C 15.8125 54.320312 15.875 54.535156 15.953125 54.660156 C 16.136719 54.9375 16.136719 54.691406 15.953125 54.273438 C 15.859375 54.074219 15.8125 54.046875 15.8125 54.199219 Z M 15.8125 54.199219 " fill-opacity="1" fill-rule="nonzero"/><path fill="#000000" d="M 24.472656 55.121094 C 23.96875 55.273438 23.308594 55.410156 23.015625 55.441406 C 22.617188 55.457031 22.570312 55.488281 22.847656 55.535156 C 23.230469 55.609375 25.105469 55.195312 25.472656 54.964844 C 25.792969 54.765625 25.550781 54.796875 24.472656 55.121094 Z M 24.472656 55.121094 " fill-opacity="1" fill-rule="nonzero"/><path fill="#000000" d="M 16.042969 55.257812 C 15.980469 55.351562 15.707031 56.394531 15.414062 57.578125 C 15.121094 58.757812 14.628906 60.570312 14.339844 61.585938 C 14.046875 62.613281 13.832031 63.488281 13.863281 63.519531 C 13.910156 63.566406 14.15625 62.875 14.414062 62 C 14.691406 61.140625 14.984375 60.203125 15.074219 59.957031 C 15.277344 59.464844 15.277344 59.402344 15.304688 58.757812 C 15.320312 58.511719 15.398438 58.375 15.492188 58.421875 C 15.566406 58.46875 15.597656 58.421875 15.550781 58.285156 C 15.476562 58.066406 15.996094 55.949219 16.179688 55.765625 C 16.226562 55.71875 16.320312 55.75 16.410156 55.828125 C 16.488281 55.902344 16.457031 56.378906 16.320312 57.039062 C 14.753906 64.65625 14.339844 66.945312 14.554688 66.945312 C 14.628906 66.945312 14.722656 66.484375 14.785156 65.929688 C 14.84375 65.363281 15.03125 64.304688 15.199219 63.582031 C 15.367188 62.859375 15.8125 60.785156 16.167969 58.988281 L 16.8125 55.734375 L 16.472656 55.410156 C 16.257812 55.210938 16.105469 55.152344 16.042969 55.257812 Z M 16.042969 55.257812 " fill-opacity="1" fill-rule="nonzero"/><path fill="#000000" d="M 21.019531 55.65625 C 20.804688 55.78125 20.511719 55.871094 20.34375 55.886719 C 20.128906 55.886719 20.191406 56.011719 20.648438 56.488281 C 20.988281 56.824219 21.28125 57.054688 21.3125 57.023438 C 21.355469 56.992188 21.1875 56.746094 20.941406 56.5 C 20.542969 56.070312 20.574219 55.949219 21.066406 56.027344 C 21.125 56.027344 21.171875 55.964844 21.171875 55.886719 C 21.171875 55.796875 21.464844 55.734375 21.816406 55.734375 C 22.523438 55.734375 22.554688 55.671875 21.863281 55.535156 C 21.601562 55.488281 21.234375 55.535156 21.019531 55.65625 Z M 21.019531 55.65625 " fill-opacity="1" fill-rule="nonzero"/><path fill="#000000" d="M 19.558594 56.347656 C 19.515625 56.441406 19.574219 56.457031 19.699219 56.410156 C 19.972656 56.300781 20.019531 56.195312 19.804688 56.195312 C 19.714844 56.195312 19.605469 56.257812 19.558594 56.347656 Z M 19.558594 56.347656 " fill-opacity="1" fill-rule="nonzero"/><path fill="#000000" d="M 25.902344 56.609375 C 26.007812 56.65625 26.148438 56.640625 26.195312 56.59375 C 26.253906 56.546875 26.164062 56.5 25.996094 56.515625 C 25.824219 56.515625 25.777344 56.5625 25.902344 56.609375 Z M 25.902344 56.609375 " fill-opacity="1" fill-rule="nonzero"/><path fill="#000000" d="M 25.132812 56.761719 C 25.226562 56.792969 25.410156 56.792969 25.519531 56.761719 C 25.609375 56.71875 25.535156 56.6875 25.320312 56.6875 C 25.105469 56.6875 25.027344 56.71875 25.132812 56.761719 Z M 25.132812 56.761719 " fill-opacity="1" fill-rule="nonzero"/><path fill="#000000" d="M 24.136719 56.917969 C 24.273438 56.949219 24.519531 56.949219 24.671875 56.917969 C 24.8125 56.871094 24.6875 56.839844 24.398438 56.839844 C 24.105469 56.839844 23.984375 56.871094 24.136719 56.917969 Z M 24.136719 56.917969 " fill-opacity="1" fill-rule="nonzero"/><path fill="#000000" d="M 22.601562 57.070312 C 22.832031 57.101562 23.199219 57.101562 23.445312 57.070312 C 23.675781 57.039062 23.476562 57.007812 23.015625 57.007812 C 22.554688 57.007812 22.355469 57.039062 22.601562 57.070312 Z M 22.601562 57.070312 " fill-opacity="1" fill-rule="nonzero"/><path fill="#000000" d="M 14.753906 57.730469 C 14.753906 57.945312 14.785156 58.023438 14.832031 57.914062 C 14.859375 57.824219 14.859375 57.636719 14.832031 57.53125 C 14.785156 57.4375 14.753906 57.515625 14.753906 57.730469 Z M 14.753906 57.730469 " fill-opacity="1" fill-rule="nonzero"/><path fill="#000000" d="M 14.738281 58.898438 C 14.738281 59.066406 14.785156 59.113281 14.832031 58.988281 C 14.875 58.882812 14.859375 58.742188 14.816406 58.699219 C 14.769531 58.636719 14.722656 58.730469 14.738281 58.898438 Z M 14.738281 58.898438 " fill-opacity="1" fill-rule="nonzero"/><path fill="#000000" d="M 11.082031 68.328125 C 11.082031 68.710938 11.113281 68.863281 11.144531 68.664062 C 11.175781 68.480469 11.175781 68.171875 11.144531 67.972656 C 11.113281 67.789062 11.082031 67.941406 11.082031 68.328125 Z M 11.082031 68.328125 " fill-opacity="1" fill-rule="nonzero"/><path fill="#000000" d="M 11.066406 69.554688 C 11.066406 69.847656 11.097656 69.96875 11.144531 69.816406 C 11.175781 69.675781 11.175781 69.433594 11.144531 69.277344 C 11.097656 69.140625 11.066406 69.261719 11.066406 69.554688 Z M 11.066406 69.554688 " fill-opacity="1" fill-rule="nonzero"/><g fill="#000000" fill-opacity="1"><g transform="translate(4.108928, 17.998887)"><g><path d="M 7.5625 0.296875 C 5.46875 0.296875 3.832031 -0.320312 2.65625 -1.5625 C 1.476562 -2.8125 0.890625 -4.582031 0.890625 -6.875 C 0.890625 -8.375 1.144531 -9.660156 1.65625 -10.734375 C 2.175781 -11.816406 2.898438 -12.632812 3.828125 -13.1875 C 4.765625 -13.75 5.847656 -14.03125 7.078125 -14.03125 C 7.828125 -14.03125 8.582031 -13.816406 9.34375 -13.390625 C 9.625 -13.234375 9.910156 -13.019531 10.203125 -12.75 C 10.421875 -13.09375 10.648438 -13.363281 10.890625 -13.5625 C 11.128906 -13.726562 11.257812 -13.816406 11.28125 -13.828125 L 11.78125 -13.828125 L 11.78125 -10.109375 L 10.984375 -10.109375 C 10.816406 -10.734375 10.5625 -11.300781 10.21875 -11.8125 C 9.90625 -12.3125 9.515625 -12.722656 9.046875 -13.046875 C 8.585938 -13.378906 8.054688 -13.546875 7.453125 -13.546875 C 6.554688 -13.546875 5.804688 -13.019531 5.203125 -11.96875 C 4.609375 -10.925781 4.3125 -9.226562 4.3125 -6.875 C 4.3125 -4.476562 4.632812 -2.765625 5.28125 -1.734375 C 5.9375 -0.710938 6.828125 -0.203125 7.953125 -0.203125 C 8.566406 -0.203125 9.148438 -0.375 9.703125 -0.71875 C 10.253906 -1.0625 10.703125 -1.519531 11.046875 -2.09375 C 11.398438 -2.675781 11.578125 -3.285156 11.578125 -3.921875 L 12.0625 -3.921875 C 12.0625 -3.179688 11.863281 -2.484375 11.46875 -1.828125 C 11.070312 -1.179688 10.53125 -0.664062 9.84375 -0.28125 C 9.15625 0.101562 8.394531 0.296875 7.5625 0.296875 Z M 7.5625 0.296875 "/></g></g></g><g fill="#000000" fill-opacity="1"><g transform="translate(21.858278, 17.998887)"><g><path d="M 7.265625 0.296875 C 5.984375 0.296875 4.859375 0.0195312 3.890625 -0.53125 C 2.929688 -1.09375 2.191406 -1.910156 1.671875 -2.984375 C 1.148438 -4.054688 0.890625 -5.351562 0.890625 -6.875 C 0.890625 -8.382812 1.148438 -9.675781 1.671875 -10.75 C 2.191406 -11.820312 2.929688 -12.632812 3.890625 -13.1875 C 4.859375 -13.75 5.984375 -14.03125 7.265625 -14.03125 C 8.546875 -14.03125 9.664062 -13.75 10.625 -13.1875 C 11.582031 -12.632812 12.320312 -11.820312 12.84375 -10.75 C 13.375 -9.675781 13.640625 -8.382812 13.640625 -6.875 C 13.640625 -5.351562 13.375 -4.054688 12.84375 -2.984375 C 12.320312 -1.910156 11.582031 -1.09375 10.625 -0.53125 C 9.664062 0.0195312 8.546875 0.296875 7.265625 0.296875 Z M 7.265625 -0.09375 C 7.773438 -0.09375 8.25 -0.304688 8.6875 -0.734375 C 9.125 -1.171875 9.484375 -1.894531 9.765625 -2.90625 C 10.054688 -3.914062 10.203125 -5.238281 10.203125 -6.875 C 10.203125 -8.507812 10.054688 -9.828125 9.765625 -10.828125 C 9.484375 -11.835938 9.125 -12.554688 8.6875 -12.984375 C 8.25 -13.421875 7.773438 -13.640625 7.265625 -13.640625 C 6.753906 -13.640625 6.28125 -13.421875 5.84375 -12.984375 C 5.40625 -12.554688 5.039062 -11.835938 4.75 -10.828125 C 4.457031 -9.828125 4.3125 -8.507812 4.3125 -6.875 C 4.3125 -5.238281 4.457031 -3.914062 4.75 -2.90625 C 5.039062 -1.894531 5.40625 -1.171875 5.84375 -0.734375 C 6.28125 -0.304688 6.753906 -0.09375 7.265625 -0.09375 Z M 7.265625 -0.09375 "/></g></g></g><g fill="#000000" fill-opacity="1"><g transform="translate(41.372489, 17.998887)"><g><path d="M 2.75 -10.40625 L 2.75 -0.890625 L 4.3125 -0.296875 L 4.3125 0 L 0.59375 0 L 0.59375 -0.296875 L 2.15625 -0.890625 L 2.15625 -13.046875 L 0.78125 -13.4375 L 0.78125 -13.734375 L 2.84375 -13.734375 C 3.539062 -13.734375 4.082031 -13.609375 4.46875 -13.359375 C 4.863281 -13.109375 5.238281 -12.773438 5.59375 -12.359375 L 11.875 -5 L 11.875 -12.859375 L 10.296875 -13.4375 L 10.296875 -13.734375 L 14.03125 -13.734375 L 14.03125 -13.4375 L 12.46875 -12.859375 L 12.46875 0.296875 L 11.875 0.296875 Z M 2.75 -10.40625 "/></g></g></g><g fill="#000000" fill-opacity="1"><g transform="translate(60.886699, 17.998887)"><g><path d="M 0.984375 -0.296875 L 2.15625 -0.59375 L 2.15625 -13.15625 L 0.984375 -13.4375 L 0.984375 -13.734375 L 11.484375 -13.734375 L 11.484375 -10.203125 L 10.890625 -10.203125 C 10.640625 -10.398438 10.425781 -10.648438 10.25 -10.953125 C 9.820312 -11.660156 9.609375 -12.425781 9.609375 -13.25 L 5.390625 -13.25 L 5.390625 -7.0625 L 7.65625 -7.0625 C 7.75 -7.5625 7.914062 -8.023438 8.15625 -8.453125 C 8.269531 -8.648438 8.394531 -8.84375 8.53125 -9.03125 L 9.125 -9.03125 L 9.125 -4.609375 L 8.53125 -4.609375 C 8.394531 -4.796875 8.269531 -4.988281 8.15625 -5.1875 C 7.914062 -5.613281 7.75 -6.078125 7.65625 -6.578125 L 5.390625 -6.578125 L 5.390625 -0.59375 L 6.578125 -0.296875 L 6.578125 0 L 0.984375 0 Z M 0.984375 -0.296875 "/></g></g></g><g fill="#000000" fill-opacity="1"><g transform="translate(77.85167, 17.998887)"><g><path d="M 0.984375 -0.296875 L 2.15625 -0.59375 L 2.15625 -13.15625 L 0.984375 -13.4375 L 0.984375 -13.734375 L 11.484375 -13.734375 L 11.484375 -10.203125 L 10.890625 -10.203125 C 10.640625 -10.398438 10.425781 -10.648438 10.25 -10.953125 C 9.820312 -11.660156 9.609375 -12.425781 9.609375 -13.25 L 5.390625 -13.25 L 5.390625 -7.0625 L 7.65625 -7.0625 C 7.75 -7.5625 7.914062 -8.023438 8.15625 -8.453125 C 8.269531 -8.648438 8.394531 -8.84375 8.53125 -9.03125 L 9.125 -9.03125 L 9.125 -4.609375 L 8.53125 -4.609375 C 8.394531 -4.796875 8.269531 -4.988281 8.15625 -5.1875 C 7.914062 -5.613281 7.75 -6.078125 7.65625 -6.578125 L 5.390625 -6.578125 L 5.390625 -0.484375 L 10.015625 -0.484375 C 10.015625 -1.316406 10.222656 -2.082031 10.640625 -2.78125 C 10.816406 -3.082031 11.03125 -3.332031 11.28125 -3.53125 L 11.875 -3.53125 L 11.875 0 L 0.984375 0 Z M 0.984375 -0.296875 "/></g></g></g><g fill="#000000" fill-opacity="1"><g transform="translate(95.502976, 17.998887)"><g><path d="M 5.796875 0.296875 C 4.859375 0.296875 3.984375 0.0859375 3.171875 -0.328125 C 2.804688 -0.515625 2.5 -0.734375 2.25 -0.984375 C 2.070312 -0.679688 1.84375 -0.410156 1.5625 -0.171875 C 1.332031 -0.00390625 1.203125 0.0820312 1.171875 0.09375 L 0.6875 0.09375 L 0.6875 -3.625 L 1.46875 -3.625 C 1.664062 -2.988281 1.941406 -2.414062 2.296875 -1.90625 C 3.097656 -0.769531 4.128906 -0.203125 5.390625 -0.203125 C 6.140625 -0.203125 6.734375 -0.421875 7.171875 -0.859375 C 7.617188 -1.304688 7.84375 -1.90625 7.84375 -2.65625 C 7.84375 -3.082031 7.710938 -3.460938 7.453125 -3.796875 C 7.203125 -4.140625 6.890625 -4.441406 6.515625 -4.703125 C 6.140625 -4.972656 5.609375 -5.300781 4.921875 -5.6875 C 4.054688 -6.175781 3.351562 -6.613281 2.8125 -7 C 2.28125 -7.394531 1.828125 -7.890625 1.453125 -8.484375 C 1.078125 -9.078125 0.890625 -9.78125 0.890625 -10.59375 C 0.890625 -11.238281 1.066406 -11.816406 1.421875 -12.328125 C 1.785156 -12.847656 2.328125 -13.257812 3.046875 -13.5625 C 3.765625 -13.875 4.644531 -14.03125 5.6875 -14.03125 C 6.445312 -14.03125 7.207031 -13.816406 7.96875 -13.390625 C 8.257812 -13.234375 8.546875 -13.019531 8.828125 -12.75 C 9.054688 -13.09375 9.285156 -13.363281 9.515625 -13.5625 C 9.753906 -13.726562 9.882812 -13.816406 9.90625 -13.828125 L 10.40625 -13.828125 L 10.40625 -10.109375 L 9.609375 -10.109375 C 9.441406 -10.734375 9.1875 -11.300781 8.84375 -11.8125 C 8.53125 -12.3125 8.140625 -12.722656 7.671875 -13.046875 C 7.210938 -13.378906 6.679688 -13.546875 6.078125 -13.546875 C 5.566406 -13.546875 5.128906 -13.34375 4.765625 -12.9375 C 4.398438 -12.53125 4.21875 -12.007812 4.21875 -11.375 C 4.21875 -10.894531 4.359375 -10.460938 4.640625 -10.078125 C 4.921875 -9.691406 5.265625 -9.351562 5.671875 -9.0625 C 6.085938 -8.78125 6.648438 -8.4375 7.359375 -8.03125 C 8.179688 -7.550781 8.847656 -7.128906 9.359375 -6.765625 C 9.867188 -6.398438 10.300781 -5.945312 10.65625 -5.40625 C 11.007812 -4.863281 11.1875 -4.238281 11.1875 -3.53125 C 11.1875 -2.820312 10.984375 -2.175781 10.578125 -1.59375 C 10.171875 -1.007812 9.5625 -0.546875 8.75 -0.203125 C 7.9375 0.128906 6.953125 0.296875 5.796875 0.296875 Z M 5.796875 0.296875 "/></g></g></g><g fill="#000000" fill-opacity="1"><g transform="translate(112.173808, 17.998887)"><g><path d="M 5.796875 0.296875 C 4.859375 0.296875 3.984375 0.0859375 3.171875 -0.328125 C 2.804688 -0.515625 2.5 -0.734375 2.25 -0.984375 C 2.070312 -0.679688 1.84375 -0.410156 1.5625 -0.171875 C 1.332031 -0.00390625 1.203125 0.0820312 1.171875 0.09375 L 0.6875 0.09375 L 0.6875 -3.625 L 1.46875 -3.625 C 1.664062 -2.988281 1.941406 -2.414062 2.296875 -1.90625 C 3.097656 -0.769531 4.128906 -0.203125 5.390625 -0.203125 C 6.140625 -0.203125 6.734375 -0.421875 7.171875 -0.859375 C 7.617188 -1.304688 7.84375 -1.90625 7.84375 -2.65625 C 7.84375 -3.082031 7.710938 -3.460938 7.453125 -3.796875 C 7.203125 -4.140625 6.890625 -4.441406 6.515625 -4.703125 C 6.140625 -4.972656 5.609375 -5.300781 4.921875 -5.6875 C 4.054688 -6.175781 3.351562 -6.613281 2.8125 -7 C 2.28125 -7.394531 1.828125 -7.890625 1.453125 -8.484375 C 1.078125 -9.078125 0.890625 -9.78125 0.890625 -10.59375 C 0.890625 -11.238281 1.066406 -11.816406 1.421875 -12.328125 C 1.785156 -12.847656 2.328125 -13.257812 3.046875 -13.5625 C 3.765625 -13.875 4.644531 -14.03125 5.6875 -14.03125 C 6.445312 -14.03125 7.207031 -13.816406 7.96875 -13.390625 C 8.257812 -13.234375 8.546875 -13.019531 8.828125 -12.75 C 9.054688 -13.09375 9.285156 -13.363281 9.515625 -13.5625 C 9.753906 -13.726562 9.882812 -13.816406 9.90625 -13.828125 L 10.40625 -13.828125 L 10.40625 -10.109375 L 9.609375 -10.109375 C 9.441406 -10.734375 9.1875 -11.300781 8.84375 -11.8125 C 8.53125 -12.3125 8.140625 -12.722656 7.671875 -13.046875 C 7.210938 -13.378906 6.679688 -13.546875 6.078125 -13.546875 C 5.566406 -13.546875 5.128906 -13.34375 4.765625 -12.9375 C 4.398438 -12.53125 4.21875 -12.007812 4.21875 -11.375 C 4.21875 -10.894531 4.359375 -10.460938 4.640625 -10.078125 C 4.921875 -9.691406 5.265625 -9.351562 5.671875 -9.0625 C 6.085938 -8.78125 6.648438 -8.4375 7.359375 -8.03125 C 8.179688 -7.550781 8.847656 -7.128906 9.359375 -6.765625 C 9.867188 -6.398438 10.300781 -5.945312 10.65625 -5.40625 C 11.007812 -4.863281 11.1875 -4.238281 11.1875 -3.53125 C 11.1875 -2.820312 10.984375 -2.175781 10.578125 -1.59375 C 10.171875 -1.007812 9.5625 -0.546875 8.75 -0.203125 C 7.9375 0.128906 6.953125 0.296875 5.796875 0.296875 Z M 5.796875 0.296875 "/></g></g></g><g fill="#000000" fill-opacity="1"><g transform="translate(128.844641, 17.998887)"><g><path d="M 0.984375 0 L 0.984375 -0.296875 L 2.15625 -0.59375 L 2.15625 -13.15625 L 0.984375 -13.4375 L 0.984375 -13.734375 L 6.578125 -13.734375 L 6.578125 -13.4375 L 5.390625 -13.15625 L 5.390625 -0.59375 L 6.578125 -0.296875 L 6.578125 0 Z M 0.984375 0 "/></g></g></g><g fill="#000000" fill-opacity="1"><g transform="translate(141.397481, 17.998887)"><g><path d="M 7.265625 0.296875 C 5.984375 0.296875 4.859375 0.0195312 3.890625 -0.53125 C 2.929688 -1.09375 2.191406 -1.910156 1.671875 -2.984375 C 1.148438 -4.054688 0.890625 -5.351562 0.890625 -6.875 C 0.890625 -8.382812 1.148438 -9.675781 1.671875 -10.75 C 2.191406 -11.820312 2.929688 -12.632812 3.890625 -13.1875 C 4.859375 -13.75 5.984375 -14.03125 7.265625 -14.03125 C 8.546875 -14.03125 9.664062 -13.75 10.625 -13.1875 C 11.582031 -12.632812 12.320312 -11.820312 12.84375 -10.75 C 13.375 -9.675781 13.640625 -8.382812 13.640625 -6.875 C 13.640625 -5.351562 13.375 -4.054688 12.84375 -2.984375 C 12.320312 -1.910156 11.582031 -1.09375 10.625 -0.53125 C 9.664062 0.0195312 8.546875 0.296875 7.265625 0.296875 Z M 7.265625 -0.09375 C 7.773438 -0.09375 8.25 -0.304688 8.6875 -0.734375 C 9.125 -1.171875 9.484375 -1.894531 9.765625 -2.90625 C 10.054688 -3.914062 10.203125 -5.238281 10.203125 -6.875 C 10.203125 -8.507812 10.054688 -9.828125 9.765625 -10.828125 C 9.484375 -11.835938 9.125 -12.554688 8.6875 -12.984375 C 8.25 -13.421875 7.773438 -13.640625 7.265625 -13.640625 C 6.753906 -13.640625 6.28125 -13.421875 5.84375 -12.984375 C 5.40625 -12.554688 5.039062 -11.835938 4.75 -10.828125 C 4.457031 -9.828125 4.3125 -8.507812 4.3125 -6.875 C 4.3125 -5.238281 4.457031 -3.914062 4.75 -2.90625 C 5.039062 -1.894531 5.40625 -1.171875 5.84375 -0.734375 C 6.28125 -0.304688 6.753906 -0.09375 7.265625 -0.09375 Z M 7.265625 -0.09375 "/></g></g></g><g fill="#000000" fill-opacity="1"><g transform="translate(160.911694, 17.998887)"><g><path d="M 2.75 -10.40625 L 2.75 -0.890625 L 4.3125 -0.296875 L 4.3125 0 L 0.59375 0 L 0.59375 -0.296875 L 2.15625 -0.890625 L 2.15625 -13.046875 L 0.78125 -13.4375 L 0.78125 -13.734375 L 2.84375 -13.734375 C 3.539062 -13.734375 4.082031 -13.609375 4.46875 -13.359375 C 4.863281 -13.109375 5.238281 -12.773438 5.59375 -12.359375 L 11.875 -5 L 11.875 -12.859375 L 10.296875 -13.4375 L 10.296875 -13.734375 L 14.03125 -13.734375 L 14.03125 -13.4375 L 12.46875 -12.859375 L 12.46875 0.296875 L 11.875 0.296875 Z M 2.75 -10.40625 "/></g></g></g><g fill="#000000" fill-opacity="1"><g transform="translate(180.425908, 17.998887)"><g><path d="M -0.390625 -0.296875 L 1.171875 -0.890625 L 6.578125 -13.9375 L 7.15625 -13.9375 L 12.75 -0.59375 L 13.734375 -0.296875 L 13.734375 0 L 11.375 0 C 10.695312 0 10.140625 -0.148438 9.703125 -0.453125 C 9.273438 -0.765625 8.957031 -1.171875 8.75 -1.671875 L 7.75 -4.015625 L 3.0625 -4.015625 L 1.765625 -0.890625 L 3.234375 -0.296875 L 3.234375 0 L -0.390625 0 Z M 3.25 -4.515625 L 7.5625 -4.515625 L 5.390625 -9.671875 Z M 3.25 -4.515625 "/></g></g></g><g fill="#000000" fill-opacity="1"><g transform="translate(198.763547, 17.998887)"><g><path d="M 0.984375 -0.296875 L 2.15625 -0.59375 L 2.15625 -13.15625 L 0.984375 -13.4375 L 0.984375 -13.734375 L 6.578125 -13.734375 L 6.578125 -13.4375 L 5.390625 -13.15625 L 5.390625 -0.484375 L 9.609375 -0.484375 C 9.609375 -1.316406 9.820312 -2.082031 10.25 -2.78125 C 10.425781 -3.082031 10.640625 -3.332031 10.890625 -3.53125 L 11.484375 -3.53125 L 11.484375 0 L 0.984375 0 Z M 0.984375 -0.296875 "/></g></g></g><g fill="#000000" fill-opacity="1"><g transform="translate(226.222358, 17.998887)"><g><path d="M 4.90625 0.296875 C 4 0.296875 3.226562 0.171875 2.59375 -0.078125 C 1.96875 -0.328125 1.492188 -0.644531 1.171875 -1.03125 C 0.847656 -1.425781 0.6875 -1.832031 0.6875 -2.25 C 0.6875 -2.695312 0.816406 -3.054688 1.078125 -3.328125 C 1.347656 -3.597656 1.707031 -3.734375 2.15625 -3.734375 C 2.257812 -3.734375 2.363281 -3.722656 2.46875 -3.703125 C 2.570312 -3.679688 2.644531 -3.671875 2.6875 -3.671875 L 2.9375 -3.625 L 2.9375 -0.484375 C 2.957031 -0.484375 3.097656 -0.429688 3.359375 -0.328125 C 3.691406 -0.242188 4.078125 -0.203125 4.515625 -0.203125 C 5.296875 -0.203125 5.914062 -0.523438 6.375 -1.171875 C 6.832031 -1.816406 7.0625 -2.832031 7.0625 -4.21875 C 7.0625 -5.59375 6.828125 -6.585938 6.359375 -7.203125 C 5.890625 -7.828125 5.207031 -8.140625 4.3125 -8.140625 C 3.976562 -8.140625 3.660156 -8.082031 3.359375 -7.96875 C 3.054688 -7.851562 2.734375 -7.695312 2.390625 -7.5 C 2.117188 -7.320312 1.84375 -7.113281 1.5625 -6.875 L 1.171875 -7.15625 L 1.96875 -13.734375 L 7.75 -13.734375 C 7.84375 -14.441406 8.066406 -15.03125 8.421875 -15.5 C 8.566406 -15.726562 8.734375 -15.925781 8.921875 -16.09375 L 9.515625 -16.09375 L 9.515625 -12.265625 L 2.390625 -12.265625 L 1.859375 -7.75 C 2.046875 -7.882812 2.316406 -8.03125 2.671875 -8.1875 C 3.398438 -8.488281 4.078125 -8.640625 4.703125 -8.640625 C 6.617188 -8.640625 8.046875 -8.25 8.984375 -7.46875 C 9.929688 -6.6875 10.40625 -5.601562 10.40625 -4.21875 C 10.40625 -2.800781 9.9375 -1.691406 9 -0.890625 C 8.070312 -0.0976562 6.707031 0.296875 4.90625 0.296875 Z M 4.90625 0.296875 "/></g></g></g><g fill="#000000" fill-opacity="1"><g transform="translate(66.993464, 69.845698)"><g><path d="M 0.578125 0 L 0.578125 -0.171875 L 1.28125 -0.34375 L 1.28125 -7.8125 L 0.578125 -7.984375 L 0.578125 -8.15625 L 3.90625 -8.15625 L 3.90625 -7.984375 L 3.203125 -7.8125 L 3.203125 -0.34375 L 3.90625 -0.171875 L 3.90625 0 Z M 0.578125 0 "/></g></g></g><g fill="#000000" fill-opacity="1"><g transform="translate(73.135483, 69.845698)"><g><path d="M 3.78125 0.171875 C 3.195312 0.171875 2.65625 0.00390625 2.15625 -0.328125 C 1.65625 -0.660156 1.257812 -1.144531 0.96875 -1.78125 C 0.675781 -2.425781 0.53125 -3.191406 0.53125 -4.078125 C 0.53125 -4.972656 0.679688 -5.738281 0.984375 -6.375 C 1.296875 -7.019531 1.726562 -7.503906 2.28125 -7.828125 C 2.832031 -8.160156 3.472656 -8.328125 4.203125 -8.328125 C 4.648438 -8.328125 5.097656 -8.203125 5.546875 -7.953125 C 5.722656 -7.859375 5.894531 -7.734375 6.0625 -7.578125 C 6.195312 -7.773438 6.332031 -7.929688 6.46875 -8.046875 C 6.601562 -8.148438 6.679688 -8.207031 6.703125 -8.21875 L 7 -8.21875 L 7 -6 L 6.53125 -6 C 6.425781 -6.375 6.273438 -6.710938 6.078125 -7.015625 C 5.890625 -7.304688 5.65625 -7.550781 5.375 -7.75 C 5.101562 -7.945312 4.785156 -8.046875 4.421875 -8.046875 C 3.890625 -8.046875 3.445312 -7.734375 3.09375 -7.109375 C 2.738281 -6.484375 2.5625 -5.472656 2.5625 -4.078125 C 2.5625 -2.679688 2.71875 -1.691406 3.03125 -1.109375 C 3.351562 -0.523438 3.757812 -0.234375 4.25 -0.234375 C 4.539062 -0.234375 4.800781 -0.390625 5.03125 -0.703125 C 5.113281 -0.816406 5.203125 -0.972656 5.296875 -1.171875 L 5.296875 -3.84375 L 4.609375 -4.015625 L 4.609375 -4.203125 L 7.921875 -4.203125 L 7.921875 -4.015625 L 7.234375 -3.84375 L 7.234375 0.0625 L 7.046875 0.0625 C 6.484375 0.0625 6.054688 -0.09375 5.765625 -0.40625 C 5.628906 -0.550781 5.535156 -0.707031 5.484375 -0.875 C 5.367188 -0.675781 5.238281 -0.5 5.09375 -0.34375 C 4.738281 0 4.300781 0.171875 3.78125 0.171875 Z M 3.78125 0.171875 "/></g></g></g><g fill="#000000" fill-opacity="1"><g transform="translate(82.948308, 69.845698)"><g><path d="M 0.578125 -0.171875 L 1.28125 -0.34375 L 1.28125 -7.8125 L 0.578125 -7.984375 L 0.578125 -8.15625 L 3.671875 -8.15625 C 4.992188 -8.15625 5.945312 -7.953125 6.53125 -7.546875 C 7.113281 -7.148438 7.40625 -6.597656 7.40625 -5.890625 C 7.40625 -5.398438 7.273438 -5.003906 7.015625 -4.703125 C 6.753906 -4.410156 6.425781 -4.191406 6.03125 -4.046875 C 5.601562 -3.878906 5.144531 -3.789062 4.65625 -3.78125 L 4.65625 -3.734375 C 4.945312 -3.710938 5.203125 -3.671875 5.421875 -3.609375 C 5.960938 -3.429688 6.332031 -3.125 6.53125 -2.6875 L 7.578125 -0.34375 L 8.15625 -0.171875 L 8.15625 0 L 6.53125 0 C 5.894531 0 5.425781 -0.328125 5.125 -0.984375 L 3.96875 -3.609375 L 3.203125 -3.609375 L 3.203125 -0.34375 L 4.015625 -0.171875 L 4.015625 0 L 0.578125 0 Z M 3.671875 -3.90625 C 4.210938 -3.90625 4.640625 -4.078125 4.953125 -4.421875 C 5.265625 -4.765625 5.421875 -5.253906 5.421875 -5.890625 C 5.421875 -6.523438 5.265625 -7.015625 4.953125 -7.359375 C 4.640625 -7.703125 4.210938 -7.875 3.671875 -7.875 L 3.203125 -7.875 L 3.203125 -3.90625 Z M 3.671875 -3.90625 "/></g></g></g><g fill="#000000" fill-opacity="1"><g transform="translate(92.761134, 69.845698)"><g><path d="M 0.578125 -0.171875 L 1.28125 -0.34375 L 1.28125 -7.8125 L 0.578125 -7.984375 L 0.578125 -8.15625 L 6.8125 -8.15625 L 6.8125 -6.0625 L 6.46875 -6.0625 C 6.320312 -6.175781 6.191406 -6.320312 6.078125 -6.5 C 5.835938 -6.925781 5.71875 -7.382812 5.71875 -7.875 L 3.203125 -7.875 L 3.203125 -4.203125 L 4.546875 -4.203125 C 4.597656 -4.492188 4.695312 -4.769531 4.84375 -5.03125 C 4.90625 -5.144531 4.984375 -5.253906 5.078125 -5.359375 L 5.421875 -5.359375 L 5.421875 -2.734375 L 5.078125 -2.734375 C 4.984375 -2.847656 4.90625 -2.960938 4.84375 -3.078125 C 4.695312 -3.335938 4.597656 -3.613281 4.546875 -3.90625 L 3.203125 -3.90625 L 3.203125 -0.296875 L 5.9375 -0.296875 C 5.9375 -0.785156 6.0625 -1.238281 6.3125 -1.65625 C 6.425781 -1.832031 6.554688 -1.976562 6.703125 -2.09375 L 7.046875 -2.09375 L 7.046875 0 L 0.578125 0 Z M 0.578125 -0.171875 "/></g></g></g><g fill="#000000" fill-opacity="1"><g transform="translate(101.933023, 69.845698)"><g><path d="M 2.15625 0.171875 C 1.4375 0.171875 0.894531 0.046875 0.53125 -0.203125 C 0.175781 -0.453125 0 -0.753906 0 -1.109375 C 0 -1.367188 0.078125 -1.578125 0.234375 -1.734375 C 0.398438 -1.898438 0.613281 -1.984375 0.875 -1.984375 C 0.9375 -1.984375 1 -1.976562 1.0625 -1.96875 C 1.125 -1.957031 1.164062 -1.953125 1.1875 -1.953125 L 1.34375 -1.921875 L 1.34375 -0.171875 C 1.394531 -0.140625 1.445312 -0.117188 1.5 -0.109375 C 1.632812 -0.078125 1.773438 -0.0625 1.921875 -0.0625 C 2.859375 -0.0625 3.328125 -0.816406 3.328125 -2.328125 L 3.328125 -7.8125 L 2.625 -7.984375 L 2.625 -8.15625 L 5.9375 -8.15625 L 5.9375 -7.984375 L 5.25 -7.8125 L 5.25 -2.328125 C 5.25 -1.523438 4.992188 -0.90625 4.484375 -0.46875 C 3.984375 -0.0390625 3.207031 0.171875 2.15625 0.171875 Z M 2.15625 0.171875 "/></g></g></g><g fill="#000000" fill-opacity="1"><g transform="translate(109.997848, 69.845698)"><g><path d="M -0.234375 -0.171875 L 0.703125 -0.53125 L 3.90625 -8.28125 L 4.25 -8.28125 L 7.578125 -0.34375 L 8.15625 -0.171875 L 8.15625 0 L 6.765625 0 C 6.359375 0 6.023438 -0.0859375 5.765625 -0.265625 C 5.515625 -0.453125 5.328125 -0.691406 5.203125 -0.984375 L 4.609375 -2.390625 L 1.8125 -2.390625 L 1.046875 -0.53125 L 1.921875 -0.171875 L 1.921875 0 L -0.234375 0 Z M 1.9375 -2.6875 L 4.484375 -2.6875 L 3.203125 -5.75 Z M 1.9375 -2.6875 "/></g></g></g><g fill="#000000" fill-opacity="1"><g transform="translate(119.577615, 69.845698)"><g/></g></g><g fill="#000000" fill-opacity="1"><g transform="translate(124.496028, 69.845698)"><g><path d="M 0.578125 -0.171875 L 1.28125 -0.34375 L 1.28125 -7.8125 L 0.578125 -7.984375 L 0.578125 -8.15625 L 3.84375 -8.15625 C 5.132812 -8.15625 6.054688 -7.941406 6.609375 -7.515625 C 7.171875 -7.097656 7.453125 -6.476562 7.453125 -5.65625 C 7.453125 -4.832031 7.171875 -4.207031 6.609375 -3.78125 C 6.054688 -3.351562 5.132812 -3.140625 3.84375 -3.140625 L 3.203125 -3.140625 L 3.203125 -0.34375 L 3.90625 -0.171875 L 3.90625 0 L 0.578125 0 Z M 3.84375 -3.4375 C 4.332031 -3.4375 4.726562 -3.625 5.03125 -4 C 5.332031 -4.375 5.484375 -4.925781 5.484375 -5.65625 C 5.484375 -6.375 5.332031 -6.921875 5.03125 -7.296875 C 4.726562 -7.679688 4.332031 -7.875 3.84375 -7.875 L 3.203125 -7.875 L 3.203125 -3.4375 Z M 3.84375 -3.4375 "/></g></g></g><g fill="#000000" fill-opacity="1"><g transform="translate(134.017523, 69.845698)"><g><path d="M 0.578125 -0.171875 L 1.28125 -0.34375 L 1.28125 -7.8125 L 0.578125 -7.984375 L 0.578125 -8.15625 L 3.671875 -8.15625 C 4.992188 -8.15625 5.945312 -7.953125 6.53125 -7.546875 C 7.113281 -7.148438 7.40625 -6.597656 7.40625 -5.890625 C 7.40625 -5.398438 7.273438 -5.003906 7.015625 -4.703125 C 6.753906 -4.410156 6.425781 -4.191406 6.03125 -4.046875 C 5.601562 -3.878906 5.144531 -3.789062 4.65625 -3.78125 L 4.65625 -3.734375 C 4.945312 -3.710938 5.203125 -3.671875 5.421875 -3.609375 C 5.960938 -3.429688 6.332031 -3.125 6.53125 -2.6875 L 7.578125 -0.34375 L 8.15625 -0.171875 L 8.15625 0 L 6.53125 0 C 5.894531 0 5.425781 -0.328125 5.125 -0.984375 L 3.96875 -3.609375 L 3.203125 -3.609375 L 3.203125 -0.34375 L 4.015625 -0.171875 L 4.015625 0 L 0.578125 0 Z M 3.671875 -3.90625 C 4.210938 -3.90625 4.640625 -4.078125 4.953125 -4.421875 C 5.265625 -4.765625 5.421875 -5.253906 5.421875 -5.890625 C 5.421875 -6.523438 5.265625 -7.015625 4.953125 -7.359375 C 4.640625 -7.703125 4.210938 -7.875 3.671875 -7.875 L 3.203125 -7.875 L 3.203125 -3.90625 Z M 3.671875 -3.90625 "/></g></g></g><g fill="#000000" fill-opacity="1"><g transform="translate(143.83035, 69.845698)"><g><path d="M 0.578125 -0.171875 L 1.28125 -0.34375 L 1.28125 -7.8125 L 0.578125 -7.984375 L 0.578125 -8.15625 L 6.8125 -8.15625 L 6.8125 -6.0625 L 6.46875 -6.0625 C 6.320312 -6.175781 6.191406 -6.320312 6.078125 -6.5 C 5.835938 -6.925781 5.71875 -7.382812 5.71875 -7.875 L 3.203125 -7.875 L 3.203125 -4.203125 L 4.546875 -4.203125 C 4.597656 -4.492188 4.695312 -4.769531 4.84375 -5.03125 C 4.90625 -5.144531 4.984375 -5.253906 5.078125 -5.359375 L 5.421875 -5.359375 L 5.421875 -2.734375 L 5.078125 -2.734375 C 4.984375 -2.847656 4.90625 -2.960938 4.84375 -3.078125 C 4.695312 -3.335938 4.597656 -3.613281 4.546875 -3.90625 L 3.203125 -3.90625 L 3.203125 -0.296875 L 5.9375 -0.296875 C 5.9375 -0.785156 6.0625 -1.238281 6.3125 -1.65625 C 6.425781 -1.832031 6.554688 -1.976562 6.703125 -2.09375 L 7.046875 -2.09375 L 7.046875 0 L 0.578125 0 Z M 0.578125 -0.171875 "/></g></g></g><g fill="#000000" fill-opacity="1"><g transform="translate(153.002242, 69.845698)"><g><path d="M 3.4375 0.171875 C 2.882812 0.171875 2.367188 0.046875 1.890625 -0.203125 C 1.671875 -0.304688 1.488281 -0.429688 1.34375 -0.578125 C 1.226562 -0.398438 1.09375 -0.242188 0.9375 -0.109375 C 0.789062 -0.00390625 0.710938 0.0507812 0.703125 0.0625 L 0.40625 0.0625 L 0.40625 -2.15625 L 0.875 -2.15625 C 0.988281 -1.769531 1.148438 -1.425781 1.359375 -1.125 C 1.835938 -0.445312 2.453125 -0.109375 3.203125 -0.109375 C 3.648438 -0.109375 4.003906 -0.238281 4.265625 -0.5 C 4.523438 -0.769531 4.65625 -1.128906 4.65625 -1.578125 C 4.65625 -1.828125 4.578125 -2.050781 4.421875 -2.25 C 4.273438 -2.457031 4.085938 -2.640625 3.859375 -2.796875 C 3.640625 -2.953125 3.328125 -3.144531 2.921875 -3.375 C 2.410156 -3.664062 1.992188 -3.925781 1.671875 -4.15625 C 1.359375 -4.394531 1.085938 -4.691406 0.859375 -5.046875 C 0.640625 -5.398438 0.53125 -5.816406 0.53125 -6.296875 C 0.53125 -6.671875 0.632812 -7.007812 0.84375 -7.3125 C 1.0625 -7.625 1.382812 -7.867188 1.8125 -8.046875 C 2.238281 -8.234375 2.757812 -8.328125 3.375 -8.328125 C 3.832031 -8.328125 4.285156 -8.203125 4.734375 -7.953125 C 4.898438 -7.859375 5.070312 -7.734375 5.25 -7.578125 C 5.375 -7.773438 5.507812 -7.929688 5.65625 -8.046875 C 5.789062 -8.148438 5.867188 -8.207031 5.890625 -8.21875 L 6.171875 -8.21875 L 6.171875 -6 L 5.71875 -6 C 5.613281 -6.375 5.457031 -6.710938 5.25 -7.015625 C 5.070312 -7.304688 4.84375 -7.550781 4.5625 -7.75 C 4.289062 -7.945312 3.972656 -8.046875 3.609375 -8.046875 C 3.304688 -8.046875 3.046875 -7.921875 2.828125 -7.671875 C 2.609375 -7.429688 2.5 -7.128906 2.5 -6.765625 C 2.5 -6.472656 2.582031 -6.210938 2.75 -5.984375 C 2.914062 -5.753906 3.117188 -5.550781 3.359375 -5.375 C 3.609375 -5.207031 3.945312 -5.003906 4.375 -4.765625 C 4.863281 -4.484375 5.257812 -4.234375 5.5625 -4.015625 C 5.863281 -3.796875 6.117188 -3.523438 6.328125 -3.203125 C 6.535156 -2.890625 6.640625 -2.519531 6.640625 -2.09375 C 6.640625 -1.675781 6.519531 -1.296875 6.28125 -0.953125 C 6.039062 -0.609375 5.675781 -0.332031 5.1875 -0.125 C 4.707031 0.0703125 4.125 0.171875 3.4375 0.171875 Z M 3.4375 0.171875 "/></g></g></g><g fill="#000000" fill-opacity="1"><g transform="translate(161.59147, 69.845698)"><g><path d="M 0.578125 -0.171875 L 1.28125 -0.34375 L 1.28125 -7.8125 L 0.578125 -7.984375 L 0.578125 -8.15625 L 3.734375 -8.15625 C 4.910156 -8.15625 5.773438 -7.96875 6.328125 -7.59375 C 6.890625 -7.21875 7.171875 -6.726562 7.171875 -6.125 C 7.171875 -5.695312 7.050781 -5.351562 6.8125 -5.09375 C 6.570312 -4.84375 6.265625 -4.65625 5.890625 -4.53125 C 5.492188 -4.394531 5.066406 -4.320312 4.609375 -4.3125 L 4.609375 -4.25 C 5.171875 -4.226562 5.660156 -4.144531 6.078125 -4 C 6.503906 -3.851562 6.859375 -3.632812 7.140625 -3.34375 C 7.429688 -3.050781 7.578125 -2.675781 7.578125 -2.21875 C 7.578125 -1.519531 7.289062 -0.972656 6.71875 -0.578125 C 6.15625 -0.191406 5.238281 0 3.96875 0 L 0.578125 0 Z M 3.734375 -4.421875 C 3.984375 -4.421875 4.21875 -4.492188 4.4375 -4.640625 C 4.664062 -4.785156 4.847656 -4.988281 4.984375 -5.25 C 5.117188 -5.507812 5.1875 -5.800781 5.1875 -6.125 C 5.1875 -6.457031 5.117188 -6.753906 4.984375 -7.015625 C 4.847656 -7.285156 4.664062 -7.492188 4.4375 -7.640625 C 4.21875 -7.796875 3.984375 -7.875 3.734375 -7.875 L 3.203125 -7.875 L 3.203125 -4.421875 Z M 3.96875 -0.296875 C 4.445312 -0.296875 4.835938 -0.460938 5.140625 -0.796875 C 5.441406 -1.140625 5.59375 -1.613281 5.59375 -2.21875 C 5.59375 -2.8125 5.441406 -3.28125 5.140625 -3.625 C 4.835938 -3.96875 4.445312 -4.140625 3.96875 -4.140625 L 3.203125 -4.140625 L 3.203125 -0.296875 Z M 3.96875 -0.296875 "/></g></g></g><g fill="#000000" fill-opacity="1"><g transform="translate(171.171237, 69.845698)"><g><path d="M 0.578125 0 L 0.578125 -0.171875 L 1.28125 -0.34375 L 1.28125 -7.8125 L 0.578125 -7.984375 L 0.578125 -8.15625 L 3.90625 -8.15625 L 3.90625 -7.984375 L 3.203125 -7.8125 L 3.203125 -0.34375 L 3.90625 -0.171875 L 3.90625 0 Z M 0.578125 0 "/></g></g></g><g fill="#000000" fill-opacity="1"><g transform="translate(177.313258, 69.845698)"><g><path d="M 2.046875 -0.171875 L 2.734375 -0.34375 L 2.734375 -7.875 L 1.40625 -7.875 C 1.40625 -7.394531 1.273438 -6.9375 1.015625 -6.5 C 0.898438 -6.320312 0.773438 -6.175781 0.640625 -6.0625 L 0.296875 -6.0625 L 0.296875 -8.15625 L 7.109375 -8.15625 L 7.109375 -6.0625 L 6.765625 -6.0625 C 6.617188 -6.175781 6.488281 -6.320312 6.375 -6.5 C 6.125 -6.925781 6 -7.382812 6 -7.875 L 4.65625 -7.875 L 4.65625 -0.34375 L 5.359375 -0.171875 L 5.359375 0 L 2.046875 0 Z M 2.046875 -0.171875 "/></g></g></g><g fill="#000000" fill-opacity="1"><g transform="translate(186.368624, 69.845698)"><g><path d="M 0.578125 -0.171875 L 1.28125 -0.34375 L 1.28125 -7.8125 L 0.578125 -7.984375 L 0.578125 -8.15625 L 6.8125 -8.15625 L 6.8125 -6.0625 L 6.46875 -6.0625 C 6.320312 -6.175781 6.191406 -6.320312 6.078125 -6.5 C 5.835938 -6.925781 5.71875 -7.382812 5.71875 -7.875 L 3.203125 -7.875 L 3.203125 -4.203125 L 4.546875 -4.203125 C 4.597656 -4.492188 4.695312 -4.769531 4.84375 -5.03125 C 4.90625 -5.144531 4.984375 -5.253906 5.078125 -5.359375 L 5.421875 -5.359375 L 5.421875 -2.734375 L 5.078125 -2.734375 C 4.984375 -2.847656 4.90625 -2.960938 4.84375 -3.078125 C 4.695312 -3.335938 4.597656 -3.613281 4.546875 -3.90625 L 3.203125 -3.90625 L 3.203125 -0.296875 L 5.9375 -0.296875 C 5.9375 -0.785156 6.0625 -1.238281 6.3125 -1.65625 C 6.425781 -1.832031 6.554688 -1.976562 6.703125 -2.09375 L 7.046875 -2.09375 L 7.046875 0 L 0.578125 0 Z M 0.578125 -0.171875 "/></g></g></g><g fill="#000000" fill-opacity="1"><g transform="translate(195.540516, 69.845698)"><g><path d="M 0.578125 -0.171875 L 1.28125 -0.34375 L 1.28125 -7.8125 L 0.578125 -7.984375 L 0.578125 -8.15625 L 3.671875 -8.15625 C 4.992188 -8.15625 5.945312 -7.953125 6.53125 -7.546875 C 7.113281 -7.148438 7.40625 -6.597656 7.40625 -5.890625 C 7.40625 -5.398438 7.273438 -5.003906 7.015625 -4.703125 C 6.753906 -4.410156 6.425781 -4.191406 6.03125 -4.046875 C 5.601562 -3.878906 5.144531 -3.789062 4.65625 -3.78125 L 4.65625 -3.734375 C 4.945312 -3.710938 5.203125 -3.671875 5.421875 -3.609375 C 5.960938 -3.429688 6.332031 -3.125 6.53125 -2.6875 L 7.578125 -0.34375 L 8.15625 -0.171875 L 8.15625 0 L 6.53125 0 C 5.894531 0 5.425781 -0.328125 5.125 -0.984375 L 3.96875 -3.609375 L 3.203125 -3.609375 L 3.203125 -0.34375 L 4.015625 -0.171875 L 4.015625 0 L 0.578125 0 Z M 3.671875 -3.90625 C 4.210938 -3.90625 4.640625 -4.078125 4.953125 -4.421875 C 5.265625 -4.765625 5.421875 -5.253906 5.421875 -5.890625 C 5.421875 -6.523438 5.265625 -7.015625 4.953125 -7.359375 C 4.640625 -7.703125 4.210938 -7.875 3.671875 -7.875 L 3.203125 -7.875 L 3.203125 -3.90625 Z M 3.671875 -3.90625 "/></g></g></g><g fill="#000000" fill-opacity="1"><g transform="translate(205.353343, 69.845698)"><g><path d="M 0.578125 0 L 0.578125 -0.171875 L 1.28125 -0.34375 L 1.28125 -7.8125 L 0.578125 -7.984375 L 0.578125 -8.15625 L 3.90625 -8.15625 L 3.90625 -7.984375 L 3.203125 -7.8125 L 3.203125 -0.34375 L 3.90625 -0.171875 L 3.90625 0 Z M 0.578125 0 "/></g></g></g><g fill="#000000" fill-opacity="1"><g transform="translate(211.495364, 69.845698)"><g><path d="M -0.234375 -0.171875 L 0.703125 -0.53125 L 3.90625 -8.28125 L 4.25 -8.28125 L 7.578125 -0.34375 L 8.15625 -0.171875 L 8.15625 0 L 6.765625 0 C 6.359375 0 6.023438 -0.0859375 5.765625 -0.265625 C 5.515625 -0.453125 5.328125 -0.691406 5.203125 -0.984375 L 4.609375 -2.390625 L 1.8125 -2.390625 L 1.046875 -0.53125 L 1.921875 -0.171875 L 1.921875 0 L -0.234375 0 Z M 1.9375 -2.6875 L 4.484375 -2.6875 L 3.203125 -5.75 Z M 1.9375 -2.6875 "/></g></g></g><g fill="#000000" fill-opacity="1"><g transform="translate(221.075131, 69.845698)"><g><path d="M 1.625 -6.171875 L 1.625 -0.53125 L 2.5625 -0.171875 L 2.5625 0 L 0.34375 0 L 0.34375 -0.171875 L 1.28125 -0.53125 L 1.28125 -7.75 L 0.46875 -7.984375 L 0.46875 -8.15625 L 1.6875 -8.15625 C 2.101562 -8.15625 2.425781 -8.082031 2.65625 -7.9375 C 2.882812 -7.789062 3.109375 -7.59375 3.328125 -7.34375 L 7.046875 -2.96875 L 7.046875 -7.640625 L 6.125 -7.984375 L 6.125 -8.15625 L 8.328125 -8.15625 L 8.328125 -7.984375 L 7.40625 -7.640625 L 7.40625 0.171875 L 7.046875 0.171875 Z M 1.625 -6.171875 "/></g></g></g><g fill="#000000" fill-opacity="1"><g transform="translate(231.354086, 69.845698)"><g><path d="M -0.234375 -0.171875 L 0.703125 -0.53125 L 3.90625 -8.28125 L 4.25 -8.28125 L 7.578125 -0.34375 L 8.15625 -0.171875 L 8.15625 0 L 6.765625 0 C 6.359375 0 6.023438 -0.0859375 5.765625 -0.265625 C 5.515625 -0.453125 5.328125 -0.691406 5.203125 -0.984375 L 4.609375 -2.390625 L 1.8125 -2.390625 L 1.046875 -0.53125 L 1.921875 -0.171875 L 1.921875 0 L -0.234375 0 Z M 1.9375 -2.6875 L 4.484375 -2.6875 L 3.203125 -5.75 Z M 1.9375 -2.6875 "/></g></g></g></svg>